<?xml version="1.0" encoding="UTF-8" standalone="no"?>
<!DOCTYPE svg PUBLIC "-//W3C//DTD SVG 1.1//EN"
 "http://www.w3.org/Graphics/SVG/1.1/DTD/svg11.dtd">
<!-- Generated by graphviz version 2.36.0 (20140111.2315)
 -->
<!-- Title: Nhdc12832 Pages: 1 -->
<svg width="116pt" height="468pt"
 viewBox="0.00 0.00 116.00 468.00" xmlns="http://www.w3.org/2000/svg" xmlns:xlink="http://www.w3.org/1999/xlink">
<g id="graph0" class="graph" transform="scale(1 1) rotate(0) translate(4 464)">
<title>Nhdc12832</title>
<!-- Node1 -->
<g id="node1" class="node"><title>Node1</title>
<polygon fill="#bfbfbf" stroke="black" points="-0.838379,-93 -0.838379,-237 108.838,-237 108.838,-93 -0.838379,-93"/>
<text text-anchor="middle" x="54" y="-225" font-family="Helvetica,sans-Serif" font-size="10.00">Nhdc12832</text>
<polyline fill="none" stroke="black" points="-0.838379,-219 108.838,-219 "/>
<text text-anchor="middle" x="54" y="-207" font-family="Helvetica,sans-Serif" font-size="10.00"> </text>
<polyline fill="none" stroke="black" points="-0.838379,-201 108.838,-201 "/>
<text text-anchor="start" x="7.16162" y="-189" font-family="Helvetica,sans-Serif" font-size="10.00">+ Nhdc12832()</text>
<text text-anchor="start" x="7.16162" y="-179" font-family="Helvetica,sans-Serif" font-size="10.00">+ init()</text>
<text text-anchor="start" x="7.16162" y="-169" font-family="Helvetica,sans-Serif" font-size="10.00">+ refresh()</text>
<text text-anchor="start" x="7.16162" y="-159" font-family="Helvetica,sans-Serif" font-size="10.00">+ clear()</text>
<text text-anchor="start" x="7.16162" y="-149" font-family="Helvetica,sans-Serif" font-size="10.00">+ setpixel()</text>
<text text-anchor="start" x="7.16162" y="-139" font-family="Helvetica,sans-Serif" font-size="10.00">+ clrpixel()</text>
<text text-anchor="start" x="7.16162" y="-129" font-family="Helvetica,sans-Serif" font-size="10.00">+ tstpixel()</text>
<text text-anchor="start" x="7.16162" y="-119" font-family="Helvetica,sans-Serif" font-size="10.00">+ tstpixel_bounded()</text>
<text text-anchor="start" x="7.16162" y="-109" font-family="Helvetica,sans-Serif" font-size="10.00">+ setpixel_bounded()</text>
<text text-anchor="start" x="7.16162" y="-99" font-family="Helvetica,sans-Serif" font-size="10.00">+ clrpixel_bounded()</text>
</g>
<!-- Node3 -->
<g id="node3" class="node"><title>Node3</title>
<g id="a_node3"><a xlink:href="class_exp_lcd_device.html" target="_top" xlink:title="CoAction Hero LCD Expansion board class. ">
<polygon fill="none" stroke="black" points="6.40039,-1 6.40039,-55 101.6,-55 101.6,-1 6.40039,-1"/>
<text text-anchor="middle" x="54" y="-43" font-family="Helvetica,sans-Serif" font-size="10.00">ExpLcdDevice</text>
<polyline fill="none" stroke="black" points="6.40039,-37 101.6,-37 "/>
<text text-anchor="middle" x="54" y="-25" font-family="Helvetica,sans-Serif" font-size="10.00"> </text>
<polyline fill="none" stroke="black" points="6.40039,-19 101.6,-19 "/>
<text text-anchor="start" x="14.4004" y="-7" font-family="Helvetica,sans-Serif" font-size="10.00">+ ExpLcdDevice()</text>
</a>
</g>
</g>
<!-- Node1&#45;&gt;Node3 -->
<g id="edge2" class="edge"><title>Node1&#45;&gt;Node3</title>
<path fill="none" stroke="midnightblue" d="M54,-82.911C54,-72.9829 54,-63.464 54,-55.2621"/>
<polygon fill="none" stroke="midnightblue" points="50.5001,-82.9419 54,-92.9419 57.5001,-82.9419 50.5001,-82.9419"/>
</g>
<!-- Node2 -->
<g id="node2" class="node"><title>Node2</title>
<g id="a_node2"><a xlink:href="class_m_lcd.html" target="_top" xlink:title="Monochrome LCD. ">
<polygon fill="none" stroke="black" points="13.7588,-275 13.7588,-459 94.2412,-459 94.2412,-275 13.7588,-275"/>
<text text-anchor="middle" x="54" y="-447" font-family="Helvetica,sans-Serif" font-size="10.00">MLcd</text>
<polyline fill="none" stroke="black" points="13.7588,-441 94.2412,-441 "/>
<text text-anchor="start" x="21.7588" y="-429" font-family="Helvetica,sans-Serif" font-size="10.00">+ mask</text>
<text text-anchor="start" x="21.7588" y="-419" font-family="Helvetica,sans-Serif" font-size="10.00">+ rot_sin</text>
<text text-anchor="start" x="21.7588" y="-409" font-family="Helvetica,sans-Serif" font-size="10.00">+ rot_cos</text>
<text text-anchor="start" x="21.7588" y="-399" font-family="Helvetica,sans-Serif" font-size="10.00"># attr</text>
<polyline fill="none" stroke="black" points="13.7588,-393 94.2412,-393 "/>
<text text-anchor="start" x="21.7588" y="-381" font-family="Helvetica,sans-Serif" font-size="10.00">+ MLcd()</text>
<text text-anchor="start" x="21.7588" y="-371" font-family="Helvetica,sans-Serif" font-size="10.00">+ MLcd()</text>
<text text-anchor="start" x="21.7588" y="-361" font-family="Helvetica,sans-Serif" font-size="10.00">+ setfont()</text>
<text text-anchor="start" x="21.7588" y="-351" font-family="Helvetica,sans-Serif" font-size="10.00">+ setchar()</text>
<text text-anchor="start" x="21.7588" y="-341" font-family="Helvetica,sans-Serif" font-size="10.00">+ clrchar()</text>
<text text-anchor="start" x="21.7588" y="-331" font-family="Helvetica,sans-Serif" font-size="10.00">+ setstr()</text>
<text text-anchor="start" x="21.7588" y="-321" font-family="Helvetica,sans-Serif" font-size="10.00">+ clrstr()</text>
<text text-anchor="start" x="21.7588" y="-311" font-family="Helvetica,sans-Serif" font-size="10.00">+ sethfill()</text>
<text text-anchor="start" x="21.7588" y="-301" font-family="Helvetica,sans-Serif" font-size="10.00">+ setvfill()</text>
<text text-anchor="start" x="21.7588" y="-291" font-family="Helvetica,sans-Serif" font-size="10.00">+ setbitmap()</text>
<text text-anchor="start" x="21.7588" y="-281" font-family="Helvetica,sans-Serif" font-size="10.00">and 36 more...</text>
</a>
</g>
</g>
<!-- Node2&#45;&gt;Node1 -->
<g id="edge1" class="edge"><title>Node2&#45;&gt;Node1</title>
<path fill="none" stroke="midnightblue" d="M54,-264.656C54,-255.319 54,-245.998 54,-237.017"/>
<polygon fill="none" stroke="midnightblue" points="50.5001,-264.779 54,-274.779 57.5001,-264.779 50.5001,-264.779"/>
</g>
</g>
</svg>
