<?xml version="1.0" encoding="UTF-8" standalone="no"?>
<!DOCTYPE svg PUBLIC "-//W3C//DTD SVG 1.1//EN"
 "http://www.w3.org/Graphics/SVG/1.1/DTD/svg11.dtd">
<!-- Generated by graphviz version 2.36.0 (20140111.2315)
 -->
<!-- Title: Periph Pages: 1 -->
<svg width="558pt" height="820pt"
 viewBox="0.00 0.00 558.00 820.00" xmlns="http://www.w3.org/2000/svg" xmlns:xlink="http://www.w3.org/1999/xlink">
<g id="graph0" class="graph" transform="scale(1 1) rotate(0) translate(4 816)">
<title>Periph</title>
<!-- Node1 -->
<g id="node1" class="node"><title>Node1</title>
<polygon fill="#bfbfbf" stroke="black" points="249.57,-475 249.57,-679 316.43,-679 316.43,-475 249.57,-475"/>
<text text-anchor="middle" x="283" y="-667" font-family="Helvetica,sans-Serif" font-size="10.00">Periph</text>
<polyline fill="none" stroke="black" points="249.57,-661 316.43,-661 "/>
<text text-anchor="start" x="257.57" y="-649" font-family="Helvetica,sans-Serif" font-size="10.00"># port_</text>
<text text-anchor="start" x="257.57" y="-639" font-family="Helvetica,sans-Serif" font-size="10.00"># fd</text>
<polyline fill="none" stroke="black" points="249.57,-633 316.43,-633 "/>
<text text-anchor="start" x="257.57" y="-621" font-family="Helvetica,sans-Serif" font-size="10.00">+ Periph()</text>
<text text-anchor="start" x="257.57" y="-611" font-family="Helvetica,sans-Serif" font-size="10.00">+ open()</text>
<text text-anchor="start" x="257.57" y="-601" font-family="Helvetica,sans-Serif" font-size="10.00">+ open()</text>
<text text-anchor="start" x="257.57" y="-591" font-family="Helvetica,sans-Serif" font-size="10.00">+ setflags()</text>
<text text-anchor="start" x="257.57" y="-581" font-family="Helvetica,sans-Serif" font-size="10.00">+ read()</text>
<text text-anchor="start" x="257.57" y="-571" font-family="Helvetica,sans-Serif" font-size="10.00">+ readline()</text>
<text text-anchor="start" x="257.57" y="-561" font-family="Helvetica,sans-Serif" font-size="10.00">+ write()</text>
<text text-anchor="start" x="257.57" y="-551" font-family="Helvetica,sans-Serif" font-size="10.00">+ write()</text>
<text text-anchor="start" x="257.57" y="-541" font-family="Helvetica,sans-Serif" font-size="10.00">+ close()</text>
<text text-anchor="start" x="257.57" y="-531" font-family="Helvetica,sans-Serif" font-size="10.00">+ read()</text>
<text text-anchor="start" x="257.57" y="-521" font-family="Helvetica,sans-Serif" font-size="10.00">+ write()</text>
<text text-anchor="start" x="257.57" y="-511" font-family="Helvetica,sans-Serif" font-size="10.00">+ fileno()</text>
<text text-anchor="start" x="257.57" y="-501" font-family="Helvetica,sans-Serif" font-size="10.00">+ ioctl()</text>
<text text-anchor="start" x="257.57" y="-491" font-family="Helvetica,sans-Serif" font-size="10.00">+ port()</text>
<text text-anchor="start" x="257.57" y="-481" font-family="Helvetica,sans-Serif" font-size="10.00"># _open()</text>
</g>
<!-- Node3 -->
<g id="node3" class="node"><title>Node3</title>
<g id="a_node3"><a xlink:href="class_core.html" target="_top" xlink:title="Core Class. ">
<polygon fill="none" stroke="black" points="-0.722656,-263 -0.722656,-417 106.723,-417 106.723,-263 -0.722656,-263"/>
<text text-anchor="middle" x="53" y="-405" font-family="Helvetica,sans-Serif" font-size="10.00">Core</text>
<polyline fill="none" stroke="black" points="-0.722656,-399 106.723,-399 "/>
<text text-anchor="middle" x="53" y="-387" font-family="Helvetica,sans-Serif" font-size="10.00"> </text>
<polyline fill="none" stroke="black" points="-0.722656,-381 106.723,-381 "/>
<text text-anchor="start" x="7.27734" y="-369" font-family="Helvetica,sans-Serif" font-size="10.00">+ Core()</text>
<text text-anchor="start" x="7.27734" y="-359" font-family="Helvetica,sans-Serif" font-size="10.00">+ open()</text>
<text text-anchor="start" x="7.27734" y="-349" font-family="Helvetica,sans-Serif" font-size="10.00">+ getattr()</text>
<text text-anchor="start" x="7.27734" y="-339" font-family="Helvetica,sans-Serif" font-size="10.00">+ setattr()</text>
<text text-anchor="start" x="7.27734" y="-329" font-family="Helvetica,sans-Serif" font-size="10.00">+ setpinfunc()</text>
<text text-anchor="start" x="7.27734" y="-319" font-family="Helvetica,sans-Serif" font-size="10.00">+ sleep()</text>
<text text-anchor="start" x="7.27734" y="-309" font-family="Helvetica,sans-Serif" font-size="10.00">+ reset()</text>
<text text-anchor="start" x="7.27734" y="-299" font-family="Helvetica,sans-Serif" font-size="10.00">+ invokebootloader()</text>
<text text-anchor="start" x="7.27734" y="-289" font-family="Helvetica,sans-Serif" font-size="10.00">+ setirqprio()</text>
<text text-anchor="start" x="7.27734" y="-279" font-family="Helvetica,sans-Serif" font-size="10.00">+ setclkout()</text>
<text text-anchor="start" x="7.27734" y="-269" font-family="Helvetica,sans-Serif" font-size="10.00">+ getports()</text>
</a>
</g>
</g>
<!-- Node1&#45;&gt;Node3 -->
<g id="edge2" class="edge"><title>Node1&#45;&gt;Node3</title>
<path fill="none" stroke="midnightblue" d="M241.083,-547.335C205.053,-521.421 153.043,-480.86 115,-438 109.229,-431.498 103.628,-424.405 98.308,-417.109"/>
<polygon fill="none" stroke="midnightblue" points="239.249,-550.327 249.424,-553.279 243.311,-544.626 239.249,-550.327"/>
</g>
<!-- Node4 -->
<g id="node4" class="node"><title>Node4</title>
<g id="a_node4"><a xlink:href="class_eint.html" target="_top" xlink:title="External Interrupt Class. ">
<polygon fill="none" stroke="black" points="124.349,-263 124.349,-417 195.651,-417 195.651,-263 124.349,-263"/>
<text text-anchor="middle" x="160" y="-405" font-family="Helvetica,sans-Serif" font-size="10.00">Eint</text>
<polyline fill="none" stroke="black" points="124.349,-399 195.651,-399 "/>
<text text-anchor="middle" x="160" y="-387" font-family="Helvetica,sans-Serif" font-size="10.00"> </text>
<polyline fill="none" stroke="black" points="124.349,-381 195.651,-381 "/>
<text text-anchor="start" x="132.349" y="-369" font-family="Helvetica,sans-Serif" font-size="10.00">+ Eint()</text>
<text text-anchor="start" x="132.349" y="-359" font-family="Helvetica,sans-Serif" font-size="10.00">+ open()</text>
<text text-anchor="start" x="132.349" y="-349" font-family="Helvetica,sans-Serif" font-size="10.00">+ getattr()</text>
<text text-anchor="start" x="132.349" y="-339" font-family="Helvetica,sans-Serif" font-size="10.00">+ setattr()</text>
<text text-anchor="start" x="132.349" y="-329" font-family="Helvetica,sans-Serif" font-size="10.00">+ setaction()</text>
<text text-anchor="start" x="132.349" y="-319" font-family="Helvetica,sans-Serif" font-size="10.00">+ value()</text>
<text text-anchor="start" x="132.349" y="-309" font-family="Helvetica,sans-Serif" font-size="10.00">+ get()</text>
<text text-anchor="start" x="132.349" y="-299" font-family="Helvetica,sans-Serif" font-size="10.00">+ setaction()</text>
<text text-anchor="start" x="132.349" y="-289" font-family="Helvetica,sans-Serif" font-size="10.00">+ setattr()</text>
<text text-anchor="start" x="132.349" y="-279" font-family="Helvetica,sans-Serif" font-size="10.00">+ init()</text>
<text text-anchor="start" x="132.349" y="-269" font-family="Helvetica,sans-Serif" font-size="10.00">+ getports()</text>
</a>
</g>
</g>
<!-- Node1&#45;&gt;Node4 -->
<g id="edge3" class="edge"><title>Node1&#45;&gt;Node4</title>
<path fill="none" stroke="midnightblue" d="M244.301,-511.319C231.046,-488.416 216.432,-462.3 204,-438 200.547,-431.25 197.071,-424.175 193.669,-417.051"/>
<polygon fill="none" stroke="midnightblue" points="241.447,-513.373 249.5,-520.258 247.498,-509.854 241.447,-513.373"/>
</g>
<!-- Node5 -->
<g id="node5" class="node"><title>Node5</title>
<g id="a_node5"><a xlink:href="class_pblock.html" target="_top" xlink:title="Peripheral Block Class. ">
<polygon fill="none" stroke="black" points="213.354,-303 213.354,-377 274.646,-377 274.646,-303 213.354,-303"/>
<text text-anchor="middle" x="244" y="-365" font-family="Helvetica,sans-Serif" font-size="10.00">Pblock</text>
<polyline fill="none" stroke="black" points="213.354,-359 274.646,-359 "/>
<text text-anchor="middle" x="244" y="-347" font-family="Helvetica,sans-Serif" font-size="10.00"> </text>
<polyline fill="none" stroke="black" points="213.354,-341 274.646,-341 "/>
<text text-anchor="start" x="221.354" y="-329" font-family="Helvetica,sans-Serif" font-size="10.00">+ Pblock()</text>
<text text-anchor="start" x="221.354" y="-319" font-family="Helvetica,sans-Serif" font-size="10.00">+ read()</text>
<text text-anchor="start" x="221.354" y="-309" font-family="Helvetica,sans-Serif" font-size="10.00">+ write()</text>
</a>
</g>
</g>
<!-- Node1&#45;&gt;Node5 -->
<g id="edge4" class="edge"><title>Node1&#45;&gt;Node5</title>
<path fill="none" stroke="midnightblue" d="M264.533,-464.726C259.277,-433.056 253.921,-400.782 249.998,-377.14"/>
<polygon fill="none" stroke="midnightblue" points="261.144,-465.683 266.234,-474.975 268.05,-464.537 261.144,-465.683"/>
</g>
<!-- Node11 -->
<g id="node11" class="node"><title>Node11</title>
<g id="a_node11"><a xlink:href="class_pchar.html" target="_top" xlink:title="Peripheral Character Class. ">
<polygon fill="none" stroke="red" points="292.627,-308 292.627,-372 353.373,-372 353.373,-308 292.627,-308"/>
<text text-anchor="middle" x="323" y="-360" font-family="Helvetica,sans-Serif" font-size="10.00">Pchar</text>
<polyline fill="none" stroke="red" points="292.627,-354 353.373,-354 "/>
<text text-anchor="middle" x="323" y="-342" font-family="Helvetica,sans-Serif" font-size="10.00"> </text>
<polyline fill="none" stroke="red" points="292.627,-336 353.373,-336 "/>
<text text-anchor="start" x="300.627" y="-324" font-family="Helvetica,sans-Serif" font-size="10.00">+ Pchar()</text>
<text text-anchor="start" x="300.627" y="-314" font-family="Helvetica,sans-Serif" font-size="10.00">+ getline()</text>
</a>
</g>
</g>
<!-- Node1&#45;&gt;Node11 -->
<g id="edge10" class="edge"><title>Node1&#45;&gt;Node11</title>
<path fill="none" stroke="midnightblue" d="M301.904,-464.94C307.69,-430.946 313.599,-396.23 317.686,-372.221"/>
<polygon fill="none" stroke="midnightblue" points="298.423,-464.529 300.196,-474.975 305.324,-465.704 298.423,-464.529"/>
</g>
<!-- Node13 -->
<g id="node13" class="node"><title>Node13</title>
<g id="a_node13"><a xlink:href="class_pio.html" target="_top" xlink:title="Pin Input/Output Class. ">
<polygon fill="none" stroke="red" points="371.79,-243 371.79,-437 444.21,-437 444.21,-243 371.79,-243"/>
<text text-anchor="middle" x="408" y="-425" font-family="Helvetica,sans-Serif" font-size="10.00">Pio</text>
<polyline fill="none" stroke="red" points="371.79,-419 444.21,-419 "/>
<text text-anchor="middle" x="408" y="-407" font-family="Helvetica,sans-Serif" font-size="10.00"> </text>
<polyline fill="none" stroke="red" points="371.79,-401 444.21,-401 "/>
<text text-anchor="start" x="379.79" y="-389" font-family="Helvetica,sans-Serif" font-size="10.00">+ Pio()</text>
<text text-anchor="start" x="379.79" y="-379" font-family="Helvetica,sans-Serif" font-size="10.00">+ open()</text>
<text text-anchor="start" x="379.79" y="-369" font-family="Helvetica,sans-Serif" font-size="10.00">+ getattr()</text>
<text text-anchor="start" x="379.79" y="-359" font-family="Helvetica,sans-Serif" font-size="10.00">+ setattr()</text>
<text text-anchor="start" x="379.79" y="-349" font-family="Helvetica,sans-Serif" font-size="10.00">+ setaction()</text>
<text text-anchor="start" x="379.79" y="-339" font-family="Helvetica,sans-Serif" font-size="10.00">+ setmask()</text>
<text text-anchor="start" x="379.79" y="-329" font-family="Helvetica,sans-Serif" font-size="10.00">+ clrmask()</text>
<text text-anchor="start" x="379.79" y="-319" font-family="Helvetica,sans-Serif" font-size="10.00">+ get()</text>
<text text-anchor="start" x="379.79" y="-309" font-family="Helvetica,sans-Serif" font-size="10.00">+ value()</text>
<text text-anchor="start" x="379.79" y="-299" font-family="Helvetica,sans-Serif" font-size="10.00">+ set()</text>
<text text-anchor="start" x="379.79" y="-289" font-family="Helvetica,sans-Serif" font-size="10.00">+ setattr()</text>
<text text-anchor="start" x="379.79" y="-279" font-family="Helvetica,sans-Serif" font-size="10.00">+ init()</text>
<text text-anchor="start" x="379.79" y="-269" font-family="Helvetica,sans-Serif" font-size="10.00">+ setoutput()</text>
<text text-anchor="start" x="379.79" y="-259" font-family="Helvetica,sans-Serif" font-size="10.00">+ setinput()</text>
<text text-anchor="start" x="379.79" y="-249" font-family="Helvetica,sans-Serif" font-size="10.00">+ getports()</text>
</a>
</g>
</g>
<!-- Node1&#45;&gt;Node13 -->
<g id="edge12" class="edge"><title>Node1&#45;&gt;Node13</title>
<path fill="none" stroke="midnightblue" d="M321.644,-510.892C334.833,-488.052 349.419,-462.086 362,-438 365.236,-431.805 368.511,-425.344 371.744,-418.827"/>
<polygon fill="none" stroke="midnightblue" points="318.461,-509.403 316.473,-519.81 324.517,-512.914 318.461,-509.403"/>
</g>
<!-- Node14 -->
<g id="node14" class="node"><title>Node14</title>
<g id="a_node14"><a xlink:href="class_rtc.html" target="_top" xlink:title="RTC Class. ">
<polygon fill="none" stroke="black" points="462.014,-263 462.014,-417 549.986,-417 549.986,-263 462.014,-263"/>
<text text-anchor="middle" x="506" y="-405" font-family="Helvetica,sans-Serif" font-size="10.00">Rtc</text>
<polyline fill="none" stroke="black" points="462.014,-399 549.986,-399 "/>
<text text-anchor="middle" x="506" y="-387" font-family="Helvetica,sans-Serif" font-size="10.00"> </text>
<polyline fill="none" stroke="black" points="462.014,-381 549.986,-381 "/>
<text text-anchor="start" x="470.014" y="-369" font-family="Helvetica,sans-Serif" font-size="10.00">+ Rtc()</text>
<text text-anchor="start" x="470.014" y="-359" font-family="Helvetica,sans-Serif" font-size="10.00">+ open()</text>
<text text-anchor="start" x="470.014" y="-349" font-family="Helvetica,sans-Serif" font-size="10.00">+ getattr()</text>
<text text-anchor="start" x="470.014" y="-339" font-family="Helvetica,sans-Serif" font-size="10.00">+ setattr()</text>
<text text-anchor="start" x="470.014" y="-329" font-family="Helvetica,sans-Serif" font-size="10.00">+ setaction()</text>
<text text-anchor="start" x="470.014" y="-319" font-family="Helvetica,sans-Serif" font-size="10.00">+ setalarm()</text>
<text text-anchor="start" x="470.014" y="-309" font-family="Helvetica,sans-Serif" font-size="10.00">+ getalarm()</text>
<text text-anchor="start" x="470.014" y="-299" font-family="Helvetica,sans-Serif" font-size="10.00">+ disablealarm()</text>
<text text-anchor="start" x="470.014" y="-289" font-family="Helvetica,sans-Serif" font-size="10.00">+ set()</text>
<text text-anchor="start" x="470.014" y="-279" font-family="Helvetica,sans-Serif" font-size="10.00">+ get()</text>
<text text-anchor="start" x="470.014" y="-269" font-family="Helvetica,sans-Serif" font-size="10.00">+ getports()</text>
</a>
</g>
</g>
<!-- Node1&#45;&gt;Node14 -->
<g id="edge13" class="edge"><title>Node1&#45;&gt;Node14</title>
<path fill="none" stroke="midnightblue" d="M325.18,-548.769C362.173,-523.369 415.724,-482.753 453,-438 458.404,-431.512 463.516,-424.389 468.277,-417.041"/>
<polygon fill="none" stroke="midnightblue" points="322.928,-546.067 316.619,-554.579 326.859,-551.859 322.928,-546.067"/>
</g>
<!-- Node2 -->
<g id="node2" class="node"><title>Node2</title>
<g id="a_node2"><a xlink:href="class_phy.html" target="_top" xlink:title="Base Applib Class for Physical devices. ">
<polygon fill="none" stroke="black" points="258.469,-717 258.469,-811 307.531,-811 307.531,-717 258.469,-717"/>
<text text-anchor="middle" x="283" y="-799" font-family="Helvetica,sans-Serif" font-size="10.00">Phy</text>
<polyline fill="none" stroke="black" points="258.469,-793 307.531,-793 "/>
<text text-anchor="middle" x="283" y="-781" font-family="Helvetica,sans-Serif" font-size="10.00"> </text>
<polyline fill="none" stroke="black" points="258.469,-775 307.531,-775 "/>
<text text-anchor="start" x="266.469" y="-763" font-family="Helvetica,sans-Serif" font-size="10.00">+ Phy()</text>
<text text-anchor="start" x="266.469" y="-753" font-family="Helvetica,sans-Serif" font-size="10.00">+ ioctl()</text>
<text text-anchor="start" x="266.469" y="-743" font-family="Helvetica,sans-Serif" font-size="10.00">+ ioctl()</text>
<text text-anchor="start" x="266.469" y="-733" font-family="Helvetica,sans-Serif" font-size="10.00">+ ioctl()</text>
<text text-anchor="start" x="266.469" y="-723" font-family="Helvetica,sans-Serif" font-size="10.00">+ ioctl()</text>
</a>
</g>
</g>
<!-- Node2&#45;&gt;Node1 -->
<g id="edge1" class="edge"><title>Node2&#45;&gt;Node1</title>
<path fill="none" stroke="midnightblue" d="M283,-706.757C283,-697.984 283,-688.695 283,-679.283"/>
<polygon fill="none" stroke="midnightblue" points="279.5,-706.794 283,-716.794 286.5,-706.794 279.5,-706.794"/>
</g>
<!-- Node6 -->
<g id="node6" class="node"><title>Node6</title>
<g id="a_node6"><a xlink:href="class_adc.html" target="_top" xlink:title="ADC Peripheral Class. ">
<polygon fill="none" stroke="black" points="4.29443,-46 4.29443,-160 71.7056,-160 71.7056,-46 4.29443,-46"/>
<text text-anchor="middle" x="38" y="-148" font-family="Helvetica,sans-Serif" font-size="10.00">Adc</text>
<polyline fill="none" stroke="black" points="4.29443,-142 71.7056,-142 "/>
<text text-anchor="middle" x="38" y="-130" font-family="Helvetica,sans-Serif" font-size="10.00"> </text>
<polyline fill="none" stroke="black" points="4.29443,-124 71.7056,-124 "/>
<text text-anchor="start" x="12.2944" y="-112" font-family="Helvetica,sans-Serif" font-size="10.00">+ Adc()</text>
<text text-anchor="start" x="12.2944" y="-102" font-family="Helvetica,sans-Serif" font-size="10.00">+ open()</text>
<text text-anchor="start" x="12.2944" y="-92" font-family="Helvetica,sans-Serif" font-size="10.00">+ getattr()</text>
<text text-anchor="start" x="12.2944" y="-82" font-family="Helvetica,sans-Serif" font-size="10.00">+ setattr()</text>
<text text-anchor="start" x="12.2944" y="-72" font-family="Helvetica,sans-Serif" font-size="10.00">+ setattr()</text>
<text text-anchor="start" x="12.2944" y="-62" font-family="Helvetica,sans-Serif" font-size="10.00">+ init()</text>
<text text-anchor="start" x="12.2944" y="-52" font-family="Helvetica,sans-Serif" font-size="10.00">+ getports()</text>
</a>
</g>
</g>
<!-- Node5&#45;&gt;Node6 -->
<g id="edge5" class="edge"><title>Node5&#45;&gt;Node6</title>
<path fill="none" stroke="midnightblue" d="M234.243,-293.083C228.27,-274.954 218.814,-255.316 204,-242 161.639,-203.922 123.51,-243.912 81,-206 67.4464,-193.912 58.0398,-176.85 51.5654,-160.132"/>
<polygon fill="none" stroke="midnightblue" points="230.896,-294.105 237.137,-302.667 237.597,-292.082 230.896,-294.105"/>
</g>
<!-- Node7 -->
<g id="node7" class="node"><title>Node7</title>
<g id="a_node7"><a xlink:href="class_dac.html" target="_top" xlink:title="DAC Class. ">
<polygon fill="none" stroke="black" points="90.186,-46 90.186,-160 149.814,-160 149.814,-46 90.186,-46"/>
<text text-anchor="middle" x="120" y="-148" font-family="Helvetica,sans-Serif" font-size="10.00">Dac</text>
<polyline fill="none" stroke="black" points="90.186,-142 149.814,-142 "/>
<text text-anchor="middle" x="120" y="-130" font-family="Helvetica,sans-Serif" font-size="10.00"> </text>
<polyline fill="none" stroke="black" points="90.186,-124 149.814,-124 "/>
<text text-anchor="start" x="98.186" y="-112" font-family="Helvetica,sans-Serif" font-size="10.00">+ Dac()</text>
<text text-anchor="start" x="98.186" y="-102" font-family="Helvetica,sans-Serif" font-size="10.00">+ open()</text>
<text text-anchor="start" x="98.186" y="-92" font-family="Helvetica,sans-Serif" font-size="10.00">+ getattr()</text>
<text text-anchor="start" x="98.186" y="-82" font-family="Helvetica,sans-Serif" font-size="10.00">+ setattr()</text>
<text text-anchor="start" x="98.186" y="-72" font-family="Helvetica,sans-Serif" font-size="10.00">+ get()</text>
<text text-anchor="start" x="98.186" y="-62" font-family="Helvetica,sans-Serif" font-size="10.00">+ setattr()</text>
<text text-anchor="start" x="98.186" y="-52" font-family="Helvetica,sans-Serif" font-size="10.00">+ init()</text>
</a>
</g>
</g>
<!-- Node5&#45;&gt;Node7 -->
<g id="edge6" class="edge"><title>Node5&#45;&gt;Node7</title>
<path fill="none" stroke="midnightblue" d="M230.401,-292.878C224.043,-275.88 215.331,-257.105 204,-242 188.631,-221.511 174.102,-226.686 159,-206 149.051,-192.372 141.306,-175.892 135.434,-160.189"/>
<polygon fill="none" stroke="midnightblue" points="227.224,-294.391 233.874,-302.639 233.819,-292.045 227.224,-294.391"/>
</g>
<!-- Node8 -->
<g id="node8" class="node"><title>Node8</title>
<g id="a_node8"><a xlink:href="class_i2c.html" target="_top" xlink:title="I2C Peripheral Class. ">
<polygon fill="none" stroke="red" points="168.294,-6 168.294,-200 235.706,-200 235.706,-6 168.294,-6"/>
<text text-anchor="middle" x="202" y="-188" font-family="Helvetica,sans-Serif" font-size="10.00">I2c</text>
<polyline fill="none" stroke="red" points="168.294,-182 235.706,-182 "/>
<text text-anchor="middle" x="202" y="-170" font-family="Helvetica,sans-Serif" font-size="10.00"> </text>
<polyline fill="none" stroke="red" points="168.294,-164 235.706,-164 "/>
<text text-anchor="start" x="176.294" y="-152" font-family="Helvetica,sans-Serif" font-size="10.00">+ I2c()</text>
<text text-anchor="start" x="176.294" y="-142" font-family="Helvetica,sans-Serif" font-size="10.00">+ open()</text>
<text text-anchor="start" x="176.294" y="-132" font-family="Helvetica,sans-Serif" font-size="10.00">+ getattr()</text>
<text text-anchor="start" x="176.294" y="-122" font-family="Helvetica,sans-Serif" font-size="10.00">+ setattr()</text>
<text text-anchor="start" x="176.294" y="-112" font-family="Helvetica,sans-Serif" font-size="10.00">+ setup()</text>
<text text-anchor="start" x="176.294" y="-102" font-family="Helvetica,sans-Serif" font-size="10.00">+ geterr()</text>
<text text-anchor="start" x="176.294" y="-92" font-family="Helvetica,sans-Serif" font-size="10.00">+ err()</text>
<text text-anchor="start" x="176.294" y="-82" font-family="Helvetica,sans-Serif" font-size="10.00">+ setup()</text>
<text text-anchor="start" x="176.294" y="-72" font-family="Helvetica,sans-Serif" font-size="10.00">+ setattr()</text>
<text text-anchor="start" x="176.294" y="-62" font-family="Helvetica,sans-Serif" font-size="10.00">+ init()</text>
<text text-anchor="start" x="176.294" y="-52" font-family="Helvetica,sans-Serif" font-size="10.00">+ read()</text>
<text text-anchor="start" x="176.294" y="-42" font-family="Helvetica,sans-Serif" font-size="10.00">+ write()</text>
<text text-anchor="start" x="176.294" y="-32" font-family="Helvetica,sans-Serif" font-size="10.00">+ set()</text>
<text text-anchor="start" x="176.294" y="-22" font-family="Helvetica,sans-Serif" font-size="10.00">+ clear()</text>
<text text-anchor="start" x="176.294" y="-12" font-family="Helvetica,sans-Serif" font-size="10.00">+ getports()</text>
</a>
</g>
</g>
<!-- Node5&#45;&gt;Node8 -->
<g id="edge7" class="edge"><title>Node5&#45;&gt;Node8</title>
<path fill="none" stroke="midnightblue" d="M235.725,-292.701C231.001,-266.268 224.898,-232.117 219.184,-200.149"/>
<polygon fill="none" stroke="midnightblue" points="232.325,-293.568 237.53,-302.796 239.216,-292.336 232.325,-293.568"/>
</g>
<!-- Node9 -->
<g id="node9" class="node"><title>Node9</title>
<g id="a_node9"><a xlink:href="class_pwm.html" target="_top" xlink:title="PWM Class. ">
<polygon fill="none" stroke="black" points="253.294,-36 253.294,-170 320.706,-170 320.706,-36 253.294,-36"/>
<text text-anchor="middle" x="287" y="-158" font-family="Helvetica,sans-Serif" font-size="10.00">Pwm</text>
<polyline fill="none" stroke="black" points="253.294,-152 320.706,-152 "/>
<text text-anchor="middle" x="287" y="-140" font-family="Helvetica,sans-Serif" font-size="10.00"> </text>
<polyline fill="none" stroke="black" points="253.294,-134 320.706,-134 "/>
<text text-anchor="start" x="261.294" y="-122" font-family="Helvetica,sans-Serif" font-size="10.00">+ Pwm()</text>
<text text-anchor="start" x="261.294" y="-112" font-family="Helvetica,sans-Serif" font-size="10.00">+ open()</text>
<text text-anchor="start" x="261.294" y="-102" font-family="Helvetica,sans-Serif" font-size="10.00">+ getattr()</text>
<text text-anchor="start" x="261.294" y="-92" font-family="Helvetica,sans-Serif" font-size="10.00">+ setattr()</text>
<text text-anchor="start" x="261.294" y="-82" font-family="Helvetica,sans-Serif" font-size="10.00">+ set()</text>
<text text-anchor="start" x="261.294" y="-72" font-family="Helvetica,sans-Serif" font-size="10.00">+ set()</text>
<text text-anchor="start" x="261.294" y="-62" font-family="Helvetica,sans-Serif" font-size="10.00">+ setattr()</text>
<text text-anchor="start" x="261.294" y="-52" font-family="Helvetica,sans-Serif" font-size="10.00">+ init()</text>
<text text-anchor="start" x="261.294" y="-42" font-family="Helvetica,sans-Serif" font-size="10.00">+ getports()</text>
</a>
</g>
</g>
<!-- Node5&#45;&gt;Node9 -->
<g id="edge8" class="edge"><title>Node5&#45;&gt;Node9</title>
<path fill="none" stroke="midnightblue" d="M252.445,-292.846C258.853,-257.827 267.75,-209.202 274.912,-170.064"/>
<polygon fill="none" stroke="midnightblue" points="248.982,-292.33 250.625,-302.796 255.867,-293.59 248.982,-292.33"/>
</g>
<!-- Node10 -->
<g id="node10" class="node"><title>Node10</title>
<g id="a_node10"><a xlink:href="class_usb.html" target="_top" xlink:title="USB Class. ">
<polygon fill="none" stroke="black" points="338.676,-1 338.676,-205 423.324,-205 423.324,-1 338.676,-1"/>
<text text-anchor="middle" x="381" y="-193" font-family="Helvetica,sans-Serif" font-size="10.00">Usb</text>
<polyline fill="none" stroke="black" points="338.676,-187 423.324,-187 "/>
<text text-anchor="middle" x="381" y="-175" font-family="Helvetica,sans-Serif" font-size="10.00"> </text>
<polyline fill="none" stroke="black" points="338.676,-169 423.324,-169 "/>
<text text-anchor="start" x="346.676" y="-157" font-family="Helvetica,sans-Serif" font-size="10.00">+ Usb()</text>
<text text-anchor="start" x="346.676" y="-147" font-family="Helvetica,sans-Serif" font-size="10.00">+ open()</text>
<text text-anchor="start" x="346.676" y="-137" font-family="Helvetica,sans-Serif" font-size="10.00">+ getattr()</text>
<text text-anchor="start" x="346.676" y="-127" font-family="Helvetica,sans-Serif" font-size="10.00">+ setattr()</text>
<text text-anchor="start" x="346.676" y="-117" font-family="Helvetica,sans-Serif" font-size="10.00">+ reset()</text>
<text text-anchor="start" x="346.676" y="-107" font-family="Helvetica,sans-Serif" font-size="10.00">+ attach()</text>
<text text-anchor="start" x="346.676" y="-97" font-family="Helvetica,sans-Serif" font-size="10.00">+ configure()</text>
<text text-anchor="start" x="346.676" y="-87" font-family="Helvetica,sans-Serif" font-size="10.00">+ detach()</text>
<text text-anchor="start" x="346.676" y="-77" font-family="Helvetica,sans-Serif" font-size="10.00">+ disableep()</text>
<text text-anchor="start" x="346.676" y="-67" font-family="Helvetica,sans-Serif" font-size="10.00">+ enableep()</text>
<text text-anchor="start" x="346.676" y="-57" font-family="Helvetica,sans-Serif" font-size="10.00">+ isconnected()</text>
<text text-anchor="start" x="346.676" y="-47" font-family="Helvetica,sans-Serif" font-size="10.00">+ resetep()</text>
<text text-anchor="start" x="346.676" y="-37" font-family="Helvetica,sans-Serif" font-size="10.00">+ setaddr()</text>
<text text-anchor="start" x="346.676" y="-27" font-family="Helvetica,sans-Serif" font-size="10.00">+ stallep()</text>
<text text-anchor="start" x="346.676" y="-17" font-family="Helvetica,sans-Serif" font-size="10.00">+ unstallep()</text>
<text text-anchor="start" x="346.676" y="-7" font-family="Helvetica,sans-Serif" font-size="10.00">+ getports()</text>
</a>
</g>
</g>
<!-- Node5&#45;&gt;Node10 -->
<g id="edge9" class="edge"><title>Node5&#45;&gt;Node10</title>
<path fill="none" stroke="midnightblue" d="M257.599,-292.878C263.957,-275.88 272.669,-257.105 284,-242 299.369,-221.511 312.82,-225.855 329,-206 332.327,-201.917 335.523,-197.586 338.579,-193.102"/>
<polygon fill="none" stroke="midnightblue" points="254.181,-292.045 254.126,-302.639 260.776,-294.391 254.181,-292.045"/>
</g>
<!-- Node12 -->
<g id="node12" class="node"><title>Node12</title>
<g id="a_node12"><a xlink:href="class_spi.html" target="_top" xlink:title="SPI Class. ">
<polygon fill="none" stroke="black" points="440.957,-36 440.957,-170 515.043,-170 515.043,-36 440.957,-36"/>
<text text-anchor="middle" x="478" y="-158" font-family="Helvetica,sans-Serif" font-size="10.00">Spi</text>
<polyline fill="none" stroke="black" points="440.957,-152 515.043,-152 "/>
<text text-anchor="middle" x="478" y="-140" font-family="Helvetica,sans-Serif" font-size="10.00"> </text>
<polyline fill="none" stroke="black" points="440.957,-134 515.043,-134 "/>
<text text-anchor="start" x="448.957" y="-122" font-family="Helvetica,sans-Serif" font-size="10.00">+ Spi()</text>
<text text-anchor="start" x="448.957" y="-112" font-family="Helvetica,sans-Serif" font-size="10.00">+ open()</text>
<text text-anchor="start" x="448.957" y="-102" font-family="Helvetica,sans-Serif" font-size="10.00">+ getattr()</text>
<text text-anchor="start" x="448.957" y="-92" font-family="Helvetica,sans-Serif" font-size="10.00">+ setattr()</text>
<text text-anchor="start" x="448.957" y="-82" font-family="Helvetica,sans-Serif" font-size="10.00">+ swap()</text>
<text text-anchor="start" x="448.957" y="-72" font-family="Helvetica,sans-Serif" font-size="10.00">+ setduplex()</text>
<text text-anchor="start" x="448.957" y="-62" font-family="Helvetica,sans-Serif" font-size="10.00">+ setattr()</text>
<text text-anchor="start" x="448.957" y="-52" font-family="Helvetica,sans-Serif" font-size="10.00">+ init()</text>
<text text-anchor="start" x="448.957" y="-42" font-family="Helvetica,sans-Serif" font-size="10.00">+ getports()</text>
</a>
</g>
</g>
<!-- Node11&#45;&gt;Node12 -->
<g id="edge11" class="edge"><title>Node11&#45;&gt;Node12</title>
<path fill="none" stroke="midnightblue" d="M332.773,-298.426C338.946,-279.535 348.558,-257.801 363,-242 386.337,-216.469 408.251,-231.148 432,-206 441.736,-195.69 449.661,-182.966 456.014,-170.043"/>
<polygon fill="none" stroke="midnightblue" points="329.423,-297.413 329.851,-307.999 336.118,-299.456 329.423,-297.413"/>
</g>
</g>
</svg>
