<?xml version="1.0" encoding="UTF-8" standalone="no"?>
<!DOCTYPE svg PUBLIC "-//W3C//DTD SVG 1.1//EN"
 "http://www.w3.org/Graphics/SVG/1.1/DTD/svg11.dtd">
<!-- Generated by graphviz version 2.36.0 (20140111.2315)
 -->
<!-- Title: Phy Pages: 1 -->
<svg width="628pt" height="810pt"
 viewBox="0.00 0.00 628.00 810.00" xmlns="http://www.w3.org/2000/svg" xmlns:xlink="http://www.w3.org/1999/xlink">
<g id="graph0" class="graph" transform="scale(1 1) rotate(0) translate(4 806)">
<title>Phy</title>
<!-- Node1 -->
<g id="node1" class="node"><title>Node1</title>
<polygon fill="#bfbfbf" stroke="black" points="197.469,-707 197.469,-801 246.531,-801 246.531,-707 197.469,-707"/>
<text text-anchor="middle" x="222" y="-789" font-family="Helvetica,sans-Serif" font-size="10.00">Phy</text>
<polyline fill="none" stroke="black" points="197.469,-783 246.531,-783 "/>
<text text-anchor="middle" x="222" y="-771" font-family="Helvetica,sans-Serif" font-size="10.00"> </text>
<polyline fill="none" stroke="black" points="197.469,-765 246.531,-765 "/>
<text text-anchor="start" x="205.469" y="-753" font-family="Helvetica,sans-Serif" font-size="10.00">+ Phy()</text>
<text text-anchor="start" x="205.469" y="-743" font-family="Helvetica,sans-Serif" font-size="10.00">+ ioctl()</text>
<text text-anchor="start" x="205.469" y="-733" font-family="Helvetica,sans-Serif" font-size="10.00">+ ioctl()</text>
<text text-anchor="start" x="205.469" y="-723" font-family="Helvetica,sans-Serif" font-size="10.00">+ ioctl()</text>
<text text-anchor="start" x="205.469" y="-713" font-family="Helvetica,sans-Serif" font-size="10.00">+ ioctl()</text>
</g>
<!-- Node2 -->
<g id="node2" class="node"><title>Node2</title>
<g id="a_node2"><a xlink:href="class_file.html" target="_top" xlink:title="File Class. ">
<polygon fill="none" stroke="black" points="96.6885,-465 96.6885,-669 161.312,-669 161.312,-465 96.6885,-465"/>
<text text-anchor="middle" x="129" y="-657" font-family="Helvetica,sans-Serif" font-size="10.00">File</text>
<polyline fill="none" stroke="black" points="96.6885,-651 161.312,-651 "/>
<text text-anchor="middle" x="129" y="-639" font-family="Helvetica,sans-Serif" font-size="10.00"> </text>
<polyline fill="none" stroke="black" points="96.6885,-633 161.312,-633 "/>
<text text-anchor="start" x="104.688" y="-621" font-family="Helvetica,sans-Serif" font-size="10.00">+ File()</text>
<text text-anchor="start" x="104.688" y="-611" font-family="Helvetica,sans-Serif" font-size="10.00">+ open()</text>
<text text-anchor="start" x="104.688" y="-601" font-family="Helvetica,sans-Serif" font-size="10.00">+ create()</text>
<text text-anchor="start" x="104.688" y="-591" font-family="Helvetica,sans-Serif" font-size="10.00">+ read()</text>
<text text-anchor="start" x="104.688" y="-581" font-family="Helvetica,sans-Serif" font-size="10.00">+ read()</text>
<text text-anchor="start" x="104.688" y="-571" font-family="Helvetica,sans-Serif" font-size="10.00">+ write()</text>
<text text-anchor="start" x="104.688" y="-561" font-family="Helvetica,sans-Serif" font-size="10.00">+ write()</text>
<text text-anchor="start" x="104.688" y="-551" font-family="Helvetica,sans-Serif" font-size="10.00">+ seek()</text>
<text text-anchor="start" x="104.688" y="-541" font-family="Helvetica,sans-Serif" font-size="10.00">+ size()</text>
<text text-anchor="start" x="104.688" y="-531" font-family="Helvetica,sans-Serif" font-size="10.00">+ close()</text>
<text text-anchor="start" x="104.688" y="-521" font-family="Helvetica,sans-Serif" font-size="10.00">+ fileno()</text>
<text text-anchor="start" x="104.688" y="-511" font-family="Helvetica,sans-Serif" font-size="10.00">+ gets()</text>
<text text-anchor="start" x="104.688" y="-501" font-family="Helvetica,sans-Serif" font-size="10.00">+ gets()</text>
<text text-anchor="start" x="104.688" y="-491" font-family="Helvetica,sans-Serif" font-size="10.00">+ gets()</text>
<text text-anchor="start" x="104.688" y="-481" font-family="Helvetica,sans-Serif" font-size="10.00">+ ioctl()</text>
<text text-anchor="start" x="104.688" y="-471" font-family="Helvetica,sans-Serif" font-size="10.00">+ remove()</text>
</a>
</g>
</g>
<!-- Node1&#45;&gt;Node2 -->
<g id="edge1" class="edge"><title>Node1&#45;&gt;Node2</title>
<path fill="none" stroke="midnightblue" d="M194.149,-697.597C183.843,-677.095 172.071,-653.679 161.395,-632.442"/>
<polygon fill="none" stroke="midnightblue" points="191.153,-699.431 198.772,-706.794 197.408,-696.287 191.153,-699.431"/>
</g>
<!-- Node4 -->
<g id="node4" class="node"><title>Node4</title>
<g id="a_node4"><a xlink:href="class_periph.html" target="_top" xlink:title="Peripheral Class. ">
<polygon fill="none" stroke="black" points="281.57,-465 281.57,-669 348.43,-669 348.43,-465 281.57,-465"/>
<text text-anchor="middle" x="315" y="-657" font-family="Helvetica,sans-Serif" font-size="10.00">Periph</text>
<polyline fill="none" stroke="black" points="281.57,-651 348.43,-651 "/>
<text text-anchor="start" x="289.57" y="-639" font-family="Helvetica,sans-Serif" font-size="10.00"># port_</text>
<text text-anchor="start" x="289.57" y="-629" font-family="Helvetica,sans-Serif" font-size="10.00"># fd</text>
<polyline fill="none" stroke="black" points="281.57,-623 348.43,-623 "/>
<text text-anchor="start" x="289.57" y="-611" font-family="Helvetica,sans-Serif" font-size="10.00">+ Periph()</text>
<text text-anchor="start" x="289.57" y="-601" font-family="Helvetica,sans-Serif" font-size="10.00">+ open()</text>
<text text-anchor="start" x="289.57" y="-591" font-family="Helvetica,sans-Serif" font-size="10.00">+ open()</text>
<text text-anchor="start" x="289.57" y="-581" font-family="Helvetica,sans-Serif" font-size="10.00">+ setflags()</text>
<text text-anchor="start" x="289.57" y="-571" font-family="Helvetica,sans-Serif" font-size="10.00">+ read()</text>
<text text-anchor="start" x="289.57" y="-561" font-family="Helvetica,sans-Serif" font-size="10.00">+ readline()</text>
<text text-anchor="start" x="289.57" y="-551" font-family="Helvetica,sans-Serif" font-size="10.00">+ write()</text>
<text text-anchor="start" x="289.57" y="-541" font-family="Helvetica,sans-Serif" font-size="10.00">+ write()</text>
<text text-anchor="start" x="289.57" y="-531" font-family="Helvetica,sans-Serif" font-size="10.00">+ close()</text>
<text text-anchor="start" x="289.57" y="-521" font-family="Helvetica,sans-Serif" font-size="10.00">+ read()</text>
<text text-anchor="start" x="289.57" y="-511" font-family="Helvetica,sans-Serif" font-size="10.00">+ write()</text>
<text text-anchor="start" x="289.57" y="-501" font-family="Helvetica,sans-Serif" font-size="10.00">+ fileno()</text>
<text text-anchor="start" x="289.57" y="-491" font-family="Helvetica,sans-Serif" font-size="10.00">+ ioctl()</text>
<text text-anchor="start" x="289.57" y="-481" font-family="Helvetica,sans-Serif" font-size="10.00">+ port()</text>
<text text-anchor="start" x="289.57" y="-471" font-family="Helvetica,sans-Serif" font-size="10.00"># _open()</text>
</a>
</g>
</g>
<!-- Node1&#45;&gt;Node4 -->
<g id="edge3" class="edge"><title>Node1&#45;&gt;Node4</title>
<path fill="none" stroke="midnightblue" d="M249.851,-697.597C259.818,-677.771 271.155,-655.219 281.546,-634.548"/>
<polygon fill="none" stroke="midnightblue" points="246.592,-696.287 245.228,-706.794 252.847,-699.431 246.592,-696.287"/>
</g>
<!-- Node3 -->
<g id="node3" class="node"><title>Node3</title>
<g id="a_node3"><a xlink:href="class_rle_file.html" target="_top" xlink:title="Class for reading/writing compressed file data. ">
<polygon fill="none" stroke="black" points="-0.195801,-298 -0.195801,-362 52.1958,-362 52.1958,-298 -0.195801,-298"/>
<text text-anchor="middle" x="26" y="-350" font-family="Helvetica,sans-Serif" font-size="10.00">RleFile</text>
<polyline fill="none" stroke="black" points="-0.195801,-344 52.1958,-344 "/>
<text text-anchor="middle" x="26" y="-332" font-family="Helvetica,sans-Serif" font-size="10.00"> </text>
<polyline fill="none" stroke="black" points="-0.195801,-326 52.1958,-326 "/>
<text text-anchor="start" x="7.8042" y="-314" font-family="Helvetica,sans-Serif" font-size="10.00">+ write()</text>
<text text-anchor="start" x="7.8042" y="-304" font-family="Helvetica,sans-Serif" font-size="10.00">+ read()</text>
</a>
</g>
</g>
<!-- Node2&#45;&gt;Node3 -->
<g id="edge2" class="edge"><title>Node2&#45;&gt;Node3</title>
<path fill="none" stroke="midnightblue" d="M92.0595,-494.858C81.5258,-473.581 70.3738,-450.044 61,-428 51.8225,-406.417 42.8727,-381.523 36.3206,-362.358"/>
<polygon fill="none" stroke="midnightblue" points="88.9364,-496.438 96.5292,-503.827 95.2017,-493.316 88.9364,-496.438"/>
</g>
<!-- Node5 -->
<g id="node5" class="node"><title>Node5</title>
<g id="a_node5"><a xlink:href="class_core.html" target="_top" xlink:title="Core Class. ">
<polygon fill="none" stroke="black" points="70.2773,-253 70.2773,-407 177.723,-407 177.723,-253 70.2773,-253"/>
<text text-anchor="middle" x="124" y="-395" font-family="Helvetica,sans-Serif" font-size="10.00">Core</text>
<polyline fill="none" stroke="black" points="70.2773,-389 177.723,-389 "/>
<text text-anchor="middle" x="124" y="-377" font-family="Helvetica,sans-Serif" font-size="10.00"> </text>
<polyline fill="none" stroke="black" points="70.2773,-371 177.723,-371 "/>
<text text-anchor="start" x="78.2773" y="-359" font-family="Helvetica,sans-Serif" font-size="10.00">+ Core()</text>
<text text-anchor="start" x="78.2773" y="-349" font-family="Helvetica,sans-Serif" font-size="10.00">+ open()</text>
<text text-anchor="start" x="78.2773" y="-339" font-family="Helvetica,sans-Serif" font-size="10.00">+ getattr()</text>
<text text-anchor="start" x="78.2773" y="-329" font-family="Helvetica,sans-Serif" font-size="10.00">+ setattr()</text>
<text text-anchor="start" x="78.2773" y="-319" font-family="Helvetica,sans-Serif" font-size="10.00">+ setpinfunc()</text>
<text text-anchor="start" x="78.2773" y="-309" font-family="Helvetica,sans-Serif" font-size="10.00">+ sleep()</text>
<text text-anchor="start" x="78.2773" y="-299" font-family="Helvetica,sans-Serif" font-size="10.00">+ reset()</text>
<text text-anchor="start" x="78.2773" y="-289" font-family="Helvetica,sans-Serif" font-size="10.00">+ invokebootloader()</text>
<text text-anchor="start" x="78.2773" y="-279" font-family="Helvetica,sans-Serif" font-size="10.00">+ setirqprio()</text>
<text text-anchor="start" x="78.2773" y="-269" font-family="Helvetica,sans-Serif" font-size="10.00">+ setclkout()</text>
<text text-anchor="start" x="78.2773" y="-259" font-family="Helvetica,sans-Serif" font-size="10.00">+ getports()</text>
</a>
</g>
</g>
<!-- Node4&#45;&gt;Node5 -->
<g id="edge4" class="edge"><title>Node4&#45;&gt;Node5</title>
<path fill="none" stroke="midnightblue" d="M274.149,-526.259C247.685,-499.587 213.21,-463.044 186,-428 180.852,-421.37 175.724,-414.304 170.749,-407.124"/>
<polygon fill="none" stroke="midnightblue" points="271.846,-528.906 281.388,-533.51 276.8,-523.96 271.846,-528.906"/>
</g>
<!-- Node6 -->
<g id="node6" class="node"><title>Node6</title>
<g id="a_node6"><a xlink:href="class_eint.html" target="_top" xlink:title="External Interrupt Class. ">
<polygon fill="none" stroke="black" points="195.349,-253 195.349,-407 266.651,-407 266.651,-253 195.349,-253"/>
<text text-anchor="middle" x="231" y="-395" font-family="Helvetica,sans-Serif" font-size="10.00">Eint</text>
<polyline fill="none" stroke="black" points="195.349,-389 266.651,-389 "/>
<text text-anchor="middle" x="231" y="-377" font-family="Helvetica,sans-Serif" font-size="10.00"> </text>
<polyline fill="none" stroke="black" points="195.349,-371 266.651,-371 "/>
<text text-anchor="start" x="203.349" y="-359" font-family="Helvetica,sans-Serif" font-size="10.00">+ Eint()</text>
<text text-anchor="start" x="203.349" y="-349" font-family="Helvetica,sans-Serif" font-size="10.00">+ open()</text>
<text text-anchor="start" x="203.349" y="-339" font-family="Helvetica,sans-Serif" font-size="10.00">+ getattr()</text>
<text text-anchor="start" x="203.349" y="-329" font-family="Helvetica,sans-Serif" font-size="10.00">+ setattr()</text>
<text text-anchor="start" x="203.349" y="-319" font-family="Helvetica,sans-Serif" font-size="10.00">+ setaction()</text>
<text text-anchor="start" x="203.349" y="-309" font-family="Helvetica,sans-Serif" font-size="10.00">+ value()</text>
<text text-anchor="start" x="203.349" y="-299" font-family="Helvetica,sans-Serif" font-size="10.00">+ get()</text>
<text text-anchor="start" x="203.349" y="-289" font-family="Helvetica,sans-Serif" font-size="10.00">+ setaction()</text>
<text text-anchor="start" x="203.349" y="-279" font-family="Helvetica,sans-Serif" font-size="10.00">+ setattr()</text>
<text text-anchor="start" x="203.349" y="-269" font-family="Helvetica,sans-Serif" font-size="10.00">+ init()</text>
<text text-anchor="start" x="203.349" y="-259" font-family="Helvetica,sans-Serif" font-size="10.00">+ getports()</text>
</a>
</g>
</g>
<!-- Node4&#45;&gt;Node6 -->
<g id="edge5" class="edge"><title>Node4&#45;&gt;Node6</title>
<path fill="none" stroke="midnightblue" d="M278.185,-463.006C271.49,-444.277 264.617,-425.048 258.26,-407.264"/>
<polygon fill="none" stroke="midnightblue" points="274.898,-464.208 281.56,-472.447 281.489,-461.852 274.898,-464.208"/>
</g>
<!-- Node7 -->
<g id="node7" class="node"><title>Node7</title>
<g id="a_node7"><a xlink:href="class_pblock.html" target="_top" xlink:title="Peripheral Block Class. ">
<polygon fill="none" stroke="red" points="284.354,-293 284.354,-367 345.646,-367 345.646,-293 284.354,-293"/>
<text text-anchor="middle" x="315" y="-355" font-family="Helvetica,sans-Serif" font-size="10.00">Pblock</text>
<polyline fill="none" stroke="red" points="284.354,-349 345.646,-349 "/>
<text text-anchor="middle" x="315" y="-337" font-family="Helvetica,sans-Serif" font-size="10.00"> </text>
<polyline fill="none" stroke="red" points="284.354,-331 345.646,-331 "/>
<text text-anchor="start" x="292.354" y="-319" font-family="Helvetica,sans-Serif" font-size="10.00">+ Pblock()</text>
<text text-anchor="start" x="292.354" y="-309" font-family="Helvetica,sans-Serif" font-size="10.00">+ read()</text>
<text text-anchor="start" x="292.354" y="-299" font-family="Helvetica,sans-Serif" font-size="10.00">+ write()</text>
</a>
</g>
</g>
<!-- Node4&#45;&gt;Node7 -->
<g id="edge6" class="edge"><title>Node4&#45;&gt;Node7</title>
<path fill="none" stroke="midnightblue" d="M315,-454.726C315,-423.056 315,-390.782 315,-367.14"/>
<polygon fill="none" stroke="midnightblue" points="311.5,-454.975 315,-464.975 318.5,-454.975 311.5,-454.975"/>
</g>
<!-- Node12 -->
<g id="node12" class="node"><title>Node12</title>
<g id="a_node12"><a xlink:href="class_pchar.html" target="_top" xlink:title="Peripheral Character Class. ">
<polygon fill="none" stroke="red" points="363.627,-298 363.627,-362 424.373,-362 424.373,-298 363.627,-298"/>
<text text-anchor="middle" x="394" y="-350" font-family="Helvetica,sans-Serif" font-size="10.00">Pchar</text>
<polyline fill="none" stroke="red" points="363.627,-344 424.373,-344 "/>
<text text-anchor="middle" x="394" y="-332" font-family="Helvetica,sans-Serif" font-size="10.00"> </text>
<polyline fill="none" stroke="red" points="363.627,-326 424.373,-326 "/>
<text text-anchor="start" x="371.627" y="-314" font-family="Helvetica,sans-Serif" font-size="10.00">+ Pchar()</text>
<text text-anchor="start" x="371.627" y="-304" font-family="Helvetica,sans-Serif" font-size="10.00">+ getline()</text>
</a>
</g>
</g>
<!-- Node4&#45;&gt;Node12 -->
<g id="edge11" class="edge"><title>Node4&#45;&gt;Node12</title>
<path fill="none" stroke="midnightblue" d="M351.771,-456.618C363.398,-422.031 375.342,-386.501 383.548,-362.092"/>
<polygon fill="none" stroke="midnightblue" points="348.372,-455.745 348.503,-466.339 355.007,-457.975 348.372,-455.745"/>
</g>
<!-- Node13 -->
<g id="node13" class="node"><title>Node13</title>
<g id="a_node13"><a xlink:href="class_pio.html" target="_top" xlink:title="Pin Input/Output Class. ">
<polygon fill="none" stroke="red" points="442.79,-233 442.79,-427 515.21,-427 515.21,-233 442.79,-233"/>
<text text-anchor="middle" x="479" y="-415" font-family="Helvetica,sans-Serif" font-size="10.00">Pio</text>
<polyline fill="none" stroke="red" points="442.79,-409 515.21,-409 "/>
<text text-anchor="middle" x="479" y="-397" font-family="Helvetica,sans-Serif" font-size="10.00"> </text>
<polyline fill="none" stroke="red" points="442.79,-391 515.21,-391 "/>
<text text-anchor="start" x="450.79" y="-379" font-family="Helvetica,sans-Serif" font-size="10.00">+ Pio()</text>
<text text-anchor="start" x="450.79" y="-369" font-family="Helvetica,sans-Serif" font-size="10.00">+ open()</text>
<text text-anchor="start" x="450.79" y="-359" font-family="Helvetica,sans-Serif" font-size="10.00">+ getattr()</text>
<text text-anchor="start" x="450.79" y="-349" font-family="Helvetica,sans-Serif" font-size="10.00">+ setattr()</text>
<text text-anchor="start" x="450.79" y="-339" font-family="Helvetica,sans-Serif" font-size="10.00">+ setaction()</text>
<text text-anchor="start" x="450.79" y="-329" font-family="Helvetica,sans-Serif" font-size="10.00">+ setmask()</text>
<text text-anchor="start" x="450.79" y="-319" font-family="Helvetica,sans-Serif" font-size="10.00">+ clrmask()</text>
<text text-anchor="start" x="450.79" y="-309" font-family="Helvetica,sans-Serif" font-size="10.00">+ get()</text>
<text text-anchor="start" x="450.79" y="-299" font-family="Helvetica,sans-Serif" font-size="10.00">+ value()</text>
<text text-anchor="start" x="450.79" y="-289" font-family="Helvetica,sans-Serif" font-size="10.00">+ set()</text>
<text text-anchor="start" x="450.79" y="-279" font-family="Helvetica,sans-Serif" font-size="10.00">+ setattr()</text>
<text text-anchor="start" x="450.79" y="-269" font-family="Helvetica,sans-Serif" font-size="10.00">+ init()</text>
<text text-anchor="start" x="450.79" y="-259" font-family="Helvetica,sans-Serif" font-size="10.00">+ setoutput()</text>
<text text-anchor="start" x="450.79" y="-249" font-family="Helvetica,sans-Serif" font-size="10.00">+ setinput()</text>
<text text-anchor="start" x="450.79" y="-239" font-family="Helvetica,sans-Serif" font-size="10.00">+ getports()</text>
</a>
</g>
</g>
<!-- Node4&#45;&gt;Node13 -->
<g id="edge12" class="edge"><title>Node4&#45;&gt;Node13</title>
<path fill="none" stroke="midnightblue" d="M355.572,-524.521C379.925,-498.255 410.449,-462.788 433,-428 436.346,-422.839 439.593,-417.397 442.712,-411.831"/>
<polygon fill="none" stroke="midnightblue" points="352.831,-522.327 348.555,-532.02 357.943,-527.11 352.831,-522.327"/>
</g>
<!-- Node14 -->
<g id="node14" class="node"><title>Node14</title>
<g id="a_node14"><a xlink:href="class_rtc.html" target="_top" xlink:title="RTC Class. ">
<polygon fill="none" stroke="black" points="533.014,-253 533.014,-407 620.986,-407 620.986,-253 533.014,-253"/>
<text text-anchor="middle" x="577" y="-395" font-family="Helvetica,sans-Serif" font-size="10.00">Rtc</text>
<polyline fill="none" stroke="black" points="533.014,-389 620.986,-389 "/>
<text text-anchor="middle" x="577" y="-377" font-family="Helvetica,sans-Serif" font-size="10.00"> </text>
<polyline fill="none" stroke="black" points="533.014,-371 620.986,-371 "/>
<text text-anchor="start" x="541.014" y="-359" font-family="Helvetica,sans-Serif" font-size="10.00">+ Rtc()</text>
<text text-anchor="start" x="541.014" y="-349" font-family="Helvetica,sans-Serif" font-size="10.00">+ open()</text>
<text text-anchor="start" x="541.014" y="-339" font-family="Helvetica,sans-Serif" font-size="10.00">+ getattr()</text>
<text text-anchor="start" x="541.014" y="-329" font-family="Helvetica,sans-Serif" font-size="10.00">+ setattr()</text>
<text text-anchor="start" x="541.014" y="-319" font-family="Helvetica,sans-Serif" font-size="10.00">+ setaction()</text>
<text text-anchor="start" x="541.014" y="-309" font-family="Helvetica,sans-Serif" font-size="10.00">+ setalarm()</text>
<text text-anchor="start" x="541.014" y="-299" font-family="Helvetica,sans-Serif" font-size="10.00">+ getalarm()</text>
<text text-anchor="start" x="541.014" y="-289" font-family="Helvetica,sans-Serif" font-size="10.00">+ disablealarm()</text>
<text text-anchor="start" x="541.014" y="-279" font-family="Helvetica,sans-Serif" font-size="10.00">+ set()</text>
<text text-anchor="start" x="541.014" y="-269" font-family="Helvetica,sans-Serif" font-size="10.00">+ get()</text>
<text text-anchor="start" x="541.014" y="-259" font-family="Helvetica,sans-Serif" font-size="10.00">+ getports()</text>
</a>
</g>
</g>
<!-- Node4&#45;&gt;Node14 -->
<g id="edge13" class="edge"><title>Node4&#45;&gt;Node14</title>
<path fill="none" stroke="midnightblue" d="M357.715,-545.757C403.363,-522.454 475.67,-480.544 524,-428 529.846,-421.644 535.275,-414.526 540.252,-407.109"/>
<polygon fill="none" stroke="midnightblue" points="356.036,-542.684 348.677,-550.306 359.183,-548.937 356.036,-542.684"/>
</g>
<!-- Node8 -->
<g id="node8" class="node"><title>Node8</title>
<g id="a_node8"><a xlink:href="class_adc.html" target="_top" xlink:title="ADC Peripheral Class. ">
<polygon fill="none" stroke="black" points="158.294,-41 158.294,-155 225.706,-155 225.706,-41 158.294,-41"/>
<text text-anchor="middle" x="192" y="-143" font-family="Helvetica,sans-Serif" font-size="10.00">Adc</text>
<polyline fill="none" stroke="black" points="158.294,-137 225.706,-137 "/>
<text text-anchor="middle" x="192" y="-125" font-family="Helvetica,sans-Serif" font-size="10.00"> </text>
<polyline fill="none" stroke="black" points="158.294,-119 225.706,-119 "/>
<text text-anchor="start" x="166.294" y="-107" font-family="Helvetica,sans-Serif" font-size="10.00">+ Adc()</text>
<text text-anchor="start" x="166.294" y="-97" font-family="Helvetica,sans-Serif" font-size="10.00">+ open()</text>
<text text-anchor="start" x="166.294" y="-87" font-family="Helvetica,sans-Serif" font-size="10.00">+ getattr()</text>
<text text-anchor="start" x="166.294" y="-77" font-family="Helvetica,sans-Serif" font-size="10.00">+ setattr()</text>
<text text-anchor="start" x="166.294" y="-67" font-family="Helvetica,sans-Serif" font-size="10.00">+ setattr()</text>
<text text-anchor="start" x="166.294" y="-57" font-family="Helvetica,sans-Serif" font-size="10.00">+ init()</text>
<text text-anchor="start" x="166.294" y="-47" font-family="Helvetica,sans-Serif" font-size="10.00">+ getports()</text>
</a>
</g>
</g>
<!-- Node7&#45;&gt;Node8 -->
<g id="edge7" class="edge"><title>Node7&#45;&gt;Node8</title>
<path fill="none" stroke="midnightblue" d="M300.93,-283.221C294.516,-266.264 285.887,-247.427 275,-232 261.209,-212.459 249.045,-215.359 235,-196 226.022,-183.624 218.345,-169.077 212.07,-155.068"/>
<polygon fill="none" stroke="midnightblue" points="297.756,-284.736 304.451,-292.947 304.338,-282.353 297.756,-284.736"/>
</g>
<!-- Node9 -->
<g id="node9" class="node"><title>Node9</title>
<g id="a_node9"><a xlink:href="class_dac.html" target="_top" xlink:title="DAC Class. ">
<polygon fill="none" stroke="black" points="244.186,-41 244.186,-155 303.814,-155 303.814,-41 244.186,-41"/>
<text text-anchor="middle" x="274" y="-143" font-family="Helvetica,sans-Serif" font-size="10.00">Dac</text>
<polyline fill="none" stroke="black" points="244.186,-137 303.814,-137 "/>
<text text-anchor="middle" x="274" y="-125" font-family="Helvetica,sans-Serif" font-size="10.00"> </text>
<polyline fill="none" stroke="black" points="244.186,-119 303.814,-119 "/>
<text text-anchor="start" x="252.186" y="-107" font-family="Helvetica,sans-Serif" font-size="10.00">+ Dac()</text>
<text text-anchor="start" x="252.186" y="-97" font-family="Helvetica,sans-Serif" font-size="10.00">+ open()</text>
<text text-anchor="start" x="252.186" y="-87" font-family="Helvetica,sans-Serif" font-size="10.00">+ getattr()</text>
<text text-anchor="start" x="252.186" y="-77" font-family="Helvetica,sans-Serif" font-size="10.00">+ setattr()</text>
<text text-anchor="start" x="252.186" y="-67" font-family="Helvetica,sans-Serif" font-size="10.00">+ get()</text>
<text text-anchor="start" x="252.186" y="-57" font-family="Helvetica,sans-Serif" font-size="10.00">+ setattr()</text>
<text text-anchor="start" x="252.186" y="-47" font-family="Helvetica,sans-Serif" font-size="10.00">+ init()</text>
</a>
</g>
</g>
<!-- Node7&#45;&gt;Node9 -->
<g id="edge8" class="edge"><title>Node7&#45;&gt;Node9</title>
<path fill="none" stroke="midnightblue" d="M306.772,-282.846C300.211,-246.038 290.996,-194.341 284.007,-155.138"/>
<polygon fill="none" stroke="midnightblue" points="303.348,-283.579 308.549,-292.809 310.239,-282.35 303.348,-283.579"/>
</g>
<!-- Node10 -->
<g id="node10" class="node"><title>Node10</title>
<g id="a_node10"><a xlink:href="class_i2c.html" target="_top" xlink:title="I2C Peripheral Class. ">
<polygon fill="none" stroke="red" points="322.294,-1 322.294,-195 389.706,-195 389.706,-1 322.294,-1"/>
<text text-anchor="middle" x="356" y="-183" font-family="Helvetica,sans-Serif" font-size="10.00">I2c</text>
<polyline fill="none" stroke="red" points="322.294,-177 389.706,-177 "/>
<text text-anchor="middle" x="356" y="-165" font-family="Helvetica,sans-Serif" font-size="10.00"> </text>
<polyline fill="none" stroke="red" points="322.294,-159 389.706,-159 "/>
<text text-anchor="start" x="330.294" y="-147" font-family="Helvetica,sans-Serif" font-size="10.00">+ I2c()</text>
<text text-anchor="start" x="330.294" y="-137" font-family="Helvetica,sans-Serif" font-size="10.00">+ open()</text>
<text text-anchor="start" x="330.294" y="-127" font-family="Helvetica,sans-Serif" font-size="10.00">+ getattr()</text>
<text text-anchor="start" x="330.294" y="-117" font-family="Helvetica,sans-Serif" font-size="10.00">+ setattr()</text>
<text text-anchor="start" x="330.294" y="-107" font-family="Helvetica,sans-Serif" font-size="10.00">+ setup()</text>
<text text-anchor="start" x="330.294" y="-97" font-family="Helvetica,sans-Serif" font-size="10.00">+ geterr()</text>
<text text-anchor="start" x="330.294" y="-87" font-family="Helvetica,sans-Serif" font-size="10.00">+ err()</text>
<text text-anchor="start" x="330.294" y="-77" font-family="Helvetica,sans-Serif" font-size="10.00">+ setup()</text>
<text text-anchor="start" x="330.294" y="-67" font-family="Helvetica,sans-Serif" font-size="10.00">+ setattr()</text>
<text text-anchor="start" x="330.294" y="-57" font-family="Helvetica,sans-Serif" font-size="10.00">+ init()</text>
<text text-anchor="start" x="330.294" y="-47" font-family="Helvetica,sans-Serif" font-size="10.00">+ read()</text>
<text text-anchor="start" x="330.294" y="-37" font-family="Helvetica,sans-Serif" font-size="10.00">+ write()</text>
<text text-anchor="start" x="330.294" y="-27" font-family="Helvetica,sans-Serif" font-size="10.00">+ set()</text>
<text text-anchor="start" x="330.294" y="-17" font-family="Helvetica,sans-Serif" font-size="10.00">+ clear()</text>
<text text-anchor="start" x="330.294" y="-7" font-family="Helvetica,sans-Serif" font-size="10.00">+ getports()</text>
</a>
</g>
</g>
<!-- Node7&#45;&gt;Node10 -->
<g id="edge9" class="edge"><title>Node7&#45;&gt;Node10</title>
<path fill="none" stroke="midnightblue" d="M323.234,-282.807C327.73,-257.589 333.47,-225.391 338.885,-195.01"/>
<polygon fill="none" stroke="midnightblue" points="319.761,-282.35 321.451,-292.809 326.652,-283.579 319.761,-282.35"/>
</g>
<!-- Node11 -->
<g id="node11" class="node"><title>Node11</title>
<g id="a_node11"><a xlink:href="class_pwm.html" target="_top" xlink:title="PWM Class. ">
<polygon fill="none" stroke="black" points="407.294,-31 407.294,-165 474.706,-165 474.706,-31 407.294,-31"/>
<text text-anchor="middle" x="441" y="-153" font-family="Helvetica,sans-Serif" font-size="10.00">Pwm</text>
<polyline fill="none" stroke="black" points="407.294,-147 474.706,-147 "/>
<text text-anchor="middle" x="441" y="-135" font-family="Helvetica,sans-Serif" font-size="10.00"> </text>
<polyline fill="none" stroke="black" points="407.294,-129 474.706,-129 "/>
<text text-anchor="start" x="415.294" y="-117" font-family="Helvetica,sans-Serif" font-size="10.00">+ Pwm()</text>
<text text-anchor="start" x="415.294" y="-107" font-family="Helvetica,sans-Serif" font-size="10.00">+ open()</text>
<text text-anchor="start" x="415.294" y="-97" font-family="Helvetica,sans-Serif" font-size="10.00">+ getattr()</text>
<text text-anchor="start" x="415.294" y="-87" font-family="Helvetica,sans-Serif" font-size="10.00">+ setattr()</text>
<text text-anchor="start" x="415.294" y="-77" font-family="Helvetica,sans-Serif" font-size="10.00">+ set()</text>
<text text-anchor="start" x="415.294" y="-67" font-family="Helvetica,sans-Serif" font-size="10.00">+ set()</text>
<text text-anchor="start" x="415.294" y="-57" font-family="Helvetica,sans-Serif" font-size="10.00">+ setattr()</text>
<text text-anchor="start" x="415.294" y="-47" font-family="Helvetica,sans-Serif" font-size="10.00">+ init()</text>
<text text-anchor="start" x="415.294" y="-37" font-family="Helvetica,sans-Serif" font-size="10.00">+ getports()</text>
</a>
</g>
</g>
<!-- Node7&#45;&gt;Node11 -->
<g id="edge10" class="edge"><title>Node7&#45;&gt;Node11</title>
<path fill="none" stroke="midnightblue" d="M328.779,-283.011C335.158,-266.029 343.838,-247.23 355,-232 369.733,-211.896 383.005,-215.909 398,-196 405.037,-186.656 411.229,-175.98 416.562,-165.207"/>
<polygon fill="none" stroke="midnightblue" points="325.364,-282.164 325.287,-292.759 331.954,-284.525 325.364,-282.164"/>
</g>
</g>
</svg>
