<?xml version="1.0" encoding="UTF-8" standalone="no"?>
<!DOCTYPE svg PUBLIC "-//W3C//DTD SVG 1.1//EN"
 "http://www.w3.org/Graphics/SVG/1.1/DTD/svg11.dtd">
<!-- Generated by graphviz version 2.34.0 (20130907.0228)
 -->
<!-- Title: Peripherals Pages: 1 -->
<svg width="248pt" height="526pt"
 viewBox="0.00 0.00 248.00 526.00" xmlns="http://www.w3.org/2000/svg" xmlns:xlink="http://www.w3.org/1999/xlink">
<g id="graph0" class="graph" transform="scale(1 1) rotate(0) translate(4 522)">
<title>Peripherals</title>
<!-- Node8 -->
<g id="node1" class="node"><title>Node8</title>
<g id="a_node1"><a xlink:href="group___r_t_c.html" target="_top" xlink:title="Real Time Clock. ">
<polygon fill="none" stroke="black" points="112.689,-498 112.689,-518 231.311,-518 231.311,-498 112.689,-498"/>
<text text-anchor="middle" x="172" y="-504" font-family="Helvetica,sans-Serif" font-size="10.00">Real Time Clock (RTC)</text>
</a>
</g>
</g>
<!-- Node0 -->
<g id="node2" class="node"><title>Node0</title>
<polygon fill="#bfbfbf" stroke="black" points="0.709473,-267 0.709473,-287 67.2905,-287 67.2905,-267 0.709473,-267"/>
<text text-anchor="middle" x="34" y="-273" font-family="Helvetica,sans-Serif" font-size="10.00">Peripherals</text>
</g>
<!-- Node0&#45;&gt;Node8 -->
<g id="edge8" class="edge"><title>Node0&#45;&gt;Node8</title>
<path fill="none" stroke="midnightblue" d="M35.6424,-297.049C38.0806,-338.683 49.6357,-435.029 104,-488 108.173,-492.066 113.137,-495.311 118.448,-497.899"/>
<polygon fill="midnightblue" stroke="midnightblue" points="39.1384,-296.879 35.1758,-287.053 32.146,-297.205 39.1384,-296.879"/>
</g>
<!-- Node4 -->
<g id="node3" class="node"><title>Node4</title>
<g id="a_node3"><a xlink:href="group___i2_c.html" target="_top" xlink:title="Inter&#45;IC Communications. ">
<polygon fill="none" stroke="black" points="114.256,-447 114.256,-479 229.744,-479 229.744,-447 114.256,-447"/>
<text text-anchor="start" x="122.256" y="-465" font-family="Helvetica,sans-Serif" font-size="10.00">Inter&#45;Integrated Circuit</text>
<text text-anchor="middle" x="172" y="-453" font-family="Helvetica,sans-Serif" font-size="10.00"> (I2C) Master</text>
</a>
</g>
</g>
<!-- Node0&#45;&gt;Node4 -->
<g id="edge4" class="edge"><title>Node0&#45;&gt;Node4</title>
<path fill="none" stroke="midnightblue" d="M38.472,-297.117C45.2492,-330.556 63.2943,-397.772 104,-437 107.953,-440.81 112.527,-444.078 117.39,-446.878"/>
<polygon fill="midnightblue" stroke="midnightblue" points="41.8865,-296.336 36.5892,-287.161 35.0084,-297.637 41.8865,-296.336"/>
</g>
<!-- Node2 -->
<g id="node4" class="node"><title>Node2</title>
<g id="a_node4"><a xlink:href="group___c_o_r_e.html" target="_top" xlink:title="Core MCU Access. ">
<polygon fill="none" stroke="black" points="118.988,-396 118.988,-428 225.012,-428 225.012,-396 118.988,-396"/>
<text text-anchor="start" x="126.988" y="-414" font-family="Helvetica,sans-Serif" font-size="10.00">Core Microcontroller</text>
<text text-anchor="middle" x="172" y="-402" font-family="Helvetica,sans-Serif" font-size="10.00"> Access</text>
</a>
</g>
</g>
<!-- Node0&#45;&gt;Node2 -->
<g id="edge2" class="edge"><title>Node0&#45;&gt;Node2</title>
<path fill="none" stroke="midnightblue" d="M42.8746,-296.768C53.424,-320.924 74.3169,-361.586 104,-386 108.625,-389.804 113.872,-393.096 119.344,-395.934"/>
<polygon fill="midnightblue" stroke="midnightblue" points="45.9714,-295.102 38.8758,-287.234 39.5162,-297.81 45.9714,-295.102"/>
</g>
<!-- Node9 -->
<g id="node5" class="node"><title>Node9</title>
<g id="a_node5"><a xlink:href="group___s_p_i.html" target="_top" xlink:title="Serial Peripheral Interface. ">
<polygon fill="none" stroke="black" points="106.192,-345 106.192,-377 237.808,-377 237.808,-345 106.192,-345"/>
<text text-anchor="start" x="114.192" y="-363" font-family="Helvetica,sans-Serif" font-size="10.00">Serial Peripheral Interface</text>
<text text-anchor="middle" x="172" y="-351" font-family="Helvetica,sans-Serif" font-size="10.00"> (SPI) Master</text>
</a>
</g>
</g>
<!-- Node0&#45;&gt;Node9 -->
<g id="edge9" class="edge"><title>Node0&#45;&gt;Node9</title>
<path fill="none" stroke="midnightblue" d="M52.3646,-294.41C65.6223,-306.969 84.8197,-323.644 104,-335 110.12,-338.623 116.836,-341.922 123.579,-344.861"/>
<polygon fill="midnightblue" stroke="midnightblue" points="54.5478,-291.652 44.9306,-287.206 49.6765,-296.679 54.5478,-291.652"/>
</g>
<!-- Node5 -->
<g id="node6" class="node"><title>Node5</title>
<g id="a_node6"><a xlink:href="group___p_i_o.html" target="_top" xlink:title="Pin Input/Output. ">
<polygon fill="none" stroke="black" points="114.532,-306 114.532,-326 229.468,-326 229.468,-306 114.532,-306"/>
<text text-anchor="middle" x="172" y="-312" font-family="Helvetica,sans-Serif" font-size="10.00">Pin Input/Output (PIO)</text>
</a>
</g>
</g>
<!-- Node0&#45;&gt;Node5 -->
<g id="edge5" class="edge"><title>Node0&#45;&gt;Node5</title>
<path fill="none" stroke="midnightblue" d="M77.3628,-289.148C96.1403,-294.533 117.973,-300.794 135.832,-305.915"/>
<polygon fill="midnightblue" stroke="midnightblue" points="78.1528,-285.734 67.5754,-286.341 76.2231,-292.462 78.1528,-285.734"/>
</g>
<!-- Node10 -->
<g id="node7" class="node"><title>Node10</title>
<g id="a_node7"><a xlink:href="group___t_m_r.html" target="_top" xlink:title="Timer. ">
<polygon fill="none" stroke="black" points="135.858,-267 135.858,-287 208.142,-287 208.142,-267 135.858,-267"/>
<text text-anchor="middle" x="172" y="-273" font-family="Helvetica,sans-Serif" font-size="10.00">Timer (TMR)</text>
</a>
</g>
</g>
<!-- Node0&#45;&gt;Node10 -->
<g id="edge10" class="edge"><title>Node0&#45;&gt;Node10</title>
<path fill="none" stroke="midnightblue" d="M77.6226,-277C96.3415,-277 118.056,-277 135.832,-277"/>
<polygon fill="midnightblue" stroke="midnightblue" points="77.5754,-273.5 67.5754,-277 77.5754,-280.5 77.5754,-273.5"/>
</g>
<!-- Node1 -->
<g id="node8" class="node"><title>Node1</title>
<g id="a_node8"><a xlink:href="group___a_d_c.html" target="_top" xlink:title="Analog to Digital Converter. ">
<polygon fill="none" stroke="black" points="104.247,-216 104.247,-248 239.753,-248 239.753,-216 104.247,-216"/>
<text text-anchor="start" x="112.247" y="-234" font-family="Helvetica,sans-Serif" font-size="10.00">Analog to Digital Converter</text>
<text text-anchor="middle" x="172" y="-222" font-family="Helvetica,sans-Serif" font-size="10.00"> (ADC)</text>
</a>
</g>
</g>
<!-- Node0&#45;&gt;Node1 -->
<g id="edge1" class="edge"><title>Node0&#45;&gt;Node1</title>
<path fill="none" stroke="midnightblue" d="M75.3705,-263.642C90.1442,-258.754 107.015,-253.172 122.43,-248.071"/>
<polygon fill="midnightblue" stroke="midnightblue" points="73.9154,-260.437 65.5211,-266.901 76.1143,-267.083 73.9154,-260.437"/>
</g>
<!-- Node7 -->
<g id="node9" class="node"><title>Node7</title>
<g id="a_node9"><a xlink:href="group___q_e_i.html" target="_top" xlink:title="Quadrature Encoder Interface. ">
<polygon fill="none" stroke="black" points="118.695,-165 118.695,-197 225.305,-197 225.305,-165 118.695,-165"/>
<text text-anchor="start" x="126.695" y="-183" font-family="Helvetica,sans-Serif" font-size="10.00">Quadrature Encoder</text>
<text text-anchor="middle" x="172" y="-171" font-family="Helvetica,sans-Serif" font-size="10.00"> Interface (QEI)</text>
</a>
</g>
</g>
<!-- Node0&#45;&gt;Node7 -->
<g id="edge7" class="edge"><title>Node0&#45;&gt;Node7</title>
<path fill="none" stroke="midnightblue" d="M49.2101,-258.743C62.0961,-243.215 82.3415,-221.233 104,-207 109.631,-203.3 115.867,-200.004 122.203,-197.106"/>
<polygon fill="midnightblue" stroke="midnightblue" points="46.4111,-256.638 42.8461,-266.615 51.8547,-261.039 46.4111,-256.638"/>
</g>
<!-- Node6 -->
<g id="node10" class="node"><title>Node6</title>
<g id="a_node10"><a xlink:href="group___p_w_m.html" target="_top" xlink:title="Pulse Width Modulation. ">
<polygon fill="none" stroke="black" points="111.473,-114 111.473,-146 232.527,-146 232.527,-114 111.473,-114"/>
<text text-anchor="start" x="119.473" y="-132" font-family="Helvetica,sans-Serif" font-size="10.00">Pulse Width Modulation</text>
<text text-anchor="middle" x="172" y="-120" font-family="Helvetica,sans-Serif" font-size="10.00"> (PWM)</text>
</a>
</g>
</g>
<!-- Node0&#45;&gt;Node6 -->
<g id="edge6" class="edge"><title>Node0&#45;&gt;Node6</title>
<path fill="none" stroke="midnightblue" d="M41.5945,-256.978C51.2883,-230.442 71.801,-183.752 104,-156 108.442,-152.171 113.511,-148.872 118.828,-146.037"/>
<polygon fill="midnightblue" stroke="midnightblue" points="38.1934,-256.101 38.2016,-266.696 44.8022,-258.408 38.1934,-256.101"/>
</g>
<!-- Node11 -->
<g id="node11" class="node"><title>Node11</title>
<g id="a_node11"><a xlink:href="group___u_a_r_t.html" target="_top" xlink:title="UART. ">
<polygon fill="none" stroke="black" points="110.36,-51 110.36,-95 233.64,-95 233.64,-51 110.36,-51"/>
<text text-anchor="start" x="118.36" y="-81" font-family="Helvetica,sans-Serif" font-size="10.00">Universal Asynchronous</text>
<text text-anchor="start" x="118.36" y="-69" font-family="Helvetica,sans-Serif" font-size="10.00"> Receiver/Transmitter</text>
<text text-anchor="middle" x="172" y="-57" font-family="Helvetica,sans-Serif" font-size="10.00"> (UART)</text>
</a>
</g>
</g>
<!-- Node0&#45;&gt;Node11 -->
<g id="edge11" class="edge"><title>Node0&#45;&gt;Node11</title>
<path fill="none" stroke="midnightblue" d="M38.1988,-256.709C44.6935,-221.652 62.4908,-149.258 104,-105 107.439,-101.333 111.385,-98.0408 115.604,-95.0941"/>
<polygon fill="midnightblue" stroke="midnightblue" points="34.727,-256.246 36.4716,-266.696 41.6246,-257.439 34.727,-256.246"/>
</g>
<!-- Node3 -->
<g id="node12" class="node"><title>Node3</title>
<g id="a_node12"><a xlink:href="group___e_i_n_t.html" target="_top" xlink:title="External Interrupts. ">
<polygon fill="none" stroke="black" points="123.148,-0 123.148,-32 220.852,-32 220.852,-0 123.148,-0"/>
<text text-anchor="start" x="131.148" y="-18" font-family="Helvetica,sans-Serif" font-size="10.00">External Interrupts</text>
<text text-anchor="middle" x="172" y="-6" font-family="Helvetica,sans-Serif" font-size="10.00"> (EINT)</text>
</a>
</g>
</g>
<!-- Node0&#45;&gt;Node3 -->
<g id="edge3" class="edge"><title>Node0&#45;&gt;Node3</title>
<path fill="none" stroke="midnightblue" d="M35.2314,-256.303C36.8415,-211.428 46.8355,-104.216 104,-42 109.234,-36.3036 115.862,-31.8414 122.903,-28.3496"/>
<polygon fill="midnightblue" stroke="midnightblue" points="31.7268,-256.45 34.976,-266.535 38.7246,-256.625 31.7268,-256.45"/>
</g>
</g>
</svg>
