<?xml version="1.0" encoding="UTF-8" standalone="no"?>
<!DOCTYPE svg PUBLIC "-//W3C//DTD SVG 1.1//EN"
 "http://www.w3.org/Graphics/SVG/1.1/DTD/svg11.dtd">
<!-- Generated by graphviz version 2.34.0 (20130907.0228)
 -->
<!-- Title: /Users/tgil/git/CoActionOS/CoActionOS/src/sys/unistd/_exit.c Pages: 1 -->
<svg width="845pt" height="286pt"
 viewBox="0.00 0.00 845.00 286.00" xmlns="http://www.w3.org/2000/svg" xmlns:xlink="http://www.w3.org/1999/xlink">
<g id="graph0" class="graph" transform="scale(1 1) rotate(0) translate(4 282)">
<title>/Users/tgil/git/CoActionOS/CoActionOS/src/sys/unistd/_exit.c</title>
<!-- Node1 -->
<g id="node1" class="node"><title>Node1</title>
<polygon fill="#bfbfbf" stroke="black" points="193.931,-233 193.931,-277 316.069,-277 316.069,-233 193.931,-233"/>
<text text-anchor="start" x="201.931" y="-263" font-family="Helvetica,sans-Serif" font-size="10.00">/Users/tgil/git/CoAction</text>
<text text-anchor="start" x="201.931" y="-251" font-family="Helvetica,sans-Serif" font-size="10.00">OS/CoActionOS/src/sys</text>
<text text-anchor="middle" x="255" y="-239" font-family="Helvetica,sans-Serif" font-size="10.00">/unistd/_exit.c</text>
</g>
<!-- Node2 -->
<g id="node2" class="node"><title>Node2</title>
<g id="a_node2"><a xlink:href="config_8h.html" target="_top" xlink:title="config.h">
<polygon fill="none" stroke="black" points="-0.512207,-175 -0.512207,-195 50.5122,-195 50.5122,-175 -0.512207,-175"/>
<text text-anchor="middle" x="25" y="-181" font-family="Helvetica,sans-Serif" font-size="10.00">config.h</text>
</a>
</g>
</g>
<!-- Node1&#45;&gt;Node2 -->
<g id="edge1" class="edge"><title>Node1&#45;&gt;Node2</title>
<path fill="none" stroke="midnightblue" d="M193.666,-235.867C151.154,-223.298 96.0279,-207 60.58,-196.519"/>
<polygon fill="midnightblue" stroke="midnightblue" points="61.2709,-193.074 50.6889,-193.595 59.2862,-199.787 61.2709,-193.074"/>
</g>
<!-- Node3 -->
<g id="node3" class="node"><title>Node3</title>
<polygon fill="none" stroke="#bfbfbf" points="391.707,-1 391.707,-21 448.293,-21 448.293,-1 391.707,-1"/>
<text text-anchor="middle" x="420" y="-7" font-family="Helvetica,sans-Serif" font-size="10.00">stdbool.h</text>
</g>
<!-- Node1&#45;&gt;Node3 -->
<g id="edge2" class="edge"><title>Node1&#45;&gt;Node3</title>
<path fill="none" stroke="midnightblue" d="M193.724,-246.128C139.434,-236.305 72.4394,-215.473 98,-174 161.059,-71.6854 310.731,-31.7095 381.568,-18.1224"/>
<polygon fill="midnightblue" stroke="midnightblue" points="382.228,-21.5598 391.428,-16.3049 380.959,-14.6757 382.228,-21.5598"/>
</g>
<!-- Node4 -->
<g id="node4" class="node"><title>Node4</title>
<polygon fill="none" stroke="#bfbfbf" points="106.766,-175 106.766,-195 157.234,-195 157.234,-175 106.766,-175"/>
<text text-anchor="middle" x="132" y="-181" font-family="Helvetica,sans-Serif" font-size="10.00">signal.h</text>
</g>
<!-- Node1&#45;&gt;Node4 -->
<g id="edge3" class="edge"><title>Node1&#45;&gt;Node4</title>
<path fill="none" stroke="midnightblue" d="M216.756,-232.857C197.358,-222.133 174.341,-209.408 157.191,-199.927"/>
<polygon fill="midnightblue" stroke="midnightblue" points="158.773,-196.802 148.327,-195.027 155.386,-202.928 158.773,-196.802"/>
</g>
<!-- Node5 -->
<g id="node5" class="node"><title>Node5</title>
<polygon fill="none" stroke="#bfbfbf" points="175.488,-175 175.488,-195 226.512,-195 226.512,-175 175.488,-175"/>
<text text-anchor="middle" x="201" y="-181" font-family="Helvetica,sans-Serif" font-size="10.00">unistd.h</text>
</g>
<!-- Node1&#45;&gt;Node5 -->
<g id="edge4" class="edge"><title>Node1&#45;&gt;Node5</title>
<path fill="none" stroke="midnightblue" d="M238.21,-232.857C230.608,-223.284 221.74,-212.117 214.568,-203.086"/>
<polygon fill="midnightblue" stroke="midnightblue" points="217.269,-200.858 208.309,-195.204 211.787,-205.212 217.269,-200.858"/>
</g>
<!-- Node6 -->
<g id="node6" class="node"><title>Node6</title>
<polygon fill="none" stroke="#bfbfbf" points="274.544,-117 274.544,-137 339.456,-137 339.456,-117 274.544,-117"/>
<text text-anchor="middle" x="307" y="-123" font-family="Helvetica,sans-Serif" font-size="10.00">sys/reent.h</text>
</g>
<!-- Node1&#45;&gt;Node6 -->
<g id="edge5" class="edge"><title>Node1&#45;&gt;Node6</title>
<path fill="none" stroke="midnightblue" d="M257.721,-232.886C260.39,-216.318 265.354,-192.964 274,-174 278.72,-163.646 285.921,-153.248 292.393,-144.964"/>
<polygon fill="midnightblue" stroke="midnightblue" points="295.129,-147.148 298.739,-137.187 289.705,-142.722 295.129,-147.148"/>
</g>
<!-- Node7 -->
<g id="node7" class="node"><title>Node7</title>
<polygon fill="none" stroke="#bfbfbf" points="283.158,-175 283.158,-195 330.842,-195 330.842,-175 283.158,-175"/>
<text text-anchor="middle" x="307" y="-181" font-family="Helvetica,sans-Serif" font-size="10.00">errno.h</text>
</g>
<!-- Node1&#45;&gt;Node7 -->
<g id="edge6" class="edge"><title>Node1&#45;&gt;Node7</title>
<path fill="none" stroke="midnightblue" d="M271.168,-232.857C278.413,-223.383 286.852,-212.347 293.72,-203.366"/>
<polygon fill="midnightblue" stroke="midnightblue" points="296.667,-205.274 299.962,-195.204 291.107,-201.021 296.667,-205.274"/>
</g>
<!-- Node8 -->
<g id="node8" class="node"><title>Node8</title>
<polygon fill="none" stroke="#bfbfbf" points="349.247,-175 349.247,-195 464.753,-195 464.753,-175 349.247,-175"/>
<text text-anchor="middle" x="407" y="-181" font-family="Helvetica,sans-Serif" font-size="10.00">../sched/sched_flags.h</text>
</g>
<!-- Node1&#45;&gt;Node8 -->
<g id="edge7" class="edge"><title>Node1&#45;&gt;Node8</title>
<path fill="none" stroke="midnightblue" d="M302.261,-232.857C326.898,-221.835 356.26,-208.699 377.619,-199.144"/>
<polygon fill="midnightblue" stroke="midnightblue" points="379.124,-202.305 386.823,-195.027 376.265,-195.915 379.124,-202.305"/>
</g>
<!-- Node9 -->
<g id="node9" class="node"><title>Node9</title>
<g id="a_node9"><a xlink:href="sig__local_8h_source.html" target="_top" xlink:title="../signal/sig_local.h">
<polygon fill="none" stroke="black" points="482.754,-175 482.754,-195 583.246,-195 583.246,-175 482.754,-175"/>
<text text-anchor="middle" x="533" y="-181" font-family="Helvetica,sans-Serif" font-size="10.00">../signal/sig_local.h</text>
</a>
</g>
</g>
<!-- Node1&#45;&gt;Node9 -->
<g id="edge8" class="edge"><title>Node1&#45;&gt;Node9</title>
<path fill="none" stroke="midnightblue" d="M316.352,-238.993C367.597,-226.458 439.574,-208.853 486.249,-197.435"/>
<polygon fill="midnightblue" stroke="midnightblue" points="487.215,-200.802 496.097,-195.027 485.552,-194.003 487.215,-200.802"/>
</g>
<!-- Node11 -->
<g id="node11" class="node"><title>Node11</title>
<g id="a_node11"><a xlink:href="sysfs_8h_source.html" target="_top" xlink:title="sysfs.h">
<polygon fill="none" stroke="black" points="601.441,-175 601.441,-195 648.559,-195 648.559,-175 601.441,-175"/>
<text text-anchor="middle" x="625" y="-181" font-family="Helvetica,sans-Serif" font-size="10.00">sysfs.h</text>
</a>
</g>
</g>
<!-- Node1&#45;&gt;Node11 -->
<g id="edge11" class="edge"><title>Node1&#45;&gt;Node11</title>
<path fill="none" stroke="midnightblue" d="M316.34,-245.774C382.112,-236.431 489.692,-219.645 591.472,-195.885"/>
<polygon fill="midnightblue" stroke="midnightblue" points="592.374,-199.269 601.302,-193.564 590.766,-192.456 592.374,-199.269"/>
</g>
<!-- Node9&#45;&gt;Node6 -->
<g id="edge10" class="edge"><title>Node9&#45;&gt;Node6</title>
<path fill="none" stroke="midnightblue" d="M496.438,-174.94C456.19,-164.967 391.586,-148.959 349.214,-138.46"/>
<polygon fill="midnightblue" stroke="midnightblue" points="350.024,-135.055 339.476,-136.047 348.341,-141.85 350.024,-135.055"/>
</g>
<!-- Node10 -->
<g id="node10" class="node"><title>Node10</title>
<polygon fill="none" stroke="#bfbfbf" points="503.879,-1 503.879,-21 552.121,-21 552.121,-1 503.879,-1"/>
<text text-anchor="middle" x="528" y="-7" font-family="Helvetica,sans-Serif" font-size="10.00">stdint.h</text>
</g>
<!-- Node9&#45;&gt;Node10 -->
<g id="edge9" class="edge"><title>Node9&#45;&gt;Node10</title>
<path fill="none" stroke="midnightblue" d="M517.257,-174.956C505.096,-166.98 489.171,-154.124 482,-138 467.552,-105.512 468.393,-90.8491 482,-58 487.014,-45.8945 496.931,-35.3137 506.277,-27.3619"/>
<polygon fill="midnightblue" stroke="midnightblue" points="508.542,-30.0326 514.206,-21.0784 504.195,-24.5465 508.542,-30.0326"/>
</g>
<!-- Node11&#45;&gt;Node3 -->
<g id="edge12" class="edge"><title>Node11&#45;&gt;Node3</title>
<path fill="none" stroke="midnightblue" d="M601.392,-176.145C567.731,-164.811 509.096,-144.512 501,-138 464.326,-108.504 439.024,-57.7417 427.343,-30.5219"/>
<polygon fill="midnightblue" stroke="midnightblue" points="430.474,-28.934 423.417,-21.0316 424.006,-31.61 430.474,-28.934"/>
</g>
<!-- Node11&#45;&gt;Node10 -->
<g id="edge14" class="edge"><title>Node11&#45;&gt;Node10</title>
<path fill="none" stroke="midnightblue" d="M601.228,-175.646C570.432,-164.588 520.062,-145.603 515,-138 493.16,-105.194 508.269,-56.5719 519.298,-30.3542"/>
<polygon fill="midnightblue" stroke="midnightblue" points="522.509,-31.7465 523.378,-21.1873 516.114,-28.8998 522.509,-31.7465"/>
</g>
<!-- Node12 -->
<g id="node12" class="node"><title>Node12</title>
<polygon fill="none" stroke="#bfbfbf" points="591.99,-117 591.99,-137 658.01,-137 658.01,-117 591.99,-117"/>
<text text-anchor="middle" x="625" y="-123" font-family="Helvetica,sans-Serif" font-size="10.00">sys/types.h</text>
</g>
<!-- Node11&#45;&gt;Node12 -->
<g id="edge13" class="edge"><title>Node11&#45;&gt;Node12</title>
<path fill="none" stroke="midnightblue" d="M625,-174.753C625,-167.25 625,-156.424 625,-147.078"/>
<polygon fill="midnightblue" stroke="midnightblue" points="628.5,-147.075 625,-137.075 621.5,-147.075 628.5,-147.075"/>
</g>
<!-- Node13 -->
<g id="node13" class="node"><title>Node13</title>
<polygon fill="none" stroke="#bfbfbf" points="786.209,-117 786.209,-137 837.791,-137 837.791,-117 786.209,-117"/>
<text text-anchor="middle" x="812" y="-123" font-family="Helvetica,sans-Serif" font-size="10.00">stddef.h</text>
</g>
<!-- Node11&#45;&gt;Node13 -->
<g id="edge15" class="edge"><title>Node11&#45;&gt;Node13</title>
<path fill="none" stroke="midnightblue" d="M648.684,-176.908C680.844,-167.277 738.608,-149.978 776.11,-138.748"/>
<polygon fill="midnightblue" stroke="midnightblue" points="777.536,-141.974 786.112,-135.753 775.528,-135.269 777.536,-141.974"/>
</g>
<!-- Node14 -->
<g id="node14" class="node"><title>Node14</title>
<polygon fill="none" stroke="#bfbfbf" points="728.882,-59 728.882,-79 787.118,-79 787.118,-59 728.882,-59"/>
<text text-anchor="middle" x="758" y="-65" font-family="Helvetica,sans-Serif" font-size="10.00">sys/stat.h</text>
</g>
<!-- Node11&#45;&gt;Node14 -->
<g id="edge16" class="edge"><title>Node11&#45;&gt;Node14</title>
<path fill="none" stroke="midnightblue" d="M648.799,-180.522C674.393,-175.539 714.56,-163.923 738,-138 750.101,-124.617 754.901,-104.257 756.794,-89.3025"/>
<polygon fill="midnightblue" stroke="midnightblue" points="760.299,-89.4085 757.747,-79.1256 753.33,-88.7555 760.299,-89.4085"/>
</g>
<!-- Node15 -->
<g id="node15" class="node"><title>Node15</title>
<polygon fill="none" stroke="#bfbfbf" points="524.323,-117 524.323,-137 573.677,-137 573.677,-117 524.323,-117"/>
<text text-anchor="middle" x="549" y="-123" font-family="Helvetica,sans-Serif" font-size="10.00">dirent.h</text>
</g>
<!-- Node11&#45;&gt;Node15 -->
<g id="edge17" class="edge"><title>Node11&#45;&gt;Node15</title>
<path fill="none" stroke="midnightblue" d="M612.45,-174.753C600.83,-166.19 583.333,-153.298 569.654,-143.219"/>
<polygon fill="midnightblue" stroke="midnightblue" points="571.443,-140.19 561.316,-137.075 567.291,-145.825 571.443,-140.19"/>
</g>
<!-- Node16 -->
<g id="node16" class="node"><title>Node16</title>
<g id="a_node16"><a xlink:href="device_8h_source.html" target="_top" xlink:title="device.h">
<polygon fill="none" stroke="black" points="676.377,-117 676.377,-137 729.623,-137 729.623,-117 676.377,-117"/>
<text text-anchor="middle" x="703" y="-123" font-family="Helvetica,sans-Serif" font-size="10.00">device.h</text>
</a>
</g>
</g>
<!-- Node11&#45;&gt;Node16 -->
<g id="edge18" class="edge"><title>Node11&#45;&gt;Node16</title>
<path fill="none" stroke="midnightblue" d="M637.88,-174.753C649.92,-166.109 668.106,-153.052 682.203,-142.931"/>
<polygon fill="midnightblue" stroke="midnightblue" points="684.278,-145.75 690.36,-137.075 680.195,-140.064 684.278,-145.75"/>
</g>
<!-- Node16&#45;&gt;Node3 -->
<g id="edge20" class="edge"><title>Node16&#45;&gt;Node3</title>
<path fill="none" stroke="midnightblue" d="M676.294,-118.459C673.166,-117.612 670.015,-116.776 667,-116 599.764,-98.7063 578.194,-108.745 515,-80 485.648,-66.6483 456.113,-43.6539 437.943,-28.1432"/>
<polygon fill="midnightblue" stroke="midnightblue" points="439.824,-25.1397 429.987,-21.2051 435.224,-30.4154 439.824,-25.1397"/>
</g>
<!-- Node16&#45;&gt;Node14 -->
<g id="edge19" class="edge"><title>Node16&#45;&gt;Node14</title>
<path fill="none" stroke="midnightblue" d="M712.082,-116.753C720.171,-108.516 732.195,-96.2738 741.91,-86.3824"/>
<polygon fill="midnightblue" stroke="midnightblue" points="744.577,-88.6622 749.087,-79.0752 739.583,-83.7572 744.577,-88.6622"/>
</g>
<!-- Node17 -->
<g id="node17" class="node"><title>Node17</title>
<g id="a_node17"><a xlink:href="types_8h_source.html" target="_top" xlink:title="hwpl/types.h">
<polygon fill="none" stroke="black" points="524.207,-59 524.207,-79 595.793,-79 595.793,-59 524.207,-59"/>
<text text-anchor="middle" x="560" y="-65" font-family="Helvetica,sans-Serif" font-size="10.00">hwpl/types.h</text>
</a>
</g>
</g>
<!-- Node16&#45;&gt;Node17 -->
<g id="edge21" class="edge"><title>Node16&#45;&gt;Node17</title>
<path fill="none" stroke="midnightblue" d="M679.706,-116.878C656.127,-107.644 619.455,-93.283 592.912,-82.8887"/>
<polygon fill="midnightblue" stroke="midnightblue" points="593.871,-79.5056 583.284,-79.1181 591.319,-86.0236 593.871,-79.5056"/>
</g>
<!-- Node18 -->
<g id="node18" class="node"><title>Node18</title>
<polygon fill="none" stroke="#bfbfbf" points="667.431,-1 667.431,-21 734.569,-21 734.569,-1 667.431,-1"/>
<text text-anchor="middle" x="701" y="-7" font-family="Helvetica,sans-Serif" font-size="10.00">hwpl/arch.h</text>
</g>
<!-- Node16&#45;&gt;Node18 -->
<g id="edge24" class="edge"><title>Node16&#45;&gt;Node18</title>
<path fill="none" stroke="midnightblue" d="M702.836,-116.671C702.509,-98.0407 701.77,-55.8976 701.336,-31.1428"/>
<polygon fill="midnightblue" stroke="midnightblue" points="704.835,-31.0764 701.16,-21.1394 697.836,-31.1993 704.835,-31.0764"/>
</g>
<!-- Node19 -->
<g id="node19" class="node"><title>Node19</title>
<g id="a_node19"><a xlink:href="pio_8h.html" target="_top" xlink:title="General Purpose Input/Output Header File. ">
<polygon fill="none" stroke="black" points="613.707,-59 613.707,-79 670.293,-79 670.293,-59 613.707,-59"/>
<text text-anchor="middle" x="642" y="-65" font-family="Helvetica,sans-Serif" font-size="10.00">dev/pio.h</text>
</a>
</g>
</g>
<!-- Node16&#45;&gt;Node19 -->
<g id="edge25" class="edge"><title>Node16&#45;&gt;Node19</title>
<path fill="none" stroke="midnightblue" d="M692.927,-116.753C683.867,-108.435 670.355,-96.031 659.526,-86.0893"/>
<polygon fill="midnightblue" stroke="midnightblue" points="661.619,-83.2596 651.885,-79.0752 656.885,-88.4162 661.619,-83.2596"/>
</g>
<!-- Node17&#45;&gt;Node3 -->
<g id="edge23" class="edge"><title>Node17&#45;&gt;Node3</title>
<path fill="none" stroke="midnightblue" d="M537.195,-58.878C514.11,-49.6441 478.208,-35.283 452.222,-24.8887"/>
<polygon fill="midnightblue" stroke="midnightblue" points="453.38,-21.5824 442.795,-21.1181 450.78,-28.0817 453.38,-21.5824"/>
</g>
<!-- Node17&#45;&gt;Node10 -->
<g id="edge22" class="edge"><title>Node17&#45;&gt;Node10</title>
<path fill="none" stroke="midnightblue" d="M554.716,-58.7527C550.242,-50.9242 543.701,-39.4761 538.21,-29.8679"/>
<polygon fill="midnightblue" stroke="midnightblue" points="541.186,-28.0211 533.186,-21.0752 535.108,-31.4941 541.186,-28.0211"/>
</g>
<!-- Node19&#45;&gt;Node3 -->
<g id="edge26" class="edge"><title>Node19&#45;&gt;Node3</title>
<path fill="none" stroke="midnightblue" d="M613.376,-60.4269C610.214,-59.6023 607.04,-58.7799 604,-58 553.71,-45.0972 495.567,-30.6381 458.323,-21.4346"/>
<polygon fill="midnightblue" stroke="midnightblue" points="458.944,-17.9828 448.397,-18.9838 457.266,-24.7788 458.944,-17.9828"/>
</g>
<!-- Node19&#45;&gt;Node10 -->
<g id="edge27" class="edge"><title>Node19&#45;&gt;Node10</title>
<path fill="none" stroke="midnightblue" d="M623.43,-58.878C605.047,-49.8475 576.68,-35.9132 555.647,-25.5812"/>
<polygon fill="midnightblue" stroke="midnightblue" points="557.081,-22.3857 546.562,-21.1181 553.994,-28.6686 557.081,-22.3857"/>
</g>
<!-- Node19&#45;&gt;Node18 -->
<g id="edge29" class="edge"><title>Node19&#45;&gt;Node18</title>
<path fill="none" stroke="midnightblue" d="M651.743,-58.7527C660.506,-50.4349 673.575,-38.031 684.049,-28.0893"/>
<polygon fill="midnightblue" stroke="midnightblue" points="686.595,-30.4981 691.439,-21.0752 681.776,-25.4209 686.595,-30.4981"/>
</g>
<!-- Node20 -->
<g id="node20" class="node"><title>Node20</title>
<g id="a_node20"><a xlink:href="ioctl_8h_source.html" target="_top" xlink:title="ioctl.h">
<polygon fill="none" stroke="black" points="606.938,-1 606.938,-21 649.062,-21 649.062,-1 606.938,-1"/>
<text text-anchor="middle" x="628" y="-7" font-family="Helvetica,sans-Serif" font-size="10.00">ioctl.h</text>
</a>
</g>
</g>
<!-- Node19&#45;&gt;Node20 -->
<g id="edge28" class="edge"><title>Node19&#45;&gt;Node20</title>
<path fill="none" stroke="midnightblue" d="M639.688,-58.7527C637.813,-51.2504 635.106,-40.4238 632.77,-31.0781"/>
<polygon fill="midnightblue" stroke="midnightblue" points="636.09,-29.9277 630.269,-21.0752 629.299,-31.6255 636.09,-29.9277"/>
</g>
</g>
</svg>
