<?xml version="1.0" encoding="UTF-8" standalone="no"?>
<!DOCTYPE svg PUBLIC "-//W3C//DTD SVG 1.1//EN"
 "http://www.w3.org/Graphics/SVG/1.1/DTD/svg11.dtd">
<!-- Generated by graphviz version 2.34.0 (20130907.0228)
 -->
<!-- Title: /Users/tgil/git/CoActionOS/CoActionOS/src/sys/signal/_kill.c Pages: 1 -->
<svg width="337pt" height="170pt"
 viewBox="0.00 0.00 337.00 170.00" xmlns="http://www.w3.org/2000/svg" xmlns:xlink="http://www.w3.org/1999/xlink">
<g id="graph0" class="graph" transform="scale(1 1) rotate(0) translate(4 166)">
<title>/Users/tgil/git/CoActionOS/CoActionOS/src/sys/signal/_kill.c</title>
<!-- Node1 -->
<g id="node1" class="node"><title>Node1</title>
<polygon fill="#bfbfbf" stroke="black" points="66.9312,-117 66.9312,-161 189.069,-161 189.069,-117 66.9312,-117"/>
<text text-anchor="start" x="74.9312" y="-147" font-family="Helvetica,sans-Serif" font-size="10.00">/Users/tgil/git/CoAction</text>
<text text-anchor="start" x="74.9312" y="-135" font-family="Helvetica,sans-Serif" font-size="10.00">OS/CoActionOS/src/sys</text>
<text text-anchor="middle" x="128" y="-123" font-family="Helvetica,sans-Serif" font-size="10.00">/signal/_kill.c</text>
</g>
<!-- Node2 -->
<g id="node2" class="node"><title>Node2</title>
<polygon fill="none" stroke="#bfbfbf" points="-0.233887,-59 -0.233887,-79 50.2339,-79 50.2339,-59 -0.233887,-59"/>
<text text-anchor="middle" x="25" y="-65" font-family="Helvetica,sans-Serif" font-size="10.00">signal.h</text>
</g>
<!-- Node1&#45;&gt;Node2 -->
<g id="edge1" class="edge"><title>Node1&#45;&gt;Node2</title>
<path fill="none" stroke="midnightblue" d="M95.9748,-116.857C80.1823,-106.431 61.5246,-94.1133 47.303,-84.7243"/>
<polygon fill="midnightblue" stroke="midnightblue" points="48.9463,-81.6153 38.6726,-79.0266 45.0896,-87.4571 48.9463,-81.6153"/>
</g>
<!-- Node3 -->
<g id="node3" class="node"><title>Node3</title>
<polygon fill="none" stroke="#bfbfbf" points="68.1577,-59 68.1577,-79 115.842,-79 115.842,-59 68.1577,-59"/>
<text text-anchor="middle" x="92" y="-65" font-family="Helvetica,sans-Serif" font-size="10.00">errno.h</text>
</g>
<!-- Node1&#45;&gt;Node3 -->
<g id="edge2" class="edge"><title>Node1&#45;&gt;Node3</title>
<path fill="none" stroke="midnightblue" d="M116.807,-116.857C111.948,-107.679 106.313,-97.0355 101.643,-88.2141"/>
<polygon fill="midnightblue" stroke="midnightblue" points="104.645,-86.4042 96.8727,-79.2039 98.4583,-89.6794 104.645,-86.4042"/>
</g>
<!-- Node4 -->
<g id="node4" class="node"><title>Node4</title>
<g id="a_node4"><a xlink:href="sig__local_8h_source.html" target="_top" xlink:title="sig_local.h">
<polygon fill="none" stroke="black" points="133.375,-59 133.375,-79 196.625,-79 196.625,-59 133.375,-59"/>
<text text-anchor="middle" x="165" y="-65" font-family="Helvetica,sans-Serif" font-size="10.00">sig_local.h</text>
</a>
</g>
</g>
<!-- Node1&#45;&gt;Node4 -->
<g id="edge3" class="edge"><title>Node1&#45;&gt;Node4</title>
<path fill="none" stroke="midnightblue" d="M139.504,-116.857C144.498,-107.679 150.289,-97.0355 155.089,-88.2141"/>
<polygon fill="midnightblue" stroke="midnightblue" points="158.287,-89.6607 159.992,-79.2039 152.138,-86.315 158.287,-89.6607"/>
</g>
<!-- Node7 -->
<g id="node7" class="node"><title>Node7</title>
<polygon fill="none" stroke="#bfbfbf" points="214.247,-59 214.247,-79 329.753,-79 329.753,-59 214.247,-59"/>
<text text-anchor="middle" x="272" y="-65" font-family="Helvetica,sans-Serif" font-size="10.00">../sched/sched_flags.h</text>
</g>
<!-- Node1&#45;&gt;Node7 -->
<g id="edge6" class="edge"><title>Node1&#45;&gt;Node7</title>
<path fill="none" stroke="midnightblue" d="M172.773,-116.857C195.903,-105.935 223.43,-92.9359 243.616,-83.4034"/>
<polygon fill="midnightblue" stroke="midnightblue" points="245.337,-86.4616 252.885,-79.0266 242.348,-80.1318 245.337,-86.4616"/>
</g>
<!-- Node5 -->
<g id="node5" class="node"><title>Node5</title>
<polygon fill="none" stroke="#bfbfbf" points="102.879,-1 102.879,-21 151.121,-21 151.121,-1 102.879,-1"/>
<text text-anchor="middle" x="127" y="-7" font-family="Helvetica,sans-Serif" font-size="10.00">stdint.h</text>
</g>
<!-- Node4&#45;&gt;Node5 -->
<g id="edge4" class="edge"><title>Node4&#45;&gt;Node5</title>
<path fill="none" stroke="midnightblue" d="M158.725,-58.7527C153.358,-50.8427 145.482,-39.2372 138.921,-29.5683"/>
<polygon fill="midnightblue" stroke="midnightblue" points="141.669,-27.3847 133.158,-21.0752 135.877,-31.3152 141.669,-27.3847"/>
</g>
<!-- Node6 -->
<g id="node6" class="node"><title>Node6</title>
<polygon fill="none" stroke="#bfbfbf" points="169.544,-1 169.544,-21 234.456,-21 234.456,-1 169.544,-1"/>
<text text-anchor="middle" x="202" y="-7" font-family="Helvetica,sans-Serif" font-size="10.00">sys/reent.h</text>
</g>
<!-- Node4&#45;&gt;Node6 -->
<g id="edge5" class="edge"><title>Node4&#45;&gt;Node6</title>
<path fill="none" stroke="midnightblue" d="M171.11,-58.7527C176.336,-50.8427 184.004,-39.2372 190.392,-29.5683"/>
<polygon fill="midnightblue" stroke="midnightblue" points="193.411,-31.348 196.004,-21.0752 187.571,-27.4891 193.411,-31.348"/>
</g>
</g>
</svg>
