<?xml version="1.0" encoding="UTF-8" standalone="no"?>
<!DOCTYPE svg PUBLIC "-//W3C//DTD SVG 1.1//EN"
 "http://www.w3.org/Graphics/SVG/1.1/DTD/svg11.dtd">
<!-- Generated by graphviz version 2.34.0 (20130907.0228)
 -->
<!-- Title: /Users/tgil/git/CoActionOS/CoActionOS/src/sys/unistd/_open.c Pages: 1 -->
<svg width="1000pt" height="344pt"
 viewBox="0.00 0.00 999.60 344.00" xmlns="http://www.w3.org/2000/svg" xmlns:xlink="http://www.w3.org/1999/xlink">
<g id="graph0" class="graph" transform="scale(1 1) rotate(0) translate(4 340)">
<title>/Users/tgil/git/CoActionOS/CoActionOS/src/sys/unistd/_open.c</title>
<!-- Node1 -->
<g id="node1" class="node"><title>Node1</title>
<polygon fill="#bfbfbf" stroke="black" points="561.527,-291 561.527,-335 683.664,-335 683.664,-291 561.527,-291"/>
<text text-anchor="start" x="569.527" y="-321" font-family="Helvetica,sans-Serif" font-size="10.00">/Users/tgil/git/CoAction</text>
<text text-anchor="start" x="569.527" y="-309" font-family="Helvetica,sans-Serif" font-size="10.00">OS/CoActionOS/src/sys</text>
<text text-anchor="middle" x="622.596" y="-297" font-family="Helvetica,sans-Serif" font-size="10.00">/unistd/_open.c</text>
</g>
<!-- Node2 -->
<g id="node2" class="node"><title>Node2</title>
<polygon fill="none" stroke="#bfbfbf" points="259.029,-233 259.029,-253 306.162,-253 306.162,-233 259.029,-233"/>
<text text-anchor="middle" x="282.596" y="-239" font-family="Helvetica,sans-Serif" font-size="10.00">reent.h</text>
</g>
<!-- Node1&#45;&gt;Node2 -->
<g id="edge1" class="edge"><title>Node1&#45;&gt;Node2</title>
<path fill="none" stroke="midnightblue" d="M561.31,-302.416C501.232,-292.572 406.934,-275.924 316.206,-253.942"/>
<polygon fill="midnightblue" stroke="midnightblue" points="316.85,-250.496 306.304,-251.517 315.185,-257.295 316.85,-250.496"/>
</g>
<!-- Node3 -->
<g id="node3" class="node"><title>Node3</title>
<polygon fill="none" stroke="#bfbfbf" points="324.529,-233 324.529,-253 376.662,-253 376.662,-233 324.529,-233"/>
<text text-anchor="middle" x="350.596" y="-239" font-family="Helvetica,sans-Serif" font-size="10.00">stdarg.h</text>
</g>
<!-- Node1&#45;&gt;Node3 -->
<g id="edge2" class="edge"><title>Node1&#45;&gt;Node3</title>
<path fill="none" stroke="midnightblue" d="M561.214,-296.655C507.43,-283.209 431.094,-264.125 386.62,-253.006"/>
<polygon fill="midnightblue" stroke="midnightblue" points="387.384,-249.589 376.833,-250.559 385.686,-256.38 387.384,-249.589"/>
</g>
<!-- Node4 -->
<g id="node4" class="node"><title>Node4</title>
<polygon fill="none" stroke="#bfbfbf" points="729.477,-59 729.477,-79 787.714,-79 787.714,-59 729.477,-59"/>
<text text-anchor="middle" x="758.596" y="-65" font-family="Helvetica,sans-Serif" font-size="10.00">sys/stat.h</text>
</g>
<!-- Node1&#45;&gt;Node4 -->
<g id="edge3" class="edge"><title>Node1&#45;&gt;Node4</title>
<path fill="none" stroke="midnightblue" d="M619.652,-290.99C616.743,-261.758 615.887,-208.528 641.596,-174 664.639,-143.052 692.216,-164.142 720.596,-138 735.323,-124.433 745.726,-103.813 751.88,-88.8365"/>
<polygon fill="midnightblue" stroke="midnightblue" points="755.298,-89.7004 755.612,-79.1103 748.762,-87.193 755.298,-89.7004"/>
</g>
<!-- Node5 -->
<g id="node5" class="node"><title>Node5</title>
<polygon fill="none" stroke="#bfbfbf" points="650.753,-175 650.753,-195 698.438,-195 698.438,-175 650.753,-175"/>
<text text-anchor="middle" x="674.596" y="-181" font-family="Helvetica,sans-Serif" font-size="10.00">errno.h</text>
</g>
<!-- Node1&#45;&gt;Node5 -->
<g id="edge4" class="edge"><title>Node1&#45;&gt;Node5</title>
<path fill="none" stroke="midnightblue" d="M631.299,-290.91C641.278,-266.731 657.478,-227.478 666.977,-204.46"/>
<polygon fill="midnightblue" stroke="midnightblue" points="670.244,-205.719 670.823,-195.14 663.773,-203.049 670.244,-205.719"/>
</g>
<!-- Node6 -->
<g id="node6" class="node"><title>Node6</title>
<polygon fill="none" stroke="#bfbfbf" points="776.194,-233 776.194,-253 844.997,-253 844.997,-233 776.194,-233"/>
<text text-anchor="middle" x="810.596" y="-239" font-family="Helvetica,sans-Serif" font-size="10.00">sys/unistd.h</text>
</g>
<!-- Node1&#45;&gt;Node6 -->
<g id="edge5" class="edge"><title>Node1&#45;&gt;Node6</title>
<path fill="none" stroke="midnightblue" d="M680.792,-290.95C711.966,-279.675 749.315,-266.165 775.93,-256.539"/>
<polygon fill="midnightblue" stroke="midnightblue" points="777.356,-259.745 785.569,-253.052 774.975,-253.162 777.356,-259.745"/>
</g>
<!-- Node7 -->
<g id="node7" class="node"><title>Node7</title>
<g id="a_node7"><a xlink:href="hwpl_8h.html" target="_top" xlink:title="HWPL Header file (includes all other header files) ">
<polygon fill="none" stroke="black" points="241.142,-117 241.142,-137 286.049,-137 286.049,-117 241.142,-117"/>
<text text-anchor="middle" x="263.596" y="-123" font-family="Helvetica,sans-Serif" font-size="10.00">hwpl.h</text>
</a>
</g>
</g>
<!-- Node1&#45;&gt;Node7 -->
<g id="edge6" class="edge"><title>Node1&#45;&gt;Node7</title>
<path fill="none" stroke="midnightblue" d="M561.236,-294.07C529.823,-283.957 491.391,-270.118 458.596,-254 391.186,-220.871 318.59,-169.209 284.076,-143.549"/>
<polygon fill="midnightblue" stroke="midnightblue" points="285.868,-140.519 275.767,-137.325 281.672,-146.121 285.868,-140.519"/>
</g>
<!-- Node16 -->
<g id="node16" class="node"><title>Node16</title>
<g id="a_node16"><a xlink:href="unistd__fs_8h_source.html" target="_top" xlink:title="unistd_fs.h">
<polygon fill="none" stroke="black" points="693.413,-233 693.413,-253 757.778,-253 757.778,-233 693.413,-233"/>
<text text-anchor="middle" x="725.596" y="-239" font-family="Helvetica,sans-Serif" font-size="10.00">unistd_fs.h</text>
</a>
</g>
</g>
<!-- Node1&#45;&gt;Node16 -->
<g id="edge17" class="edge"><title>Node1&#45;&gt;Node16</title>
<path fill="none" stroke="midnightblue" d="M654.621,-290.857C670.413,-280.431 689.071,-268.113 703.293,-258.724"/>
<polygon fill="midnightblue" stroke="midnightblue" points="705.506,-261.457 711.923,-253.027 701.649,-255.615 705.506,-261.457"/>
</g>
<!-- Node26 -->
<g id="node26" class="node"><title>Node26</title>
<g id="a_node26"><a xlink:href="unistd__flags_8h_source.html" target="_top" xlink:title="unistd_flags.h">
<polygon fill="none" stroke="black" points="467.741,-233 467.741,-253 545.45,-253 545.45,-233 467.741,-233"/>
<text text-anchor="middle" x="506.596" y="-239" font-family="Helvetica,sans-Serif" font-size="10.00">unistd_flags.h</text>
</a>
</g>
</g>
<!-- Node1&#45;&gt;Node26 -->
<g id="edge40" class="edge"><title>Node1&#45;&gt;Node26</title>
<path fill="none" stroke="midnightblue" d="M586.528,-290.857C568.404,-280.232 546.928,-267.643 530.804,-258.191"/>
<polygon fill="midnightblue" stroke="midnightblue" points="532.391,-255.064 521.994,-253.027 528.851,-261.103 532.391,-255.064"/>
</g>
<!-- Node27 -->
<g id="node27" class="node"><title>Node27</title>
<polygon fill="none" stroke="#bfbfbf" points="862.842,-233 862.842,-253 978.349,-253 978.349,-233 862.842,-233"/>
<text text-anchor="middle" x="920.596" y="-239" font-family="Helvetica,sans-Serif" font-size="10.00">../sched/sched_flags.h</text>
</g>
<!-- Node1&#45;&gt;Node27 -->
<g id="edge46" class="edge"><title>Node1&#45;&gt;Node27</title>
<path fill="none" stroke="midnightblue" d="M683.98,-297.993C739.407,-285.345 819.923,-266.972 871.269,-255.256"/>
<polygon fill="midnightblue" stroke="midnightblue" points="872.163,-258.642 881.133,-253.005 870.605,-251.817 872.163,-258.642"/>
</g>
<!-- Node8 -->
<g id="node8" class="node"><title>Node8</title>
<polygon fill="none" stroke="#bfbfbf" points="253.475,-1 253.475,-21 301.716,-21 301.716,-1 253.475,-1"/>
<text text-anchor="middle" x="277.596" y="-7" font-family="Helvetica,sans-Serif" font-size="10.00">stdint.h</text>
</g>
<!-- Node7&#45;&gt;Node8 -->
<g id="edge7" class="edge"><title>Node7&#45;&gt;Node8</title>
<path fill="none" stroke="midnightblue" d="M240.866,-123.616C194.369,-117.821 95.3011,-100.248 126.596,-58 153.204,-22.0777 207.214,-13.2578 242.9,-11.5862"/>
<polygon fill="midnightblue" stroke="midnightblue" points="243.444,-15.0716 253.336,-11.2749 243.236,-8.07473 243.444,-15.0716"/>
</g>
<!-- Node9 -->
<g id="node9" class="node"><title>Node9</title>
<polygon fill="none" stroke="#bfbfbf" points="135.753,-59 135.753,-79 183.438,-79 183.438,-59 135.753,-59"/>
<text text-anchor="middle" x="159.596" y="-65" font-family="Helvetica,sans-Serif" font-size="10.00">stdlib.h</text>
</g>
<!-- Node7&#45;&gt;Node9 -->
<g id="edge8" class="edge"><title>Node7&#45;&gt;Node9</title>
<path fill="none" stroke="midnightblue" d="M246.422,-116.753C229.839,-107.823 204.51,-94.1848 185.482,-83.9388"/>
<polygon fill="midnightblue" stroke="midnightblue" points="186.914,-80.7346 176.449,-79.0752 183.595,-86.8979 186.914,-80.7346"/>
</g>
<!-- Node10 -->
<g id="node10" class="node"><title>Node10</title>
<polygon fill="none" stroke="#bfbfbf" points="201.199,-59 201.199,-79 249.992,-79 249.992,-59 201.199,-59"/>
<text text-anchor="middle" x="225.596" y="-65" font-family="Helvetica,sans-Serif" font-size="10.00">string.h</text>
</g>
<!-- Node7&#45;&gt;Node10 -->
<g id="edge9" class="edge"><title>Node7&#45;&gt;Node10</title>
<path fill="none" stroke="midnightblue" d="M257.321,-116.753C251.953,-108.843 244.078,-97.2372 237.517,-87.5683"/>
<polygon fill="midnightblue" stroke="midnightblue" points="240.265,-85.3847 231.754,-79.0752 234.473,-89.3152 240.265,-85.3847"/>
</g>
<!-- Node11 -->
<g id="node11" class="node"><title>Node11</title>
<polygon fill="none" stroke="#bfbfbf" points="621.864,-59 621.864,-79 667.327,-79 667.327,-59 621.864,-59"/>
<text text-anchor="middle" x="644.596" y="-65" font-family="Helvetica,sans-Serif" font-size="10.00">stdio.h</text>
</g>
<!-- Node7&#45;&gt;Node11 -->
<g id="edge10" class="edge"><title>Node7&#45;&gt;Node11</title>
<path fill="none" stroke="midnightblue" d="M286.142,-118.158C288.966,-117.345 291.832,-116.598 294.596,-116 431.451,-86.361 470.067,-106.341 607.596,-80 608.882,-79.7536 610.19,-79.4859 611.507,-79.2017"/>
<polygon fill="midnightblue" stroke="midnightblue" points="612.717,-82.5111 621.627,-76.7782 611.087,-75.7036 612.717,-82.5111"/>
</g>
<!-- Node12 -->
<g id="node12" class="node"><title>Node12</title>
<polygon fill="none" stroke="#bfbfbf" points="415.303,-1 415.303,-21 471.888,-21 471.888,-1 415.303,-1"/>
<text text-anchor="middle" x="443.596" y="-7" font-family="Helvetica,sans-Serif" font-size="10.00">stdbool.h</text>
</g>
<!-- Node7&#45;&gt;Node12 -->
<g id="edge11" class="edge"><title>Node7&#45;&gt;Node12</title>
<path fill="none" stroke="midnightblue" d="M271.058,-116.983C283.156,-102.833 308.354,-75.2521 334.596,-58 356.474,-43.6163 383.591,-32.1513 405.305,-24.2649"/>
<polygon fill="midnightblue" stroke="midnightblue" points="406.595,-27.5212 414.863,-20.8956 404.268,-20.9193 406.595,-27.5212"/>
</g>
<!-- Node13 -->
<g id="node13" class="node"><title>Node13</title>
<polygon fill="none" stroke="#bfbfbf" points="13.3025,-59 13.3025,-79 79.8885,-79 79.8885,-59 13.3025,-59"/>
<text text-anchor="middle" x="46.5955" y="-65" font-family="Helvetica,sans-Serif" font-size="10.00">hwpl/fault.h</text>
</g>
<!-- Node7&#45;&gt;Node13 -->
<g id="edge12" class="edge"><title>Node7&#45;&gt;Node13</title>
<path fill="none" stroke="midnightblue" d="M240.783,-120.113C205.072,-110.897 135.359,-92.9066 89.9043,-81.1765"/>
<polygon fill="midnightblue" stroke="midnightblue" points="90.5901,-77.7388 80.0327,-78.6289 88.8409,-84.5168 90.5901,-77.7388"/>
</g>
<!-- Node14 -->
<g id="node14" class="node"><title>Node14</title>
<polygon fill="none" stroke="#bfbfbf" points="560.027,-1 560.027,-21 627.164,-21 627.164,-1 560.027,-1"/>
<text text-anchor="middle" x="593.596" y="-7" font-family="Helvetica,sans-Serif" font-size="10.00">hwpl/arch.h</text>
</g>
<!-- Node7&#45;&gt;Node14 -->
<g id="edge13" class="edge"><title>Node7&#45;&gt;Node14</title>
<path fill="none" stroke="midnightblue" d="M286.149,-118.194C288.972,-117.374 291.836,-116.617 294.596,-116 355.818,-102.312 527.147,-121.04 574.596,-80 588.472,-67.9981 592.617,-46.7863 593.666,-31.2363"/>
<polygon fill="midnightblue" stroke="midnightblue" points="597.168,-31.23 593.979,-21.1268 590.172,-31.014 597.168,-31.23"/>
</g>
<!-- Node15 -->
<g id="node15" class="node"><title>Node15</title>
<g id="a_node15"><a xlink:href="types_8h_source.html" target="_top" xlink:title="hwpl/types.h">
<polygon fill="none" stroke="black" points="343.803,-59 343.803,-79 415.388,-79 415.388,-59 343.803,-59"/>
<text text-anchor="middle" x="379.596" y="-65" font-family="Helvetica,sans-Serif" font-size="10.00">hwpl/types.h</text>
</a>
</g>
</g>
<!-- Node7&#45;&gt;Node15 -->
<g id="edge14" class="edge"><title>Node7&#45;&gt;Node15</title>
<path fill="none" stroke="midnightblue" d="M282.491,-116.878C301.197,-107.847 330.061,-93.9132 351.463,-83.5812"/>
<polygon fill="midnightblue" stroke="midnightblue" points="353.224,-86.6176 360.708,-79.1181 350.181,-80.3137 353.224,-86.6176"/>
</g>
<!-- Node15&#45;&gt;Node8 -->
<g id="edge15" class="edge"><title>Node15&#45;&gt;Node8</title>
<path fill="none" stroke="midnightblue" d="M362.752,-58.7527C346.488,-49.8233 321.646,-36.1848 302.984,-25.9388"/>
<polygon fill="midnightblue" stroke="midnightblue" points="304.576,-22.8198 294.125,-21.0752 301.207,-28.9559 304.576,-22.8198"/>
</g>
<!-- Node15&#45;&gt;Node12 -->
<g id="edge16" class="edge"><title>Node15&#45;&gt;Node12</title>
<path fill="none" stroke="midnightblue" d="M390.164,-58.7527C399.763,-50.3534 414.124,-37.7874 425.541,-27.7976"/>
<polygon fill="midnightblue" stroke="midnightblue" points="428.003,-30.2943 433.224,-21.0752 423.393,-25.0262 428.003,-30.2943"/>
</g>
<!-- Node16&#45;&gt;Node4 -->
<g id="edge20" class="edge"><title>Node16&#45;&gt;Node4</title>
<path fill="none" stroke="midnightblue" d="M757.82,-234.472C777.945,-227.924 802.294,-216.205 814.596,-196 821.901,-184 823.896,-143.001 810.596,-116 804.437,-103.498 793.234,-92.9055 782.799,-85.0479"/>
<polygon fill="midnightblue" stroke="midnightblue" points="784.538,-81.9918 774.343,-79.1089 780.515,-87.7203 784.538,-81.9918"/>
</g>
<!-- Node16&#45;&gt;Node5 -->
<g id="edge23" class="edge"><title>Node16&#45;&gt;Node5</title>
<path fill="none" stroke="midnightblue" d="M717.174,-232.753C709.747,-224.598 698.744,-212.516 689.783,-202.677"/>
<polygon fill="midnightblue" stroke="midnightblue" points="692.181,-200.112 682.86,-195.075 687.006,-204.825 692.181,-200.112"/>
</g>
<!-- Node16&#45;&gt;Node11 -->
<g id="edge21" class="edge"><title>Node16&#45;&gt;Node11</title>
<path fill="none" stroke="midnightblue" d="M723.865,-232.941C721.151,-219.659 715.29,-194.279 706.596,-174 692.795,-141.811 670.696,-107.468 656.946,-87.4104"/>
<polygon fill="midnightblue" stroke="midnightblue" points="659.692,-85.2296 651.108,-79.0208 653.947,-89.2281 659.692,-85.2296"/>
</g>
<!-- Node17 -->
<g id="node17" class="node"><title>Node17</title>
<g id="a_node17"><a xlink:href="config_8h.html" target="_top" xlink:title="config.h">
<polygon fill="none" stroke="black" points="755.083,-175 755.083,-195 806.108,-195 806.108,-175 755.083,-175"/>
<text text-anchor="middle" x="780.596" y="-181" font-family="Helvetica,sans-Serif" font-size="10.00">config.h</text>
</a>
</g>
</g>
<!-- Node16&#45;&gt;Node17 -->
<g id="edge18" class="edge"><title>Node16&#45;&gt;Node17</title>
<path fill="none" stroke="midnightblue" d="M734.678,-232.753C742.767,-224.516 754.791,-212.274 764.506,-202.382"/>
<polygon fill="midnightblue" stroke="midnightblue" points="767.172,-204.662 771.682,-195.075 762.178,-199.757 767.172,-204.662"/>
</g>
<!-- Node18 -->
<g id="node18" class="node"><title>Node18</title>
<polygon fill="none" stroke="#bfbfbf" points="862.367,-175 862.367,-195 922.825,-195 922.825,-175 862.367,-175"/>
<text text-anchor="middle" x="892.596" y="-181" font-family="Helvetica,sans-Serif" font-size="10.00">sys/fcntl.h</text>
</g>
<!-- Node16&#45;&gt;Node18 -->
<g id="edge19" class="edge"><title>Node16&#45;&gt;Node18</title>
<path fill="none" stroke="midnightblue" d="M752.799,-232.878C780.904,-223.453 824.937,-208.688 856.065,-198.25"/>
<polygon fill="midnightblue" stroke="midnightblue" points="857.312,-201.523 865.681,-195.025 855.087,-194.886 857.312,-201.523"/>
</g>
<!-- Node19 -->
<g id="node19" class="node"><title>Node19</title>
<polygon fill="none" stroke="#bfbfbf" points="941.083,-175 941.083,-195 992.108,-195 992.108,-175 941.083,-175"/>
<text text-anchor="middle" x="966.596" y="-181" font-family="Helvetica,sans-Serif" font-size="10.00">unistd.h</text>
</g>
<!-- Node16&#45;&gt;Node19 -->
<g id="edge22" class="edge"><title>Node16&#45;&gt;Node19</title>
<path fill="none" stroke="midnightblue" d="M758.142,-234.191C761.334,-233.443 764.527,-232.702 767.596,-232 837.357,-216.04 857.599,-214.375 931.276,-195.96"/>
<polygon fill="midnightblue" stroke="midnightblue" points="932.189,-199.339 941.031,-193.503 930.479,-192.552 932.189,-199.339"/>
</g>
<!-- Node20 -->
<g id="node20" class="node"><title>Node20</title>
<g id="a_node20"><a xlink:href="sysfs_8h_source.html" target="_top" xlink:title="sysfs.h">
<polygon fill="none" stroke="black" points="509.036,-175 509.036,-195 556.155,-195 556.155,-175 509.036,-175"/>
<text text-anchor="middle" x="532.596" y="-181" font-family="Helvetica,sans-Serif" font-size="10.00">sysfs.h</text>
</a>
</g>
</g>
<!-- Node16&#45;&gt;Node20 -->
<g id="edge24" class="edge"><title>Node16&#45;&gt;Node20</title>
<path fill="none" stroke="midnightblue" d="M694.157,-232.878C659.062,-222.695 602.476,-206.276 566.435,-195.819"/>
<polygon fill="midnightblue" stroke="midnightblue" points="566.982,-192.333 556.402,-192.908 565.031,-199.056 566.982,-192.333"/>
</g>
<!-- Node20&#45;&gt;Node4 -->
<g id="edge29" class="edge"><title>Node20&#45;&gt;Node4</title>
<path fill="none" stroke="midnightblue" d="M556.621,-177.785C583.552,-170.32 628.094,-156.459 663.596,-138 692.051,-123.205 721.599,-100.743 740.033,-85.7308"/>
<polygon fill="midnightblue" stroke="midnightblue" points="742.663,-88.0973 748.136,-79.0256 738.2,-82.7042 742.663,-88.0973"/>
</g>
<!-- Node20&#45;&gt;Node8 -->
<g id="edge27" class="edge"><title>Node20&#45;&gt;Node8</title>
<path fill="none" stroke="midnightblue" d="M508.774,-175.728C469.233,-161.132 389.023,-127.766 334.596,-80 317.145,-64.6854 300.485,-43.8334 289.733,-29.2726"/>
<polygon fill="midnightblue" stroke="midnightblue" points="292.541,-27.1821 283.848,-21.1251 286.866,-31.2809 292.541,-27.1821"/>
</g>
<!-- Node20&#45;&gt;Node12 -->
<g id="edge25" class="edge"><title>Node20&#45;&gt;Node12</title>
<path fill="none" stroke="midnightblue" d="M508.922,-179.748C486.445,-174.318 453.888,-162.509 438.596,-138 418.011,-105.009 428.398,-57.1401 436.688,-30.9218"/>
<polygon fill="midnightblue" stroke="midnightblue" points="440.116,-31.7118 440.016,-21.1175 433.488,-29.4618 440.116,-31.7118"/>
</g>
<!-- Node21 -->
<g id="node21" class="node"><title>Node21</title>
<polygon fill="none" stroke="#bfbfbf" points="588.586,-117 588.586,-137 654.605,-137 654.605,-117 588.586,-117"/>
<text text-anchor="middle" x="621.596" y="-123" font-family="Helvetica,sans-Serif" font-size="10.00">sys/types.h</text>
</g>
<!-- Node20&#45;&gt;Node21 -->
<g id="edge26" class="edge"><title>Node20&#45;&gt;Node21</title>
<path fill="none" stroke="midnightblue" d="M547.292,-174.753C561.159,-166.027 582.173,-152.805 598.319,-142.646"/>
<polygon fill="midnightblue" stroke="midnightblue" points="600.572,-145.363 607.172,-137.075 596.845,-139.438 600.572,-145.363"/>
</g>
<!-- Node22 -->
<g id="node22" class="node"><title>Node22</title>
<polygon fill="none" stroke="#bfbfbf" points="518.805,-117 518.805,-137 570.386,-137 570.386,-117 518.805,-117"/>
<text text-anchor="middle" x="544.596" y="-123" font-family="Helvetica,sans-Serif" font-size="10.00">stddef.h</text>
</g>
<!-- Node20&#45;&gt;Node22 -->
<g id="edge28" class="edge"><title>Node20&#45;&gt;Node22</title>
<path fill="none" stroke="midnightblue" d="M534.577,-174.753C536.185,-167.25 538.505,-156.424 540.507,-147.078"/>
<polygon fill="midnightblue" stroke="midnightblue" points="543.978,-147.587 542.651,-137.075 537.133,-146.12 543.978,-147.587"/>
</g>
<!-- Node23 -->
<g id="node23" class="node"><title>Node23</title>
<polygon fill="none" stroke="#bfbfbf" points="303.918,-117 303.918,-137 353.273,-137 353.273,-117 303.918,-117"/>
<text text-anchor="middle" x="328.596" y="-123" font-family="Helvetica,sans-Serif" font-size="10.00">dirent.h</text>
</g>
<!-- Node20&#45;&gt;Node23 -->
<g id="edge30" class="edge"><title>Node20&#45;&gt;Node23</title>
<path fill="none" stroke="midnightblue" d="M508.795,-177.466C472.869,-167.604 404.596,-148.863 363.18,-137.494"/>
<polygon fill="midnightblue" stroke="midnightblue" points="364.086,-134.113 353.516,-134.841 362.233,-140.863 364.086,-134.113"/>
</g>
<!-- Node24 -->
<g id="node24" class="node"><title>Node24</title>
<g id="a_node24"><a xlink:href="device_8h_source.html" target="_top" xlink:title="device.h">
<polygon fill="none" stroke="black" points="447.972,-117 447.972,-137 501.219,-137 501.219,-117 447.972,-117"/>
<text text-anchor="middle" x="474.596" y="-123" font-family="Helvetica,sans-Serif" font-size="10.00">device.h</text>
</a>
</g>
</g>
<!-- Node20&#45;&gt;Node24 -->
<g id="edge31" class="edge"><title>Node20&#45;&gt;Node24</title>
<path fill="none" stroke="midnightblue" d="M523.018,-174.753C514.403,-166.435 501.556,-154.031 491.259,-144.089"/>
<polygon fill="midnightblue" stroke="midnightblue" points="493.62,-141.503 483.995,-137.075 488.758,-146.539 493.62,-141.503"/>
</g>
<!-- Node24&#45;&gt;Node4 -->
<g id="edge32" class="edge"><title>Node24&#45;&gt;Node4</title>
<path fill="none" stroke="midnightblue" d="M501.277,-118.079C504.076,-117.337 506.887,-116.629 509.596,-116 597.572,-95.5683 620.898,-97.0311 709.596,-80 712.793,-79.386 716.105,-78.7374 719.43,-78.0774"/>
<polygon fill="midnightblue" stroke="midnightblue" points="720.224,-81.4878 729.339,-76.0865 718.845,-74.6249 720.224,-81.4878"/>
</g>
<!-- Node24&#45;&gt;Node12 -->
<g id="edge33" class="edge"><title>Node24&#45;&gt;Node12</title>
<path fill="none" stroke="midnightblue" d="M472.433,-116.722C469.338,-103.596 463.377,-78.8747 457.596,-58 455.117,-49.0501 452.148,-39.1917 449.584,-30.9047"/>
<polygon fill="midnightblue" stroke="midnightblue" points="452.85,-29.6213 446.521,-21.1244 446.17,-31.7134 452.85,-29.6213"/>
</g>
<!-- Node24&#45;&gt;Node14 -->
<g id="edge35" class="edge"><title>Node24&#45;&gt;Node14</title>
<path fill="none" stroke="midnightblue" d="M501.301,-118.177C504.095,-117.417 506.899,-116.677 509.596,-116 582.817,-97.6206 628.207,-138.767 675.596,-80 693.666,-57.5909 659.447,-37.2932 629.844,-24.8238"/>
<polygon fill="midnightblue" stroke="midnightblue" points="631.052,-21.537 620.468,-21.0576 628.443,-28.0326 631.052,-21.537"/>
</g>
<!-- Node24&#45;&gt;Node15 -->
<g id="edge34" class="edge"><title>Node24&#45;&gt;Node15</title>
<path fill="none" stroke="midnightblue" d="M458.908,-116.753C443.968,-107.946 421.256,-94.5575 403.959,-84.3617"/>
<polygon fill="midnightblue" stroke="midnightblue" points="405.383,-81.1382 394.991,-79.0752 401.828,-87.1685 405.383,-81.1382"/>
</g>
<!-- Node25 -->
<g id="node25" class="node"><title>Node25</title>
<g id="a_node25"><a xlink:href="pio_8h.html" target="_top" xlink:title="General Purpose Input/Output Header File. ">
<polygon fill="none" stroke="red" points="509.303,-59 509.303,-79 565.888,-79 565.888,-59 509.303,-59"/>
<text text-anchor="middle" x="537.596" y="-65" font-family="Helvetica,sans-Serif" font-size="10.00">dev/pio.h</text>
</a>
</g>
</g>
<!-- Node24&#45;&gt;Node25 -->
<g id="edge36" class="edge"><title>Node24&#45;&gt;Node25</title>
<path fill="none" stroke="midnightblue" d="M484.999,-116.753C494.448,-108.353 508.585,-95.7874 519.823,-85.7976"/>
<polygon fill="midnightblue" stroke="midnightblue" points="522.237,-88.3348 527.386,-79.0752 517.587,-83.1029 522.237,-88.3348"/>
</g>
<!-- Node25&#45;&gt;Node8 -->
<g id="edge38" class="edge"><title>Node25&#45;&gt;Node8</title>
<path fill="none" stroke="midnightblue" d="M509.276,-61.9004C461.255,-51.5574 364.021,-30.6147 312.101,-19.432"/>
<polygon fill="midnightblue" stroke="midnightblue" points="312.559,-15.9505 302.047,-17.2664 311.085,-22.7936 312.559,-15.9505"/>
</g>
<!-- Node25&#45;&gt;Node12 -->
<g id="edge37" class="edge"><title>Node25&#45;&gt;Node12</title>
<path fill="none" stroke="midnightblue" d="M522.073,-58.7527C507.29,-49.9457 484.817,-36.5575 467.703,-26.3617"/>
<polygon fill="midnightblue" stroke="midnightblue" points="469.211,-23.1864 458.829,-21.0752 465.629,-29.2002 469.211,-23.1864"/>
</g>
<!-- Node25&#45;&gt;Node14 -->
<g id="edge39" class="edge"><title>Node25&#45;&gt;Node14</title>
<path fill="none" stroke="midnightblue" d="M546.843,-58.7527C555.079,-50.5165 567.322,-38.2738 577.213,-28.3824"/>
<polygon fill="midnightblue" stroke="midnightblue" points="579.924,-30.6212 584.52,-21.0752 574.974,-25.6714 579.924,-30.6212"/>
</g>
<!-- Node26&#45;&gt;Node4 -->
<g id="edge42" class="edge"><title>Node26&#45;&gt;Node4</title>
<path fill="none" stroke="midnightblue" d="M518.68,-232.828C537.306,-218.952 574.459,-192.305 608.596,-174 645.112,-154.418 660.54,-161.604 694.596,-138 715.09,-123.795 734.061,-102.112 745.941,-87.0648"/>
<polygon fill="midnightblue" stroke="midnightblue" points="748.759,-89.1416 752.074,-79.0787 743.207,-84.8781 748.759,-89.1416"/>
</g>
<!-- Node26&#45;&gt;Node7 -->
<g id="edge45" class="edge"><title>Node26&#45;&gt;Node7</title>
<path fill="none" stroke="midnightblue" d="M497.144,-232.709C481.871,-218.183 450.266,-190.096 418.596,-174 370.135,-149.37 351.453,-154.184 295.892,-138.257"/>
<polygon fill="midnightblue" stroke="midnightblue" points="296.841,-134.888 286.258,-135.396 294.848,-141.598 296.841,-134.888"/>
</g>
<!-- Node26&#45;&gt;Node8 -->
<g id="edge41" class="edge"><title>Node26&#45;&gt;Node8</title>
<path fill="none" stroke="midnightblue" d="M467.354,-235.378C359.156,-216.243 60.8563,-157.274 4.59552,-80 -1.15963,-72.0954 -1.71795,-65.4663 4.59552,-58 34.7285,-22.3649 176.231,-14.3235 242.806,-12.5178"/>
<polygon fill="midnightblue" stroke="midnightblue" points="243.282,-16.0075 253.195,-12.2705 243.115,-9.0095 243.282,-16.0075"/>
</g>
<!-- Node26&#45;&gt;Node20 -->
<g id="edge44" class="edge"><title>Node26&#45;&gt;Node20</title>
<path fill="none" stroke="midnightblue" d="M510.889,-232.753C514.486,-225.006 519.728,-213.714 524.16,-204.169"/>
<polygon fill="midnightblue" stroke="midnightblue" points="527.345,-205.619 528.382,-195.075 520.996,-202.671 527.345,-205.619"/>
</g>
<!-- Node26&#45;&gt;Node23 -->
<g id="edge43" class="edge"><title>Node26&#45;&gt;Node23</title>
<path fill="none" stroke="midnightblue" d="M502.084,-232.714C494.582,-218.197 478.208,-190.121 456.596,-174 441.501,-162.74 395.527,-147.655 363.013,-137.881"/>
<polygon fill="midnightblue" stroke="midnightblue" points="363.986,-134.519 353.403,-135.029 361.994,-141.23 363.986,-134.519"/>
</g>
</g>
</svg>
