<?xml version="1.0" encoding="UTF-8" standalone="no"?>
<!DOCTYPE svg PUBLIC "-//W3C//DTD SVG 1.1//EN"
 "http://www.w3.org/Graphics/SVG/1.1/DTD/svg11.dtd">
<!-- Generated by graphviz version 2.34.0 (20130907.0228)
 -->
<!-- Title: /Users/tgil/git/CoActionOS/CoActionOS/src/sys/signal/_wait.c Pages: 1 -->
<svg width="453pt" height="170pt"
 viewBox="0.00 0.00 453.00 170.00" xmlns="http://www.w3.org/2000/svg" xmlns:xlink="http://www.w3.org/1999/xlink">
<g id="graph0" class="graph" transform="scale(1 1) rotate(0) translate(4 166)">
<title>/Users/tgil/git/CoActionOS/CoActionOS/src/sys/signal/_wait.c</title>
<!-- Node1 -->
<g id="node1" class="node"><title>Node1</title>
<polygon fill="#bfbfbf" stroke="black" points="101.931,-117 101.931,-161 224.069,-161 224.069,-117 101.931,-117"/>
<text text-anchor="start" x="109.931" y="-147" font-family="Helvetica,sans-Serif" font-size="10.00">/Users/tgil/git/CoAction</text>
<text text-anchor="start" x="109.931" y="-135" font-family="Helvetica,sans-Serif" font-size="10.00">OS/CoActionOS/src/sys</text>
<text text-anchor="middle" x="163" y="-123" font-family="Helvetica,sans-Serif" font-size="10.00">/signal/_wait.c</text>
</g>
<!-- Node2 -->
<g id="node2" class="node"><title>Node2</title>
<polygon fill="none" stroke="#bfbfbf" points="-0.842285,-59 -0.842285,-79 46.8423,-79 46.8423,-59 -0.842285,-59"/>
<text text-anchor="middle" x="23" y="-65" font-family="Helvetica,sans-Serif" font-size="10.00">errno.h</text>
</g>
<!-- Node1&#45;&gt;Node2 -->
<g id="edge1" class="edge"><title>Node1&#45;&gt;Node2</title>
<path fill="none" stroke="midnightblue" d="M119.471,-116.857C96.9829,-105.935 70.221,-92.9359 50.5953,-83.4034"/>
<polygon fill="midnightblue" stroke="midnightblue" points="52.1084,-80.2474 41.5841,-79.0266 49.05,-86.544 52.1084,-80.2474"/>
</g>
<!-- Node3 -->
<g id="node3" class="node"><title>Node3</title>
<polygon fill="none" stroke="#bfbfbf" points="64.7661,-59 64.7661,-79 115.234,-79 115.234,-59 64.7661,-59"/>
<text text-anchor="middle" x="90" y="-65" font-family="Helvetica,sans-Serif" font-size="10.00">signal.h</text>
</g>
<!-- Node1&#45;&gt;Node3 -->
<g id="edge2" class="edge"><title>Node1&#45;&gt;Node3</title>
<path fill="none" stroke="midnightblue" d="M140.303,-116.857C129.708,-106.988 117.294,-95.425 107.45,-86.2545"/>
<polygon fill="midnightblue" stroke="midnightblue" points="109.584,-83.459 99.8807,-79.2039 104.812,-88.581 109.584,-83.459"/>
</g>
<!-- Node4 -->
<g id="node4" class="node"><title>Node4</title>
<polygon fill="none" stroke="#bfbfbf" points="133.049,-59 133.049,-79 192.951,-79 192.951,-59 133.049,-59"/>
<text text-anchor="middle" x="163" y="-65" font-family="Helvetica,sans-Serif" font-size="10.00">sys/wait.h</text>
</g>
<!-- Node1&#45;&gt;Node4 -->
<g id="edge3" class="edge"><title>Node1&#45;&gt;Node4</title>
<path fill="none" stroke="midnightblue" d="M163,-116.857C163,-108.074 163,-97.9484 163,-89.3622"/>
<polygon fill="midnightblue" stroke="midnightblue" points="166.5,-89.2039 163,-79.2039 159.5,-89.204 166.5,-89.2039"/>
</g>
<!-- Node5 -->
<g id="node5" class="node"><title>Node5</title>
<polygon fill="none" stroke="#bfbfbf" points="211.247,-59 211.247,-79 326.753,-79 326.753,-59 211.247,-59"/>
<text text-anchor="middle" x="269" y="-65" font-family="Helvetica,sans-Serif" font-size="10.00">../sched/sched_flags.h</text>
</g>
<!-- Node1&#45;&gt;Node5 -->
<g id="edge4" class="edge"><title>Node1&#45;&gt;Node5</title>
<path fill="none" stroke="midnightblue" d="M195.958,-116.857C212.365,-106.332 231.778,-93.8785 246.464,-84.4568"/>
<polygon fill="midnightblue" stroke="midnightblue" points="248.402,-87.3721 254.929,-79.0266 244.622,-81.4802 248.402,-87.3721"/>
</g>
<!-- Node6 -->
<g id="node6" class="node"><title>Node6</title>
<g id="a_node6"><a xlink:href="sig__local_8h_source.html" target="_top" xlink:title="sig_local.h">
<polygon fill="none" stroke="black" points="344.375,-59 344.375,-79 407.625,-79 407.625,-59 344.375,-59"/>
<text text-anchor="middle" x="376" y="-65" font-family="Helvetica,sans-Serif" font-size="10.00">sig_local.h</text>
</a>
</g>
</g>
<!-- Node1&#45;&gt;Node6 -->
<g id="edge5" class="edge"><title>Node1&#45;&gt;Node6</title>
<path fill="none" stroke="midnightblue" d="M224.323,-118.423C261.03,-106.704 306.526,-92.1795 338.066,-82.1104"/>
<polygon fill="midnightblue" stroke="midnightblue" points="339.325,-85.3825 347.787,-79.007 337.196,-78.7141 339.325,-85.3825"/>
</g>
<!-- Node7 -->
<g id="node7" class="node"><title>Node7</title>
<polygon fill="none" stroke="#bfbfbf" points="313.879,-1 313.879,-21 362.121,-21 362.121,-1 313.879,-1"/>
<text text-anchor="middle" x="338" y="-7" font-family="Helvetica,sans-Serif" font-size="10.00">stdint.h</text>
</g>
<!-- Node6&#45;&gt;Node7 -->
<g id="edge6" class="edge"><title>Node6&#45;&gt;Node7</title>
<path fill="none" stroke="midnightblue" d="M369.725,-58.7527C364.358,-50.8427 356.482,-39.2372 349.921,-29.5683"/>
<polygon fill="midnightblue" stroke="midnightblue" points="352.669,-27.3847 344.158,-21.0752 346.877,-31.3152 352.669,-27.3847"/>
</g>
<!-- Node8 -->
<g id="node8" class="node"><title>Node8</title>
<polygon fill="none" stroke="#bfbfbf" points="380.544,-1 380.544,-21 445.456,-21 445.456,-1 380.544,-1"/>
<text text-anchor="middle" x="413" y="-7" font-family="Helvetica,sans-Serif" font-size="10.00">sys/reent.h</text>
</g>
<!-- Node6&#45;&gt;Node8 -->
<g id="edge7" class="edge"><title>Node6&#45;&gt;Node8</title>
<path fill="none" stroke="midnightblue" d="M382.11,-58.7527C387.336,-50.8427 395.004,-39.2372 401.392,-29.5683"/>
<polygon fill="midnightblue" stroke="midnightblue" points="404.411,-31.348 407.004,-21.0752 398.571,-27.4891 404.411,-31.348"/>
</g>
</g>
</svg>
