<?xml version="1.0" encoding="UTF-8" standalone="no"?>
<!DOCTYPE svg PUBLIC "-//W3C//DTD SVG 1.1//EN"
 "http://www.w3.org/Graphics/SVG/1.1/DTD/svg11.dtd">
<!-- Generated by graphviz version 2.34.0 (20130907.0228)
 -->
<!-- Title: Peripheral Input/Output Pages: 1 -->
<svg width="446pt" height="964pt"
 viewBox="0.00 0.00 446.00 964.00" xmlns="http://www.w3.org/2000/svg" xmlns:xlink="http://www.w3.org/1999/xlink">
<g id="graph0" class="graph" transform="scale(1 1) rotate(0) translate(4 960)">
<title>Peripheral Input/Output</title>
<!-- Node0 -->
<g id="node1" class="node"><title>Node0</title>
<polygon fill="#bfbfbf" stroke="black" points="144.301,-492 144.301,-512 263.699,-512 263.699,-492 144.301,-492"/>
<text text-anchor="middle" x="204" y="-498" font-family="Helvetica,sans-Serif" font-size="10.00">Peripheral Input/Output</text>
</g>
<!-- Node17 -->
<g id="node2" class="node"><title>Node17</title>
<g id="a_node2"><a xlink:href="group___r_t_c.html" target="_top" xlink:title="Real Time Clock (RTC)">
<polygon fill="none" stroke="black" points="309.689,-936 309.689,-956 428.311,-956 428.311,-936 309.689,-936"/>
<text text-anchor="middle" x="369" y="-942" font-family="Helvetica,sans-Serif" font-size="10.00">Real Time Clock (RTC)</text>
</a>
</g>
</g>
<!-- Node0&#45;&gt;Node17 -->
<g id="edge17" class="edge"><title>Node0&#45;&gt;Node17</title>
<path fill="none" stroke="midnightblue" d="M206.865,-522.473C214.218,-598.839 243.598,-865.77 300,-926 303.785,-930.042 308.341,-933.281 313.279,-935.874"/>
<polygon fill="midnightblue" stroke="midnightblue" points="210.326,-521.901 205.906,-512.273 203.357,-522.556 210.326,-521.901"/>
</g>
<!-- Node9 -->
<g id="node3" class="node"><title>Node9</title>
<g id="a_node3"><a xlink:href="group___e_t_h___d_e_v.html" target="_top" xlink:title="Ethernet Device Access">
<polygon fill="none" stroke="black" points="308.195,-897 308.195,-917 429.805,-917 429.805,-897 308.195,-897"/>
<text text-anchor="middle" x="369" y="-903" font-family="Helvetica,sans-Serif" font-size="10.00">Ethernet Device Access</text>
</a>
</g>
</g>
<!-- Node0&#45;&gt;Node9 -->
<g id="edge9" class="edge"><title>Node0&#45;&gt;Node9</title>
<path fill="none" stroke="midnightblue" d="M207.356,-522.401C216.029,-594.093 248.378,-833.048 300,-887 303.913,-891.09 308.616,-894.356 313.698,-896.962"/>
<polygon fill="midnightblue" stroke="midnightblue" points="210.781,-521.562 206.129,-512.044 203.83,-522.386 210.781,-521.562"/>
</g>
<!-- Node4 -->
<g id="node4" class="node"><title>Node4</title>
<g id="a_node4"><a xlink:href="group___b_o_o_t_l_o_a_d_e_r___d_e_v.html" target="_top" xlink:title="Bootloader Access">
<polygon fill="none" stroke="black" points="319.584,-858 319.584,-878 418.416,-878 418.416,-858 319.584,-858"/>
<text text-anchor="middle" x="369" y="-864" font-family="Helvetica,sans-Serif" font-size="10.00">Bootloader Access</text>
</a>
</g>
</g>
<!-- Node0&#45;&gt;Node4 -->
<g id="edge4" class="edge"><title>Node0&#45;&gt;Node4</title>
<path fill="none" stroke="midnightblue" d="M204.221,-522.459C203.133,-581.631 208.341,-754.668 300,-848 305.346,-853.443 312.091,-857.423 319.244,-860.329"/>
<polygon fill="midnightblue" stroke="midnightblue" points="207.727,-522.292 204.499,-512.201 200.73,-522.102 207.727,-522.292"/>
</g>
<!-- Node6 -->
<g id="node5" class="node"><title>Node6</title>
<g id="a_node5"><a xlink:href="group___d_a_c.html" target="_top" xlink:title="Digital to Analog Converter\l (DAC)">
<polygon fill="none" stroke="black" points="301.52,-807 301.52,-839 436.48,-839 436.48,-807 301.52,-807"/>
<text text-anchor="start" x="309.52" y="-825" font-family="Helvetica,sans-Serif" font-size="10.00">Digital to Analog Converter</text>
<text text-anchor="middle" x="369" y="-813" font-family="Helvetica,sans-Serif" font-size="10.00"> (DAC)</text>
</a>
</g>
</g>
<!-- Node0&#45;&gt;Node6 -->
<g id="edge6" class="edge"><title>Node0&#45;&gt;Node6</title>
<path fill="none" stroke="midnightblue" d="M205.735,-522.24C208.718,-574.704 223.795,-716.593 300,-797 303.652,-800.853 307.935,-804.141 312.545,-806.947"/>
<polygon fill="midnightblue" stroke="midnightblue" points="209.229,-522.016 205.255,-512.195 202.237,-522.351 209.229,-522.016"/>
</g>
<!-- Node12 -->
<g id="node6" class="node"><title>Node12</title>
<g id="a_node6"><a xlink:href="group___i2_c.html" target="_top" xlink:title="Inter&#45;Integrated Circuit\l (I2C) Master">
<polygon fill="none" stroke="black" points="311.256,-756 311.256,-788 426.744,-788 426.744,-756 311.256,-756"/>
<text text-anchor="start" x="319.256" y="-774" font-family="Helvetica,sans-Serif" font-size="10.00">Inter&#45;Integrated Circuit</text>
<text text-anchor="middle" x="369" y="-762" font-family="Helvetica,sans-Serif" font-size="10.00"> (I2C) Master</text>
</a>
</g>
</g>
<!-- Node0&#45;&gt;Node12 -->
<g id="edge12" class="edge"><title>Node0&#45;&gt;Node12</title>
<path fill="none" stroke="midnightblue" d="M207.343,-522.367C213.695,-568.46 235.353,-681.745 300,-746 303.855,-749.831 308.333,-753.109 313.117,-755.911"/>
<polygon fill="midnightblue" stroke="midnightblue" points="210.779,-521.643 206.041,-512.167 203.836,-522.529 210.779,-521.643"/>
</g>
<!-- Node5 -->
<g id="node7" class="node"><title>Node5</title>
<g id="a_node7"><a xlink:href="group___c_o_r_e.html" target="_top" xlink:title="Core Microcontroller\l Access">
<polygon fill="none" stroke="black" points="315.988,-705 315.988,-737 422.012,-737 422.012,-705 315.988,-705"/>
<text text-anchor="start" x="323.988" y="-723" font-family="Helvetica,sans-Serif" font-size="10.00">Core Microcontroller</text>
<text text-anchor="middle" x="369" y="-711" font-family="Helvetica,sans-Serif" font-size="10.00"> Access</text>
</a>
</g>
</g>
<!-- Node0&#45;&gt;Node5 -->
<g id="edge5" class="edge"><title>Node0&#45;&gt;Node5</title>
<path fill="none" stroke="midnightblue" d="M209.759,-522.518C219.803,-561.443 246.751,-646.448 300,-695 304.67,-699.258 310.109,-702.844 315.84,-705.859"/>
<polygon fill="midnightblue" stroke="midnightblue" points="213.061,-521.289 207.27,-512.417 206.264,-522.964 213.061,-521.289"/>
</g>
<!-- Node18 -->
<g id="node8" class="node"><title>Node18</title>
<g id="a_node8"><a xlink:href="group___s_p_i.html" target="_top" xlink:title="Serial Peripheral Interface\l (SPI) Master">
<polygon fill="none" stroke="black" points="303.192,-654 303.192,-686 434.808,-686 434.808,-654 303.192,-654"/>
<text text-anchor="start" x="311.192" y="-672" font-family="Helvetica,sans-Serif" font-size="10.00">Serial Peripheral Interface</text>
<text text-anchor="middle" x="369" y="-660" font-family="Helvetica,sans-Serif" font-size="10.00"> (SPI) Master</text>
</a>
</g>
</g>
<!-- Node0&#45;&gt;Node18 -->
<g id="edge18" class="edge"><title>Node0&#45;&gt;Node18</title>
<path fill="none" stroke="midnightblue" d="M213.331,-521.611C227.126,-551.897 257.474,-610.088 300,-644 304.743,-647.783 310.098,-651.061 315.669,-653.891"/>
<polygon fill="midnightblue" stroke="midnightblue" points="216.392,-519.88 209.149,-512.148 209.99,-522.709 216.392,-519.88"/>
</g>
<!-- Node14 -->
<g id="node9" class="node"><title>Node14</title>
<g id="a_node9"><a xlink:href="group___p_i_o.html" target="_top" xlink:title="Pin Input/Output (PIO)">
<polygon fill="none" stroke="black" points="311.532,-615 311.532,-635 426.468,-635 426.468,-615 311.532,-615"/>
<text text-anchor="middle" x="369" y="-621" font-family="Helvetica,sans-Serif" font-size="10.00">Pin Input/Output (PIO)</text>
</a>
</g>
</g>
<!-- Node0&#45;&gt;Node14 -->
<g id="edge14" class="edge"><title>Node0&#45;&gt;Node14</title>
<path fill="none" stroke="midnightblue" d="M217.201,-520.444C233.424,-543.546 264.246,-582.787 300,-605 306.481,-609.026 313.811,-612.275 321.199,-614.888"/>
<polygon fill="midnightblue" stroke="midnightblue" points="220.075,-518.446 211.535,-512.175 214.3,-522.403 220.075,-518.446"/>
</g>
<!-- Node2 -->
<g id="node10" class="node"><title>Node2</title>
<g id="a_node10"><a xlink:href="group___d_e_v_i_c_e.html" target="_top" xlink:title="Device Configuration">
<polygon fill="none" stroke="black" points="314.586,-576 314.586,-596 423.414,-596 423.414,-576 314.586,-576"/>
<text text-anchor="middle" x="369" y="-582" font-family="Helvetica,sans-Serif" font-size="10.00">Device Configuration</text>
</a>
</g>
</g>
<!-- Node0&#45;&gt;Node2 -->
<g id="edge2" class="edge"><title>Node0&#45;&gt;Node2</title>
<path fill="none" stroke="midnightblue" d="M225.148,-518.272C243.661,-532.547 272.345,-552.999 300,-566 308.241,-569.874 317.399,-573.18 326.257,-575.922"/>
<polygon fill="midnightblue" stroke="midnightblue" points="227.191,-515.426 217.162,-512.009 222.871,-520.935 227.191,-515.426"/>
</g>
<!-- Node20 -->
<g id="node11" class="node"><title>Node20</title>
<g id="a_node11"><a xlink:href="group___t_m_r.html" target="_top" xlink:title="Timer (TMR)">
<polygon fill="none" stroke="black" points="332.858,-537 332.858,-557 405.142,-557 405.142,-537 332.858,-537"/>
<text text-anchor="middle" x="369" y="-543" font-family="Helvetica,sans-Serif" font-size="10.00">Timer (TMR)</text>
</a>
</g>
</g>
<!-- Node0&#45;&gt;Node20 -->
<g id="edge20" class="edge"><title>Node0&#45;&gt;Node20</title>
<path fill="none" stroke="midnightblue" d="M251.519,-514.843C277.321,-521.966 308.897,-530.683 332.661,-537.244"/>
<polygon fill="midnightblue" stroke="midnightblue" points="252.151,-511.386 241.58,-512.099 250.288,-518.134 252.151,-511.386"/>
</g>
<!-- Node3 -->
<g id="node12" class="node"><title>Node3</title>
<g id="a_node12"><a xlink:href="group___a_d_c.html" target="_top" xlink:title="Analog to Digital Converter\l (ADC)">
<polygon fill="none" stroke="black" points="301.247,-486 301.247,-518 436.753,-518 436.753,-486 301.247,-486"/>
<text text-anchor="start" x="309.247" y="-504" font-family="Helvetica,sans-Serif" font-size="10.00">Analog to Digital Converter</text>
<text text-anchor="middle" x="369" y="-492" font-family="Helvetica,sans-Serif" font-size="10.00"> (ADC)</text>
</a>
</g>
</g>
<!-- Node0&#45;&gt;Node3 -->
<g id="edge3" class="edge"><title>Node0&#45;&gt;Node3</title>
<path fill="none" stroke="midnightblue" d="M273.934,-502C282.97,-502 292.217,-502 301.217,-502"/>
<polygon fill="midnightblue" stroke="midnightblue" points="273.847,-498.5 263.847,-502 273.847,-505.5 273.847,-498.5"/>
</g>
<!-- Node19 -->
<g id="node13" class="node"><title>Node19</title>
<g id="a_node13"><a xlink:href="group___s_y_s___d_e_v.html" target="_top" xlink:title="System Devices">
<polygon fill="none" stroke="black" points="325.158,-447 325.158,-467 412.842,-467 412.842,-447 325.158,-447"/>
<text text-anchor="middle" x="369" y="-453" font-family="Helvetica,sans-Serif" font-size="10.00">System Devices</text>
</a>
</g>
</g>
<!-- Node0&#45;&gt;Node19 -->
<g id="edge19" class="edge"><title>Node0&#45;&gt;Node19</title>
<path fill="none" stroke="midnightblue" d="M251.377,-489.197C276.803,-482.177 307.868,-473.601 331.542,-467.065"/>
<polygon fill="midnightblue" stroke="midnightblue" points="250.288,-485.866 241.58,-491.901 252.151,-492.614 250.288,-485.866"/>
</g>
<!-- Node13 -->
<g id="node15" class="node"><title>Node13</title>
<g id="a_node15"><a xlink:href="group___m_e_m.html" target="_top" xlink:title="Memory (RAM/Flash)">
<polygon fill="none" stroke="black" points="313.498,-408 313.498,-428 424.502,-428 424.502,-408 313.498,-408"/>
<text text-anchor="middle" x="369" y="-414" font-family="Helvetica,sans-Serif" font-size="10.00">Memory (RAM/Flash)</text>
</a>
</g>
</g>
<!-- Node0&#45;&gt;Node13 -->
<g id="edge13" class="edge"><title>Node0&#45;&gt;Node13</title>
<path fill="none" stroke="midnightblue" d="M224.753,-485.609C243.198,-471.028 272.011,-450.049 300,-437 307.443,-433.53 315.649,-430.574 323.707,-428.102"/>
<polygon fill="midnightblue" stroke="midnightblue" points="222.41,-483.002 216.814,-491.998 226.799,-488.455 222.41,-483.002"/>
</g>
<!-- Node16 -->
<g id="node16" class="node"><title>Node16</title>
<g id="a_node16"><a xlink:href="group___q_e_i.html" target="_top" xlink:title="Quadrature Encoder\l Interface (QEI)">
<polygon fill="none" stroke="black" points="315.695,-357 315.695,-389 422.305,-389 422.305,-357 315.695,-357"/>
<text text-anchor="start" x="323.695" y="-375" font-family="Helvetica,sans-Serif" font-size="10.00">Quadrature Encoder</text>
<text text-anchor="middle" x="369" y="-363" font-family="Helvetica,sans-Serif" font-size="10.00"> Interface (QEI)</text>
</a>
</g>
</g>
<!-- Node0&#45;&gt;Node16 -->
<g id="edge16" class="edge"><title>Node0&#45;&gt;Node16</title>
<path fill="none" stroke="midnightblue" d="M217.399,-483.743C233.831,-460.805 264.874,-421.593 300,-398 305.012,-394.634 310.535,-391.651 316.201,-389.026"/>
<polygon fill="midnightblue" stroke="midnightblue" points="214.525,-481.745 211.652,-491.943 220.258,-485.763 214.525,-481.745"/>
</g>
<!-- Node15 -->
<g id="node17" class="node"><title>Node15</title>
<g id="a_node17"><a xlink:href="group___p_w_m.html" target="_top" xlink:title="Pulse Width Modulation\l (PWM)">
<polygon fill="none" stroke="black" points="308.473,-306 308.473,-338 429.527,-338 429.527,-306 308.473,-306"/>
<text text-anchor="start" x="316.473" y="-324" font-family="Helvetica,sans-Serif" font-size="10.00">Pulse Width Modulation</text>
<text text-anchor="middle" x="369" y="-312" font-family="Helvetica,sans-Serif" font-size="10.00"> (PWM)</text>
</a>
</g>
</g>
<!-- Node0&#45;&gt;Node15 -->
<g id="edge15" class="edge"><title>Node0&#45;&gt;Node15</title>
<path fill="none" stroke="midnightblue" d="M212.08,-482.331C224.772,-449.724 254.406,-384.372 300,-347 304.183,-343.571 308.879,-340.589 313.798,-338"/>
<polygon fill="midnightblue" stroke="midnightblue" points="208.804,-481.098 208.556,-491.69 215.355,-483.565 208.804,-481.098"/>
</g>
<!-- Node11 -->
<g id="node18" class="node"><title>Node11</title>
<g id="a_node18"><a xlink:href="group___g_p_i_o.html" target="_top" xlink:title="General Purpose Input\l/Output (GPIO)">
<polygon fill="none" stroke="black" points="310.69,-255 310.69,-287 427.31,-287 427.31,-255 310.69,-255"/>
<text text-anchor="start" x="318.69" y="-273" font-family="Helvetica,sans-Serif" font-size="10.00">General Purpose Input</text>
<text text-anchor="middle" x="369" y="-261" font-family="Helvetica,sans-Serif" font-size="10.00">/Output (GPIO)</text>
</a>
</g>
</g>
<!-- Node0&#45;&gt;Node11 -->
<g id="edge11" class="edge"><title>Node0&#45;&gt;Node11</title>
<path fill="none" stroke="midnightblue" d="M208.859,-482.003C217.72,-441.324 243.275,-348.37 300,-296 303.697,-292.587 307.898,-289.63 312.357,-287.071"/>
<polygon fill="midnightblue" stroke="midnightblue" points="205.43,-481.3 206.832,-491.802 212.285,-482.718 205.43,-481.3"/>
</g>
<!-- Node8 -->
<g id="node19" class="node"><title>Node8</title>
<g id="a_node19"><a xlink:href="group___e_m_c.html" target="_top" xlink:title="External Memory Controller\l (EMC)">
<polygon fill="none" stroke="black" points="300.148,-204 300.148,-236 437.852,-236 437.852,-204 300.148,-204"/>
<text text-anchor="start" x="308.148" y="-222" font-family="Helvetica,sans-Serif" font-size="10.00">External Memory Controller</text>
<text text-anchor="middle" x="369" y="-210" font-family="Helvetica,sans-Serif" font-size="10.00"> (EMC)</text>
</a>
</g>
</g>
<!-- Node0&#45;&gt;Node8 -->
<g id="edge8" class="edge"><title>Node0&#45;&gt;Node8</title>
<path fill="none" stroke="midnightblue" d="M206.798,-481.782C212.106,-433.991 231.9,-312.98 300,-245 303.383,-241.623 307.259,-238.698 311.409,-236.165"/>
<polygon fill="midnightblue" stroke="midnightblue" points="203.309,-481.497 205.783,-491.799 210.273,-482.202 203.309,-481.497"/>
</g>
<!-- Node21 -->
<g id="node20" class="node"><title>Node21</title>
<g id="a_node20"><a xlink:href="group___u_a_r_t.html" target="_top" xlink:title="Universal Asynchronous\l Receiver/Transmitter\l (UART)">
<polygon fill="none" stroke="black" points="307.36,-141 307.36,-185 430.64,-185 430.64,-141 307.36,-141"/>
<text text-anchor="start" x="315.36" y="-171" font-family="Helvetica,sans-Serif" font-size="10.00">Universal Asynchronous</text>
<text text-anchor="start" x="315.36" y="-159" font-family="Helvetica,sans-Serif" font-size="10.00"> Receiver/Transmitter</text>
<text text-anchor="middle" x="369" y="-147" font-family="Helvetica,sans-Serif" font-size="10.00"> (UART)</text>
</a>
</g>
</g>
<!-- Node0&#45;&gt;Node21 -->
<g id="edge21" class="edge"><title>Node0&#45;&gt;Node21</title>
<path fill="none" stroke="midnightblue" d="M205.731,-481.531C208.704,-427.767 223.761,-280.729 300,-194 302.912,-190.687 306.251,-187.707 309.85,-185.03"/>
<polygon fill="midnightblue" stroke="midnightblue" points="202.222,-481.646 205.252,-491.798 209.214,-481.972 202.222,-481.646"/>
</g>
<!-- Node7 -->
<g id="node21" class="node"><title>Node7</title>
<g id="a_node21"><a xlink:href="group___e_i_n_t.html" target="_top" xlink:title="External Interrupts\l (EINT)">
<polygon fill="none" stroke="black" points="320.148,-90 320.148,-122 417.852,-122 417.852,-90 320.148,-90"/>
<text text-anchor="start" x="328.148" y="-108" font-family="Helvetica,sans-Serif" font-size="10.00">External Interrupts</text>
<text text-anchor="middle" x="369" y="-96" font-family="Helvetica,sans-Serif" font-size="10.00"> (EINT)</text>
</a>
</g>
</g>
<!-- Node0&#45;&gt;Node7 -->
<g id="edge7" class="edge"><title>Node0&#45;&gt;Node7</title>
<path fill="none" stroke="midnightblue" d="M207.711,-481.538C217.335,-411.723 251.875,-184.283 300,-131 305.48,-124.933 312.561,-120.335 320.077,-116.851"/>
<polygon fill="midnightblue" stroke="midnightblue" points="204.212,-481.295 206.338,-491.675 211.149,-482.235 204.212,-481.295"/>
</g>
<!-- Node22 -->
<g id="node22" class="node"><title>Node22</title>
<g id="a_node22"><a xlink:href="group___u_s_b.html" target="_top" xlink:title="Universal Serial Bus\l (USB)">
<polygon fill="none" stroke="black" points="315.983,-39 315.983,-71 422.017,-71 422.017,-39 315.983,-39"/>
<text text-anchor="start" x="323.983" y="-57" font-family="Helvetica,sans-Serif" font-size="10.00">Universal Serial Bus</text>
<text text-anchor="middle" x="369" y="-45" font-family="Helvetica,sans-Serif" font-size="10.00"> (USB)</text>
</a>
</g>
</g>
<!-- Node0&#45;&gt;Node22 -->
<g id="edge22" class="edge"><title>Node0&#45;&gt;Node22</title>
<path fill="none" stroke="midnightblue" d="M207.007,-481.738C214.869,-406.145 245.837,-141.759 300,-80 304.396,-74.988 309.886,-70.9797 315.829,-67.7744"/>
<polygon fill="midnightblue" stroke="midnightblue" points="203.51,-481.532 205.979,-491.835 210.474,-482.241 203.51,-481.532"/>
</g>
<!-- Node10 -->
<g id="node23" class="node"><title>Node10</title>
<g id="a_node23"><a xlink:href="group___f_l_a_s_h.html" target="_top" xlink:title="Flash Memory">
<polygon fill="none" stroke="black" points="329.328,-0 329.328,-20 408.672,-20 408.672,-0 329.328,-0"/>
<text text-anchor="middle" x="369" y="-6" font-family="Helvetica,sans-Serif" font-size="10.00">Flash Memory</text>
</a>
</g>
</g>
<!-- Node0&#45;&gt;Node10 -->
<g id="edge10" class="edge"><title>Node0&#45;&gt;Node10</title>
<path fill="none" stroke="midnightblue" d="M206.338,-481.306C212.062,-399.088 237.13,-96.7208 300,-29 307.589,-20.8252 318.375,-16.0614 329.127,-13.3165"/>
<polygon fill="midnightblue" stroke="midnightblue" points="202.812,-481.572 205.631,-491.785 209.796,-482.043 202.812,-481.572"/>
</g>
<!-- Node1 -->
<g id="node14" class="node"><title>Node1</title>
<g id="a_node14"><a xlink:href="group___h_w_p_l.html" target="_top" xlink:title="Hardware Peripheral\l Library">
<polygon fill="none" stroke="black" points="0.145508,-486 0.145508,-518 107.854,-518 107.854,-486 0.145508,-486"/>
<text text-anchor="start" x="8.14551" y="-504" font-family="Helvetica,sans-Serif" font-size="10.00">Hardware Peripheral</text>
<text text-anchor="middle" x="54" y="-492" font-family="Helvetica,sans-Serif" font-size="10.00"> Library</text>
</a>
</g>
</g>
<!-- Node1&#45;&gt;Node0 -->
<g id="edge1" class="edge"><title>Node1&#45;&gt;Node0</title>
<path fill="none" stroke="midnightblue" d="M118.033,-502C126.673,-502 135.516,-502 144.079,-502"/>
<polygon fill="midnightblue" stroke="midnightblue" points="118.013,-498.5 108.013,-502 118.013,-505.5 118.013,-498.5"/>
</g>
</g>
</svg>
