<?xml version="1.0" encoding="UTF-8" standalone="no"?>
<!DOCTYPE svg PUBLIC "-//W3C//DTD SVG 1.1//EN"
 "http://www.w3.org/Graphics/SVG/1.1/DTD/svg11.dtd">
<!-- Generated by graphviz version 2.34.0 (20130907.0228)
 -->
<!-- Title: /Users/tgil/git/CoActionOS/CoActionOS/include/link_protocol.h Pages: 1 -->
<svg width="1584pt" height="228pt"
 viewBox="0.00 0.00 1583.90 228.00" xmlns="http://www.w3.org/2000/svg" xmlns:xlink="http://www.w3.org/1999/xlink">
<g id="graph0" class="graph" transform="scale(1 1) rotate(0) translate(4 224)">
<title>/Users/tgil/git/CoActionOS/CoActionOS/include/link_protocol.h</title>
<!-- Node1 -->
<g id="node1" class="node"><title>Node1</title>
<polygon fill="#bfbfbf" stroke="black" points="702.641,-175 702.641,-219 825.359,-219 825.359,-175 702.641,-175"/>
<text text-anchor="start" x="710.641" y="-205" font-family="Helvetica,sans-Serif" font-size="10.00">/Users/tgil/git/CoAction</text>
<text text-anchor="start" x="710.641" y="-193" font-family="Helvetica,sans-Serif" font-size="10.00">OS/CoActionOS/include</text>
<text text-anchor="middle" x="764" y="-181" font-family="Helvetica,sans-Serif" font-size="10.00">/link_protocol.h</text>
</g>
<!-- Node2 -->
<g id="node2" class="node"><title>Node2</title>
<polygon fill="none" stroke="#bfbfbf" points="-0.118164,-117 -0.118164,-137 58.1182,-137 58.1182,-117 -0.118164,-117"/>
<text text-anchor="middle" x="29" y="-123" font-family="Helvetica,sans-Serif" font-size="10.00">sys/stat.h</text>
</g>
<!-- Node1&#45;&gt;Node2 -->
<g id="edge1" class="edge"><title>Node1&#45;&gt;Node2</title>
<path fill="none" stroke="midnightblue" d="M702.549,-193.839C581.314,-188.916 303.044,-174.352 72,-138 70.9022,-137.827 69.7907,-137.642 68.6708,-137.446"/>
<polygon fill="midnightblue" stroke="midnightblue" points="68.9841,-133.941 58.4977,-135.453 67.6379,-140.81 68.9841,-133.941"/>
</g>
<!-- Node3 -->
<g id="node3" class="node"><title>Node3</title>
<polygon fill="none" stroke="#bfbfbf" points="156.384,-1 156.384,-21 199.616,-21 199.616,-1 156.384,-1"/>
<text text-anchor="middle" x="178" y="-7" font-family="Helvetica,sans-Serif" font-size="10.00">time.h</text>
</g>
<!-- Node1&#45;&gt;Node3 -->
<g id="edge2" class="edge"><title>Node1&#45;&gt;Node3</title>
<path fill="none" stroke="midnightblue" d="M702.56,-195.156C573.373,-192.525 278.17,-181.762 189,-138 157.109,-122.349 147.158,-112.998 134,-80 130.378,-70.9177 130.359,-67.0745 134,-58 138.726,-46.2212 148.067,-35.753 156.931,-27.7901"/>
<polygon fill="midnightblue" stroke="midnightblue" points="159.366,-30.3163 164.791,-21.2157 154.875,-24.9468 159.366,-30.3163"/>
</g>
<!-- Node4 -->
<g id="node4" class="node"><title>Node4</title>
<g id="a_node4"><a xlink:href="adc_8h.html" target="_top" xlink:title="Analog to Digital Converter Header File. ">
<polygon fill="none" stroke="black" points="400.318,-117 400.318,-137 459.682,-137 459.682,-117 400.318,-117"/>
<text text-anchor="middle" x="430" y="-123" font-family="Helvetica,sans-Serif" font-size="10.00">dev/adc.h</text>
</a>
</g>
</g>
<!-- Node1&#45;&gt;Node4 -->
<g id="edge3" class="edge"><title>Node1&#45;&gt;Node4</title>
<path fill="none" stroke="midnightblue" d="M702.484,-184.96C644.879,-174.382 556.19,-157.487 469.75,-138.074"/>
<polygon fill="midnightblue" stroke="midnightblue" points="470.294,-134.609 459.768,-135.819 468.751,-141.437 470.294,-134.609"/>
</g>
<!-- Node10 -->
<g id="node10" class="node"><title>Node10</title>
<g id="a_node10"><a xlink:href="bootloader_8h.html" target="_top" xlink:title="Analog to Digital Converter Header File. ">
<polygon fill="none" stroke="black" points="478.022,-117 478.022,-137 567.978,-137 567.978,-117 478.022,-117"/>
<text text-anchor="middle" x="523" y="-123" font-family="Helvetica,sans-Serif" font-size="10.00">dev/bootloader.h</text>
</a>
</g>
</g>
<!-- Node1&#45;&gt;Node10 -->
<g id="edge10" class="edge"><title>Node1&#45;&gt;Node10</title>
<path fill="none" stroke="midnightblue" d="M702.562,-178.665C659.42,-166.492 602.859,-150.533 564.845,-139.807"/>
<polygon fill="midnightblue" stroke="midnightblue" points="565.695,-136.41 555.121,-137.063 563.794,-143.147 565.695,-136.41"/>
</g>
<!-- Node11 -->
<g id="node11" class="node"><title>Node11</title>
<g id="a_node11"><a xlink:href="core_8h.html" target="_top" xlink:title="Analog to Digital Converter Header File. ">
<polygon fill="none" stroke="black" points="634.653,-117 634.653,-137 697.347,-137 697.347,-117 634.653,-117"/>
<text text-anchor="middle" x="666" y="-123" font-family="Helvetica,sans-Serif" font-size="10.00">dev/core.h</text>
</a>
</g>
</g>
<!-- Node1&#45;&gt;Node11 -->
<g id="edge15" class="edge"><title>Node1&#45;&gt;Node11</title>
<path fill="none" stroke="midnightblue" d="M733.529,-174.857C718.647,-164.53 701.089,-152.348 687.608,-142.993"/>
<polygon fill="midnightblue" stroke="midnightblue" points="689.22,-139.852 679.009,-137.027 685.229,-145.603 689.22,-139.852"/>
</g>
<!-- Node12 -->
<g id="node12" class="node"><title>Node12</title>
<g id="a_node12"><a xlink:href="pio_8h.html" target="_top" xlink:title="General Purpose Input/Output Header File. ">
<polygon fill="none" stroke="black" points="659.707,-59 659.707,-79 716.293,-79 716.293,-59 659.707,-59"/>
<text text-anchor="middle" x="688" y="-65" font-family="Helvetica,sans-Serif" font-size="10.00">dev/pio.h</text>
</a>
</g>
</g>
<!-- Node1&#45;&gt;Node12 -->
<g id="edge30" class="edge"><title>Node1&#45;&gt;Node12</title>
<path fill="none" stroke="midnightblue" d="M751.279,-174.91C736.563,-150.513 712.591,-110.769 698.762,-87.8424"/>
<polygon fill="midnightblue" stroke="midnightblue" points="701.675,-85.8953 693.513,-79.1401 695.681,-89.5107 701.675,-85.8953"/>
</g>
<!-- Node13 -->
<g id="node13" class="node"><title>Node13</title>
<g id="a_node13"><a xlink:href="gpio_8h.html" target="_top" xlink:title="General Purpose Input/Output Header File. ">
<polygon fill="none" stroke="black" points="541.926,-59 541.926,-79 604.074,-79 604.074,-59 541.926,-59"/>
<text text-anchor="middle" x="573" y="-65" font-family="Helvetica,sans-Serif" font-size="10.00">dev/gpio.h</text>
</a>
</g>
</g>
<!-- Node1&#45;&gt;Node13 -->
<g id="edge25" class="edge"><title>Node1&#45;&gt;Node13</title>
<path fill="none" stroke="midnightblue" d="M702.346,-177.75C677.111,-168.408 648.597,-155.297 626,-138 608.06,-124.268 592.851,-103.09 583.388,-88.0202"/>
<polygon fill="midnightblue" stroke="midnightblue" points="586.192,-85.8925 578.029,-79.1387 580.199,-89.509 586.192,-85.8925"/>
</g>
<!-- Node14 -->
<g id="node14" class="node"><title>Node14</title>
<g id="a_node14"><a xlink:href="dac_8h.html" target="_top" xlink:title="DAC Header File. ">
<polygon fill="none" stroke="black" points="1429.32,-59 1429.32,-79 1488.68,-79 1488.68,-59 1429.32,-59"/>
<text text-anchor="middle" x="1459" y="-65" font-family="Helvetica,sans-Serif" font-size="10.00">dev/dac.h</text>
</a>
</g>
</g>
<!-- Node1&#45;&gt;Node14 -->
<g id="edge31" class="edge"><title>Node1&#45;&gt;Node14</title>
<path fill="none" stroke="midnightblue" d="M825.55,-188.697C904.646,-178.952 1046.07,-160.307 1166,-138 1276.73,-117.405 1305.89,-107.803 1419.43,-80.1046"/>
<polygon fill="midnightblue" stroke="midnightblue" points="1420.32,-83.4901 1429.21,-77.7251 1418.67,-76.6886 1420.32,-83.4901"/>
</g>
<!-- Node15 -->
<g id="node15" class="node"><title>Node15</title>
<g id="a_node15"><a xlink:href="eint_8h.html" target="_top" xlink:title="External Interrupt Header File. ">
<polygon fill="none" stroke="black" points="734.318,-59 734.318,-79 793.682,-79 793.682,-59 734.318,-59"/>
<text text-anchor="middle" x="764" y="-65" font-family="Helvetica,sans-Serif" font-size="10.00">dev/eint.h</text>
</a>
</g>
</g>
<!-- Node1&#45;&gt;Node15 -->
<g id="edge35" class="edge"><title>Node1&#45;&gt;Node15</title>
<path fill="none" stroke="midnightblue" d="M764,-174.91C764,-151.058 764,-112.536 764,-89.4024"/>
<polygon fill="midnightblue" stroke="midnightblue" points="767.5,-89.14 764,-79.1401 760.5,-89.1401 767.5,-89.14"/>
</g>
<!-- Node16 -->
<g id="node16" class="node"><title>Node16</title>
<g id="a_node16"><a xlink:href="flash_8h.html" target="_top" xlink:title="Flash Memory Header File. ">
<polygon fill="none" stroke="black" points="811.818,-59 811.818,-79 876.182,-79 876.182,-59 811.818,-59"/>
<text text-anchor="middle" x="844" y="-65" font-family="Helvetica,sans-Serif" font-size="10.00">dev/flash.h</text>
</a>
</g>
</g>
<!-- Node1&#45;&gt;Node16 -->
<g id="edge39" class="edge"><title>Node1&#45;&gt;Node16</title>
<path fill="none" stroke="midnightblue" d="M777.39,-174.91C792.881,-150.513 818.115,-110.769 832.672,-87.8424"/>
<polygon fill="midnightblue" stroke="midnightblue" points="835.791,-89.4583 838.197,-79.1401 829.882,-85.7062 835.791,-89.4583"/>
</g>
<!-- Node17 -->
<g id="node17" class="node"><title>Node17</title>
<g id="a_node17"><a xlink:href="i2c_8h.html" target="_top" xlink:title="I2C Header File. ">
<polygon fill="none" stroke="black" points="893.988,-59 893.988,-79 950.012,-79 950.012,-59 893.988,-59"/>
<text text-anchor="middle" x="922" y="-65" font-family="Helvetica,sans-Serif" font-size="10.00">dev/i2c.h</text>
</a>
</g>
</g>
<!-- Node1&#45;&gt;Node17 -->
<g id="edge43" class="edge"><title>Node1&#45;&gt;Node17</title>
<path fill="none" stroke="midnightblue" d="M790.446,-174.91C822.132,-149.642 874.461,-107.911 902.624,-85.4518"/>
<polygon fill="midnightblue" stroke="midnightblue" points="904.903,-88.1114 910.539,-79.1401 900.538,-82.6386 904.903,-88.1114"/>
</g>
<!-- Node18 -->
<g id="node18" class="node"><title>Node18</title>
<g id="a_node18"><a xlink:href="pwm_8h.html" target="_top" xlink:title="Pulse Width Modulation Header File. ">
<polygon fill="none" stroke="black" points="967.823,-59 967.823,-79 1032.18,-79 1032.18,-59 967.823,-59"/>
<text text-anchor="middle" x="1000" y="-65" font-family="Helvetica,sans-Serif" font-size="10.00">dev/pwm.h</text>
</a>
</g>
</g>
<!-- Node1&#45;&gt;Node18 -->
<g id="edge47" class="edge"><title>Node1&#45;&gt;Node18</title>
<path fill="none" stroke="midnightblue" d="M803.501,-174.91C851.952,-149.043 932.716,-105.923 973.989,-83.8874"/>
<polygon fill="midnightblue" stroke="midnightblue" points="975.707,-86.9374 982.881,-79.1401 972.411,-80.7624 975.707,-86.9374"/>
</g>
<!-- Node19 -->
<g id="node19" class="node"><title>Node19</title>
<g id="a_node19"><a xlink:href="qei_8h.html" target="_top" xlink:title="Quadrature Encoder Interface Header File. ">
<polygon fill="none" stroke="black" points="1049.71,-59 1049.71,-79 1106.29,-79 1106.29,-59 1049.71,-59"/>
<text text-anchor="middle" x="1078" y="-65" font-family="Helvetica,sans-Serif" font-size="10.00">dev/qei.h</text>
</a>
</g>
</g>
<!-- Node1&#45;&gt;Node19 -->
<g id="edge51" class="edge"><title>Node1&#45;&gt;Node19</title>
<path fill="none" stroke="midnightblue" d="M816.557,-174.91C881.97,-148.662 991.655,-104.648 1045.78,-82.9271"/>
<polygon fill="midnightblue" stroke="midnightblue" points="1047.25,-86.1125 1055.22,-79.1401 1044.64,-79.616 1047.25,-86.1125"/>
</g>
<!-- Node20 -->
<g id="node20" class="node"><title>Node20</title>
<g id="a_node20"><a xlink:href="rtc_8h.html" target="_top" xlink:title="Real Time Clock Header File. ">
<polygon fill="none" stroke="black" points="241.825,-59 241.825,-79 296.175,-79 296.175,-59 241.825,-59"/>
<text text-anchor="middle" x="269" y="-65" font-family="Helvetica,sans-Serif" font-size="10.00">dev/rtc.h</text>
</a>
</g>
</g>
<!-- Node1&#45;&gt;Node20 -->
<g id="edge55" class="edge"><title>Node1&#45;&gt;Node20</title>
<path fill="none" stroke="midnightblue" d="M702.33,-193.078C627.031,-188.01 496.658,-174.353 391,-138 353.349,-125.046 313.805,-100.733 290.287,-84.963"/>
<polygon fill="midnightblue" stroke="midnightblue" points="292.044,-81.9246 281.81,-79.1809 288.099,-87.7074 292.044,-81.9246"/>
</g>
<!-- Node21 -->
<g id="node21" class="node"><title>Node21</title>
<g id="a_node21"><a xlink:href="spi_8h.html" target="_top" xlink:title="Serial Peripheral Interface Header File. ">
<polygon fill="none" stroke="black" points="1123.99,-59 1123.99,-79 1180.01,-79 1180.01,-59 1123.99,-59"/>
<text text-anchor="middle" x="1152" y="-65" font-family="Helvetica,sans-Serif" font-size="10.00">dev/spi.h</text>
</a>
</g>
</g>
<!-- Node1&#45;&gt;Node21 -->
<g id="edge60" class="edge"><title>Node1&#45;&gt;Node21</title>
<path fill="none" stroke="midnightblue" d="M825.762,-176.966C861.766,-165.787 908.016,-151.287 949,-138 1007.51,-119.032 1075.19,-96.1734 1115.75,-82.3794"/>
<polygon fill="midnightblue" stroke="midnightblue" points="1117.11,-85.6118 1125.45,-79.0756 1114.86,-78.9853 1117.11,-85.6118"/>
</g>
<!-- Node22 -->
<g id="node22" class="node"><title>Node22</title>
<g id="a_node22"><a xlink:href="tmr_8h.html" target="_top" xlink:title="Timer Header File. ">
<polygon fill="none" stroke="black" points="1198.43,-59 1198.43,-79 1255.57,-79 1255.57,-59 1198.43,-59"/>
<text text-anchor="middle" x="1227" y="-65" font-family="Helvetica,sans-Serif" font-size="10.00">dev/tmr.h</text>
</a>
</g>
</g>
<!-- Node1&#45;&gt;Node22 -->
<g id="edge64" class="edge"><title>Node1&#45;&gt;Node22</title>
<path fill="none" stroke="midnightblue" d="M825.662,-181.106C872.068,-169.738 937.175,-153.451 994,-138 1062.95,-119.253 1142.78,-95.5084 1188.83,-81.6109"/>
<polygon fill="midnightblue" stroke="midnightblue" points="1189.84,-84.9608 1198.4,-78.7166 1187.82,-78.2603 1189.84,-84.9608"/>
</g>
<!-- Node23 -->
<g id="node23" class="node"><title>Node23</title>
<g id="a_node23"><a xlink:href="uart_8h.html" target="_top" xlink:title="Universal Asynchronous Receiver/Transmitter Header File. ">
<polygon fill="none" stroke="black" points="1273.76,-59 1273.76,-79 1334.24,-79 1334.24,-59 1273.76,-59"/>
<text text-anchor="middle" x="1304" y="-65" font-family="Helvetica,sans-Serif" font-size="10.00">dev/uart.h</text>
</a>
</g>
</g>
<!-- Node1&#45;&gt;Node23 -->
<g id="edge68" class="edge"><title>Node1&#45;&gt;Node23</title>
<path fill="none" stroke="midnightblue" d="M825.496,-184.437C882.969,-173.384 971.073,-155.81 1047,-138 1124.14,-119.905 1213.39,-95.4995 1263.82,-81.3842"/>
<polygon fill="midnightblue" stroke="midnightblue" points="1264.99,-84.6908 1273.68,-78.6188 1263.1,-77.9511 1264.99,-84.6908"/>
</g>
<!-- Node24 -->
<g id="node24" class="node"><title>Node24</title>
<g id="a_node24"><a xlink:href="usb_8h.html" target="_top" xlink:title="Universal Serial Bus Header File. ">
<polygon fill="none" stroke="black" points="1352.32,-59 1352.32,-79 1411.68,-79 1411.68,-59 1352.32,-59"/>
<text text-anchor="middle" x="1382" y="-65" font-family="Helvetica,sans-Serif" font-size="10.00">dev/usb.h</text>
</a>
</g>
</g>
<!-- Node1&#45;&gt;Node24 -->
<g id="edge72" class="edge"><title>Node1&#45;&gt;Node24</title>
<path fill="none" stroke="midnightblue" d="M825.661,-186.794C893.964,-176.292 1007.24,-157.97 1104,-138 1207.91,-116.555 1235.36,-107.028 1342.3,-80.1639"/>
<polygon fill="midnightblue" stroke="midnightblue" points="1343.35,-83.5081 1352.2,-77.6834 1341.65,-76.7179 1343.35,-83.5081"/>
</g>
<!-- Node25 -->
<g id="node25" class="node"><title>Node25</title>
<g id="a_node25"><a xlink:href="sys_8h.html" target="_top" xlink:title="dev/sys.h">
<polygon fill="none" stroke="black" points="197.879,-117 197.879,-137 256.121,-137 256.121,-117 197.879,-117"/>
<text text-anchor="middle" x="227" y="-123" font-family="Helvetica,sans-Serif" font-size="10.00">dev/sys.h</text>
</a>
</g>
</g>
<!-- Node1&#45;&gt;Node25 -->
<g id="edge76" class="edge"><title>Node1&#45;&gt;Node25</title>
<path fill="none" stroke="midnightblue" d="M702.399,-188.2C590.986,-174.091 358.977,-144.712 266.393,-132.988"/>
<polygon fill="midnightblue" stroke="midnightblue" points="266.685,-129.497 256.325,-131.713 265.806,-136.442 266.685,-129.497"/>
</g>
<!-- Node5 -->
<g id="node5" class="node"><title>Node5</title>
<polygon fill="none" stroke="#bfbfbf" points="747.879,-1 747.879,-21 796.121,-21 796.121,-1 747.879,-1"/>
<text text-anchor="middle" x="772" y="-7" font-family="Helvetica,sans-Serif" font-size="10.00">stdint.h</text>
</g>
<!-- Node4&#45;&gt;Node5 -->
<g id="edge4" class="edge"><title>Node4&#45;&gt;Node5</title>
<path fill="none" stroke="midnightblue" d="M437.914,-116.766C451.315,-101.791 480.049,-72.4355 511,-58 586.523,-22.7757 685.824,-14.3681 737.455,-12.4634"/>
<polygon fill="midnightblue" stroke="midnightblue" points="737.835,-15.9535 747.723,-12.1484 737.621,-8.95678 737.835,-15.9535"/>
</g>
<!-- Node6 -->
<g id="node6" class="node"><title>Node6</title>
<g id="a_node6"><a xlink:href="ioctl_8h_source.html" target="_top" xlink:title="ioctl.h">
<polygon fill="none" stroke="black" points="822.938,-1 822.938,-21 865.062,-21 865.062,-1 822.938,-1"/>
<text text-anchor="middle" x="844" y="-7" font-family="Helvetica,sans-Serif" font-size="10.00">ioctl.h</text>
</a>
</g>
</g>
<!-- Node4&#45;&gt;Node6 -->
<g id="edge5" class="edge"><title>Node4&#45;&gt;Node6</title>
<path fill="none" stroke="midnightblue" d="M438.817,-116.603C453.714,-101.395 485.532,-71.7113 519,-58 637.551,-9.43204 679.146,-45.9576 805,-22 807.523,-21.5196 810.126,-20.9711 812.733,-20.3839"/>
<polygon fill="midnightblue" stroke="midnightblue" points="813.753,-23.7384 822.653,-17.9896 812.11,-16.9338 813.753,-23.7384"/>
</g>
<!-- Node7 -->
<g id="node7" class="node"><title>Node7</title>
<polygon fill="none" stroke="#bfbfbf" points="1081.43,-1 1081.43,-21 1148.57,-21 1148.57,-1 1081.43,-1"/>
<text text-anchor="middle" x="1115" y="-7" font-family="Helvetica,sans-Serif" font-size="10.00">hwpl/arch.h</text>
</g>
<!-- Node4&#45;&gt;Node7 -->
<g id="edge6" class="edge"><title>Node4&#45;&gt;Node7</title>
<path fill="none" stroke="midnightblue" d="M460.104,-117.596C463.092,-116.969 466.094,-116.418 469,-116 525.563,-107.856 1457.3,-121.109 1497,-80 1503.79,-72.9661 1503.49,-65.3156 1497,-58 1474.87,-33.041 1254.68,-19.0247 1159,-14.071"/>
<polygon fill="midnightblue" stroke="midnightblue" points="1158.95,-10.5638 1148.78,-13.552 1158.59,-17.5548 1158.95,-10.5638"/>
</g>
<!-- Node8 -->
<g id="node8" class="node"><title>Node8</title>
<g id="a_node8"><a xlink:href="types_8h_source.html" target="_top" xlink:title="hwpl/types.h">
<polygon fill="none" stroke="black" points="152.207,-59 152.207,-79 223.793,-79 223.793,-59 152.207,-59"/>
<text text-anchor="middle" x="188" y="-65" font-family="Helvetica,sans-Serif" font-size="10.00">hwpl/types.h</text>
</a>
</g>
</g>
<!-- Node4&#45;&gt;Node8 -->
<g id="edge7" class="edge"><title>Node4&#45;&gt;Node8</title>
<path fill="none" stroke="midnightblue" d="M399.84,-119.021C358.202,-109.386 282.743,-91.9241 234.033,-80.6522"/>
<polygon fill="midnightblue" stroke="midnightblue" points="234.598,-77.1906 224.066,-78.346 233.02,-84.0104 234.598,-77.1906"/>
</g>
<!-- Node8&#45;&gt;Node5 -->
<g id="edge8" class="edge"><title>Node8&#45;&gt;Node5</title>
<path fill="none" stroke="midnightblue" d="M224.271,-59.5036C227.215,-58.9471 230.152,-58.436 233,-58 331.18,-42.9704 635.072,-21.3745 737.723,-14.3228"/>
<polygon fill="midnightblue" stroke="midnightblue" points="738.11,-17.8047 747.847,-13.6298 737.631,-10.821 738.11,-17.8047"/>
</g>
<!-- Node9 -->
<g id="node9" class="node"><title>Node9</title>
<polygon fill="none" stroke="#bfbfbf" points="544.707,-1 544.707,-21 601.293,-21 601.293,-1 544.707,-1"/>
<text text-anchor="middle" x="573" y="-7" font-family="Helvetica,sans-Serif" font-size="10.00">stdbool.h</text>
</g>
<!-- Node8&#45;&gt;Node9 -->
<g id="edge9" class="edge"><title>Node8&#45;&gt;Node9</title>
<path fill="none" stroke="midnightblue" d="M223.807,-59.7577C226.91,-59.1302 230.006,-58.5342 233,-58 341.648,-38.6138 471.126,-23.1935 534.37,-16.1534"/>
<polygon fill="midnightblue" stroke="midnightblue" points="535.11,-19.5931 544.665,-15.0165 534.341,-12.6354 535.11,-19.5931"/>
</g>
<!-- Node10&#45;&gt;Node5 -->
<g id="edge11" class="edge"><title>Node10&#45;&gt;Node5</title>
<path fill="none" stroke="midnightblue" d="M519.703,-116.851C515.184,-102.521 509.105,-74.6969 523,-58 549.914,-25.658 675.804,-15.9635 737.601,-13.1305"/>
<polygon fill="midnightblue" stroke="midnightblue" points="737.808,-16.625 747.651,-12.7047 737.512,-9.63123 737.808,-16.625"/>
</g>
<!-- Node10&#45;&gt;Node6 -->
<g id="edge12" class="edge"><title>Node10&#45;&gt;Node6</title>
<path fill="none" stroke="midnightblue" d="M521.217,-116.546C519.038,-101.799 517.363,-73.4128 533,-58 576.423,-15.1987 745.141,-33.5926 805,-22 807.522,-21.5116 810.123,-20.9573 812.73,-20.3662"/>
<polygon fill="midnightblue" stroke="midnightblue" points="813.752,-23.7199 822.648,-17.9648 812.105,-16.9164 813.752,-23.7199"/>
</g>
<!-- Node10&#45;&gt;Node7 -->
<g id="edge13" class="edge"><title>Node10&#45;&gt;Node7</title>
<path fill="none" stroke="midnightblue" d="M568.078,-121.062C586.076,-119.237 607,-117.299 626,-116 676.2,-112.567 1496.13,-116.28 1531,-80 1583.73,-25.1315 1276.23,-14.5338 1159,-12.4885"/>
<polygon fill="midnightblue" stroke="midnightblue" points="1158.97,-8.98777 1148.92,-12.3257 1158.86,-15.9869 1158.97,-8.98777"/>
</g>
<!-- Node10&#45;&gt;Node8 -->
<g id="edge14" class="edge"><title>Node10&#45;&gt;Node8</title>
<path fill="none" stroke="midnightblue" d="M477.995,-117.712C474.615,-117.122 471.254,-116.545 468,-116 366.943,-99.0759 338.555,-99.4325 233.851,-80.0585"/>
<polygon fill="midnightblue" stroke="midnightblue" points="234.29,-76.58 223.817,-78.1852 233.005,-83.4611 234.29,-76.58"/>
</g>
<!-- Node11&#45;&gt;Node5 -->
<g id="edge16" class="edge"><title>Node11&#45;&gt;Node5</title>
<path fill="none" stroke="midnightblue" d="M634.326,-121.808C585.96,-114.133 502.367,-95.0917 533,-58 558.574,-27.0349 677.941,-16.6927 737.713,-13.4198"/>
<polygon fill="midnightblue" stroke="midnightblue" points="737.994,-16.9101 747.802,-12.9038 737.636,-9.91926 737.994,-16.9101"/>
</g>
<!-- Node11&#45;&gt;Node6 -->
<g id="edge17" class="edge"><title>Node11&#45;&gt;Node6</title>
<path fill="none" stroke="midnightblue" d="M659.537,-116.56C650.677,-102.335 637.327,-75.2383 651,-58 694.681,-2.9306 736.73,-38.7301 805,-22 807.495,-21.3886 810.077,-20.7466 812.671,-20.0955"/>
<polygon fill="midnightblue" stroke="midnightblue" points="813.733,-23.4369 822.564,-17.584 812.011,-16.6521 813.733,-23.4369"/>
</g>
<!-- Node11&#45;&gt;Node7 -->
<g id="edge18" class="edge"><title>Node11&#45;&gt;Node7</title>
<path fill="none" stroke="midnightblue" d="M697.471,-125.599C853.557,-123.459 1538.35,-112.251 1569,-80 1626.68,-19.3039 1283.8,-12.4341 1159.07,-11.921"/>
<polygon fill="midnightblue" stroke="midnightblue" points="1158.74,-8.42018 1148.73,-11.8912 1158.72,-15.4202 1158.74,-8.42018"/>
</g>
<!-- Node11&#45;&gt;Node8 -->
<g id="edge19" class="edge"><title>Node11&#45;&gt;Node8</title>
<path fill="none" stroke="midnightblue" d="M634.35,-122.436C617.103,-120.505 595.381,-118.094 576,-116 426.879,-99.8901 386.026,-104.455 234.428,-80.0829"/>
<polygon fill="midnightblue" stroke="midnightblue" points="234.712,-76.5832 224.28,-78.4352 233.59,-83.4927 234.712,-76.5832"/>
</g>
<!-- Node11&#45;&gt;Node12 -->
<g id="edge20" class="edge"><title>Node11&#45;&gt;Node12</title>
<path fill="none" stroke="midnightblue" d="M669.633,-116.753C672.644,-109.087 677.019,-97.9515 680.744,-88.4708"/>
<polygon fill="midnightblue" stroke="midnightblue" points="684.036,-89.6625 684.435,-79.0752 677.521,-87.1029 684.036,-89.6625"/>
</g>
<!-- Node12&#45;&gt;Node5 -->
<g id="edge22" class="edge"><title>Node12&#45;&gt;Node5</title>
<path fill="none" stroke="midnightblue" d="M701.871,-58.7527C714.959,-50.0272 734.792,-36.8051 750.031,-26.6458"/>
<polygon fill="midnightblue" stroke="midnightblue" points="752.008,-29.5344 758.387,-21.0752 748.125,-23.7101 752.008,-29.5344"/>
</g>
<!-- Node12&#45;&gt;Node6 -->
<g id="edge23" class="edge"><title>Node12&#45;&gt;Node6</title>
<path fill="none" stroke="midnightblue" d="M713.411,-58.878C740.597,-49.1192 783.735,-33.6336 812.922,-23.1561"/>
<polygon fill="midnightblue" stroke="midnightblue" points="814.386,-26.3494 822.616,-19.6765 812.021,-19.761 814.386,-26.3494"/>
</g>
<!-- Node12&#45;&gt;Node7 -->
<g id="edge24" class="edge"><title>Node12&#45;&gt;Node7</title>
<path fill="none" stroke="midnightblue" d="M716.586,-59.8296C719.416,-59.1547 722.256,-58.5297 725,-58 849.418,-33.9836 998.745,-20.5933 1071.23,-15.0586"/>
<polygon fill="midnightblue" stroke="midnightblue" points="1071.65,-18.5374 1081.36,-14.2987 1071.12,-11.557 1071.65,-18.5374"/>
</g>
<!-- Node12&#45;&gt;Node9 -->
<g id="edge21" class="edge"><title>Node12&#45;&gt;Node9</title>
<path fill="none" stroke="midnightblue" d="M669.267,-58.878C650.723,-49.8475 622.107,-35.9132 600.89,-25.5812"/>
<polygon fill="midnightblue" stroke="midnightblue" points="602.248,-22.3495 591.725,-21.1181 599.183,-28.643 602.248,-22.3495"/>
</g>
<!-- Node13&#45;&gt;Node5 -->
<g id="edge27" class="edge"><title>Node13&#45;&gt;Node5</title>
<path fill="none" stroke="midnightblue" d="M604.094,-59.25C640.365,-49.0431 700.141,-32.2216 737.724,-21.6454"/>
<polygon fill="midnightblue" stroke="midnightblue" points="739.02,-24.9168 747.698,-18.8387 737.124,-18.1785 739.02,-24.9168"/>
</g>
<!-- Node13&#45;&gt;Node6 -->
<g id="edge28" class="edge"><title>Node13&#45;&gt;Node6</title>
<path fill="none" stroke="midnightblue" d="M604.447,-60.8921C608.99,-59.9001 613.612,-58.9098 618,-58 700.875,-40.8181 722.414,-40.5195 805,-22 807.507,-21.4379 810.097,-20.8311 812.696,-20.2041"/>
<polygon fill="midnightblue" stroke="midnightblue" points="813.743,-23.5504 822.6,-17.7367 812.051,-16.758 813.743,-23.5504"/>
</g>
<!-- Node13&#45;&gt;Node7 -->
<g id="edge29" class="edge"><title>Node13&#45;&gt;Node7</title>
<path fill="none" stroke="midnightblue" d="M604.099,-63.8052C618.377,-61.9327 635.536,-59.7575 651,-58 805.267,-40.4678 988.827,-23.3858 1071.19,-15.9204"/>
<polygon fill="midnightblue" stroke="midnightblue" points="1071.55,-19.4023 1081.2,-15.016 1070.92,-12.4308 1071.55,-19.4023"/>
</g>
<!-- Node13&#45;&gt;Node9 -->
<g id="edge26" class="edge"><title>Node13&#45;&gt;Node9</title>
<path fill="none" stroke="midnightblue" d="M573,-58.7527C573,-51.2504 573,-40.4238 573,-31.0781"/>
<polygon fill="midnightblue" stroke="midnightblue" points="576.5,-31.0752 573,-21.0752 569.5,-31.0752 576.5,-31.0752"/>
</g>
<!-- Node14&#45;&gt;Node5 -->
<g id="edge32" class="edge"><title>Node14&#45;&gt;Node5</title>
<path fill="none" stroke="midnightblue" d="M1429.31,-59.7626C1426.18,-59.0827 1423.04,-58.4753 1420,-58 1153.43,-16.3018 1080.92,-61.3963 814,-22 811.47,-21.6265 808.867,-21.1749 806.258,-20.6727"/>
<polygon fill="midnightblue" stroke="midnightblue" points="806.801,-17.2097 796.29,-18.5425 805.338,-24.0552 806.801,-17.2097"/>
</g>
<!-- Node14&#45;&gt;Node6 -->
<g id="edge33" class="edge"><title>Node14&#45;&gt;Node6</title>
<path fill="none" stroke="midnightblue" d="M1429.3,-59.8262C1426.18,-59.1338 1423.03,-58.5062 1420,-58 1313.68,-40.2584 979.98,-19.8887 875.558,-13.8048"/>
<polygon fill="midnightblue" stroke="midnightblue" points="875.54,-10.2979 865.354,-13.2133 875.135,-17.2862 875.54,-10.2979"/>
</g>
<!-- Node14&#45;&gt;Node7 -->
<g id="edge34" class="edge"><title>Node14&#45;&gt;Node7</title>
<path fill="none" stroke="midnightblue" d="M1429.26,-60.0439C1426.14,-59.3091 1423.01,-58.6121 1420,-58 1327.67,-39.2504 1218.19,-24.5457 1158.74,-17.1819"/>
<polygon fill="midnightblue" stroke="midnightblue" points="1158.94,-13.6802 1148.59,-15.9356 1158.09,-20.6281 1158.94,-13.6802"/>
</g>
<!-- Node15&#45;&gt;Node5 -->
<g id="edge36" class="edge"><title>Node15&#45;&gt;Node5</title>
<path fill="none" stroke="midnightblue" d="M765.321,-58.7527C766.393,-51.2504 767.939,-40.4238 769.275,-31.0781"/>
<polygon fill="midnightblue" stroke="midnightblue" points="772.754,-31.4697 770.704,-21.0752 765.824,-30.4797 772.754,-31.4697"/>
</g>
<!-- Node15&#45;&gt;Node6 -->
<g id="edge37" class="edge"><title>Node15&#45;&gt;Node6</title>
<path fill="none" stroke="midnightblue" d="M777.21,-58.7527C789.559,-50.1087 808.212,-37.0518 822.669,-26.9314"/>
<polygon fill="midnightblue" stroke="midnightblue" points="824.85,-29.6772 831.035,-21.0752 820.836,-23.9425 824.85,-29.6772"/>
</g>
<!-- Node15&#45;&gt;Node7 -->
<g id="edge38" class="edge"><title>Node15&#45;&gt;Node7</title>
<path fill="none" stroke="midnightblue" d="M793.737,-60.0337C796.854,-59.3009 799.985,-58.6071 803,-58 897.883,-38.8954 1010.5,-24.2414 1071.11,-17.0009"/>
<polygon fill="midnightblue" stroke="midnightblue" points="1071.58,-20.4704 1081.1,-15.8193 1070.75,-13.5189 1071.58,-20.4704"/>
</g>
<!-- Node16&#45;&gt;Node5 -->
<g id="edge40" class="edge"><title>Node16&#45;&gt;Node5</title>
<path fill="none" stroke="midnightblue" d="M832.111,-58.7527C821.102,-50.1903 804.526,-37.2978 791.567,-27.2186"/>
<polygon fill="midnightblue" stroke="midnightblue" points="793.71,-24.4519 783.668,-21.0752 789.413,-29.9774 793.71,-24.4519"/>
</g>
<!-- Node16&#45;&gt;Node6 -->
<g id="edge41" class="edge"><title>Node16&#45;&gt;Node6</title>
<path fill="none" stroke="midnightblue" d="M844,-58.7527C844,-51.2504 844,-40.4238 844,-31.0781"/>
<polygon fill="midnightblue" stroke="midnightblue" points="847.5,-31.0752 844,-21.0752 840.5,-31.0752 847.5,-31.0752"/>
</g>
<!-- Node16&#45;&gt;Node7 -->
<g id="edge42" class="edge"><title>Node16&#45;&gt;Node7</title>
<path fill="none" stroke="midnightblue" d="M876.199,-60.0118C879.171,-59.3153 882.139,-58.6347 885,-58 949.679,-43.651 1025.04,-28.9611 1071.39,-20.1592"/>
<polygon fill="midnightblue" stroke="midnightblue" points="1072.21,-23.5651 1081.39,-18.2659 1070.91,-16.6873 1072.21,-23.5651"/>
</g>
<!-- Node17&#45;&gt;Node5 -->
<g id="edge44" class="edge"><title>Node17&#45;&gt;Node5</title>
<path fill="none" stroke="midnightblue" d="M897.566,-58.878C872.723,-49.6034 834.026,-35.1564 806.156,-24.7515"/>
<polygon fill="midnightblue" stroke="midnightblue" points="807.016,-21.3368 796.423,-21.1181 804.568,-27.8946 807.016,-21.3368"/>
</g>
<!-- Node17&#45;&gt;Node6 -->
<g id="edge45" class="edge"><title>Node17&#45;&gt;Node6</title>
<path fill="none" stroke="midnightblue" d="M909.12,-58.7527C897.08,-50.1087 878.894,-37.0518 864.797,-26.9314"/>
<polygon fill="midnightblue" stroke="midnightblue" points="866.805,-24.0642 856.64,-21.0752 862.722,-29.7504 866.805,-24.0642"/>
</g>
<!-- Node17&#45;&gt;Node7 -->
<g id="edge46" class="edge"><title>Node17&#45;&gt;Node7</title>
<path fill="none" stroke="midnightblue" d="M950.064,-59.8571C982.555,-50.4296 1036.37,-34.8144 1073.65,-23.9968"/>
<polygon fill="midnightblue" stroke="midnightblue" points="1075.07,-27.2301 1083.7,-21.082 1073.12,-20.5073 1075.07,-27.2301"/>
</g>
<!-- Node18&#45;&gt;Node5 -->
<g id="edge48" class="edge"><title>Node18&#45;&gt;Node5</title>
<path fill="none" stroke="midnightblue" d="M967.817,-60.0953C925.088,-49.6006 849.948,-31.1451 806.218,-20.4044"/>
<polygon fill="midnightblue" stroke="midnightblue" points="806.885,-16.9644 796.339,-17.9781 805.216,-23.7624 806.885,-16.9644"/>
</g>
<!-- Node18&#45;&gt;Node6 -->
<g id="edge49" class="edge"><title>Node18&#45;&gt;Node6</title>
<path fill="none" stroke="midnightblue" d="M974.589,-58.878C947.403,-49.1192 904.265,-33.6336 875.078,-23.1561"/>
<polygon fill="midnightblue" stroke="midnightblue" points="875.979,-19.761 865.384,-19.6765 873.614,-26.3494 875.979,-19.761"/>
</g>
<!-- Node18&#45;&gt;Node7 -->
<g id="edge50" class="edge"><title>Node18&#45;&gt;Node7</title>
<path fill="none" stroke="midnightblue" d="M1018.73,-58.878C1037.28,-49.8475 1065.89,-35.9132 1087.11,-25.5812"/>
<polygon fill="midnightblue" stroke="midnightblue" points="1088.82,-28.643 1096.28,-21.1181 1085.75,-22.3495 1088.82,-28.643"/>
</g>
<!-- Node19&#45;&gt;Node5 -->
<g id="edge52" class="edge"><title>Node19&#45;&gt;Node5</title>
<path fill="none" stroke="midnightblue" d="M1049.39,-59.9441C1046.57,-59.246 1043.73,-58.5843 1041,-58 941.108,-36.6437 914.204,-41.8445 814,-22 811.491,-21.5031 808.904,-20.961 806.306,-20.3945"/>
<polygon fill="midnightblue" stroke="midnightblue" points="806.888,-16.9376 796.361,-18.1334 805.336,-23.7634 806.888,-16.9376"/>
</g>
<!-- Node19&#45;&gt;Node6 -->
<g id="edge53" class="edge"><title>Node19&#45;&gt;Node6</title>
<path fill="none" stroke="midnightblue" d="M1049.34,-60.1498C1046.53,-59.4101 1043.71,-58.6824 1041,-58 982.784,-43.3409 914.484,-27.7499 875.519,-19.0067"/>
<polygon fill="midnightblue" stroke="midnightblue" points="875.862,-15.4971 865.339,-16.7287 874.333,-22.3281 875.862,-15.4971"/>
</g>
<!-- Node19&#45;&gt;Node7 -->
<g id="edge54" class="edge"><title>Node19&#45;&gt;Node7</title>
<path fill="none" stroke="midnightblue" d="M1084.11,-58.7527C1089.34,-50.8427 1097,-39.2372 1103.39,-29.5683"/>
<polygon fill="midnightblue" stroke="midnightblue" points="1106.41,-31.348 1109,-21.0752 1100.57,-27.4891 1106.41,-31.348"/>
</g>
<!-- Node20&#45;&gt;Node3 -->
<g id="edge56" class="edge"><title>Node20&#45;&gt;Node3</title>
<path fill="none" stroke="midnightblue" d="M253.973,-58.7527C239.662,-49.9457 217.906,-36.5575 201.338,-26.3617"/>
<polygon fill="midnightblue" stroke="midnightblue" points="203.098,-23.3354 192.747,-21.0752 199.429,-29.297 203.098,-23.3354"/>
</g>
<!-- Node20&#45;&gt;Node5 -->
<g id="edge57" class="edge"><title>Node20&#45;&gt;Node5</title>
<path fill="none" stroke="midnightblue" d="M296.236,-60.7937C300.809,-59.7462 305.522,-58.7651 310,-58 468.598,-30.9003 660.756,-18.0945 737.713,-13.7678"/>
<polygon fill="midnightblue" stroke="midnightblue" points="738,-17.2574 747.792,-13.213 737.615,-10.268 738,-17.2574"/>
</g>
<!-- Node20&#45;&gt;Node6 -->
<g id="edge58" class="edge"><title>Node20&#45;&gt;Node6</title>
<path fill="none" stroke="midnightblue" d="M296.384,-64.2101C311.571,-62.1896 330.809,-59.7641 348,-58 550.676,-37.2013 604.02,-55.4261 805,-22 807.534,-21.5786 810.144,-21.072 812.756,-20.5136"/>
<polygon fill="midnightblue" stroke="midnightblue" points="813.755,-23.874 822.685,-18.172 812.149,-17.0609 813.755,-23.874"/>
</g>
<!-- Node20&#45;&gt;Node7 -->
<g id="edge59" class="edge"><title>Node20&#45;&gt;Node7</title>
<path fill="none" stroke="midnightblue" d="M296.19,-66.2002C418.544,-58.1011 918.72,-24.9925 1070.88,-14.9206"/>
<polygon fill="midnightblue" stroke="midnightblue" points="1071.47,-18.3889 1081.22,-14.2359 1071.01,-11.4041 1071.47,-18.3889"/>
</g>
<!-- Node21&#45;&gt;Node5 -->
<g id="edge61" class="edge"><title>Node21&#45;&gt;Node5</title>
<path fill="none" stroke="midnightblue" d="M1123.82,-59.9312C1120.85,-59.2184 1117.87,-58.5573 1115,-58 982.732,-32.3564 946.641,-45.6421 814,-22 811.482,-21.5512 808.889,-21.0443 806.285,-20.5028"/>
<polygon fill="midnightblue" stroke="midnightblue" points="806.852,-17.0434 796.331,-18.2927 805.334,-23.877 806.852,-17.0434"/>
</g>
<!-- Node21&#45;&gt;Node6 -->
<g id="edge62" class="edge"><title>Node21&#45;&gt;Node6</title>
<path fill="none" stroke="midnightblue" d="M1123.79,-60.076C1120.83,-59.3349 1117.86,-58.6276 1115,-58 1028.84,-39.0891 925.809,-23.5043 875.196,-16.3022"/>
<polygon fill="midnightblue" stroke="midnightblue" points="875.607,-12.8257 865.216,-14.8944 874.629,-19.757 875.607,-12.8257"/>
</g>
<!-- Node21&#45;&gt;Node7 -->
<g id="edge63" class="edge"><title>Node21&#45;&gt;Node7</title>
<path fill="none" stroke="midnightblue" d="M1145.89,-58.7527C1140.66,-50.8427 1133,-39.2372 1126.61,-29.5683"/>
<polygon fill="midnightblue" stroke="midnightblue" points="1129.43,-27.4891 1121,-21.0752 1123.59,-31.348 1129.43,-27.4891"/>
</g>
<!-- Node22&#45;&gt;Node5 -->
<g id="edge65" class="edge"><title>Node22&#45;&gt;Node5</title>
<path fill="none" stroke="midnightblue" d="M1198.06,-59.8691C1195.02,-59.1684 1191.95,-58.5271 1189,-58 1024.17,-28.5988 979.166,-49.4558 814,-22 811.477,-21.5806 808.88,-21.0953 806.274,-20.5691"/>
<polygon fill="midnightblue" stroke="midnightblue" points="806.831,-17.1082 796.314,-18.3902 805.335,-23.9465 806.831,-17.1082"/>
</g>
<!-- Node22&#45;&gt;Node6 -->
<g id="edge66" class="edge"><title>Node22&#45;&gt;Node6</title>
<path fill="none" stroke="midnightblue" d="M1198.04,-59.9809C1195,-59.2584 1191.94,-58.5814 1189,-58 1074.36,-35.3642 936.042,-20.677 875.243,-14.8468"/>
<polygon fill="midnightblue" stroke="midnightblue" points="875.437,-11.3496 865.152,-13.8926 874.778,-18.3185 875.437,-11.3496"/>
</g>
<!-- Node22&#45;&gt;Node7 -->
<g id="edge67" class="edge"><title>Node22&#45;&gt;Node7</title>
<path fill="none" stroke="midnightblue" d="M1208.51,-58.7527C1190.48,-49.7418 1162.87,-35.9353 1142.32,-25.6589"/>
<polygon fill="midnightblue" stroke="midnightblue" points="1143.66,-22.4169 1133.15,-21.0752 1140.53,-28.6779 1143.66,-22.4169"/>
</g>
<!-- Node23&#45;&gt;Node5 -->
<g id="edge69" class="edge"><title>Node23&#45;&gt;Node5</title>
<path fill="none" stroke="midnightblue" d="M1273.53,-59.8324C1270.33,-59.1389 1267.11,-58.5093 1264,-58 1066,-25.5584 1012.18,-53.3288 814,-22 811.474,-21.6006 808.874,-21.13 806.267,-20.6143"/>
<polygon fill="midnightblue" stroke="midnightblue" points="806.817,-17.1525 796.303,-18.4566 805.336,-23.9939 806.817,-17.1525"/>
</g>
<!-- Node23&#45;&gt;Node6 -->
<g id="edge70" class="edge"><title>Node23&#45;&gt;Node6</title>
<path fill="none" stroke="midnightblue" d="M1273.52,-59.9259C1270.32,-59.2141 1267.1,-58.5547 1264,-58 1120.07,-32.2494 945.634,-18.7105 875.467,-13.9786"/>
<polygon fill="midnightblue" stroke="midnightblue" points="875.331,-10.462 865.121,-13.2942 874.869,-17.4467 875.331,-10.462"/>
</g>
<!-- Node23&#45;&gt;Node7 -->
<g id="edge71" class="edge"><title>Node23&#45;&gt;Node7</title>
<path fill="none" stroke="midnightblue" d="M1273.63,-59.0026C1241.63,-49.5194 1191.04,-34.53 1155.62,-24.0349"/>
<polygon fill="midnightblue" stroke="midnightblue" points="1156.19,-20.553 1145.6,-21.0679 1154.2,-27.2646 1156.19,-20.553"/>
</g>
<!-- Node24&#45;&gt;Node5 -->
<g id="edge73" class="edge"><title>Node24&#45;&gt;Node5</title>
<path fill="none" stroke="midnightblue" d="M1352.31,-59.7895C1349.18,-59.1043 1346.04,-58.4884 1343,-58 1110.34,-20.5779 1046.98,-57.4129 814,-22 811.471,-21.6156 808.87,-21.156 806.261,-20.6481"/>
<polygon fill="midnightblue" stroke="midnightblue" points="806.808,-17.1857 796.296,-18.5064 805.337,-24.0294 806.808,-17.1857"/>
</g>
<!-- Node24&#45;&gt;Node6 -->
<g id="edge74" class="edge"><title>Node24&#45;&gt;Node6</title>
<path fill="none" stroke="midnightblue" d="M1352.3,-59.8643C1349.17,-59.1645 1346.03,-58.5248 1343,-58 1167.79,-27.6604 954.279,-16.4449 875.306,-13.1557"/>
<polygon fill="midnightblue" stroke="midnightblue" points="875.206,-9.64897 865.073,-12.7431 874.924,-16.6433 875.206,-9.64897"/>
</g>
<!-- Node24&#45;&gt;Node7 -->
<g id="edge75" class="edge"><title>Node24&#45;&gt;Node7</title>
<path fill="none" stroke="midnightblue" d="M1352.23,-60.1967C1349.12,-59.4321 1346,-58.6863 1343,-58 1279.14,-43.3816 1204.66,-28.8177 1158.66,-20.1099"/>
<polygon fill="midnightblue" stroke="midnightblue" points="1159.2,-16.6509 1148.73,-18.2371 1157.9,-23.5297 1159.2,-16.6509"/>
</g>
<!-- Node25&#45;&gt;Node5 -->
<g id="edge77" class="edge"><title>Node25&#45;&gt;Node5</title>
<path fill="none" stroke="midnightblue" d="M199.824,-116.899C167.567,-104.733 120.773,-81.9122 143,-58 148.11,-52.5031 606.188,-22.6586 737.301,-14.2223"/>
<polygon fill="midnightblue" stroke="midnightblue" points="737.811,-17.6968 747.566,-13.5626 737.362,-10.7112 737.811,-17.6968"/>
</g>
<!-- Node25&#45;&gt;Node6 -->
<g id="edge78" class="edge"><title>Node25&#45;&gt;Node6</title>
<path fill="none" stroke="midnightblue" d="M254.901,-116.914C300.888,-102.284 395.714,-73.5787 478,-58 621.659,-30.802 661.159,-48.2231 805,-22 807.527,-21.5393 810.132,-21.0048 812.741,-20.4271"/>
<polygon fill="midnightblue" stroke="midnightblue" points="813.754,-23.7836 822.664,-18.0505 812.124,-16.9761 813.754,-23.7836"/>
</g>
<!-- Node25&#45;&gt;Node8 -->
<g id="edge79" class="edge"><title>Node25&#45;&gt;Node8</title>
<path fill="none" stroke="midnightblue" d="M220.56,-116.753C215.051,-108.843 206.969,-97.2372 200.235,-87.5683"/>
<polygon fill="midnightblue" stroke="midnightblue" points="202.907,-85.281 194.32,-79.0752 197.163,-89.2815 202.907,-85.281"/>
</g>
</g>
</svg>
