<?xml version="1.0" encoding="UTF-8" standalone="no"?>
<!DOCTYPE svg PUBLIC "-//W3C//DTD SVG 1.1//EN"
 "http://www.w3.org/Graphics/SVG/1.1/DTD/svg11.dtd">
<!-- Generated by graphviz version 2.34.0 (20130907.0228)
 -->
<!-- Title: /Users/tgil/git/CoActionOS/CoActionOS/include/link.h Pages: 1 -->
<svg width="1608pt" height="286pt"
 viewBox="0.00 0.00 1608.24 286.00" xmlns="http://www.w3.org/2000/svg" xmlns:xlink="http://www.w3.org/1999/xlink">
<g id="graph0" class="graph" transform="scale(1 1) rotate(0) translate(4 282)">
<title>/Users/tgil/git/CoActionOS/CoActionOS/include/link.h</title>
<!-- Node1 -->
<g id="node1" class="node"><title>Node1</title>
<polygon fill="#bfbfbf" stroke="black" points="14.7554,-233 14.7554,-277 137.474,-277 137.474,-233 14.7554,-233"/>
<text text-anchor="start" x="22.7554" y="-263" font-family="Helvetica,sans-Serif" font-size="10.00">/Users/tgil/git/CoAction</text>
<text text-anchor="start" x="22.7554" y="-251" font-family="Helvetica,sans-Serif" font-size="10.00">OS/CoActionOS/include</text>
<text text-anchor="middle" x="76.1147" y="-239" font-family="Helvetica,sans-Serif" font-size="10.00">/link.h</text>
</g>
<!-- Node2 -->
<g id="node2" class="node"><title>Node2</title>
<polygon fill="none" stroke="#bfbfbf" points="718.994,-1 718.994,-21 767.235,-21 767.235,-1 718.994,-1"/>
<text text-anchor="middle" x="743.115" y="-7" font-family="Helvetica,sans-Serif" font-size="10.00">stdint.h</text>
</g>
<!-- Node1&#45;&gt;Node2 -->
<g id="edge1" class="edge"><title>Node1&#45;&gt;Node2</title>
<path fill="none" stroke="midnightblue" d="M60.3695,-232.875C32.8329,-193.202 -16.9597,-107.138 29.1147,-58 52.6109,-32.9414 568.746,-16.8392 708.491,-12.9281"/>
<polygon fill="midnightblue" stroke="midnightblue" points="708.732,-16.4229 718.631,-12.6473 708.538,-9.42557 708.732,-16.4229"/>
</g>
<!-- Node3 -->
<g id="node3" class="node"><title>Node3</title>
<g id="a_node3"><a xlink:href="device_8h_source.html" target="_top" xlink:title="device.h">
<polygon fill="none" stroke="black" points="49.4917,-117 49.4917,-137 102.738,-137 102.738,-117 49.4917,-117"/>
<text text-anchor="middle" x="76.1147" y="-123" font-family="Helvetica,sans-Serif" font-size="10.00">device.h</text>
</a>
</g>
</g>
<!-- Node1&#45;&gt;Node3 -->
<g id="edge2" class="edge"><title>Node1&#45;&gt;Node3</title>
<path fill="none" stroke="midnightblue" d="M76.1147,-232.91C76.1147,-209.058 76.1147,-170.536 76.1147,-147.402"/>
<polygon fill="midnightblue" stroke="midnightblue" points="79.6148,-147.14 76.1147,-137.14 72.6148,-147.14 79.6148,-147.14"/>
</g>
<!-- Node10 -->
<g id="node10" class="node"><title>Node10</title>
<g id="a_node10"><a xlink:href="link__protocol_8h.html" target="_top" xlink:title="USB Link Protocol Header File. ">
<polygon fill="none" stroke="black" points="751.874,-175 751.874,-195 832.356,-195 832.356,-175 751.874,-175"/>
<text text-anchor="middle" x="792.115" y="-181" font-family="Helvetica,sans-Serif" font-size="10.00">link_protocol.h</text>
</a>
</g>
</g>
<!-- Node1&#45;&gt;Node10 -->
<g id="edge14" class="edge"><title>Node1&#45;&gt;Node10</title>
<path fill="none" stroke="midnightblue" d="M137.78,-248.144C277.013,-234.92 613.541,-202.959 741.545,-190.803"/>
<polygon fill="midnightblue" stroke="midnightblue" points="742.213,-194.255 751.837,-189.825 741.551,-187.286 742.213,-194.255"/>
</g>
<!-- Node4 -->
<g id="node4" class="node"><title>Node4</title>
<polygon fill="none" stroke="#bfbfbf" points="46.9966,-59 46.9966,-79 105.233,-79 105.233,-59 46.9966,-59"/>
<text text-anchor="middle" x="76.1147" y="-65" font-family="Helvetica,sans-Serif" font-size="10.00">sys/stat.h</text>
</g>
<!-- Node3&#45;&gt;Node4 -->
<g id="edge3" class="edge"><title>Node3&#45;&gt;Node4</title>
<path fill="none" stroke="midnightblue" d="M76.1147,-116.753C76.1147,-109.25 76.1147,-98.4238 76.1147,-89.0781"/>
<polygon fill="midnightblue" stroke="midnightblue" points="79.6148,-89.0752 76.1147,-79.0752 72.6148,-89.0752 79.6148,-89.0752"/>
</g>
<!-- Node5 -->
<g id="node5" class="node"><title>Node5</title>
<polygon fill="none" stroke="#bfbfbf" points="201.822,-1 201.822,-21 258.408,-21 258.408,-1 201.822,-1"/>
<text text-anchor="middle" x="230.115" y="-7" font-family="Helvetica,sans-Serif" font-size="10.00">stdbool.h</text>
</g>
<!-- Node3&#45;&gt;Node5 -->
<g id="edge4" class="edge"><title>Node3&#45;&gt;Node5</title>
<path fill="none" stroke="midnightblue" d="M53.6162,-116.835C26.3411,-104.419 -13.7723,-81.1391 5.11474,-58 28.1964,-29.722 133.365,-18.3629 191.388,-14.1867"/>
<polygon fill="midnightblue" stroke="midnightblue" points="191.904,-17.6598 201.643,-13.4881 191.428,-10.676 191.904,-17.6598"/>
</g>
<!-- Node6 -->
<g id="node6" class="node"><title>Node6</title>
<g id="a_node6"><a xlink:href="types_8h_source.html" target="_top" xlink:title="hwpl/types.h">
<polygon fill="none" stroke="black" points="235.322,-59 235.322,-79 306.908,-79 306.908,-59 235.322,-59"/>
<text text-anchor="middle" x="271.115" y="-65" font-family="Helvetica,sans-Serif" font-size="10.00">hwpl/types.h</text>
</a>
</g>
</g>
<!-- Node3&#45;&gt;Node6 -->
<g id="edge5" class="edge"><title>Node3&#45;&gt;Node6</title>
<path fill="none" stroke="midnightblue" d="M102.82,-118.331C135.567,-108.927 191.431,-92.8837 229.75,-81.8792"/>
<polygon fill="midnightblue" stroke="midnightblue" points="230.928,-85.1825 239.573,-79.0581 228.995,-78.4544 230.928,-85.1825"/>
</g>
<!-- Node7 -->
<g id="node7" class="node"><title>Node7</title>
<polygon fill="none" stroke="#bfbfbf" points="787.546,-1 787.546,-21 854.684,-21 854.684,-1 787.546,-1"/>
<text text-anchor="middle" x="821.115" y="-7" font-family="Helvetica,sans-Serif" font-size="10.00">hwpl/arch.h</text>
</g>
<!-- Node3&#45;&gt;Node7 -->
<g id="edge8" class="edge"><title>Node3&#45;&gt;Node7</title>
<path fill="none" stroke="midnightblue" d="M64.4435,-116.937C47.7985,-102.969 21.0465,-75.9212 38.1147,-58 66.4247,-28.2755 735.432,-27.4721 776.115,-22 776.457,-21.954 776.8,-21.9067 777.144,-21.8582"/>
<polygon fill="midnightblue" stroke="midnightblue" points="778.031,-25.2585 787.317,-20.1567 776.876,-18.3544 778.031,-25.2585"/>
</g>
<!-- Node8 -->
<g id="node8" class="node"><title>Node8</title>
<g id="a_node8"><a xlink:href="pio_8h.html" target="_top" xlink:title="General Purpose Input/Output Header File. ">
<polygon fill="none" stroke="black" points="160.822,-59 160.822,-79 217.408,-79 217.408,-59 160.822,-59"/>
<text text-anchor="middle" x="189.115" y="-65" font-family="Helvetica,sans-Serif" font-size="10.00">dev/pio.h</text>
</a>
</g>
</g>
<!-- Node3&#45;&gt;Node8 -->
<g id="edge9" class="edge"><title>Node3&#45;&gt;Node8</title>
<path fill="none" stroke="midnightblue" d="M94.5216,-116.878C112.744,-107.847 140.861,-93.9132 161.71,-83.5812"/>
<polygon fill="midnightblue" stroke="midnightblue" points="163.31,-86.6946 170.716,-79.1181 160.201,-80.4225 163.31,-86.6946"/>
</g>
<!-- Node6&#45;&gt;Node2 -->
<g id="edge6" class="edge"><title>Node6&#45;&gt;Node2</title>
<path fill="none" stroke="midnightblue" d="M307.097,-60.4065C311.801,-59.5306 316.565,-58.7015 321.115,-58 464.179,-35.9408 636.132,-20.6524 708.425,-14.7307"/>
<polygon fill="midnightblue" stroke="midnightblue" points="709.069,-18.1901 718.754,-13.8932 708.503,-11.213 709.069,-18.1901"/>
</g>
<!-- Node6&#45;&gt;Node5 -->
<g id="edge7" class="edge"><title>Node6&#45;&gt;Node5</title>
<path fill="none" stroke="midnightblue" d="M264.344,-58.7527C258.493,-50.7611 249.881,-38.9975 242.759,-29.2698"/>
<polygon fill="midnightblue" stroke="midnightblue" points="245.491,-27.0762 236.759,-21.0752 239.842,-31.2114 245.491,-27.0762"/>
</g>
<!-- Node8&#45;&gt;Node2 -->
<g id="edge11" class="edge"><title>Node8&#45;&gt;Node2</title>
<path fill="none" stroke="midnightblue" d="M217.686,-59.747C220.519,-59.0889 223.363,-58.4903 226.115,-58 406.078,-25.9299 625.465,-15.8011 708.794,-12.9778"/>
<polygon fill="midnightblue" stroke="midnightblue" points="709.071,-16.4707 718.952,-12.6475 708.844,-9.47444 709.071,-16.4707"/>
</g>
<!-- Node8&#45;&gt;Node5 -->
<g id="edge10" class="edge"><title>Node8&#45;&gt;Node5</title>
<path fill="none" stroke="midnightblue" d="M195.885,-58.7527C201.736,-50.7611 210.349,-38.9975 217.471,-29.2698"/>
<polygon fill="midnightblue" stroke="midnightblue" points="220.387,-31.2114 223.47,-21.0752 214.739,-27.0762 220.387,-31.2114"/>
</g>
<!-- Node8&#45;&gt;Node7 -->
<g id="edge13" class="edge"><title>Node8&#45;&gt;Node7</title>
<path fill="none" stroke="midnightblue" d="M217.674,-59.6795C220.51,-59.0351 223.358,-58.4581 226.115,-58 467.769,-17.8451 533.613,-56.6723 776.115,-22 776.456,-21.9512 776.799,-21.9011 777.143,-21.8499"/>
<polygon fill="midnightblue" stroke="midnightblue" points="778.049,-25.2454 787.308,-20.0955 776.859,-18.3474 778.049,-25.2454"/>
</g>
<!-- Node9 -->
<g id="node9" class="node"><title>Node9</title>
<g id="a_node9"><a xlink:href="ioctl_8h_source.html" target="_top" xlink:title="ioctl.h">
<polygon fill="none" stroke="black" points="1105.05,-1 1105.05,-21 1147.18,-21 1147.18,-1 1105.05,-1"/>
<text text-anchor="middle" x="1126.11" y="-7" font-family="Helvetica,sans-Serif" font-size="10.00">ioctl.h</text>
</a>
</g>
</g>
<!-- Node8&#45;&gt;Node9 -->
<g id="edge12" class="edge"><title>Node8&#45;&gt;Node9</title>
<path fill="none" stroke="midnightblue" d="M217.668,-59.6382C220.504,-59.0021 223.355,-58.4384 226.115,-58 313.264,-44.158 945.778,-18.988 1094.75,-13.2061"/>
<polygon fill="midnightblue" stroke="midnightblue" points="1095.15,-16.6932 1105.01,-12.8089 1094.88,-9.69844 1095.15,-16.6932"/>
</g>
<!-- Node10&#45;&gt;Node4 -->
<g id="edge15" class="edge"><title>Node10&#45;&gt;Node4</title>
<path fill="none" stroke="midnightblue" d="M751.746,-182.276C641.416,-177.303 336.573,-161.758 239.115,-138 188.63,-125.693 133.555,-99.8808 102.09,-83.8371"/>
<polygon fill="midnightblue" stroke="midnightblue" points="103.605,-80.6803 93.1149,-79.1974 100.391,-86.8987 103.605,-80.6803"/>
</g>
<!-- Node10&#45;&gt;Node8 -->
<g id="edge38" class="edge"><title>Node10&#45;&gt;Node8</title>
<path fill="none" stroke="midnightblue" d="M751.742,-183.201C646.536,-180.673 366.17,-170.95 280.115,-138 250.358,-126.606 221.916,-102.51 204.981,-86.2824"/>
<polygon fill="midnightblue" stroke="midnightblue" points="207.214,-83.5687 197.636,-79.0383 202.298,-88.5525 207.214,-83.5687"/>
</g>
<!-- Node11 -->
<g id="node11" class="node"><title>Node11</title>
<polygon fill="none" stroke="#bfbfbf" points="1514.5,-1 1514.5,-21 1557.73,-21 1557.73,-1 1514.5,-1"/>
<text text-anchor="middle" x="1536.11" y="-7" font-family="Helvetica,sans-Serif" font-size="10.00">time.h</text>
</g>
<!-- Node10&#45;&gt;Node11 -->
<g id="edge16" class="edge"><title>Node10&#45;&gt;Node11</title>
<path fill="none" stroke="midnightblue" d="M832.563,-181.872C988.536,-173.257 1544.74,-138.597 1595.11,-80 1611.05,-61.4574 1585.48,-40.1827 1563.17,-26.4402"/>
<polygon fill="midnightblue" stroke="midnightblue" points="1564.66,-23.2521 1554.26,-21.2157 1561.12,-29.2915 1564.66,-23.2521"/>
</g>
<!-- Node12 -->
<g id="node12" class="node"><title>Node12</title>
<g id="a_node12"><a xlink:href="adc_8h.html" target="_top" xlink:title="Analog to Digital Converter Header File. ">
<polygon fill="none" stroke="black" points="289.433,-117 289.433,-137 348.797,-137 348.797,-117 289.433,-117"/>
<text text-anchor="middle" x="319.115" y="-123" font-family="Helvetica,sans-Serif" font-size="10.00">dev/adc.h</text>
</a>
</g>
</g>
<!-- Node10&#45;&gt;Node12 -->
<g id="edge17" class="edge"><title>Node10&#45;&gt;Node12</title>
<path fill="none" stroke="midnightblue" d="M751.749,-181.688C676.379,-176.947 509.05,-164.422 358.705,-137.863"/>
<polygon fill="midnightblue" stroke="midnightblue" points="359.288,-134.412 348.827,-136.093 358.053,-141.302 359.288,-134.412"/>
</g>
<!-- Node13 -->
<g id="node13" class="node"><title>Node13</title>
<g id="a_node13"><a xlink:href="bootloader_8h.html" target="_top" xlink:title="Analog to Digital Converter Header File. ">
<polygon fill="none" stroke="black" points="523.137,-117 523.137,-137 613.092,-137 613.092,-117 523.137,-117"/>
<text text-anchor="middle" x="568.115" y="-123" font-family="Helvetica,sans-Serif" font-size="10.00">dev/bootloader.h</text>
</a>
</g>
</g>
<!-- Node10&#45;&gt;Node13 -->
<g id="edge22" class="edge"><title>Node10&#45;&gt;Node13</title>
<path fill="none" stroke="midnightblue" d="M755.627,-174.878C717.031,-165.229 656.041,-149.982 614.162,-139.512"/>
<polygon fill="midnightblue" stroke="midnightblue" points="614.766,-136.055 604.216,-137.025 613.069,-142.846 614.766,-136.055"/>
</g>
<!-- Node14 -->
<g id="node14" class="node"><title>Node14</title>
<g id="a_node14"><a xlink:href="core_8h.html" target="_top" xlink:title="Analog to Digital Converter Header File. ">
<polygon fill="none" stroke="black" points="366.768,-117 366.768,-137 429.462,-137 429.462,-117 366.768,-117"/>
<text text-anchor="middle" x="398.115" y="-123" font-family="Helvetica,sans-Serif" font-size="10.00">dev/core.h</text>
</a>
</g>
</g>
<!-- Node10&#45;&gt;Node14 -->
<g id="edge27" class="edge"><title>Node10&#45;&gt;Node14</title>
<path fill="none" stroke="midnightblue" d="M751.793,-180.295C687.64,-174.067 558.247,-160.144 439.472,-138.086"/>
<polygon fill="midnightblue" stroke="midnightblue" points="439.957,-134.616 429.482,-136.206 438.662,-141.495 439.957,-134.616"/>
</g>
<!-- Node15 -->
<g id="node15" class="node"><title>Node15</title>
<g id="a_node15"><a xlink:href="gpio_8h.html" target="_top" xlink:title="General Purpose Input/Output Header File. ">
<polygon fill="none" stroke="black" points="553.041,-59 553.041,-79 615.188,-79 615.188,-59 553.041,-59"/>
<text text-anchor="middle" x="584.115" y="-65" font-family="Helvetica,sans-Serif" font-size="10.00">dev/gpio.h</text>
</a>
</g>
</g>
<!-- Node10&#45;&gt;Node15 -->
<g id="edge33" class="edge"><title>Node10&#45;&gt;Node15</title>
<path fill="none" stroke="midnightblue" d="M775.445,-174.864C739.147,-154.97 652.763,-107.624 609.589,-83.962"/>
<polygon fill="midnightblue" stroke="midnightblue" points="611.027,-80.7587 600.575,-79.0217 607.662,-86.8972 611.027,-80.7587"/>
</g>
<!-- Node16 -->
<g id="node16" class="node"><title>Node16</title>
<g id="a_node16"><a xlink:href="dac_8h.html" target="_top" xlink:title="DAC Header File. ">
<polygon fill="none" stroke="black" points="1328.43,-59 1328.43,-79 1387.8,-79 1387.8,-59 1328.43,-59"/>
<text text-anchor="middle" x="1358.11" y="-65" font-family="Helvetica,sans-Serif" font-size="10.00">dev/dac.h</text>
</a>
</g>
</g>
<!-- Node10&#45;&gt;Node16 -->
<g id="edge39" class="edge"><title>Node10&#45;&gt;Node16</title>
<path fill="none" stroke="midnightblue" d="M832.54,-178.915C889.726,-171.451 997.391,-156.399 1088.11,-138 1188.72,-117.598 1214.95,-106.706 1318.39,-80.1889"/>
<polygon fill="midnightblue" stroke="midnightblue" points="1319.48,-83.5221 1328.31,-77.6591 1317.75,-76.7393 1319.48,-83.5221"/>
</g>
<!-- Node17 -->
<g id="node17" class="node"><title>Node17</title>
<g id="a_node17"><a xlink:href="eint_8h.html" target="_top" xlink:title="External Interrupt Header File. ">
<polygon fill="none" stroke="black" points="633.433,-59 633.433,-79 692.797,-79 692.797,-59 633.433,-59"/>
<text text-anchor="middle" x="663.115" y="-65" font-family="Helvetica,sans-Serif" font-size="10.00">dev/eint.h</text>
</a>
</g>
</g>
<!-- Node10&#45;&gt;Node17 -->
<g id="edge43" class="edge"><title>Node10&#45;&gt;Node17</title>
<path fill="none" stroke="midnightblue" d="M781.558,-174.671C759.527,-155.202 708.438,-110.053 681.115,-85.9071"/>
<polygon fill="midnightblue" stroke="midnightblue" points="683.268,-83.1387 673.457,-79.1394 678.632,-88.3841 683.268,-83.1387"/>
</g>
<!-- Node18 -->
<g id="node18" class="node"><title>Node18</title>
<g id="a_node18"><a xlink:href="flash_8h.html" target="_top" xlink:title="Flash Memory Header File. ">
<polygon fill="none" stroke="black" points="710.933,-59 710.933,-79 775.297,-79 775.297,-59 710.933,-59"/>
<text text-anchor="middle" x="743.115" y="-65" font-family="Helvetica,sans-Serif" font-size="10.00">dev/flash.h</text>
</a>
</g>
</g>
<!-- Node10&#45;&gt;Node18 -->
<g id="edge47" class="edge"><title>Node10&#45;&gt;Node18</title>
<path fill="none" stroke="midnightblue" d="M788.105,-174.671C780.025,-155.873 761.656,-113.136 751.057,-88.478"/>
<polygon fill="midnightblue" stroke="midnightblue" points="754.208,-86.9445 747.043,-79.1394 747.777,-89.7088 754.208,-86.9445"/>
</g>
<!-- Node19 -->
<g id="node19" class="node"><title>Node19</title>
<g id="a_node19"><a xlink:href="i2c_8h.html" target="_top" xlink:title="I2C Header File. ">
<polygon fill="none" stroke="black" points="793.103,-59 793.103,-79 849.127,-79 849.127,-59 793.103,-59"/>
<text text-anchor="middle" x="821.115" y="-65" font-family="Helvetica,sans-Serif" font-size="10.00">dev/i2c.h</text>
</a>
</g>
</g>
<!-- Node10&#45;&gt;Node19 -->
<g id="edge51" class="edge"><title>Node10&#45;&gt;Node19</title>
<path fill="none" stroke="midnightblue" d="M794.488,-174.671C799.227,-156.041 809.948,-113.898 816.245,-89.1428"/>
<polygon fill="midnightblue" stroke="midnightblue" points="819.716,-89.6936 818.79,-79.1394 812.932,-87.9678 819.716,-89.6936"/>
</g>
<!-- Node20 -->
<g id="node20" class="node"><title>Node20</title>
<g id="a_node20"><a xlink:href="pwm_8h.html" target="_top" xlink:title="Pulse Width Modulation Header File. ">
<polygon fill="none" stroke="black" points="866.937,-59 866.937,-79 931.292,-79 931.292,-59 866.937,-59"/>
<text text-anchor="middle" x="899.115" y="-65" font-family="Helvetica,sans-Serif" font-size="10.00">dev/pwm.h</text>
</a>
</g>
</g>
<!-- Node10&#45;&gt;Node20 -->
<g id="edge55" class="edge"><title>Node10&#45;&gt;Node20</title>
<path fill="none" stroke="midnightblue" d="M800.871,-174.671C818.987,-155.369 860.792,-110.83 883.594,-86.5362"/>
<polygon fill="midnightblue" stroke="midnightblue" points="886.245,-88.8261 890.537,-79.1394 881.141,-84.0355 886.245,-88.8261"/>
</g>
<!-- Node21 -->
<g id="node21" class="node"><title>Node21</title>
<g id="a_node21"><a xlink:href="qei_8h.html" target="_top" xlink:title="Quadrature Encoder Interface Header File. ">
<polygon fill="none" stroke="black" points="948.822,-59 948.822,-79 1005.41,-79 1005.41,-59 948.822,-59"/>
<text text-anchor="middle" x="977.115" y="-65" font-family="Helvetica,sans-Serif" font-size="10.00">dev/qei.h</text>
</a>
</g>
</g>
<!-- Node10&#45;&gt;Node21 -->
<g id="edge59" class="edge"><title>Node10&#45;&gt;Node21</title>
<path fill="none" stroke="midnightblue" d="M806.941,-174.864C838.954,-155.137 914.769,-108.418 953.481,-84.5635"/>
<polygon fill="midnightblue" stroke="midnightblue" points="955.797,-87.2475 962.474,-79.0217 952.125,-81.2881 955.797,-87.2475"/>
</g>
<!-- Node22 -->
<g id="node22" class="node"><title>Node22</title>
<g id="a_node22"><a xlink:href="rtc_8h.html" target="_top" xlink:title="Real Time Clock Header File. ">
<polygon fill="none" stroke="black" points="1405.94,-59 1405.94,-79 1460.29,-79 1460.29,-59 1405.94,-59"/>
<text text-anchor="middle" x="1433.11" y="-65" font-family="Helvetica,sans-Serif" font-size="10.00">dev/rtc.h</text>
</a>
</g>
</g>
<!-- Node10&#45;&gt;Node22 -->
<g id="edge63" class="edge"><title>Node10&#45;&gt;Node22</title>
<path fill="none" stroke="midnightblue" d="M832.36,-180.142C898.541,-173.497 1034.36,-158.596 1148.11,-138 1256.35,-118.403 1284.76,-108.244 1395.74,-80.0439"/>
<polygon fill="midnightblue" stroke="midnightblue" points="1396.83,-83.3799 1405.66,-77.5315 1395.11,-76.5942 1396.83,-83.3799"/>
</g>
<!-- Node23 -->
<g id="node23" class="node"><title>Node23</title>
<g id="a_node23"><a xlink:href="spi_8h.html" target="_top" xlink:title="Serial Peripheral Interface Header File. ">
<polygon fill="none" stroke="black" points="1023.1,-59 1023.1,-79 1079.13,-79 1079.13,-59 1023.1,-59"/>
<text text-anchor="middle" x="1051.11" y="-65" font-family="Helvetica,sans-Serif" font-size="10.00">dev/spi.h</text>
</a>
</g>
</g>
<!-- Node10&#45;&gt;Node23 -->
<g id="edge68" class="edge"><title>Node10&#45;&gt;Node23</title>
<path fill="none" stroke="midnightblue" d="M813.471,-174.928C835.097,-165.715 869.487,-150.995 899.115,-138 941.876,-119.244 991.187,-97.0865 1021.76,-83.2858"/>
<polygon fill="midnightblue" stroke="midnightblue" points="1023.32,-86.4202 1030.99,-79.1136 1020.44,-80.0409 1023.32,-86.4202"/>
</g>
<!-- Node24 -->
<g id="node24" class="node"><title>Node24</title>
<g id="a_node24"><a xlink:href="tmr_8h.html" target="_top" xlink:title="Timer Header File. ">
<polygon fill="none" stroke="black" points="1097.55,-59 1097.55,-79 1154.68,-79 1154.68,-59 1097.55,-59"/>
<text text-anchor="middle" x="1126.11" y="-65" font-family="Helvetica,sans-Serif" font-size="10.00">dev/tmr.h</text>
</a>
</g>
</g>
<!-- Node10&#45;&gt;Node24 -->
<g id="edge72" class="edge"><title>Node10&#45;&gt;Node24</title>
<path fill="none" stroke="midnightblue" d="M821.66,-174.989C851.037,-165.945 897.338,-151.459 937.115,-138 991.695,-119.531 1054.56,-96.5749 1092.27,-82.6179"/>
<polygon fill="midnightblue" stroke="midnightblue" points="1093.59,-85.8597 1101.75,-79.1015 1091.16,-79.2963 1093.59,-85.8597"/>
</g>
<!-- Node25 -->
<g id="node25" class="node"><title>Node25</title>
<g id="a_node25"><a xlink:href="uart_8h.html" target="_top" xlink:title="Universal Asynchronous Receiver/Transmitter Header File. ">
<polygon fill="none" stroke="black" points="1172.88,-59 1172.88,-79 1233.35,-79 1233.35,-59 1172.88,-59"/>
<text text-anchor="middle" x="1203.11" y="-65" font-family="Helvetica,sans-Serif" font-size="10.00">dev/uart.h</text>
</a>
</g>
</g>
<!-- Node10&#45;&gt;Node25 -->
<g id="edge76" class="edge"><title>Node10&#45;&gt;Node25</title>
<path fill="none" stroke="midnightblue" d="M832.548,-175.046C871.339,-166.271 931.478,-152.183 983.115,-138 1048.03,-120.171 1122.73,-96.3769 1166.26,-82.1782"/>
<polygon fill="midnightblue" stroke="midnightblue" points="1167.42,-85.4783 1175.84,-79.0422 1165.25,-78.8253 1167.42,-85.4783"/>
</g>
<!-- Node26 -->
<g id="node26" class="node"><title>Node26</title>
<g id="a_node26"><a xlink:href="usb_8h.html" target="_top" xlink:title="Universal Serial Bus Header File. ">
<polygon fill="none" stroke="black" points="1251.43,-59 1251.43,-79 1310.8,-79 1310.8,-59 1251.43,-59"/>
<text text-anchor="middle" x="1281.11" y="-65" font-family="Helvetica,sans-Serif" font-size="10.00">dev/usb.h</text>
</a>
</g>
</g>
<!-- Node10&#45;&gt;Node26 -->
<g id="edge80" class="edge"><title>Node10&#45;&gt;Node26</title>
<path fill="none" stroke="midnightblue" d="M832.574,-177.339C880.799,-169.162 963.714,-154.354 1034.11,-138 1107.93,-120.853 1192.9,-96.4094 1241.48,-81.977"/>
<polygon fill="midnightblue" stroke="midnightblue" points="1242.69,-85.2673 1251.28,-79.0554 1240.69,-78.5592 1242.69,-85.2673"/>
</g>
<!-- Node27 -->
<g id="node27" class="node"><title>Node27</title>
<g id="a_node27"><a xlink:href="sys_8h.html" target="_top" xlink:title="dev/sys.h">
<polygon fill="none" stroke="black" points="446.994,-117 446.994,-137 505.235,-137 505.235,-117 446.994,-117"/>
<text text-anchor="middle" x="476.115" y="-123" font-family="Helvetica,sans-Serif" font-size="10.00">dev/sys.h</text>
</a>
</g>
</g>
<!-- Node10&#45;&gt;Node27 -->
<g id="edge84" class="edge"><title>Node10&#45;&gt;Node27</title>
<path fill="none" stroke="midnightblue" d="M751.841,-178.54C699.477,-171.177 605.012,-156.995 515.294,-138.108"/>
<polygon fill="midnightblue" stroke="midnightblue" points="516.018,-134.684 505.508,-136.025 514.56,-141.53 516.018,-134.684"/>
</g>
<!-- Node12&#45;&gt;Node2 -->
<g id="edge18" class="edge"><title>Node12&#45;&gt;Node2</title>
<path fill="none" stroke="midnightblue" d="M289.027,-123.967C230.475,-118.972 110.446,-103.038 152.115,-58 190.022,-17.0273 588.138,-12.4634 708.705,-12.0244"/>
<polygon fill="midnightblue" stroke="midnightblue" points="708.856,-15.5241 718.846,-11.995 708.836,-8.52412 708.856,-15.5241"/>
</g>
<!-- Node12&#45;&gt;Node6 -->
<g id="edge21" class="edge"><title>Node12&#45;&gt;Node6</title>
<path fill="none" stroke="midnightblue" d="M311.189,-116.753C304.199,-108.598 293.843,-96.5158 285.409,-86.6769"/>
<polygon fill="midnightblue" stroke="midnightblue" points="288.059,-84.39 278.893,-79.0752 282.744,-88.9456 288.059,-84.39"/>
</g>
<!-- Node12&#45;&gt;Node7 -->
<g id="edge20" class="edge"><title>Node12&#45;&gt;Node7</title>
<path fill="none" stroke="midnightblue" d="M336.064,-116.768C364.377,-101.798 423.481,-72.4471 477.115,-58 606.357,-23.1865 644.179,-44.5455 776.115,-22 776.455,-21.9419 776.796,-21.8829 777.139,-21.823"/>
<polygon fill="midnightblue" stroke="midnightblue" points="778.107,-25.2018 787.277,-19.8956 776.799,-18.325 778.107,-25.2018"/>
</g>
<!-- Node12&#45;&gt;Node9 -->
<g id="edge19" class="edge"><title>Node12&#45;&gt;Node9</title>
<path fill="none" stroke="midnightblue" d="M349.217,-117.588C352.206,-116.962 355.208,-116.415 358.115,-116 419.25,-107.279 1426.16,-124.369 1469.11,-80 1475.92,-72.975 1475.55,-65.3591 1469.11,-58 1448.69,-34.6577 1238.08,-19.0445 1157.36,-13.8775"/>
<polygon fill="midnightblue" stroke="midnightblue" points="1157.5,-10.3797 1147.3,-13.245 1157.06,-17.3659 1157.5,-10.3797"/>
</g>
<!-- Node13&#45;&gt;Node2 -->
<g id="edge23" class="edge"><title>Node13&#45;&gt;Node2</title>
<path fill="none" stroke="midnightblue" d="M550.618,-116.81C528.068,-103.788 493.713,-79.1906 511.115,-58 535.708,-28.0514 650.158,-17.2588 708.589,-13.6552"/>
<polygon fill="midnightblue" stroke="midnightblue" points="709.033,-17.1355 718.814,-13.063 708.628,-10.1472 709.033,-17.1355"/>
</g>
<!-- Node13&#45;&gt;Node6 -->
<g id="edge26" class="edge"><title>Node13&#45;&gt;Node6</title>
<path fill="none" stroke="midnightblue" d="M523.007,-117.495C467.4,-107.01 373.394,-89.2851 317.298,-78.7079"/>
<polygon fill="midnightblue" stroke="midnightblue" points="317.758,-75.233 307.282,-76.8194 316.46,-82.1118 317.758,-75.233"/>
</g>
<!-- Node13&#45;&gt;Node7 -->
<g id="edge25" class="edge"><title>Node13&#45;&gt;Node7</title>
<path fill="none" stroke="midnightblue" d="M559.542,-116.576C547.674,-102.373 529.29,-75.3027 544.115,-58 578.06,-18.3808 724.845,-31.664 776.115,-22 776.454,-21.9361 776.794,-21.8715 777.136,-21.8062"/>
<polygon fill="midnightblue" stroke="midnightblue" points="778.141,-25.1742 787.255,-19.7708 776.761,-18.3117 778.141,-25.1742"/>
</g>
<!-- Node13&#45;&gt;Node9 -->
<g id="edge24" class="edge"><title>Node13&#45;&gt;Node9</title>
<path fill="none" stroke="midnightblue" d="M613.095,-125.662C804.669,-124.006 1544.35,-115.336 1578.11,-80 1637.73,-17.6027 1269.75,-12.1475 1157.74,-11.9177"/>
<polygon fill="midnightblue" stroke="midnightblue" points="1157.43,-8.41755 1147.43,-11.9102 1157.43,-15.4175 1157.43,-8.41755"/>
</g>
<!-- Node14&#45;&gt;Node2 -->
<g id="edge28" class="edge"><title>Node14&#45;&gt;Node2</title>
<path fill="none" stroke="midnightblue" d="M394.525,-116.767C389.58,-102.322 382.801,-74.3425 397.115,-58 417.483,-34.7451 625.214,-19.3364 708.675,-14.0408"/>
<polygon fill="midnightblue" stroke="midnightblue" points="709.145,-17.5184 718.908,-13.4029 708.71,-10.5319 709.145,-17.5184"/>
</g>
<!-- Node14&#45;&gt;Node6 -->
<g id="edge31" class="edge"><title>Node14&#45;&gt;Node6</title>
<path fill="none" stroke="midnightblue" d="M377.427,-116.878C356.671,-107.725 324.49,-93.5357 300.97,-83.1643"/>
<polygon fill="midnightblue" stroke="midnightblue" points="302.355,-79.9503 291.793,-79.1181 299.531,-86.3553 302.355,-79.9503"/>
</g>
<!-- Node14&#45;&gt;Node7 -->
<g id="edge30" class="edge"><title>Node14&#45;&gt;Node7</title>
<path fill="none" stroke="midnightblue" d="M412.674,-116.849C437.026,-101.995 487.997,-72.8078 535.115,-58 638.432,-25.5298 669.633,-41.759 776.115,-22 776.454,-21.937 776.795,-21.8733 777.137,-21.809"/>
<polygon fill="midnightblue" stroke="midnightblue" points="778.136,-25.1788 787.258,-19.7915 776.767,-18.3138 778.136,-25.1788"/>
</g>
<!-- Node14&#45;&gt;Node8 -->
<g id="edge32" class="edge"><title>Node14&#45;&gt;Node8</title>
<path fill="none" stroke="midnightblue" d="M366.722,-117.631C334.19,-108.952 281.606,-94.9078 227.545,-80.3805"/>
<polygon fill="midnightblue" stroke="midnightblue" points="228.362,-76.9758 217.796,-77.7597 226.544,-83.7358 228.362,-76.9758"/>
</g>
<!-- Node14&#45;&gt;Node9 -->
<g id="edge29" class="edge"><title>Node14&#45;&gt;Node9</title>
<path fill="none" stroke="midnightblue" d="M429.872,-117.418C432.646,-116.864 435.421,-116.378 438.115,-116 496.686,-107.782 1461.01,-122.523 1502.11,-80 1508.91,-72.9701 1508.6,-65.3217 1502.11,-58 1479.36,-32.2917 1243.55,-17.9171 1157.4,-13.4918"/>
<polygon fill="midnightblue" stroke="midnightblue" points="1157.36,-9.98544 1147.2,-12.9785 1157.01,-16.9766 1157.36,-9.98544"/>
</g>
<!-- Node15&#45;&gt;Node2 -->
<g id="edge35" class="edge"><title>Node15&#45;&gt;Node2</title>
<path fill="none" stroke="midnightblue" d="M610.015,-58.878C637.053,-49.355 679.575,-34.3788 709.258,-23.9243"/>
<polygon fill="midnightblue" stroke="midnightblue" points="710.522,-27.1899 718.792,-20.5666 708.197,-20.5875 710.522,-27.1899"/>
</g>
<!-- Node15&#45;&gt;Node5 -->
<g id="edge34" class="edge"><title>Node15&#45;&gt;Node5</title>
<path fill="none" stroke="midnightblue" d="M553.01,-63.0795C488.337,-52.8488 339.514,-29.3062 268.794,-18.1187"/>
<polygon fill="midnightblue" stroke="midnightblue" points="268.966,-14.6025 258.542,-16.497 267.872,-21.5166 268.966,-14.6025"/>
</g>
<!-- Node15&#45;&gt;Node7 -->
<g id="edge37" class="edge"><title>Node15&#45;&gt;Node7</title>
<path fill="none" stroke="midnightblue" d="M615.546,-60.093C618.442,-59.3795 621.332,-58.6728 624.115,-58 676.717,-45.2841 737.367,-31.2105 777.319,-22.0204"/>
<polygon fill="midnightblue" stroke="midnightblue" points="778.301,-25.3861 787.263,-19.7356 776.734,-18.5639 778.301,-25.3861"/>
</g>
<!-- Node15&#45;&gt;Node9 -->
<g id="edge36" class="edge"><title>Node15&#45;&gt;Node9</title>
<path fill="none" stroke="midnightblue" d="M615.461,-59.6797C618.375,-59.0529 621.292,-58.4793 624.115,-58 800.466,-28.0587 1015.21,-16.6055 1094.63,-13.2043"/>
<polygon fill="midnightblue" stroke="midnightblue" points="1095.08,-16.689 1104.92,-12.7767 1094.79,-9.69499 1095.08,-16.689"/>
</g>
<!-- Node16&#45;&gt;Node2 -->
<g id="edge40" class="edge"><title>Node16&#45;&gt;Node2</title>
<path fill="none" stroke="midnightblue" d="M1328.42,-59.7848C1325.3,-59.1005 1322.15,-58.4861 1319.11,-58 1081.17,-19.9117 1015.52,-63.3323 778.115,-22 777.897,-21.9621 777.678,-21.9233 777.459,-21.8837"/>
<polygon fill="midnightblue" stroke="midnightblue" points="777.96,-18.4097 767.439,-19.6624 776.445,-25.2438 777.96,-18.4097"/>
</g>
<!-- Node16&#45;&gt;Node7 -->
<g id="edge42" class="edge"><title>Node16&#45;&gt;Node7</title>
<path fill="none" stroke="midnightblue" d="M1328.41,-59.8649C1325.29,-59.165 1322.15,-58.525 1319.11,-58 1152.85,-29.1924 952.009,-17.6128 864.92,-13.7063"/>
<polygon fill="midnightblue" stroke="midnightblue" points="865.017,-10.2073 854.874,-13.2673 864.711,-17.2006 865.017,-10.2073"/>
</g>
<!-- Node16&#45;&gt;Node9 -->
<g id="edge41" class="edge"><title>Node16&#45;&gt;Node9</title>
<path fill="none" stroke="midnightblue" d="M1328.32,-60.3041C1325.21,-59.5186 1322.1,-58.7385 1319.11,-58 1262.11,-43.9001 1195.44,-28.1807 1157.26,-19.2511"/>
<polygon fill="midnightblue" stroke="midnightblue" points="1157.81,-15.7857 1147.28,-16.9195 1156.22,-22.6022 1157.81,-15.7857"/>
</g>
<!-- Node17&#45;&gt;Node2 -->
<g id="edge44" class="edge"><title>Node17&#45;&gt;Node2</title>
<path fill="none" stroke="midnightblue" d="M676.325,-58.7527C688.674,-50.1087 707.326,-37.0518 721.784,-26.9314"/>
<polygon fill="midnightblue" stroke="midnightblue" points="723.965,-29.6772 730.15,-21.0752 719.951,-23.9425 723.965,-29.6772"/>
</g>
<!-- Node17&#45;&gt;Node7 -->
<g id="edge46" class="edge"><title>Node17&#45;&gt;Node7</title>
<path fill="none" stroke="midnightblue" d="M688.852,-58.878C715.327,-49.4942 756.742,-34.8155 786.169,-24.3857"/>
<polygon fill="midnightblue" stroke="midnightblue" points="787.394,-27.665 795.65,-21.0253 785.056,-21.0671 787.394,-27.665"/>
</g>
<!-- Node17&#45;&gt;Node9 -->
<g id="edge45" class="edge"><title>Node17&#45;&gt;Node9</title>
<path fill="none" stroke="midnightblue" d="M692.829,-59.9146C695.951,-59.205 699.089,-58.5492 702.115,-58 847.636,-31.5895 1024.2,-18.3881 1094.77,-13.8616"/>
<polygon fill="midnightblue" stroke="midnightblue" points="1095.02,-17.3528 1104.78,-13.2324 1094.58,-10.3666 1095.02,-17.3528"/>
</g>
<!-- Node18&#45;&gt;Node2 -->
<g id="edge48" class="edge"><title>Node18&#45;&gt;Node2</title>
<path fill="none" stroke="midnightblue" d="M743.115,-58.7527C743.115,-51.2504 743.115,-40.4238 743.115,-31.0781"/>
<polygon fill="midnightblue" stroke="midnightblue" points="746.615,-31.0752 743.115,-21.0752 739.615,-31.0752 746.615,-31.0752"/>
</g>
<!-- Node18&#45;&gt;Node7 -->
<g id="edge50" class="edge"><title>Node18&#45;&gt;Node7</title>
<path fill="none" stroke="midnightblue" d="M755.995,-58.7527C768.035,-50.1087 786.221,-37.0518 800.317,-26.9314"/>
<polygon fill="midnightblue" stroke="midnightblue" points="802.392,-29.7504 808.474,-21.0752 798.31,-24.0642 802.392,-29.7504"/>
</g>
<!-- Node18&#45;&gt;Node9 -->
<g id="edge49" class="edge"><title>Node18&#45;&gt;Node9</title>
<path fill="none" stroke="midnightblue" d="M775.721,-59.7185C778.552,-59.0994 781.379,-58.5161 784.115,-58 897.687,-36.5737 1034.3,-21.3176 1094.74,-15.0999"/>
<polygon fill="midnightblue" stroke="midnightblue" points="1095.18,-18.5727 1104.78,-14.0783 1094.47,-11.6086 1095.18,-18.5727"/>
</g>
<!-- Node19&#45;&gt;Node2 -->
<g id="edge52" class="edge"><title>Node19&#45;&gt;Node2</title>
<path fill="none" stroke="midnightblue" d="M808.235,-58.7527C796.195,-50.1087 778.008,-37.0518 763.912,-26.9314"/>
<polygon fill="midnightblue" stroke="midnightblue" points="765.92,-24.0642 755.755,-21.0752 761.837,-29.7504 765.92,-24.0642"/>
</g>
<!-- Node19&#45;&gt;Node7 -->
<g id="edge54" class="edge"><title>Node19&#45;&gt;Node7</title>
<path fill="none" stroke="midnightblue" d="M821.115,-58.7527C821.115,-51.2504 821.115,-40.4238 821.115,-31.0781"/>
<polygon fill="midnightblue" stroke="midnightblue" points="824.615,-31.0752 821.115,-21.0752 817.615,-31.0752 824.615,-31.0752"/>
</g>
<!-- Node19&#45;&gt;Node9 -->
<g id="edge53" class="edge"><title>Node19&#45;&gt;Node9</title>
<path fill="none" stroke="midnightblue" d="M849.329,-60.0814C852.286,-59.3393 855.256,-58.6303 858.115,-58 943.119,-39.2614 1044.7,-23.6527 1094.89,-16.3862"/>
<polygon fill="midnightblue" stroke="midnightblue" points="1095.39,-19.8499 1104.79,-14.9641 1094.39,-12.921 1095.39,-19.8499"/>
</g>
<!-- Node20&#45;&gt;Node2 -->
<g id="edge56" class="edge"><title>Node20&#45;&gt;Node2</title>
<path fill="none" stroke="midnightblue" d="M873.703,-58.878C847.445,-49.4519 806.303,-34.6828 777.225,-24.2447"/>
<polygon fill="midnightblue" stroke="midnightblue" points="778.082,-20.8336 767.487,-20.749 775.716,-27.4219 778.082,-20.8336"/>
</g>
<!-- Node20&#45;&gt;Node7 -->
<g id="edge58" class="edge"><title>Node20&#45;&gt;Node7</title>
<path fill="none" stroke="midnightblue" d="M886.235,-58.7527C874.195,-50.1087 856.008,-37.0518 841.912,-26.9314"/>
<polygon fill="midnightblue" stroke="midnightblue" points="843.92,-24.0642 833.755,-21.0752 839.837,-29.7504 843.92,-24.0642"/>
</g>
<!-- Node20&#45;&gt;Node9 -->
<g id="edge57" class="edge"><title>Node20&#45;&gt;Node9</title>
<path fill="none" stroke="midnightblue" d="M931.638,-59.9766C975.241,-49.2199 1052.11,-30.2558 1094.99,-19.6781"/>
<polygon fill="midnightblue" stroke="midnightblue" points="1096,-23.0354 1104.87,-17.242 1094.32,-16.2391 1096,-23.0354"/>
</g>
<!-- Node21&#45;&gt;Node2 -->
<g id="edge60" class="edge"><title>Node21&#45;&gt;Node2</title>
<path fill="none" stroke="midnightblue" d="M948.465,-60.1193C945.648,-59.3858 942.828,-58.6679 940.115,-58 868.496,-40.3736 849.606,-40.1393 778.115,-22 777.9,-21.9456 777.685,-21.8908 777.47,-21.8357"/>
<polygon fill="midnightblue" stroke="midnightblue" points="778.107,-18.3832 767.542,-19.1801 776.298,-25.1454 778.107,-18.3832"/>
</g>
<!-- Node21&#45;&gt;Node7 -->
<g id="edge62" class="edge"><title>Node21&#45;&gt;Node7</title>
<path fill="none" stroke="midnightblue" d="M951.703,-58.878C925.677,-49.535 885.027,-34.943 855.997,-24.522"/>
<polygon fill="midnightblue" stroke="midnightblue" points="856.851,-21.1098 846.257,-21.0253 854.486,-27.6982 856.851,-21.1098"/>
</g>
<!-- Node21&#45;&gt;Node9 -->
<g id="edge61" class="edge"><title>Node21&#45;&gt;Node9</title>
<path fill="none" stroke="midnightblue" d="M1001.39,-58.878C1026.94,-49.2722 1067.27,-34.1179 1095.11,-23.6526"/>
<polygon fill="midnightblue" stroke="midnightblue" points="1096.62,-26.8225 1104.75,-20.0281 1094.16,-20.27 1096.62,-26.8225"/>
</g>
<!-- Node22&#45;&gt;Node2 -->
<g id="edge65" class="edge"><title>Node22&#45;&gt;Node2</title>
<path fill="none" stroke="midnightblue" d="M1405.77,-59.9373C1402.54,-59.184 1399.27,-58.5122 1396.11,-58 1124.54,-13.8744 1049.36,-68.0711 778.115,-22 777.897,-21.963 777.678,-21.9251 777.459,-21.8863"/>
<polygon fill="midnightblue" stroke="midnightblue" points="777.952,-18.4114 767.435,-19.6887 776.453,-25.249 777.952,-18.4114"/>
</g>
<!-- Node22&#45;&gt;Node7 -->
<g id="edge67" class="edge"><title>Node22&#45;&gt;Node7</title>
<path fill="none" stroke="midnightblue" d="M1405.76,-60.0048C1402.53,-59.2394 1399.26,-58.5463 1396.11,-58 1199.96,-23.9459 961.71,-15.0419 865.031,-12.7629"/>
<polygon fill="midnightblue" stroke="midnightblue" points="864.84,-9.25791 854.765,-12.5336 864.684,-16.2562 864.84,-9.25791"/>
</g>
<!-- Node22&#45;&gt;Node9 -->
<g id="edge66" class="edge"><title>Node22&#45;&gt;Node9</title>
<path fill="none" stroke="midnightblue" d="M1405.71,-60.2808C1402.48,-59.4658 1399.23,-58.6857 1396.11,-58 1310.27,-39.1307 1207.62,-23.5274 1157.19,-16.3119"/>
<polygon fill="midnightblue" stroke="midnightblue" points="1157.64,-12.8407 1147.25,-14.9013 1156.66,-19.7713 1157.64,-12.8407"/>
</g>
<!-- Node22&#45;&gt;Node11 -->
<g id="edge64" class="edge"><title>Node22&#45;&gt;Node11</title>
<path fill="none" stroke="midnightblue" d="M1450.12,-58.7527C1466.55,-49.8233 1491.63,-36.1848 1510.48,-25.9388"/>
<polygon fill="midnightblue" stroke="midnightblue" points="1512.31,-28.9267 1519.42,-21.0752 1508.97,-22.7769 1512.31,-28.9267"/>
</g>
<!-- Node23&#45;&gt;Node2 -->
<g id="edge69" class="edge"><title>Node23&#45;&gt;Node2</title>
<path fill="none" stroke="midnightblue" d="M1022.91,-60.0266C1019.95,-59.2952 1016.98,-58.6037 1014.11,-58 910.292,-36.1238 881.778,-44.6198 778.115,-22 777.899,-21.9528 777.682,-21.9051 777.465,-21.8568"/>
<polygon fill="midnightblue" stroke="midnightblue" points="778.04,-18.3937 767.492,-19.3923 776.36,-25.1893 778.04,-18.3937"/>
</g>
<!-- Node23&#45;&gt;Node7 -->
<g id="edge71" class="edge"><title>Node23&#45;&gt;Node7</title>
<path fill="none" stroke="midnightblue" d="M1022.86,-60.2689C1019.91,-59.4903 1016.95,-58.7214 1014.11,-58 962.982,-44.9998 903.947,-31.0891 864.77,-22.0112"/>
<polygon fill="midnightblue" stroke="midnightblue" points="865.54,-18.5969 855.008,-19.7541 863.963,-25.417 865.54,-18.5969"/>
</g>
<!-- Node23&#45;&gt;Node9 -->
<g id="edge70" class="edge"><title>Node23&#45;&gt;Node9</title>
<path fill="none" stroke="midnightblue" d="M1063.5,-58.7527C1074.97,-50.1903 1092.23,-37.2978 1105.73,-27.2186"/>
<polygon fill="midnightblue" stroke="midnightblue" points="1108.04,-29.8626 1113.96,-21.0752 1103.85,-24.2536 1108.04,-29.8626"/>
</g>
<!-- Node24&#45;&gt;Node2 -->
<g id="edge73" class="edge"><title>Node24&#45;&gt;Node2</title>
<path fill="none" stroke="midnightblue" d="M1097.16,-59.9295C1094.12,-59.2171 1091.06,-58.5565 1088.11,-58 951.815,-32.2859 914.137,-49.1422 778.115,-22 777.898,-21.9567 777.68,-21.9127 777.462,-21.8681"/>
<polygon fill="midnightblue" stroke="midnightblue" points="778.005,-18.4001 767.468,-19.5058 776.395,-25.2124 778.005,-18.4001"/>
</g>
<!-- Node24&#45;&gt;Node7 -->
<g id="edge75" class="edge"><title>Node24&#45;&gt;Node7</title>
<path fill="none" stroke="midnightblue" d="M1097.55,-60.1977C1094.37,-59.4161 1091.18,-58.6663 1088.11,-58 1010.12,-41.052 918.212,-26.3612 865.104,-18.3815"/>
<polygon fill="midnightblue" stroke="midnightblue" points="865.422,-14.8903 855.015,-16.8763 864.389,-21.8137 865.422,-14.8903"/>
</g>
<!-- Node24&#45;&gt;Node9 -->
<g id="edge74" class="edge"><title>Node24&#45;&gt;Node9</title>
<path fill="none" stroke="midnightblue" d="M1126.11,-58.7527C1126.11,-51.2504 1126.11,-40.4238 1126.11,-31.0781"/>
<polygon fill="midnightblue" stroke="midnightblue" points="1129.61,-31.0752 1126.11,-21.0752 1122.61,-31.0752 1129.61,-31.0752"/>
</g>
<!-- Node25&#45;&gt;Node2 -->
<g id="edge77" class="edge"><title>Node25&#45;&gt;Node2</title>
<path fill="none" stroke="midnightblue" d="M1172.64,-59.8753C1169.44,-59.1734 1166.22,-58.5301 1163.11,-58 993.709,-29.076 947.015,-53.7422 778.115,-22 777.897,-21.9591 777.679,-21.9175 777.461,-21.8752"/>
<polygon fill="midnightblue" stroke="midnightblue" points="777.984,-18.4044 767.455,-19.5769 776.417,-25.2267 777.984,-18.4044"/>
</g>
<!-- Node25&#45;&gt;Node7 -->
<g id="edge79" class="edge"><title>Node25&#45;&gt;Node7</title>
<path fill="none" stroke="midnightblue" d="M1172.62,-60.0043C1169.42,-59.2772 1166.21,-58.5928 1163.11,-58 1056.94,-37.6527 930.515,-23.1344 865.146,-16.3376"/>
<polygon fill="midnightblue" stroke="midnightblue" points="865.117,-12.8161 854.811,-15.2746 864.4,-19.7794 865.117,-12.8161"/>
</g>
<!-- Node25&#45;&gt;Node9 -->
<g id="edge78" class="edge"><title>Node25&#45;&gt;Node9</title>
<path fill="none" stroke="midnightblue" d="M1190.4,-58.7527C1178.63,-50.1903 1160.9,-37.2978 1147.04,-27.2186"/>
<polygon fill="midnightblue" stroke="midnightblue" points="1148.74,-24.1264 1138.59,-21.0752 1144.62,-29.7875 1148.74,-24.1264"/>
</g>
<!-- Node26&#45;&gt;Node2 -->
<g id="edge81" class="edge"><title>Node26&#45;&gt;Node2</title>
<path fill="none" stroke="midnightblue" d="M1251.42,-59.8191C1248.29,-59.1282 1245.15,-58.5028 1242.11,-58 1038.06,-24.1855 981.694,-58.5964 778.115,-22 777.897,-21.9609 777.679,-21.9209 777.46,-21.8802"/>
<polygon fill="midnightblue" stroke="midnightblue" points="777.97,-18.4075 767.445,-19.6273 776.433,-25.2368 777.97,-18.4075"/>
</g>
<!-- Node26&#45;&gt;Node7 -->
<g id="edge83" class="edge"><title>Node26&#45;&gt;Node7</title>
<path fill="none" stroke="midnightblue" d="M1251.4,-59.917C1248.28,-59.2069 1245.14,-58.5504 1242.11,-58 1105.84,-33.2132 942.142,-19.9965 865.183,-14.7442"/>
<polygon fill="midnightblue" stroke="midnightblue" points="865.123,-11.2324 854.911,-14.0555 864.655,-18.2167 865.123,-11.2324"/>
</g>
<!-- Node26&#45;&gt;Node9 -->
<g id="edge82" class="edge"><title>Node26&#45;&gt;Node9</title>
<path fill="none" stroke="midnightblue" d="M1255.87,-58.878C1228.86,-49.1192 1185.99,-33.6336 1156.99,-23.1561"/>
<polygon fill="midnightblue" stroke="midnightblue" points="1157.96,-19.7827 1147.36,-19.6765 1155.58,-26.3662 1157.96,-19.7827"/>
</g>
<!-- Node27&#45;&gt;Node2 -->
<g id="edge85" class="edge"><title>Node27&#45;&gt;Node2</title>
<path fill="none" stroke="midnightblue" d="M476.984,-116.906C478.906,-102.132 484.91,-73.0588 503.115,-58 533.967,-32.4797 649.795,-19.5853 708.519,-14.5719"/>
<polygon fill="midnightblue" stroke="midnightblue" points="709.107,-18.0354 718.786,-13.7263 708.533,-11.059 709.107,-18.0354"/>
</g>
<!-- Node27&#45;&gt;Node6 -->
<g id="edge87" class="edge"><title>Node27&#45;&gt;Node6</title>
<path fill="none" stroke="midnightblue" d="M446.743,-117.977C411.94,-108.469 353.666,-92.5507 313.863,-81.6776"/>
<polygon fill="midnightblue" stroke="midnightblue" points="314.736,-78.2879 304.167,-79.029 312.891,-85.0405 314.736,-78.2879"/>
</g>
<!-- Node27&#45;&gt;Node9 -->
<g id="edge86" class="edge"><title>Node27&#45;&gt;Node9</title>
<path fill="none" stroke="midnightblue" d="M505.439,-117.594C508.353,-116.967 511.28,-116.417 514.115,-116 570.541,-107.691 1500.5,-121.031 1540.11,-80 1594.71,-23.4511 1262.96,-13.9193 1157.52,-12.3204"/>
<polygon fill="midnightblue" stroke="midnightblue" points="1157.53,-8.82028 1147.48,-12.1821 1157.43,-15.8196 1157.53,-8.82028"/>
</g>
</g>
</svg>
