<?xml version="1.0" encoding="UTF-8" standalone="no"?>
<!DOCTYPE svg PUBLIC "-//W3C//DTD SVG 1.1//EN"
 "http://www.w3.org/Graphics/SVG/1.1/DTD/svg11.dtd">
<!-- Generated by graphviz version 2.34.0 (20130907.0228)
 -->
<!-- Title: /Users/tgil/git/CoActionOS/CoActionOS/include/dev/pio.h Pages: 1 -->
<svg width="2814pt" height="382pt"
 viewBox="0.00 0.00 2814.00 382.00" xmlns="http://www.w3.org/2000/svg" xmlns:xlink="http://www.w3.org/1999/xlink">
<g id="graph0" class="graph" transform="scale(1 1) rotate(0) translate(4 378)">
<title>/Users/tgil/git/CoActionOS/CoActionOS/include/dev/pio.h</title>
<!-- Node1 -->
<g id="node1" class="node"><title>Node1</title>
<polygon fill="#bfbfbf" stroke="black" points="401.641,-329 401.641,-373 524.359,-373 524.359,-329 401.641,-329"/>
<text text-anchor="start" x="409.641" y="-359" font-family="Helvetica,sans-Serif" font-size="10.00">/Users/tgil/git/CoAction</text>
<text text-anchor="start" x="409.641" y="-347" font-family="Helvetica,sans-Serif" font-size="10.00">OS/CoActionOS/include</text>
<text text-anchor="middle" x="463" y="-335" font-family="Helvetica,sans-Serif" font-size="10.00">/dev/pio.h</text>
</g>
<!-- Node2 -->
<g id="node2" class="node"><title>Node2</title>
<g id="a_node2"><a xlink:href="device_8h_source.html" target="_top" xlink:title="/Users/tgil/git/CoAction\lOS/CoActionOS/include\l/device.h">
<polygon fill="none" stroke="black" points="805.641,-247 805.641,-291 928.359,-291 928.359,-247 805.641,-247"/>
<text text-anchor="start" x="813.641" y="-277" font-family="Helvetica,sans-Serif" font-size="10.00">/Users/tgil/git/CoAction</text>
<text text-anchor="start" x="813.641" y="-265" font-family="Helvetica,sans-Serif" font-size="10.00">OS/CoActionOS/include</text>
<text text-anchor="middle" x="867" y="-253" font-family="Helvetica,sans-Serif" font-size="10.00">/device.h</text>
</a>
</g>
</g>
<!-- Node1&#45;&gt;Node2 -->
<g id="edge1" class="edge"><title>Node1&#45;&gt;Node2</title>
<path fill="none" stroke="midnightblue" d="M534.897,-335.763C611.901,-320.515 732.812,-296.572 805.539,-282.17"/>
<polygon fill="midnightblue" stroke="midnightblue" points="533.928,-332.387 524.799,-337.763 535.288,-339.253 533.928,-332.387"/>
</g>
<!-- Node39 -->
<g id="node39" class="node"><title>Node39</title>
<g id="a_node39"><a xlink:href="core_8h.html" target="_top" xlink:title="Analog to Digital Converter Header File. ">
<polygon fill="none" stroke="black" points="312.641,-247 312.641,-291 435.359,-291 435.359,-247 312.641,-247"/>
<text text-anchor="start" x="320.641" y="-277" font-family="Helvetica,sans-Serif" font-size="10.00">/Users/tgil/git/CoAction</text>
<text text-anchor="start" x="320.641" y="-265" font-family="Helvetica,sans-Serif" font-size="10.00">OS/CoActionOS/include</text>
<text text-anchor="middle" x="374" y="-253" font-family="Helvetica,sans-Serif" font-size="10.00">/dev/core.h</text>
</a>
</g>
</g>
<!-- Node1&#45;&gt;Node39 -->
<g id="edge52" class="edge"><title>Node1&#45;&gt;Node39</title>
<path fill="none" stroke="midnightblue" d="M432.028,-322.16C420.71,-311.986 408.101,-300.653 397.537,-291.156"/>
<polygon fill="midnightblue" stroke="midnightblue" points="429.839,-324.899 439.616,-328.981 434.519,-319.693 429.839,-324.899"/>
</g>
<!-- Node40 -->
<g id="node40" class="node"><title>Node40</title>
<g id="a_node40"><a xlink:href="link__protocol_8h.html" target="_top" xlink:title="USB Link Protocol Header File. ">
<polygon fill="none" stroke="black" points="312.641,-165 312.641,-209 435.359,-209 435.359,-165 312.641,-165"/>
<text text-anchor="start" x="320.641" y="-195" font-family="Helvetica,sans-Serif" font-size="10.00">/Users/tgil/git/CoAction</text>
<text text-anchor="start" x="320.641" y="-183" font-family="Helvetica,sans-Serif" font-size="10.00">OS/CoActionOS/include</text>
<text text-anchor="middle" x="374" y="-171" font-family="Helvetica,sans-Serif" font-size="10.00">/link_protocol.h</text>
</a>
</g>
</g>
<!-- Node1&#45;&gt;Node40 -->
<g id="edge55" class="edge"><title>Node1&#45;&gt;Node40</title>
<path fill="none" stroke="midnightblue" d="M462.807,-318.584C461.4,-296.875 456.913,-268.05 444,-246 435.466,-231.428 421.837,-218.905 408.863,-209.263"/>
<polygon fill="midnightblue" stroke="midnightblue" points="459.313,-318.783 463.274,-328.61 466.305,-318.458 459.313,-318.783"/>
</g>
<!-- Node3 -->
<g id="node3" class="node"><title>Node3</title>
<g id="a_node3"><a xlink:href="sysfs_8h_source.html" target="_top" xlink:title="/Users/tgil/git/CoAction\lOS/CoActionOS/include\l/sysfs.h">
<polygon fill="none" stroke="black" points="1423.64,-165 1423.64,-209 1546.36,-209 1546.36,-165 1423.64,-165"/>
<text text-anchor="start" x="1431.64" y="-195" font-family="Helvetica,sans-Serif" font-size="10.00">/Users/tgil/git/CoAction</text>
<text text-anchor="start" x="1431.64" y="-183" font-family="Helvetica,sans-Serif" font-size="10.00">OS/CoActionOS/include</text>
<text text-anchor="middle" x="1485" y="-171" font-family="Helvetica,sans-Serif" font-size="10.00">/sysfs.h</text>
</a>
</g>
</g>
<!-- Node2&#45;&gt;Node3 -->
<g id="edge2" class="edge"><title>Node2&#45;&gt;Node3</title>
<path fill="none" stroke="midnightblue" d="M938.528,-258.741C1060.83,-242.909 1308.04,-210.907 1423.28,-195.99"/>
<polygon fill="midnightblue" stroke="midnightblue" points="937.983,-255.282 928.516,-260.037 938.882,-262.224 937.983,-255.282"/>
</g>
<!-- Node32 -->
<g id="node32" class="node"><title>Node32</title>
<g id="a_node32"><a xlink:href="caos_8h.html" target="_top" xlink:title="/Users/tgil/git/CoAction\lOS/CoActionOS/include\l/caos.h">
<polygon fill="none" stroke="black" points="1054.64,-165 1054.64,-209 1177.36,-209 1177.36,-165 1054.64,-165"/>
<text text-anchor="start" x="1062.64" y="-195" font-family="Helvetica,sans-Serif" font-size="10.00">/Users/tgil/git/CoAction</text>
<text text-anchor="start" x="1062.64" y="-183" font-family="Helvetica,sans-Serif" font-size="10.00">OS/CoActionOS/include</text>
<text text-anchor="middle" x="1116" y="-171" font-family="Helvetica,sans-Serif" font-size="10.00">/caos.h</text>
</a>
</g>
</g>
<!-- Node2&#45;&gt;Node32 -->
<g id="edge45" class="edge"><title>Node2&#45;&gt;Node32</title>
<path fill="none" stroke="midnightblue" d="M938.184,-245.13C974.842,-233.352 1019.1,-219.132 1054.29,-207.825"/>
<polygon fill="midnightblue" stroke="midnightblue" points="937.001,-241.834 928.551,-248.225 939.142,-248.498 937.001,-241.834"/>
</g>
<!-- Node34 -->
<g id="node34" class="node"><title>Node34</title>
<g id="a_node34"><a xlink:href="hwdl_8h.html" target="_top" xlink:title="/Users/tgil/git/CoAction\lOS/CoActionOS/include\l/hwdl.h">
<polygon fill="none" stroke="black" points="453.641,-165 453.641,-209 576.359,-209 576.359,-165 453.641,-165"/>
<text text-anchor="start" x="461.641" y="-195" font-family="Helvetica,sans-Serif" font-size="10.00">/Users/tgil/git/CoAction</text>
<text text-anchor="start" x="461.641" y="-183" font-family="Helvetica,sans-Serif" font-size="10.00">OS/CoActionOS/include</text>
<text text-anchor="middle" x="515" y="-171" font-family="Helvetica,sans-Serif" font-size="10.00">/hwdl.h</text>
</a>
</g>
</g>
<!-- Node2&#45;&gt;Node34 -->
<g id="edge47" class="edge"><title>Node2&#45;&gt;Node34</title>
<path fill="none" stroke="midnightblue" d="M795.486,-255.222C738.432,-244.551 656.65,-228.191 586,-210 582.876,-209.196 579.685,-208.338 576.469,-207.447"/>
<polygon fill="midnightblue" stroke="midnightblue" points="795.017,-258.694 805.488,-257.081 796.296,-251.812 795.017,-258.694"/>
</g>
<!-- Node35 -->
<g id="node35" class="node"><title>Node35</title>
<g id="a_node35"><a xlink:href="link_8h.html" target="_top" xlink:title="/Users/tgil/git/CoAction\lOS/CoActionOS/include\l/link.h">
<polygon fill="none" stroke="black" points="534.641,-83 534.641,-127 657.359,-127 657.359,-83 534.641,-83"/>
<text text-anchor="start" x="542.641" y="-113" font-family="Helvetica,sans-Serif" font-size="10.00">/Users/tgil/git/CoAction</text>
<text text-anchor="start" x="542.641" y="-101" font-family="Helvetica,sans-Serif" font-size="10.00">OS/CoActionOS/include</text>
<text text-anchor="middle" x="596" y="-89" font-family="Helvetica,sans-Serif" font-size="10.00">/link.h</text>
</a>
</g>
</g>
<!-- Node2&#45;&gt;Node35 -->
<g id="edge48" class="edge"><title>Node2&#45;&gt;Node35</title>
<path fill="none" stroke="midnightblue" d="M938.108,-256.018C964.627,-247.722 992.123,-233.698 1008,-210 1019.38,-193.015 1021.41,-179.431 1008,-164 985.345,-137.932 766.597,-118.443 657.39,-110.252"/>
<polygon fill="midnightblue" stroke="midnightblue" points="937.04,-252.683 928.405,-258.822 938.984,-259.408 937.04,-252.683"/>
</g>
<!-- Node36 -->
<g id="node36" class="node"><title>Node36</title>
<g id="a_node36"><a xlink:href="devfifo_8h.html" target="_top" xlink:title="/Users/tgil/git/CoAction\lOS/CoActionOS/include\l/dev/devfifo.h">
<polygon fill="none" stroke="black" points="594.641,-165 594.641,-209 717.359,-209 717.359,-165 594.641,-165"/>
<text text-anchor="start" x="602.641" y="-195" font-family="Helvetica,sans-Serif" font-size="10.00">/Users/tgil/git/CoAction</text>
<text text-anchor="start" x="602.641" y="-183" font-family="Helvetica,sans-Serif" font-size="10.00">OS/CoActionOS/include</text>
<text text-anchor="middle" x="656" y="-171" font-family="Helvetica,sans-Serif" font-size="10.00">/dev/devfifo.h</text>
</a>
</g>
</g>
<!-- Node2&#45;&gt;Node36 -->
<g id="edge49" class="edge"><title>Node2&#45;&gt;Node36</title>
<path fill="none" stroke="midnightblue" d="M801.935,-243.331C772.958,-232.344 739.187,-219.54 711.433,-209.017"/>
<polygon fill="midnightblue" stroke="midnightblue" points="800.971,-246.708 811.562,-246.981 803.453,-240.163 800.971,-246.708"/>
</g>
<!-- Node37 -->
<g id="node37" class="node"><title>Node37</title>
<g id="a_node37"><a xlink:href="uartfifo_8h.html" target="_top" xlink:title="/Users/tgil/git/CoAction\lOS/CoActionOS/include\l/dev/uartfifo.h">
<polygon fill="none" stroke="black" points="735.641,-165 735.641,-209 858.359,-209 858.359,-165 735.641,-165"/>
<text text-anchor="start" x="743.641" y="-195" font-family="Helvetica,sans-Serif" font-size="10.00">/Users/tgil/git/CoAction</text>
<text text-anchor="start" x="743.641" y="-183" font-family="Helvetica,sans-Serif" font-size="10.00">OS/CoActionOS/include</text>
<text text-anchor="middle" x="797" y="-171" font-family="Helvetica,sans-Serif" font-size="10.00">/dev/uartfifo.h</text>
</a>
</g>
</g>
<!-- Node2&#45;&gt;Node37 -->
<g id="edge50" class="edge"><title>Node2&#45;&gt;Node37</title>
<path fill="none" stroke="midnightblue" d="M841.867,-239.277C833.167,-229.334 823.582,-218.379 815.512,-209.156"/>
<polygon fill="midnightblue" stroke="midnightblue" points="839.389,-241.76 848.608,-246.981 844.657,-237.15 839.389,-241.76"/>
</g>
<!-- Node38 -->
<g id="node38" class="node"><title>Node38</title>
<g id="a_node38"><a xlink:href="usbfifo_8h.html" target="_top" xlink:title="/Users/tgil/git/CoAction\lOS/CoActionOS/include\l/dev/usbfifo.h">
<polygon fill="none" stroke="black" points="876.641,-165 876.641,-209 999.359,-209 999.359,-165 876.641,-165"/>
<text text-anchor="start" x="884.641" y="-195" font-family="Helvetica,sans-Serif" font-size="10.00">/Users/tgil/git/CoAction</text>
<text text-anchor="start" x="884.641" y="-183" font-family="Helvetica,sans-Serif" font-size="10.00">OS/CoActionOS/include</text>
<text text-anchor="middle" x="938" y="-171" font-family="Helvetica,sans-Serif" font-size="10.00">/dev/usbfifo.h</text>
</a>
</g>
</g>
<!-- Node2&#45;&gt;Node38 -->
<g id="edge51" class="edge"><title>Node2&#45;&gt;Node38</title>
<path fill="none" stroke="midnightblue" d="M892.492,-239.277C901.316,-229.334 911.039,-218.379 919.224,-209.156"/>
<polygon fill="midnightblue" stroke="midnightblue" points="889.675,-237.178 885.654,-246.981 894.91,-241.825 889.675,-237.178"/>
</g>
<!-- Node4 -->
<g id="node4" class="node"><title>Node4</title>
<g id="a_node4"><a xlink:href="cafs__lite_8h_source.html" target="_top" xlink:title="/Users/tgil/git/CoAction\lOS/CoActionOS/include\l/cafs_lite.h">
<polygon fill="none" stroke="black" points="1633.64,-83 1633.64,-127 1756.36,-127 1756.36,-83 1633.64,-83"/>
<text text-anchor="start" x="1641.64" y="-113" font-family="Helvetica,sans-Serif" font-size="10.00">/Users/tgil/git/CoAction</text>
<text text-anchor="start" x="1641.64" y="-101" font-family="Helvetica,sans-Serif" font-size="10.00">OS/CoActionOS/include</text>
<text text-anchor="middle" x="1695" y="-89" font-family="Helvetica,sans-Serif" font-size="10.00">/cafs_lite.h</text>
</a>
</g>
</g>
<!-- Node3&#45;&gt;Node4 -->
<g id="edge3" class="edge"><title>Node3&#45;&gt;Node4</title>
<path fill="none" stroke="midnightblue" d="M1549.76,-161.331C1578.6,-150.344 1612.21,-137.54 1639.83,-127.017"/>
<polygon fill="midnightblue" stroke="midnightblue" points="1548.27,-158.15 1540.18,-164.981 1550.77,-164.692 1548.27,-158.15"/>
</g>
<!-- Node5 -->
<g id="node5" class="node"><title>Node5</title>
<g id="a_node5"><a xlink:href="dirent_8c.html" target="_top" xlink:title="/Users/tgil/git/CoAction\lOS/CoActionOS/src/sys\l/dirent/dirent.c">
<polygon fill="none" stroke="black" points="1773.93,-83 1773.93,-127 1896.07,-127 1896.07,-83 1773.93,-83"/>
<text text-anchor="start" x="1781.93" y="-113" font-family="Helvetica,sans-Serif" font-size="10.00">/Users/tgil/git/CoAction</text>
<text text-anchor="start" x="1781.93" y="-101" font-family="Helvetica,sans-Serif" font-size="10.00">OS/CoActionOS/src/sys</text>
<text text-anchor="middle" x="1835" y="-89" font-family="Helvetica,sans-Serif" font-size="10.00">/dirent/dirent.c</text>
</a>
</g>
</g>
<!-- Node3&#45;&gt;Node5 -->
<g id="edge4" class="edge"><title>Node3&#45;&gt;Node5</title>
<path fill="none" stroke="midnightblue" d="M1556.55,-173.228C1613.4,-162.588 1694.75,-146.267 1765,-128 1767.84,-127.263 1770.73,-126.48 1773.64,-125.667"/>
<polygon fill="midnightblue" stroke="midnightblue" points="1555.78,-169.812 1546.59,-175.082 1557.06,-176.694 1555.78,-169.812"/>
</g>
<!-- Node6 -->
<g id="node6" class="node"><title>Node6</title>
<g id="a_node6"><a xlink:href="mqueue_8c.html" target="_top" xlink:title="/Users/tgil/git/CoAction\lOS/CoActionOS/src/sys\l/mqueue/mqueue.c">
<polygon fill="none" stroke="black" points="1913.93,-83 1913.93,-127 2036.07,-127 2036.07,-83 1913.93,-83"/>
<text text-anchor="start" x="1921.93" y="-113" font-family="Helvetica,sans-Serif" font-size="10.00">/Users/tgil/git/CoAction</text>
<text text-anchor="start" x="1921.93" y="-101" font-family="Helvetica,sans-Serif" font-size="10.00">OS/CoActionOS/src/sys</text>
<text text-anchor="middle" x="1975" y="-89" font-family="Helvetica,sans-Serif" font-size="10.00">/mqueue/mqueue.c</text>
</a>
</g>
</g>
<!-- Node3&#45;&gt;Node6 -->
<g id="edge5" class="edge"><title>Node3&#45;&gt;Node6</title>
<path fill="none" stroke="midnightblue" d="M1556.64,-179.789C1640.77,-171.65 1784.17,-155.129 1905,-128 1907.86,-127.358 1910.77,-126.654 1913.7,-125.904"/>
<polygon fill="midnightblue" stroke="midnightblue" points="1556.06,-176.329 1546.43,-180.764 1556.72,-183.297 1556.06,-176.329"/>
</g>
<!-- Node7 -->
<g id="node7" class="node"><title>Node7</title>
<g id="a_node7"><a xlink:href="sem_8c.html" target="_top" xlink:title="/Users/tgil/git/CoAction\lOS/CoActionOS/src/sys\l/semaphore/sem.c">
<polygon fill="none" stroke="black" points="2053.93,-83 2053.93,-127 2176.07,-127 2176.07,-83 2053.93,-83"/>
<text text-anchor="start" x="2061.93" y="-113" font-family="Helvetica,sans-Serif" font-size="10.00">/Users/tgil/git/CoAction</text>
<text text-anchor="start" x="2061.93" y="-101" font-family="Helvetica,sans-Serif" font-size="10.00">OS/CoActionOS/src/sys</text>
<text text-anchor="middle" x="2115" y="-89" font-family="Helvetica,sans-Serif" font-size="10.00">/semaphore/sem.c</text>
</a>
</g>
</g>
<!-- Node3&#45;&gt;Node7 -->
<g id="edge6" class="edge"><title>Node3&#45;&gt;Node7</title>
<path fill="none" stroke="midnightblue" d="M1556.57,-183.197C1663.74,-177.966 1871.83,-163.799 2045,-128 2047.87,-127.407 2050.79,-126.743 2053.72,-126.025"/>
<polygon fill="midnightblue" stroke="midnightblue" points="1556.34,-179.704 1546.52,-183.676 1556.68,-186.696 1556.34,-179.704"/>
</g>
<!-- Node8 -->
<g id="node8" class="node"><title>Node8</title>
<g id="a_node8"><a xlink:href="__close_8c.html" target="_top" xlink:title="/Users/tgil/git/CoAction\lOS/CoActionOS/src/sys\l/unistd/_close.c">
<polygon fill="none" stroke="black" points="139.931,-1 139.931,-45 262.069,-45 262.069,-1 139.931,-1"/>
<text text-anchor="start" x="147.931" y="-31" font-family="Helvetica,sans-Serif" font-size="10.00">/Users/tgil/git/CoAction</text>
<text text-anchor="start" x="147.931" y="-19" font-family="Helvetica,sans-Serif" font-size="10.00">OS/CoActionOS/src/sys</text>
<text text-anchor="middle" x="201" y="-7" font-family="Helvetica,sans-Serif" font-size="10.00">/unistd/_close.c</text>
</a>
</g>
</g>
<!-- Node3&#45;&gt;Node8 -->
<g id="edge7" class="edge"><title>Node3&#45;&gt;Node8</title>
<path fill="none" stroke="midnightblue" d="M1413.19,-179.766C1293.44,-168.938 1062.83,-146.086 1030,-128 1006.77,-115.204 1015.7,-93.8942 992,-82 848.62,-10.0461 428.91,-74.2782 271,-46 268.116,-45.4835 265.185,-44.8823 262.239,-44.2157"/>
<polygon fill="midnightblue" stroke="midnightblue" points="1413.09,-183.271 1423.37,-180.681 1413.72,-176.299 1413.09,-183.271"/>
</g>
<!-- Node9 -->
<g id="node9" class="node"><title>Node9</title>
<g id="a_node9"><a xlink:href="unistd__fs_8h_source.html" target="_top" xlink:title="/Users/tgil/git/CoAction\lOS/CoActionOS/src/sys\l/unistd/unistd_fs.h">
<polygon fill="none" stroke="black" points="1213.93,-83 1213.93,-127 1336.07,-127 1336.07,-83 1213.93,-83"/>
<text text-anchor="start" x="1221.93" y="-113" font-family="Helvetica,sans-Serif" font-size="10.00">/Users/tgil/git/CoAction</text>
<text text-anchor="start" x="1221.93" y="-101" font-family="Helvetica,sans-Serif" font-size="10.00">OS/CoActionOS/src/sys</text>
<text text-anchor="middle" x="1275" y="-89" font-family="Helvetica,sans-Serif" font-size="10.00">/unistd/unistd_fs.h</text>
</a>
</g>
</g>
<!-- Node3&#45;&gt;Node9 -->
<g id="edge8" class="edge"><title>Node3&#45;&gt;Node9</title>
<path fill="none" stroke="midnightblue" d="M1420.24,-161.331C1391.4,-150.344 1357.79,-137.54 1330.17,-127.017"/>
<polygon fill="midnightblue" stroke="midnightblue" points="1419.23,-164.692 1429.82,-164.981 1421.73,-158.15 1419.23,-164.692"/>
</g>
<!-- Node28 -->
<g id="node28" class="node"><title>Node28</title>
<g id="a_node28"><a xlink:href="unistd__flags_8h_source.html" target="_top" xlink:title="/Users/tgil/git/CoAction\lOS/CoActionOS/src/sys\l/unistd/unistd_flags.h">
<polygon fill="none" stroke="black" points="1038.93,-83 1038.93,-127 1161.07,-127 1161.07,-83 1038.93,-83"/>
<text text-anchor="start" x="1046.93" y="-113" font-family="Helvetica,sans-Serif" font-size="10.00">/Users/tgil/git/CoAction</text>
<text text-anchor="start" x="1046.93" y="-101" font-family="Helvetica,sans-Serif" font-size="10.00">OS/CoActionOS/src/sys</text>
<text text-anchor="middle" x="1100" y="-89" font-family="Helvetica,sans-Serif" font-size="10.00">/unistd/unistd_flags.h</text>
</a>
</g>
</g>
<!-- Node3&#45;&gt;Node28 -->
<g id="edge28" class="edge"><title>Node3&#45;&gt;Node28</title>
<path fill="none" stroke="midnightblue" d="M1413.62,-171.261C1357.03,-159.565 1275.95,-142.781 1205,-128 1190.78,-125.037 1175.47,-121.837 1161.07,-118.82"/>
<polygon fill="midnightblue" stroke="midnightblue" points="1413.04,-174.715 1423.54,-173.311 1414.46,-167.86 1413.04,-174.715"/>
</g>
<!-- Node30 -->
<g id="node30" class="node"><title>Node30</title>
<g id="a_node30"><a xlink:href="__exit_8c.html" target="_top" xlink:title="/Users/tgil/git/CoAction\lOS/CoActionOS/src/sys\l/unistd/_exit.c">
<polygon fill="none" stroke="black" points="1353.93,-83 1353.93,-127 1476.07,-127 1476.07,-83 1353.93,-83"/>
<text text-anchor="start" x="1361.93" y="-113" font-family="Helvetica,sans-Serif" font-size="10.00">/Users/tgil/git/CoAction</text>
<text text-anchor="start" x="1361.93" y="-101" font-family="Helvetica,sans-Serif" font-size="10.00">OS/CoActionOS/src/sys</text>
<text text-anchor="middle" x="1415" y="-89" font-family="Helvetica,sans-Serif" font-size="10.00">/unistd/_exit.c</text>
</a>
</g>
</g>
<!-- Node3&#45;&gt;Node30 -->
<g id="edge43" class="edge"><title>Node3&#45;&gt;Node30</title>
<path fill="none" stroke="midnightblue" d="M1459.87,-157.277C1451.17,-147.334 1441.58,-136.379 1433.51,-127.156"/>
<polygon fill="midnightblue" stroke="midnightblue" points="1457.39,-159.76 1466.61,-164.981 1462.66,-155.15 1457.39,-159.76"/>
</g>
<!-- Node31 -->
<g id="node31" class="node"><title>Node31</title>
<g id="a_node31"><a xlink:href="access_8c.html" target="_top" xlink:title="/Users/tgil/git/CoAction\lOS/CoActionOS/src/sys\l/unistd/access.c">
<polygon fill="none" stroke="black" points="1493.93,-83 1493.93,-127 1616.07,-127 1616.07,-83 1493.93,-83"/>
<text text-anchor="start" x="1501.93" y="-113" font-family="Helvetica,sans-Serif" font-size="10.00">/Users/tgil/git/CoAction</text>
<text text-anchor="start" x="1501.93" y="-101" font-family="Helvetica,sans-Serif" font-size="10.00">OS/CoActionOS/src/sys</text>
<text text-anchor="middle" x="1555" y="-89" font-family="Helvetica,sans-Serif" font-size="10.00">/unistd/access.c</text>
</a>
</g>
</g>
<!-- Node3&#45;&gt;Node31 -->
<g id="edge44" class="edge"><title>Node3&#45;&gt;Node31</title>
<path fill="none" stroke="midnightblue" d="M1510.13,-157.277C1518.83,-147.334 1528.42,-136.379 1536.49,-127.156"/>
<polygon fill="midnightblue" stroke="midnightblue" points="1507.34,-155.15 1503.39,-164.981 1512.61,-159.76 1507.34,-155.15"/>
</g>
<!-- Node9&#45;&gt;Node8 -->
<g id="edge9" class="edge"><title>Node9&#45;&gt;Node8</title>
<path fill="none" stroke="midnightblue" d="M1203.51,-87.3625C1192.34,-85.2452 1180.9,-83.3502 1170,-82 773.159,-32.8282 664.957,-114.545 271,-46 268.113,-45.4978 265.181,-44.9082 262.233,-44.251"/>
<polygon fill="midnightblue" stroke="midnightblue" points="1203.17,-90.8632 1213.66,-89.3602 1204.52,-83.995 1203.17,-90.8632"/>
</g>
<!-- Node10 -->
<g id="node10" class="node"><title>Node10</title>
<g id="a_node10"><a xlink:href="__fcntl_8c.html" target="_top" xlink:title="/Users/tgil/git/CoAction\lOS/CoActionOS/src/sys\l/unistd/_fcntl.c">
<polygon fill="none" stroke="black" points="723.931,-1 723.931,-45 846.069,-45 846.069,-1 723.931,-1"/>
<text text-anchor="start" x="731.931" y="-31" font-family="Helvetica,sans-Serif" font-size="10.00">/Users/tgil/git/CoAction</text>
<text text-anchor="start" x="731.931" y="-19" font-family="Helvetica,sans-Serif" font-size="10.00">OS/CoActionOS/src/sys</text>
<text text-anchor="middle" x="785" y="-7" font-family="Helvetica,sans-Serif" font-size="10.00">/unistd/_fcntl.c</text>
</a>
</g>
</g>
<!-- Node9&#45;&gt;Node10 -->
<g id="edge10" class="edge"><title>Node9&#45;&gt;Node10</title>
<path fill="none" stroke="midnightblue" d="M1203.97,-88.1865C1192.64,-85.9333 1181.02,-83.7805 1170,-82 1030.89,-59.5274 992.841,-75.2574 855,-46 852.134,-45.3917 849.218,-44.715 846.284,-43.9873"/>
<polygon fill="midnightblue" stroke="midnightblue" points="1203.33,-91.6285 1213.83,-90.1855 1204.72,-84.7681 1203.33,-91.6285"/>
</g>
<!-- Node11 -->
<g id="node11" class="node"><title>Node11</title>
<g id="a_node11"><a xlink:href="__fstat_8c.html" target="_top" xlink:title="/Users/tgil/git/CoAction\lOS/CoActionOS/src/sys\l/unistd/_fstat.c">
<polygon fill="none" stroke="black" points="863.931,-1 863.931,-45 986.069,-45 986.069,-1 863.931,-1"/>
<text text-anchor="start" x="871.931" y="-31" font-family="Helvetica,sans-Serif" font-size="10.00">/Users/tgil/git/CoAction</text>
<text text-anchor="start" x="871.931" y="-19" font-family="Helvetica,sans-Serif" font-size="10.00">OS/CoActionOS/src/sys</text>
<text text-anchor="middle" x="925" y="-7" font-family="Helvetica,sans-Serif" font-size="10.00">/unistd/_fstat.c</text>
</a>
</g>
</g>
<!-- Node9&#45;&gt;Node11 -->
<g id="edge11" class="edge"><title>Node9&#45;&gt;Node11</title>
<path fill="none" stroke="midnightblue" d="M1203.81,-89.0469C1192.5,-86.6823 1180.93,-84.2695 1170,-82 1092.25,-65.858 1071.86,-65.9298 995,-46 992.164,-45.2646 989.272,-44.4838 986.358,-43.6717"/>
<polygon fill="midnightblue" stroke="midnightblue" points="1203.15,-92.4852 1213.66,-91.1077 1204.59,-85.6336 1203.15,-92.4852"/>
</g>
<!-- Node12 -->
<g id="node12" class="node"><title>Node12</title>
<g id="a_node12"><a xlink:href="__isatty_8c.html" target="_top" xlink:title="/Users/tgil/git/CoAction\lOS/CoActionOS/src/sys\l/unistd/_isatty.c">
<polygon fill="none" stroke="black" points="1003.93,-1 1003.93,-45 1126.07,-45 1126.07,-1 1003.93,-1"/>
<text text-anchor="start" x="1011.93" y="-31" font-family="Helvetica,sans-Serif" font-size="10.00">/Users/tgil/git/CoAction</text>
<text text-anchor="start" x="1011.93" y="-19" font-family="Helvetica,sans-Serif" font-size="10.00">OS/CoActionOS/src/sys</text>
<text text-anchor="middle" x="1065" y="-7" font-family="Helvetica,sans-Serif" font-size="10.00">/unistd/_isatty.c</text>
</a>
</g>
</g>
<!-- Node9&#45;&gt;Node12 -->
<g id="edge12" class="edge"><title>Node9&#45;&gt;Node12</title>
<path fill="none" stroke="midnightblue" d="M1210.24,-79.3308C1181.4,-68.3445 1147.79,-55.5401 1120.17,-45.0174"/>
<polygon fill="midnightblue" stroke="midnightblue" points="1209.23,-82.6916 1219.82,-82.9809 1211.73,-76.1502 1209.23,-82.6916"/>
</g>
<!-- Node13 -->
<g id="node13" class="node"><title>Node13</title>
<g id="a_node13"><a xlink:href="__link_8c.html" target="_top" xlink:title="/Users/tgil/git/CoAction\lOS/CoActionOS/src/sys\l/unistd/_link.c">
<polygon fill="none" stroke="black" points="1143.93,-1 1143.93,-45 1266.07,-45 1266.07,-1 1143.93,-1"/>
<text text-anchor="start" x="1151.93" y="-31" font-family="Helvetica,sans-Serif" font-size="10.00">/Users/tgil/git/CoAction</text>
<text text-anchor="start" x="1151.93" y="-19" font-family="Helvetica,sans-Serif" font-size="10.00">OS/CoActionOS/src/sys</text>
<text text-anchor="middle" x="1205" y="-7" font-family="Helvetica,sans-Serif" font-size="10.00">/unistd/_link.c</text>
</a>
</g>
</g>
<!-- Node9&#45;&gt;Node13 -->
<g id="edge13" class="edge"><title>Node9&#45;&gt;Node13</title>
<path fill="none" stroke="midnightblue" d="M1249.87,-75.2766C1241.17,-65.3339 1231.58,-54.379 1223.51,-45.1564"/>
<polygon fill="midnightblue" stroke="midnightblue" points="1247.39,-77.7599 1256.61,-82.9809 1252.66,-73.1504 1247.39,-77.7599"/>
</g>
<!-- Node14 -->
<g id="node14" class="node"><title>Node14</title>
<g id="a_node14"><a xlink:href="__lseek_8c.html" target="_top" xlink:title="/Users/tgil/git/CoAction\lOS/CoActionOS/src/sys\l/unistd/_lseek.c">
<polygon fill="none" stroke="black" points="1283.93,-1 1283.93,-45 1406.07,-45 1406.07,-1 1283.93,-1"/>
<text text-anchor="start" x="1291.93" y="-31" font-family="Helvetica,sans-Serif" font-size="10.00">/Users/tgil/git/CoAction</text>
<text text-anchor="start" x="1291.93" y="-19" font-family="Helvetica,sans-Serif" font-size="10.00">OS/CoActionOS/src/sys</text>
<text text-anchor="middle" x="1345" y="-7" font-family="Helvetica,sans-Serif" font-size="10.00">/unistd/_lseek.c</text>
</a>
</g>
</g>
<!-- Node9&#45;&gt;Node14 -->
<g id="edge14" class="edge"><title>Node9&#45;&gt;Node14</title>
<path fill="none" stroke="midnightblue" d="M1300.13,-75.2766C1308.83,-65.3339 1318.42,-54.379 1326.49,-45.1564"/>
<polygon fill="midnightblue" stroke="midnightblue" points="1297.34,-73.1504 1293.39,-82.9809 1302.61,-77.7599 1297.34,-73.1504"/>
</g>
<!-- Node15 -->
<g id="node15" class="node"><title>Node15</title>
<g id="a_node15"><a xlink:href="__open_8c.html" target="_top" xlink:title="/Users/tgil/git/CoAction\lOS/CoActionOS/src/sys\l/unistd/_open.c">
<polygon fill="none" stroke="black" points="1423.93,-1 1423.93,-45 1546.07,-45 1546.07,-1 1423.93,-1"/>
<text text-anchor="start" x="1431.93" y="-31" font-family="Helvetica,sans-Serif" font-size="10.00">/Users/tgil/git/CoAction</text>
<text text-anchor="start" x="1431.93" y="-19" font-family="Helvetica,sans-Serif" font-size="10.00">OS/CoActionOS/src/sys</text>
<text text-anchor="middle" x="1485" y="-7" font-family="Helvetica,sans-Serif" font-size="10.00">/unistd/_open.c</text>
</a>
</g>
</g>
<!-- Node9&#45;&gt;Node15 -->
<g id="edge15" class="edge"><title>Node9&#45;&gt;Node15</title>
<path fill="none" stroke="midnightblue" d="M1339.76,-79.3308C1368.6,-68.3445 1402.21,-55.5401 1429.83,-45.0174"/>
<polygon fill="midnightblue" stroke="midnightblue" points="1338.27,-76.1502 1330.18,-82.9809 1340.77,-82.6916 1338.27,-76.1502"/>
</g>
<!-- Node16 -->
<g id="node16" class="node"><title>Node16</title>
<g id="a_node16"><a xlink:href="__read_8c.html" target="_top" xlink:title="/Users/tgil/git/CoAction\lOS/CoActionOS/src/sys\l/unistd/_read.c">
<polygon fill="none" stroke="black" points="1563.93,-1 1563.93,-45 1686.07,-45 1686.07,-1 1563.93,-1"/>
<text text-anchor="start" x="1571.93" y="-31" font-family="Helvetica,sans-Serif" font-size="10.00">/Users/tgil/git/CoAction</text>
<text text-anchor="start" x="1571.93" y="-19" font-family="Helvetica,sans-Serif" font-size="10.00">OS/CoActionOS/src/sys</text>
<text text-anchor="middle" x="1625" y="-7" font-family="Helvetica,sans-Serif" font-size="10.00">/unistd/_read.c</text>
</a>
</g>
</g>
<!-- Node9&#45;&gt;Node16 -->
<g id="edge16" class="edge"><title>Node9&#45;&gt;Node16</title>
<path fill="none" stroke="midnightblue" d="M1346.12,-81.8818C1438.84,-60.2836 1466.01,-67.5078 1555,-46 1557.85,-45.3117 1560.75,-44.5695 1563.67,-43.7886"/>
<polygon fill="midnightblue" stroke="midnightblue" points="1345.25,-78.4915 1336.33,-84.2114 1346.87,-85.3014 1345.25,-78.4915"/>
</g>
<!-- Node17 -->
<g id="node17" class="node"><title>Node17</title>
<g id="a_node17"><a xlink:href="__rename_8c.html" target="_top" xlink:title="/Users/tgil/git/CoAction\lOS/CoActionOS/src/sys\l/unistd/_rename.c">
<polygon fill="none" stroke="black" points="2263.93,-1 2263.93,-45 2386.07,-45 2386.07,-1 2263.93,-1"/>
<text text-anchor="start" x="2271.93" y="-31" font-family="Helvetica,sans-Serif" font-size="10.00">/Users/tgil/git/CoAction</text>
<text text-anchor="start" x="2271.93" y="-19" font-family="Helvetica,sans-Serif" font-size="10.00">OS/CoActionOS/src/sys</text>
<text text-anchor="middle" x="2325" y="-7" font-family="Helvetica,sans-Serif" font-size="10.00">/unistd/_rename.c</text>
</a>
</g>
</g>
<!-- Node9&#45;&gt;Node17 -->
<g id="edge17" class="edge"><title>Node9&#45;&gt;Node17</title>
<path fill="none" stroke="midnightblue" d="M1346.32,-82.014C1745.67,-14.4048 1859.52,-114.711 2255,-46 2257.89,-45.4985 2260.82,-44.9095 2263.77,-44.2528"/>
<polygon fill="midnightblue" stroke="midnightblue" points="1345.5,-78.6045 1336.23,-83.7472 1346.68,-85.5034 1345.5,-78.6045"/>
</g>
<!-- Node18 -->
<g id="node18" class="node"><title>Node18</title>
<g id="a_node18"><a xlink:href="__stat_8c.html" target="_top" xlink:title="/Users/tgil/git/CoAction\lOS/CoActionOS/src/sys\l/unistd/_stat.c">
<polygon fill="none" stroke="black" points="2403.93,-1 2403.93,-45 2526.07,-45 2526.07,-1 2403.93,-1"/>
<text text-anchor="start" x="2411.93" y="-31" font-family="Helvetica,sans-Serif" font-size="10.00">/Users/tgil/git/CoAction</text>
<text text-anchor="start" x="2411.93" y="-19" font-family="Helvetica,sans-Serif" font-size="10.00">OS/CoActionOS/src/sys</text>
<text text-anchor="middle" x="2465" y="-7" font-family="Helvetica,sans-Serif" font-size="10.00">/unistd/_stat.c</text>
</a>
</g>
</g>
<!-- Node9&#45;&gt;Node18 -->
<g id="edge18" class="edge"><title>Node9&#45;&gt;Node18</title>
<path fill="none" stroke="midnightblue" d="M1346.14,-82.0499C1807.11,-4.99138 1938,-124.161 2395,-46 2397.89,-45.5061 2400.82,-44.9233 2403.77,-44.2717"/>
<polygon fill="midnightblue" stroke="midnightblue" points="1345.5,-78.6077 1336.23,-83.7283 1346.67,-85.5094 1345.5,-78.6077"/>
</g>
<!-- Node19 -->
<g id="node19" class="node"><title>Node19</title>
<g id="a_node19"><a xlink:href="__symlink_8c.html" target="_top" xlink:title="/Users/tgil/git/CoAction\lOS/CoActionOS/src/sys\l/unistd/_symlink.c">
<polygon fill="none" stroke="black" points="1703.93,-1 1703.93,-45 1826.07,-45 1826.07,-1 1703.93,-1"/>
<text text-anchor="start" x="1711.93" y="-31" font-family="Helvetica,sans-Serif" font-size="10.00">/Users/tgil/git/CoAction</text>
<text text-anchor="start" x="1711.93" y="-19" font-family="Helvetica,sans-Serif" font-size="10.00">OS/CoActionOS/src/sys</text>
<text text-anchor="middle" x="1765" y="-7" font-family="Helvetica,sans-Serif" font-size="10.00">/unistd/_symlink.c</text>
</a>
</g>
</g>
<!-- Node9&#45;&gt;Node19 -->
<g id="edge19" class="edge"><title>Node9&#45;&gt;Node19</title>
<path fill="none" stroke="midnightblue" d="M1346.09,-81.9823C1499.99,-51.4873 1544.99,-76.9558 1695,-46 1697.87,-45.4079 1700.79,-44.7445 1703.72,-44.0276"/>
<polygon fill="midnightblue" stroke="midnightblue" points="1345.38,-78.5544 1336.28,-83.9724 1346.77,-85.4147 1345.38,-78.5544"/>
</g>
<!-- Node20 -->
<g id="node20" class="node"><title>Node20</title>
<g id="a_node20"><a xlink:href="__unlink_8c.html" target="_top" xlink:title="/Users/tgil/git/CoAction\lOS/CoActionOS/src/sys\l/unistd/_unlink.c">
<polygon fill="none" stroke="black" points="2543.93,-1 2543.93,-45 2666.07,-45 2666.07,-1 2543.93,-1"/>
<text text-anchor="start" x="2551.93" y="-31" font-family="Helvetica,sans-Serif" font-size="10.00">/Users/tgil/git/CoAction</text>
<text text-anchor="start" x="2551.93" y="-19" font-family="Helvetica,sans-Serif" font-size="10.00">OS/CoActionOS/src/sys</text>
<text text-anchor="middle" x="2605" y="-7" font-family="Helvetica,sans-Serif" font-size="10.00">/unistd/_unlink.c</text>
</a>
</g>
</g>
<!-- Node9&#45;&gt;Node20 -->
<g id="edge20" class="edge"><title>Node9&#45;&gt;Node20</title>
<path fill="none" stroke="midnightblue" d="M1346.28,-82.0303C1868.61,4.37935 2016.58,-133.592 2535,-46 2537.89,-45.5119 2540.82,-44.9339 2543.77,-44.2861"/>
<polygon fill="midnightblue" stroke="midnightblue" points="1345.51,-78.6106 1336.23,-83.7139 1346.67,-85.5146 1345.51,-78.6106"/>
</g>
<!-- Node21 -->
<g id="node21" class="node"><title>Node21</title>
<g id="a_node21"><a xlink:href="__write_8c.html" target="_top" xlink:title="/Users/tgil/git/CoAction\lOS/CoActionOS/src/sys\l/unistd/_write.c">
<polygon fill="none" stroke="black" points="1843.93,-1 1843.93,-45 1966.07,-45 1966.07,-1 1843.93,-1"/>
<text text-anchor="start" x="1851.93" y="-31" font-family="Helvetica,sans-Serif" font-size="10.00">/Users/tgil/git/CoAction</text>
<text text-anchor="start" x="1851.93" y="-19" font-family="Helvetica,sans-Serif" font-size="10.00">OS/CoActionOS/src/sys</text>
<text text-anchor="middle" x="1905" y="-7" font-family="Helvetica,sans-Serif" font-size="10.00">/unistd/_write.c</text>
</a>
</g>
</g>
<!-- Node9&#45;&gt;Node21 -->
<g id="edge21" class="edge"><title>Node9&#45;&gt;Node21</title>
<path fill="none" stroke="midnightblue" d="M1346.28,-81.9817C1561.36,-42.3638 1623.77,-86.3887 1835,-46 1837.88,-45.4498 1840.8,-44.8208 1843.75,-44.1317"/>
<polygon fill="midnightblue" stroke="midnightblue" points="1345.43,-78.5794 1336.25,-83.8683 1346.73,-85.4587 1345.43,-78.5794"/>
</g>
<!-- Node22 -->
<g id="node22" class="node"><title>Node22</title>
<g id="a_node22"><a xlink:href="chmod_8c.html" target="_top" xlink:title="/Users/tgil/git/CoAction\lOS/CoActionOS/src/sys\l/unistd/chmod.c">
<polygon fill="none" stroke="black" points="2683.93,-1 2683.93,-45 2806.07,-45 2806.07,-1 2683.93,-1"/>
<text text-anchor="start" x="2691.93" y="-31" font-family="Helvetica,sans-Serif" font-size="10.00">/Users/tgil/git/CoAction</text>
<text text-anchor="start" x="2691.93" y="-19" font-family="Helvetica,sans-Serif" font-size="10.00">OS/CoActionOS/src/sys</text>
<text text-anchor="middle" x="2745" y="-7" font-family="Helvetica,sans-Serif" font-size="10.00">/unistd/chmod.c</text>
</a>
</g>
</g>
<!-- Node9&#45;&gt;Node22 -->
<g id="edge22" class="edge"><title>Node9&#45;&gt;Node22</title>
<path fill="none" stroke="midnightblue" d="M1346.16,-82.0542C1930.07,13.8059 2095.06,-143.037 2675,-46 2677.89,-45.5165 2680.83,-44.9423 2683.78,-44.2975"/>
<polygon fill="midnightblue" stroke="midnightblue" points="1345.52,-78.6125 1336.22,-83.7025 1346.66,-85.5181 1345.52,-78.6125"/>
</g>
<!-- Node23 -->
<g id="node23" class="node"><title>Node23</title>
<g id="a_node23"><a xlink:href="chown_8c.html" target="_top" xlink:title="/Users/tgil/git/CoAction\lOS/CoActionOS/src/sys\l/unistd/chown.c">
<polygon fill="none" stroke="black" points="1983.93,-1 1983.93,-45 2106.07,-45 2106.07,-1 1983.93,-1"/>
<text text-anchor="start" x="1991.93" y="-31" font-family="Helvetica,sans-Serif" font-size="10.00">/Users/tgil/git/CoAction</text>
<text text-anchor="start" x="1991.93" y="-19" font-family="Helvetica,sans-Serif" font-size="10.00">OS/CoActionOS/src/sys</text>
<text text-anchor="middle" x="2045" y="-7" font-family="Helvetica,sans-Serif" font-size="10.00">/unistd/chown.c</text>
</a>
</g>
</g>
<!-- Node9&#45;&gt;Node23 -->
<g id="edge23" class="edge"><title>Node9&#45;&gt;Node23</title>
<path fill="none" stroke="midnightblue" d="M1346.17,-82.0214C1622.75,-33.0747 1702.35,-95.8387 1975,-46 1977.88,-45.4732 1980.81,-44.8634 1983.76,-44.1899"/>
<polygon fill="midnightblue" stroke="midnightblue" points="1345.46,-78.5915 1336.24,-83.8101 1346.71,-85.4805 1345.46,-78.5915"/>
</g>
<!-- Node24 -->
<g id="node24" class="node"><title>Node24</title>
<g id="a_node24"><a xlink:href="lstat_8c.html" target="_top" xlink:title="/Users/tgil/git/CoAction\lOS/CoActionOS/src/sys\l/unistd/lstat.c">
<polygon fill="none" stroke="black" points="2123.93,-1 2123.93,-45 2246.07,-45 2246.07,-1 2123.93,-1"/>
<text text-anchor="start" x="2131.93" y="-31" font-family="Helvetica,sans-Serif" font-size="10.00">/Users/tgil/git/CoAction</text>
<text text-anchor="start" x="2131.93" y="-19" font-family="Helvetica,sans-Serif" font-size="10.00">OS/CoActionOS/src/sys</text>
<text text-anchor="middle" x="2185" y="-7" font-family="Helvetica,sans-Serif" font-size="10.00">/unistd/lstat.c</text>
</a>
</g>
</g>
<!-- Node9&#45;&gt;Node24 -->
<g id="edge24" class="edge"><title>Node9&#45;&gt;Node24</title>
<path fill="none" stroke="midnightblue" d="M1346.31,-82.0088C1684.21,-23.7651 1780.97,-105.272 2115,-46 2117.88,-45.4881 2120.82,-44.8906 2123.76,-44.227"/>
<polygon fill="midnightblue" stroke="midnightblue" points="1345.48,-78.5994 1336.24,-83.773 1346.69,-85.4944 1345.48,-78.5994"/>
</g>
<!-- Node25 -->
<g id="node25" class="node"><title>Node25</title>
<g id="a_node25"><a xlink:href="mkdir_8c.html" target="_top" xlink:title="/Users/tgil/git/CoAction\lOS/CoActionOS/src/sys\l/unistd/mkdir.c">
<polygon fill="none" stroke="black" points="279.931,-1 279.931,-45 402.069,-45 402.069,-1 279.931,-1"/>
<text text-anchor="start" x="287.931" y="-31" font-family="Helvetica,sans-Serif" font-size="10.00">/Users/tgil/git/CoAction</text>
<text text-anchor="start" x="287.931" y="-19" font-family="Helvetica,sans-Serif" font-size="10.00">OS/CoActionOS/src/sys</text>
<text text-anchor="middle" x="341" y="-7" font-family="Helvetica,sans-Serif" font-size="10.00">/unistd/mkdir.c</text>
</a>
</g>
</g>
<!-- Node9&#45;&gt;Node25 -->
<g id="edge25" class="edge"><title>Node9&#45;&gt;Node25</title>
<path fill="none" stroke="midnightblue" d="M1204.06,-87.541C1192.72,-85.3714 1181.07,-83.4137 1170,-82 835.006,-39.2372 743.498,-105.115 411,-46 408.115,-45.4871 405.184,-44.8888 402.238,-44.2246"/>
<polygon fill="midnightblue" stroke="midnightblue" points="1203.44,-90.9855 1213.93,-89.4938 1204.8,-84.1188 1203.44,-90.9855"/>
</g>
<!-- Node26 -->
<g id="node26" class="node"><title>Node26</title>
<g id="a_node26"><a xlink:href="rmdir_8c.html" target="_top" xlink:title="/Users/tgil/git/CoAction\lOS/CoActionOS/src/sys\l/unistd/rmdir.c">
<polygon fill="none" stroke="black" points="419.931,-1 419.931,-45 542.069,-45 542.069,-1 419.931,-1"/>
<text text-anchor="start" x="427.931" y="-31" font-family="Helvetica,sans-Serif" font-size="10.00">/Users/tgil/git/CoAction</text>
<text text-anchor="start" x="427.931" y="-19" font-family="Helvetica,sans-Serif" font-size="10.00">OS/CoActionOS/src/sys</text>
<text text-anchor="middle" x="481" y="-7" font-family="Helvetica,sans-Serif" font-size="10.00">/unistd/rmdir.c</text>
</a>
</g>
</g>
<!-- Node9&#45;&gt;Node26 -->
<g id="edge26" class="edge"><title>Node9&#45;&gt;Node26</title>
<path fill="none" stroke="midnightblue" d="M1204.05,-87.6452C1192.71,-85.4621 1181.07,-83.4729 1170,-82 896.833,-45.6436 822.059,-95.6892 551,-46 548.118,-45.4717 545.189,-44.8608 542.244,-44.1863"/>
<polygon fill="midnightblue" stroke="midnightblue" points="1203.42,-91.0894 1213.91,-89.6055 1204.79,-84.2236 1203.42,-91.0894"/>
</g>
<!-- Node27 -->
<g id="node27" class="node"><title>Node27</title>
<g id="a_node27"><a xlink:href="unistd__data__transfer_8c.html" target="_top" xlink:title="/Users/tgil/git/CoAction\lOS/CoActionOS/src/sys\l/unistd/unistd_data_transfer.c">
<polygon fill="none" stroke="black" points="559.678,-1 559.678,-45 706.322,-45 706.322,-1 559.678,-1"/>
<text text-anchor="start" x="567.678" y="-31" font-family="Helvetica,sans-Serif" font-size="10.00">/Users/tgil/git/CoAction</text>
<text text-anchor="start" x="567.678" y="-19" font-family="Helvetica,sans-Serif" font-size="10.00">OS/CoActionOS/src/sys</text>
<text text-anchor="middle" x="633" y="-7" font-family="Helvetica,sans-Serif" font-size="10.00">/unistd/unistd_data_transfer.c</text>
</a>
</g>
</g>
<!-- Node9&#45;&gt;Node27 -->
<g id="edge27" class="edge"><title>Node9&#45;&gt;Node27</title>
<path fill="none" stroke="midnightblue" d="M1204.02,-87.8482C1192.68,-85.6388 1181.05,-83.5882 1170,-82 969.209,-53.1416 914.912,-80.4269 715,-46 712.24,-45.5247 709.438,-44.9988 706.616,-44.4324"/>
<polygon fill="midnightblue" stroke="midnightblue" points="1203.39,-91.2916 1213.88,-89.823 1204.76,-84.4278 1203.39,-91.2916"/>
</g>
<!-- Node28&#45;&gt;Node8 -->
<g id="edge29" class="edge"><title>Node28&#45;&gt;Node8</title>
<path fill="none" stroke="midnightblue" d="M1028.86,-82.6877C1027.57,-82.4448 1026.28,-82.2151 1025,-82 694.148,-26.3918 601.304,-104.779 271,-46 268.115,-45.4867 265.184,-44.888 262.238,-44.2235"/>
<polygon fill="midnightblue" stroke="midnightblue" points="1028.38,-86.1616 1038.88,-84.7863 1029.81,-79.3103 1028.38,-86.1616"/>
</g>
<!-- Node28&#45;&gt;Node10 -->
<g id="edge30" class="edge"><title>Node28&#45;&gt;Node10</title>
<path fill="none" stroke="midnightblue" d="M1028.8,-82.9718C1027.53,-82.6415 1026.26,-82.3173 1025,-82 950.113,-63.1169 929.703,-65.6005 855,-46 852.166,-45.2564 849.276,-44.4689 846.363,-43.6512"/>
<polygon fill="midnightblue" stroke="midnightblue" points="1028.15,-86.4185 1038.71,-85.606 1029.95,-79.6536 1028.15,-86.4185"/>
</g>
<!-- Node28&#45;&gt;Node11 -->
<g id="edge31" class="edge"><title>Node28&#45;&gt;Node11</title>
<path fill="none" stroke="midnightblue" d="M1044.78,-78.7559C1021.03,-67.8998 993.594,-55.3571 970.976,-45.0174"/>
<polygon fill="midnightblue" stroke="midnightblue" points="1043.47,-82.0065 1054.02,-82.9809 1046.38,-75.6401 1043.47,-82.0065"/>
</g>
<!-- Node28&#45;&gt;Node12 -->
<g id="edge32" class="edge"><title>Node28&#45;&gt;Node12</title>
<path fill="none" stroke="midnightblue" d="M1086.78,-73.7928C1082.61,-64.2535 1078.09,-53.9225 1074.26,-45.1564"/>
<polygon fill="midnightblue" stroke="midnightblue" points="1083.59,-75.2222 1090.8,-82.9809 1090,-72.4165 1083.59,-75.2222"/>
</g>
<!-- Node28&#45;&gt;Node13 -->
<g id="edge33" class="edge"><title>Node28&#45;&gt;Node13</title>
<path fill="none" stroke="midnightblue" d="M1135.77,-76.7454C1149.32,-66.4228 1164.53,-54.8356 1177.23,-45.1564"/>
<polygon fill="midnightblue" stroke="midnightblue" points="1133.42,-74.1365 1127.59,-82.9809 1137.66,-79.7045 1133.42,-74.1365"/>
</g>
<!-- Node28&#45;&gt;Node14 -->
<g id="edge34" class="edge"><title>Node28&#45;&gt;Node14</title>
<path fill="none" stroke="midnightblue" d="M1171.05,-80.7989C1206.73,-69.1488 1249.53,-55.1753 1283.74,-44.0036"/>
<polygon fill="midnightblue" stroke="midnightblue" points="1169.61,-77.5878 1161.19,-84.019 1171.78,-84.242 1169.61,-77.5878"/>
</g>
<!-- Node28&#45;&gt;Node15 -->
<g id="edge35" class="edge"><title>Node28&#45;&gt;Node15</title>
<path fill="none" stroke="midnightblue" d="M1171.13,-88.728C1182.45,-86.4047 1194.03,-84.0882 1205,-82 1298.02,-64.2874 1322.96,-68.2465 1415,-46 1417.85,-45.3117 1420.75,-44.5695 1423.67,-43.7886"/>
<polygon fill="midnightblue" stroke="midnightblue" points="1170.36,-85.3129 1161.28,-90.766 1171.78,-92.1678 1170.36,-85.3129"/>
</g>
<!-- Node28&#45;&gt;Node16 -->
<g id="edge36" class="edge"><title>Node28&#45;&gt;Node16</title>
<path fill="none" stroke="midnightblue" d="M1171.02,-88.0769C1182.35,-85.8379 1193.97,-83.7182 1205,-82 1359.51,-57.9333 1401.85,-77.604 1555,-46 1557.87,-45.4079 1560.79,-44.7445 1563.72,-44.0276"/>
<polygon fill="midnightblue" stroke="midnightblue" points="1170.26,-84.6579 1161.16,-90.0681 1171.65,-91.5194 1170.26,-84.6579"/>
</g>
<!-- Node28&#45;&gt;Node19 -->
<g id="edge37" class="edge"><title>Node28&#45;&gt;Node19</title>
<path fill="none" stroke="midnightblue" d="M1170.97,-87.7936C1182.31,-85.5913 1193.95,-83.5572 1205,-82 1421.23,-51.5424 1480.52,-87.0094 1695,-46 1697.88,-45.4498 1700.8,-44.8208 1703.75,-44.1317"/>
<polygon fill="midnightblue" stroke="midnightblue" points="1170.23,-84.3729 1161.11,-89.7645 1171.6,-91.2372 1170.23,-84.3729"/>
</g>
<!-- Node28&#45;&gt;Node21 -->
<g id="edge38" class="edge"><title>Node28&#45;&gt;Node21</title>
<path fill="none" stroke="midnightblue" d="M1170.95,-87.6354C1182.29,-85.4536 1193.93,-83.4673 1205,-82 1483.02,-45.1404 1559.11,-96.4296 1835,-46 1837.88,-45.4732 1840.81,-44.8634 1843.76,-44.1899"/>
<polygon fill="midnightblue" stroke="midnightblue" points="1170.21,-84.2137 1161.09,-89.5949 1171.58,-91.0795 1170.21,-84.2137"/>
</g>
<!-- Node28&#45;&gt;Node25 -->
<g id="edge40" class="edge"><title>Node28&#45;&gt;Node25</title>
<path fill="none" stroke="midnightblue" d="M1028.86,-82.707C1027.57,-82.4581 1026.28,-82.222 1025,-82 755.674,-35.2282 679.866,-95.3526 411,-46 408.118,-45.471 405.189,-44.8595 402.245,-44.1846"/>
<polygon fill="midnightblue" stroke="midnightblue" points="1028.36,-86.1795 1038.87,-84.842 1029.82,-79.3334 1028.36,-86.1795"/>
</g>
<!-- Node28&#45;&gt;Node26 -->
<g id="edge41" class="edge"><title>Node28&#45;&gt;Node26</title>
<path fill="none" stroke="midnightblue" d="M1028.85,-82.7376C1027.56,-82.4793 1026.28,-82.233 1025,-82 817.161,-44.058 758.465,-85.9335 551,-46 548.123,-45.4462 545.198,-44.8143 542.256,-44.1229"/>
<polygon fill="midnightblue" stroke="midnightblue" points="1028.34,-86.2076 1038.86,-84.9303 1029.84,-79.37 1028.34,-86.2076"/>
</g>
<!-- Node28&#45;&gt;Node27 -->
<g id="edge42" class="edge"><title>Node28&#45;&gt;Node27</title>
<path fill="none" stroke="midnightblue" d="M1028.84,-82.8081C1027.55,-82.5282 1026.27,-82.2584 1025,-82 889.074,-54.3799 851.237,-72.0409 715,-46 712.249,-45.4742 709.455,-44.9053 706.639,-44.3025"/>
<polygon fill="midnightblue" stroke="midnightblue" points="1028.28,-86.272 1038.82,-85.1338 1029.87,-79.4548 1028.28,-86.272"/>
</g>
<!-- Node29 -->
<g id="node29" class="node"><title>Node29</title>
<g id="a_node29"><a xlink:href="ioctl_8c.html" target="_top" xlink:title="/Users/tgil/git/CoAction\lOS/CoActionOS/src/sys\l/unistd/ioctl.c">
<polygon fill="none" stroke="black" points="-0.0688477,-1 -0.0688477,-45 122.069,-45 122.069,-1 -0.0688477,-1"/>
<text text-anchor="start" x="7.93115" y="-31" font-family="Helvetica,sans-Serif" font-size="10.00">/Users/tgil/git/CoAction</text>
<text text-anchor="start" x="7.93115" y="-19" font-family="Helvetica,sans-Serif" font-size="10.00">OS/CoActionOS/src/sys</text>
<text text-anchor="middle" x="61" y="-7" font-family="Helvetica,sans-Serif" font-size="10.00">/unistd/ioctl.c</text>
</a>
</g>
</g>
<!-- Node28&#45;&gt;Node29 -->
<g id="edge39" class="edge"><title>Node28&#45;&gt;Node29</title>
<path fill="none" stroke="midnightblue" d="M1028.74,-87.8181C1016.54,-85.5259 1003.95,-83.457 992,-82 611.816,-35.6289 508.274,-111.985 131,-46 128.114,-45.4952 125.181,-44.9036 122.234,-44.2447"/>
<polygon fill="midnightblue" stroke="midnightblue" points="1028.4,-91.3159 1038.88,-89.7875 1029.73,-84.4444 1028.4,-91.3159"/>
</g>
<!-- Node33 -->
<g id="node33" class="node"><title>Node33</title>
<g id="a_node33"><a xlink:href="pthread__kill_8c.html" target="_top" xlink:title="/Users/tgil/git/CoAction\lOS/CoActionOS/src/sys\l/signal/pthread_kill.c">
<polygon fill="none" stroke="black" points="860.931,-83 860.931,-127 983.069,-127 983.069,-83 860.931,-83"/>
<text text-anchor="start" x="868.931" y="-113" font-family="Helvetica,sans-Serif" font-size="10.00">/Users/tgil/git/CoAction</text>
<text text-anchor="start" x="868.931" y="-101" font-family="Helvetica,sans-Serif" font-size="10.00">OS/CoActionOS/src/sys</text>
<text text-anchor="middle" x="922" y="-89" font-family="Helvetica,sans-Serif" font-size="10.00">/signal/pthread_kill.c</text>
</a>
</g>
</g>
<!-- Node32&#45;&gt;Node33 -->
<g id="edge46" class="edge"><title>Node32&#45;&gt;Node33</title>
<path fill="none" stroke="midnightblue" d="M1055.48,-161.044C1029,-150.122 998.263,-137.449 972.967,-127.017"/>
<polygon fill="midnightblue" stroke="midnightblue" points="1054.45,-164.404 1065.03,-164.981 1057.12,-157.933 1054.45,-164.404"/>
</g>
<!-- Node39&#45;&gt;Node40 -->
<g id="edge53" class="edge"><title>Node39&#45;&gt;Node40</title>
<path fill="none" stroke="midnightblue" d="M374,-236.896C374,-227.609 374,-217.649 374,-209.156"/>
<polygon fill="midnightblue" stroke="midnightblue" points="370.5,-236.981 374,-246.981 377.5,-236.981 370.5,-236.981"/>
</g>
<!-- Node40&#45;&gt;Node35 -->
<g id="edge54" class="edge"><title>Node40&#45;&gt;Node35</title>
<path fill="none" stroke="midnightblue" d="M442.06,-161.474C472.635,-150.456 508.349,-137.586 537.677,-127.017"/>
<polygon fill="midnightblue" stroke="midnightblue" points="440.549,-158.298 432.328,-164.981 442.922,-164.883 440.549,-158.298"/>
</g>
</g>
</svg>
