<?xml version="1.0" encoding="UTF-8" standalone="no"?>
<!DOCTYPE svg PUBLIC "-//W3C//DTD SVG 1.1//EN"
 "http://www.w3.org/Graphics/SVG/1.1/DTD/svg11.dtd">
<!-- Generated by graphviz version 2.34.0 (20130907.0228)
 -->
<!-- Title: /Users/tgil/git/CoActionOS/CoActionOS/src/sys/signal/pthread_kill.c Pages: 1 -->
<svg width="938pt" height="286pt"
 viewBox="0.00 0.00 938.00 286.00" xmlns="http://www.w3.org/2000/svg" xmlns:xlink="http://www.w3.org/1999/xlink">
<g id="graph0" class="graph" transform="scale(1 1) rotate(0) translate(4 282)">
<title>/Users/tgil/git/CoActionOS/CoActionOS/src/sys/signal/pthread_kill.c</title>
<!-- Node1 -->
<g id="node1" class="node"><title>Node1</title>
<polygon fill="#bfbfbf" stroke="black" points="442.931,-233 442.931,-277 565.069,-277 565.069,-233 442.931,-233"/>
<text text-anchor="start" x="450.931" y="-263" font-family="Helvetica,sans-Serif" font-size="10.00">/Users/tgil/git/CoAction</text>
<text text-anchor="start" x="450.931" y="-251" font-family="Helvetica,sans-Serif" font-size="10.00">OS/CoActionOS/src/sys</text>
<text text-anchor="middle" x="504" y="-239" font-family="Helvetica,sans-Serif" font-size="10.00">/signal/pthread_kill.c</text>
</g>
<!-- Node2 -->
<g id="node2" class="node"><title>Node2</title>
<g id="a_node2"><a xlink:href="config_8h.html" target="_top" xlink:title="config.h">
<polygon fill="none" stroke="black" points="174.488,-175 174.488,-195 225.512,-195 225.512,-175 174.488,-175"/>
<text text-anchor="middle" x="200" y="-181" font-family="Helvetica,sans-Serif" font-size="10.00">config.h</text>
</a>
</g>
</g>
<!-- Node1&#45;&gt;Node2 -->
<g id="edge1" class="edge"><title>Node1&#45;&gt;Node2</title>
<path fill="none" stroke="midnightblue" d="M442.806,-241.077C389.227,-229.637 309.326,-212.277 240,-196 238.563,-195.663 237.097,-195.315 235.618,-194.96"/>
<polygon fill="midnightblue" stroke="midnightblue" points="236.339,-191.533 225.794,-192.564 234.68,-198.334 236.339,-191.533"/>
</g>
<!-- Node3 -->
<g id="node3" class="node"><title>Node3</title>
<g id="a_node3"><a xlink:href="hwpl_8h.html" target="_top" xlink:title="HWPL Header file (includes all other header files) ">
<polygon fill="none" stroke="black" points="220.547,-117 220.547,-137 265.453,-137 265.453,-117 220.547,-117"/>
<text text-anchor="middle" x="243" y="-123" font-family="Helvetica,sans-Serif" font-size="10.00">hwpl.h</text>
</a>
</g>
</g>
<!-- Node1&#45;&gt;Node3 -->
<g id="edge2" class="edge"><title>Node1&#45;&gt;Node3</title>
<path fill="none" stroke="midnightblue" d="M442.878,-253.009C392.045,-249.114 320.57,-236.121 273,-196 258.237,-183.549 250.482,-162.413 246.586,-147.004"/>
<polygon fill="midnightblue" stroke="midnightblue" points="249.953,-146.017 244.387,-137.002 243.116,-147.52 249.953,-146.017"/>
</g>
<!-- Node12 -->
<g id="node12" class="node"><title>Node12</title>
<polygon fill="none" stroke="#bfbfbf" points="426.988,-175 426.988,-195 493.012,-195 493.012,-175 426.988,-175"/>
<text text-anchor="middle" x="460" y="-181" font-family="Helvetica,sans-Serif" font-size="10.00">hwpl/task.h</text>
</g>
<!-- Node1&#45;&gt;Node12 -->
<g id="edge13" class="edge"><title>Node1&#45;&gt;Node12</title>
<path fill="none" stroke="midnightblue" d="M490.319,-232.857C484.253,-223.482 477.197,-212.577 471.419,-203.648"/>
<polygon fill="midnightblue" stroke="midnightblue" points="474.327,-201.698 465.955,-195.204 468.45,-205.501 474.327,-201.698"/>
</g>
<!-- Node13 -->
<g id="node13" class="node"><title>Node13</title>
<polygon fill="none" stroke="#bfbfbf" points="511.254,-175 511.254,-195 586.746,-195 586.746,-175 511.254,-175"/>
<text text-anchor="middle" x="549" y="-181" font-family="Helvetica,sans-Serif" font-size="10.00">hwpl/debug.h</text>
</g>
<!-- Node1&#45;&gt;Node13 -->
<g id="edge14" class="edge"><title>Node1&#45;&gt;Node13</title>
<path fill="none" stroke="midnightblue" d="M517.992,-232.857C524.196,-223.482 531.412,-212.577 537.321,-203.648"/>
<polygon fill="midnightblue" stroke="midnightblue" points="540.309,-205.475 542.909,-195.204 534.472,-201.612 540.309,-205.475"/>
</g>
<!-- Node14 -->
<g id="node14" class="node"><title>Node14</title>
<g id="a_node14"><a xlink:href="caos_8h.html" target="_top" xlink:title="caos.h">
<polygon fill="none" stroke="black" points="282.269,-175 282.269,-195 327.731,-195 327.731,-175 282.269,-175"/>
<text text-anchor="middle" x="305" y="-181" font-family="Helvetica,sans-Serif" font-size="10.00">caos.h</text>
</a>
</g>
</g>
<!-- Node1&#45;&gt;Node14 -->
<g id="edge15" class="edge"><title>Node1&#45;&gt;Node14</title>
<path fill="none" stroke="midnightblue" d="M442.67,-233.043C408.088,-221.226 366.256,-206.932 337.846,-197.224"/>
<polygon fill="midnightblue" stroke="midnightblue" points="338.62,-193.79 328.025,-193.868 336.356,-200.413 338.62,-193.79"/>
</g>
<!-- Node20 -->
<g id="node20" class="node"><title>Node20</title>
<polygon fill="none" stroke="#bfbfbf" points="604.872,-175 604.872,-195 663.128,-195 663.128,-175 604.872,-175"/>
<text text-anchor="middle" x="634" y="-181" font-family="Helvetica,sans-Serif" font-size="10.00">pthread.h</text>
</g>
<!-- Node1&#45;&gt;Node20 -->
<g id="edge31" class="edge"><title>Node1&#45;&gt;Node20</title>
<path fill="none" stroke="midnightblue" d="M544.42,-232.857C565.112,-222.034 589.7,-209.172 607.877,-199.664"/>
<polygon fill="midnightblue" stroke="midnightblue" points="609.505,-202.763 616.743,-195.027 606.26,-196.56 609.505,-202.763"/>
</g>
<!-- Node21 -->
<g id="node21" class="node"><title>Node21</title>
<polygon fill="none" stroke="#bfbfbf" points="680.766,-175 680.766,-195 731.234,-195 731.234,-175 680.766,-175"/>
<text text-anchor="middle" x="706" y="-181" font-family="Helvetica,sans-Serif" font-size="10.00">signal.h</text>
</g>
<!-- Node1&#45;&gt;Node21 -->
<g id="edge32" class="edge"><title>Node1&#45;&gt;Node21</title>
<path fill="none" stroke="midnightblue" d="M565.155,-233.413C599.745,-221.769 641.76,-207.625 670.853,-197.832"/>
<polygon fill="midnightblue" stroke="midnightblue" points="672.21,-201.068 680.571,-194.56 669.977,-194.434 672.21,-201.068"/>
</g>
<!-- Node22 -->
<g id="node22" class="node"><title>Node22</title>
<polygon fill="none" stroke="#bfbfbf" points="749.158,-175 749.158,-195 796.842,-195 796.842,-175 749.158,-175"/>
<text text-anchor="middle" x="773" y="-181" font-family="Helvetica,sans-Serif" font-size="10.00">errno.h</text>
</g>
<!-- Node1&#45;&gt;Node22 -->
<g id="edge33" class="edge"><title>Node1&#45;&gt;Node22</title>
<path fill="none" stroke="midnightblue" d="M565.354,-239.867C610.791,-229.184 674.419,-213.772 738.95,-196.191"/>
<polygon fill="midnightblue" stroke="midnightblue" points="740.173,-199.485 748.892,-193.467 738.323,-192.734 740.173,-199.485"/>
</g>
<!-- Node23 -->
<g id="node23" class="node"><title>Node23</title>
<polygon fill="none" stroke="#bfbfbf" points="815.247,-175 815.247,-195 930.753,-195 930.753,-175 815.247,-175"/>
<text text-anchor="middle" x="873" y="-181" font-family="Helvetica,sans-Serif" font-size="10.00">../sched/sched_flags.h</text>
</g>
<!-- Node1&#45;&gt;Node23 -->
<g id="edge34" class="edge"><title>Node1&#45;&gt;Node23</title>
<path fill="none" stroke="midnightblue" d="M565.347,-242.695C634.352,-229.979 745.654,-209.467 813.777,-196.914"/>
<polygon fill="midnightblue" stroke="midnightblue" points="814.715,-200.3 823.915,-195.046 813.446,-193.416 814.715,-200.3"/>
</g>
<!-- Node24 -->
<g id="node24" class="node"><title>Node24</title>
<g id="a_node24"><a xlink:href="sig__local_8h_source.html" target="_top" xlink:title="sig_local.h">
<polygon fill="none" stroke="black" points="345.375,-175 345.375,-195 408.625,-195 408.625,-175 345.375,-175"/>
<text text-anchor="middle" x="377" y="-181" font-family="Helvetica,sans-Serif" font-size="10.00">sig_local.h</text>
</a>
</g>
</g>
<!-- Node1&#45;&gt;Node24 -->
<g id="edge35" class="edge"><title>Node1&#45;&gt;Node24</title>
<path fill="none" stroke="midnightblue" d="M464.513,-232.857C444.484,-222.133 420.718,-209.408 403.01,-199.927"/>
<polygon fill="midnightblue" stroke="midnightblue" points="404.326,-196.661 393.858,-195.027 401.022,-202.832 404.326,-196.661"/>
</g>
<!-- Node4 -->
<g id="node4" class="node"><title>Node4</title>
<polygon fill="none" stroke="#bfbfbf" points="430.879,-1 430.879,-21 479.121,-21 479.121,-1 430.879,-1"/>
<text text-anchor="middle" x="455" y="-7" font-family="Helvetica,sans-Serif" font-size="10.00">stdint.h</text>
</g>
<!-- Node3&#45;&gt;Node4 -->
<g id="edge3" class="edge"><title>Node3&#45;&gt;Node4</title>
<path fill="none" stroke="midnightblue" d="M245.497,-116.967C250.036,-102.283 261.06,-73.3348 281,-58 329.865,-20.4193 357.078,-37.5639 420.846,-22.0794"/>
<polygon fill="midnightblue" stroke="midnightblue" points="421.738,-25.4641 430.527,-19.5477 419.967,-18.6918 421.738,-25.4641"/>
</g>
<!-- Node5 -->
<g id="node5" class="node"><title>Node5</title>
<polygon fill="none" stroke="#bfbfbf" points="290.158,-59 290.158,-79 337.842,-79 337.842,-59 290.158,-59"/>
<text text-anchor="middle" x="314" y="-65" font-family="Helvetica,sans-Serif" font-size="10.00">stdlib.h</text>
</g>
<!-- Node3&#45;&gt;Node5 -->
<g id="edge4" class="edge"><title>Node3&#45;&gt;Node5</title>
<path fill="none" stroke="midnightblue" d="M254.724,-116.753C265.477,-108.272 281.615,-95.543 294.339,-85.5073"/>
<polygon fill="midnightblue" stroke="midnightblue" points="296.81,-88.0162 302.494,-79.0752 292.475,-82.52 296.81,-88.0162"/>
</g>
<!-- Node6 -->
<g id="node6" class="node"><title>Node6</title>
<polygon fill="none" stroke="#bfbfbf" points="-0.396484,-59 -0.396484,-79 48.3965,-79 48.3965,-59 -0.396484,-59"/>
<text text-anchor="middle" x="24" y="-65" font-family="Helvetica,sans-Serif" font-size="10.00">string.h</text>
</g>
<!-- Node3&#45;&gt;Node6 -->
<g id="edge5" class="edge"><title>Node3&#45;&gt;Node6</title>
<path fill="none" stroke="midnightblue" d="M220.283,-120.782C186.856,-113.019 122.25,-97.6894 58.3056,-80.2672"/>
<polygon fill="midnightblue" stroke="midnightblue" points="59.0371,-76.8386 48.4674,-77.5683 57.1852,-83.5892 59.0371,-76.8386"/>
</g>
<!-- Node7 -->
<g id="node7" class="node"><title>Node7</title>
<polygon fill="none" stroke="#bfbfbf" points="66.2686,-59 66.2686,-79 111.731,-79 111.731,-59 66.2686,-59"/>
<text text-anchor="middle" x="89" y="-65" font-family="Helvetica,sans-Serif" font-size="10.00">stdio.h</text>
</g>
<!-- Node3&#45;&gt;Node7 -->
<g id="edge6" class="edge"><title>Node3&#45;&gt;Node7</title>
<path fill="none" stroke="midnightblue" d="M220.277,-117.737C194.118,-108.225 150.954,-92.5286 121.308,-81.7483"/>
<polygon fill="midnightblue" stroke="midnightblue" points="122.411,-78.4251 111.816,-78.2969 120.018,-85.0037 122.411,-78.4251"/>
</g>
<!-- Node8 -->
<g id="node8" class="node"><title>Node8</title>
<polygon fill="none" stroke="#bfbfbf" points="356.707,-1 356.707,-21 413.293,-21 413.293,-1 356.707,-1"/>
<text text-anchor="middle" x="385" y="-7" font-family="Helvetica,sans-Serif" font-size="10.00">stdbool.h</text>
</g>
<!-- Node3&#45;&gt;Node8 -->
<g id="edge7" class="edge"><title>Node3&#45;&gt;Node8</title>
<path fill="none" stroke="midnightblue" d="M240.795,-116.972C237.904,-102.807 234.644,-75.205 248,-58 271.153,-28.1752 314.427,-17.5193 346.166,-13.8019"/>
<polygon fill="midnightblue" stroke="midnightblue" points="346.832,-17.2532 356.441,-12.7895 346.146,-10.287 346.832,-17.2532"/>
</g>
<!-- Node9 -->
<g id="node9" class="node"><title>Node9</title>
<polygon fill="none" stroke="#bfbfbf" points="129.707,-59 129.707,-79 196.293,-79 196.293,-59 129.707,-59"/>
<text text-anchor="middle" x="163" y="-65" font-family="Helvetica,sans-Serif" font-size="10.00">hwpl/fault.h</text>
</g>
<!-- Node3&#45;&gt;Node9 -->
<g id="edge8" class="edge"><title>Node3&#45;&gt;Node9</title>
<path fill="none" stroke="midnightblue" d="M229.79,-116.753C217.441,-108.109 198.788,-95.0518 184.331,-84.9314"/>
<polygon fill="midnightblue" stroke="midnightblue" points="186.164,-81.9425 175.965,-79.0752 182.15,-87.6772 186.164,-81.9425"/>
</g>
<!-- Node10 -->
<g id="node10" class="node"><title>Node10</title>
<polygon fill="none" stroke="#bfbfbf" points="557.431,-1 557.431,-21 624.569,-21 624.569,-1 557.431,-1"/>
<text text-anchor="middle" x="591" y="-7" font-family="Helvetica,sans-Serif" font-size="10.00">hwpl/arch.h</text>
</g>
<!-- Node3&#45;&gt;Node10 -->
<g id="edge9" class="edge"><title>Node3&#45;&gt;Node10</title>
<path fill="none" stroke="midnightblue" d="M265.555,-118.2C268.378,-117.379 271.241,-116.62 274,-116 394.264,-88.9669 445.479,-146.915 549,-80 566.611,-68.6163 578.066,-46.9755 584.496,-31.1549"/>
<polygon fill="midnightblue" stroke="midnightblue" points="587.945,-31.9223 588.158,-21.3296 581.386,-29.4773 587.945,-31.9223"/>
</g>
<!-- Node11 -->
<g id="node11" class="node"><title>Node11</title>
<g id="a_node11"><a xlink:href="types_8h_source.html" target="_top" xlink:title="hwpl/types.h">
<polygon fill="none" stroke="black" points="356.207,-59 356.207,-79 427.793,-79 427.793,-59 356.207,-59"/>
<text text-anchor="middle" x="392" y="-65" font-family="Helvetica,sans-Serif" font-size="10.00">hwpl/types.h</text>
</a>
</g>
</g>
<!-- Node3&#45;&gt;Node11 -->
<g id="edge10" class="edge"><title>Node3&#45;&gt;Node11</title>
<path fill="none" stroke="midnightblue" d="M265.63,-117.495C290.245,-108.244 329.856,-93.356 358.169,-82.715"/>
<polygon fill="midnightblue" stroke="midnightblue" points="359.54,-85.9389 367.669,-79.1445 357.077,-79.3864 359.54,-85.9389"/>
</g>
<!-- Node11&#45;&gt;Node4 -->
<g id="edge11" class="edge"><title>Node11&#45;&gt;Node4</title>
<path fill="none" stroke="midnightblue" d="M402.403,-58.7527C411.852,-50.3534 425.989,-37.7874 437.228,-27.7976"/>
<polygon fill="midnightblue" stroke="midnightblue" points="439.642,-30.3348 444.79,-21.0752 434.991,-25.1029 439.642,-30.3348"/>
</g>
<!-- Node11&#45;&gt;Node8 -->
<g id="edge12" class="edge"><title>Node11&#45;&gt;Node8</title>
<path fill="none" stroke="midnightblue" d="M390.844,-58.7527C389.906,-51.2504 388.553,-40.4238 387.385,-31.0781"/>
<polygon fill="midnightblue" stroke="midnightblue" points="390.848,-30.5638 386.134,-21.0752 383.902,-31.4321 390.848,-30.5638"/>
</g>
<!-- Node14&#45;&gt;Node3 -->
<g id="edge20" class="edge"><title>Node14&#45;&gt;Node3</title>
<path fill="none" stroke="midnightblue" d="M294.762,-174.753C285.463,-166.353 271.55,-153.787 260.49,-143.798"/>
<polygon fill="midnightblue" stroke="midnightblue" points="262.815,-141.181 253.048,-137.075 258.123,-146.375 262.815,-141.181"/>
</g>
<!-- Node14&#45;&gt;Node5 -->
<g id="edge18" class="edge"><title>Node14&#45;&gt;Node5</title>
<path fill="none" stroke="midnightblue" d="M313.217,-174.953C320.549,-166.22 330.762,-152.257 335,-138 340.043,-121.036 332.869,-101.768 325.57,-88.0841"/>
<polygon fill="midnightblue" stroke="midnightblue" points="328.464,-86.099 320.406,-79.2202 322.416,-89.6227 328.464,-86.099"/>
</g>
<!-- Node14&#45;&gt;Node6 -->
<g id="edge17" class="edge"><title>Node14&#45;&gt;Node6</title>
<path fill="none" stroke="midnightblue" d="M281.916,-177.157C254.442,-168.805 207.336,-153.828 168,-138 126.06,-121.124 78.9481,-98.064 50.3816,-83.6048"/>
<polygon fill="midnightblue" stroke="midnightblue" points="51.9386,-80.4701 41.439,-79.0523 48.7628,-86.7082 51.9386,-80.4701"/>
</g>
<!-- Node14&#45;&gt;Node7 -->
<g id="edge16" class="edge"><title>Node14&#45;&gt;Node7</title>
<path fill="none" stroke="midnightblue" d="M285.992,-174.912C267.105,-165.809 237.375,-151.281 212,-138 177.495,-119.941 138.204,-97.9674 113.507,-83.9807"/>
<polygon fill="midnightblue" stroke="midnightblue" points="115.221,-80.9292 104.796,-79.0361 111.765,-87.0167 115.221,-80.9292"/>
</g>
<!-- Node15 -->
<g id="node15" class="node"><title>Node15</title>
<polygon fill="none" stroke="#bfbfbf" points="283.384,-117 283.384,-137 326.616,-137 326.616,-117 283.384,-117"/>
<text text-anchor="middle" x="305" y="-123" font-family="Helvetica,sans-Serif" font-size="10.00">time.h</text>
</g>
<!-- Node14&#45;&gt;Node15 -->
<g id="edge19" class="edge"><title>Node14&#45;&gt;Node15</title>
<path fill="none" stroke="midnightblue" d="M305,-174.753C305,-167.25 305,-156.424 305,-147.078"/>
<polygon fill="midnightblue" stroke="midnightblue" points="308.5,-147.075 305,-137.075 301.5,-147.075 308.5,-147.075"/>
</g>
<!-- Node16 -->
<g id="node16" class="node"><title>Node16</title>
<g id="a_node16"><a xlink:href="device_8h_source.html" target="_top" xlink:title="device.h">
<polygon fill="none" stroke="black" points="457.377,-117 457.377,-137 510.623,-137 510.623,-117 457.377,-117"/>
<text text-anchor="middle" x="484" y="-123" font-family="Helvetica,sans-Serif" font-size="10.00">device.h</text>
</a>
</g>
</g>
<!-- Node14&#45;&gt;Node16 -->
<g id="edge21" class="edge"><title>Node14&#45;&gt;Node16</title>
<path fill="none" stroke="midnightblue" d="M328.014,-176.546C330.705,-175.683 333.412,-174.82 336,-174 374.026,-161.958 417.64,-148.437 447.62,-139.189"/>
<polygon fill="midnightblue" stroke="midnightblue" points="448.711,-142.515 457.236,-136.224 446.649,-135.825 448.711,-142.515"/>
</g>
<!-- Node16&#45;&gt;Node8 -->
<g id="edge23" class="edge"><title>Node16&#45;&gt;Node8</title>
<path fill="none" stroke="midnightblue" d="M478.385,-116.723C469.981,-103.17 453.264,-77.4556 436,-58 426.355,-47.1303 414.334,-36.1845 404.386,-27.6985"/>
<polygon fill="midnightblue" stroke="midnightblue" points="406.533,-24.9311 396.615,-21.2046 402.044,-30.3026 406.533,-24.9311"/>
</g>
<!-- Node16&#45;&gt;Node10 -->
<g id="edge25" class="edge"><title>Node16&#45;&gt;Node10</title>
<path fill="none" stroke="midnightblue" d="M510.906,-123.077C556.177,-117.542 644.468,-103.897 663,-80 679.329,-58.9448 649.504,-38.4627 623.42,-25.5755"/>
<polygon fill="midnightblue" stroke="midnightblue" points="624.612,-22.2681 614.072,-21.1842 621.635,-28.6039 624.612,-22.2681"/>
</g>
<!-- Node16&#45;&gt;Node11 -->
<g id="edge24" class="edge"><title>Node16&#45;&gt;Node11</title>
<path fill="none" stroke="midnightblue" d="M468.808,-116.753C454.339,-107.946 432.345,-94.5575 415.594,-84.3617"/>
<polygon fill="midnightblue" stroke="midnightblue" points="417.271,-81.285 406.909,-79.0752 413.631,-87.2644 417.271,-81.285"/>
</g>
<!-- Node17 -->
<g id="node17" class="node"><title>Node17</title>
<polygon fill="none" stroke="#bfbfbf" points="595.882,-59 595.882,-79 654.118,-79 654.118,-59 595.882,-59"/>
<text text-anchor="middle" x="625" y="-65" font-family="Helvetica,sans-Serif" font-size="10.00">sys/stat.h</text>
</g>
<!-- Node16&#45;&gt;Node17 -->
<g id="edge22" class="edge"><title>Node16&#45;&gt;Node17</title>
<path fill="none" stroke="midnightblue" d="M506.968,-116.878C530.218,-107.644 566.377,-93.283 592.548,-82.8887"/>
<polygon fill="midnightblue" stroke="midnightblue" points="594.04,-86.0622 602.042,-79.1181 591.456,-79.5565 594.04,-86.0622"/>
</g>
<!-- Node18 -->
<g id="node18" class="node"><title>Node18</title>
<g id="a_node18"><a xlink:href="pio_8h.html" target="_top" xlink:title="General Purpose Input/Output Header File. ">
<polygon fill="none" stroke="black" points="483.707,-59 483.707,-79 540.293,-79 540.293,-59 483.707,-59"/>
<text text-anchor="middle" x="512" y="-65" font-family="Helvetica,sans-Serif" font-size="10.00">dev/pio.h</text>
</a>
</g>
</g>
<!-- Node16&#45;&gt;Node18 -->
<g id="edge26" class="edge"><title>Node16&#45;&gt;Node18</title>
<path fill="none" stroke="midnightblue" d="M488.624,-116.753C492.497,-109.006 498.143,-97.7142 502.916,-88.1688"/>
<polygon fill="midnightblue" stroke="midnightblue" points="506.121,-89.5847 507.462,-79.0752 499.86,-86.4542 506.121,-89.5847"/>
</g>
<!-- Node18&#45;&gt;Node4 -->
<g id="edge28" class="edge"><title>Node18&#45;&gt;Node4</title>
<path fill="none" stroke="midnightblue" d="M502.588,-58.7527C494.121,-50.4349 481.496,-38.031 471.377,-28.0893"/>
<polygon fill="midnightblue" stroke="midnightblue" points="473.824,-25.5868 464.237,-21.0752 468.918,-30.5801 473.824,-25.5868"/>
</g>
<!-- Node18&#45;&gt;Node8 -->
<g id="edge27" class="edge"><title>Node18&#45;&gt;Node8</title>
<path fill="none" stroke="midnightblue" d="M491.313,-58.878C470.556,-49.7255 438.376,-35.5357 414.855,-25.1643"/>
<polygon fill="midnightblue" stroke="midnightblue" points="416.241,-21.9503 405.679,-21.1181 413.416,-28.3553 416.241,-21.9503"/>
</g>
<!-- Node18&#45;&gt;Node10 -->
<g id="edge30" class="edge"><title>Node18&#45;&gt;Node10</title>
<path fill="none" stroke="midnightblue" d="M525.045,-58.7527C537.239,-50.1087 555.659,-37.0518 569.936,-26.9314"/>
<polygon fill="midnightblue" stroke="midnightblue" points="572.063,-29.7137 578.197,-21.0752 568.015,-24.0029 572.063,-29.7137"/>
</g>
<!-- Node19 -->
<g id="node19" class="node"><title>Node19</title>
<g id="a_node19"><a xlink:href="ioctl_8h_source.html" target="_top" xlink:title="ioctl.h">
<polygon fill="none" stroke="black" points="496.938,-1 496.938,-21 539.062,-21 539.062,-1 496.938,-1"/>
<text text-anchor="middle" x="518" y="-7" font-family="Helvetica,sans-Serif" font-size="10.00">ioctl.h</text>
</a>
</g>
</g>
<!-- Node18&#45;&gt;Node19 -->
<g id="edge29" class="edge"><title>Node18&#45;&gt;Node19</title>
<path fill="none" stroke="midnightblue" d="M512.991,-58.7527C513.795,-51.2504 514.955,-40.4238 515.956,-31.0781"/>
<polygon fill="midnightblue" stroke="midnightblue" points="519.442,-31.3912 517.028,-21.0752 512.482,-30.6454 519.442,-31.3912"/>
</g>
<!-- Node24&#45;&gt;Node4 -->
<g id="edge36" class="edge"><title>Node24&#45;&gt;Node4</title>
<path fill="none" stroke="midnightblue" d="M408.078,-174.944C479.051,-153.952 648.087,-102.084 663,-80 725.772,12.9552 760.1,-88.8256 489.204,-22.1217"/>
<polygon fill="midnightblue" stroke="midnightblue" points="489.989,-18.7102 479.439,-19.6772 488.289,-25.5007 489.989,-18.7102"/>
</g>
<!-- Node25 -->
<g id="node25" class="node"><title>Node25</title>
<polygon fill="none" stroke="#bfbfbf" points="747.544,-117 747.544,-137 812.456,-137 812.456,-117 747.544,-117"/>
<text text-anchor="middle" x="780" y="-123" font-family="Helvetica,sans-Serif" font-size="10.00">sys/reent.h</text>
</g>
<!-- Node24&#45;&gt;Node25 -->
<g id="edge37" class="edge"><title>Node24&#45;&gt;Node25</title>
<path fill="none" stroke="midnightblue" d="M408.7,-175.851C411.831,-175.172 414.97,-174.54 418,-174 557.161,-149.204 594.538,-161.043 734,-138 735.089,-137.82 736.19,-137.631 737.301,-137.435"/>
<polygon fill="midnightblue" stroke="midnightblue" points="738.242,-140.819 747.41,-135.509 736.931,-133.943 738.242,-140.819"/>
</g>
</g>
</svg>
