<?xml version="1.0" encoding="UTF-8" standalone="no"?>
<!DOCTYPE svg PUBLIC "-//W3C//DTD SVG 1.1//EN"
 "http://www.w3.org/Graphics/SVG/1.1/DTD/svg11.dtd">
<!-- Generated by graphviz version 2.34.0 (20130907.0228)
 -->
<!-- Title: /Users/tgil/git/CoActionOS/CoActionOS/src/sys/signal/signal.c Pages: 1 -->
<svg width="469pt" height="170pt"
 viewBox="0.00 0.00 469.00 170.00" xmlns="http://www.w3.org/2000/svg" xmlns:xlink="http://www.w3.org/1999/xlink">
<g id="graph0" class="graph" transform="scale(1 1) rotate(0) translate(4 166)">
<title>/Users/tgil/git/CoActionOS/CoActionOS/src/sys/signal/signal.c</title>
<!-- Node1 -->
<g id="node1" class="node"><title>Node1</title>
<polygon fill="#bfbfbf" stroke="black" points="123.931,-117 123.931,-161 246.069,-161 246.069,-117 123.931,-117"/>
<text text-anchor="start" x="131.931" y="-147" font-family="Helvetica,sans-Serif" font-size="10.00">/Users/tgil/git/CoAction</text>
<text text-anchor="start" x="131.931" y="-135" font-family="Helvetica,sans-Serif" font-size="10.00">OS/CoActionOS/src/sys</text>
<text text-anchor="middle" x="185" y="-123" font-family="Helvetica,sans-Serif" font-size="10.00">/signal/signal.c</text>
</g>
<!-- Node2 -->
<g id="node2" class="node"><title>Node2</title>
<polygon fill="none" stroke="#bfbfbf" points="-0.746094,-59 -0.746094,-79 74.7461,-79 74.7461,-59 -0.746094,-59"/>
<text text-anchor="middle" x="37" y="-65" font-family="Helvetica,sans-Serif" font-size="10.00">hwpl/debug.h</text>
</g>
<!-- Node1&#45;&gt;Node2 -->
<g id="edge1" class="edge"><title>Node1&#45;&gt;Node2</title>
<path fill="none" stroke="midnightblue" d="M138.983,-116.857C115.102,-105.885 86.662,-92.8177 65.8897,-83.2737"/>
<polygon fill="midnightblue" stroke="midnightblue" points="67.1941,-80.0213 56.6461,-79.0266 64.2716,-86.382 67.1941,-80.0213"/>
</g>
<!-- Node3 -->
<g id="node3" class="node"><title>Node3</title>
<polygon fill="none" stroke="#bfbfbf" points="92.7661,-59 92.7661,-79 143.234,-79 143.234,-59 92.7661,-59"/>
<text text-anchor="middle" x="118" y="-65" font-family="Helvetica,sans-Serif" font-size="10.00">signal.h</text>
</g>
<!-- Node1&#45;&gt;Node3 -->
<g id="edge2" class="edge"><title>Node1&#45;&gt;Node3</title>
<path fill="none" stroke="midnightblue" d="M164.168,-116.857C154.542,-107.087 143.279,-95.6561 134.287,-86.5303"/>
<polygon fill="midnightblue" stroke="midnightblue" points="136.58,-83.8707 127.069,-79.2039 131.594,-88.7837 136.58,-83.8707"/>
</g>
<!-- Node4 -->
<g id="node4" class="node"><title>Node4</title>
<polygon fill="none" stroke="#bfbfbf" points="161.158,-59 161.158,-79 208.842,-79 208.842,-59 161.158,-59"/>
<text text-anchor="middle" x="185" y="-65" font-family="Helvetica,sans-Serif" font-size="10.00">errno.h</text>
</g>
<!-- Node1&#45;&gt;Node4 -->
<g id="edge3" class="edge"><title>Node1&#45;&gt;Node4</title>
<path fill="none" stroke="midnightblue" d="M185,-116.857C185,-108.074 185,-97.9484 185,-89.3622"/>
<polygon fill="midnightblue" stroke="midnightblue" points="188.5,-89.2039 185,-79.2039 181.5,-89.204 188.5,-89.2039"/>
</g>
<!-- Node5 -->
<g id="node5" class="node"><title>Node5</title>
<polygon fill="none" stroke="#bfbfbf" points="227.247,-59 227.247,-79 342.753,-79 342.753,-59 227.247,-59"/>
<text text-anchor="middle" x="285" y="-65" font-family="Helvetica,sans-Serif" font-size="10.00">../sched/sched_flags.h</text>
</g>
<!-- Node1&#45;&gt;Node5 -->
<g id="edge4" class="edge"><title>Node1&#45;&gt;Node5</title>
<path fill="none" stroke="midnightblue" d="M216.092,-116.857C231.425,-106.431 249.539,-94.1133 263.347,-84.7243"/>
<polygon fill="midnightblue" stroke="midnightblue" points="265.424,-87.544 271.726,-79.0266 261.488,-81.7555 265.424,-87.544"/>
</g>
<!-- Node6 -->
<g id="node6" class="node"><title>Node6</title>
<g id="a_node6"><a xlink:href="sig__local_8h_source.html" target="_top" xlink:title="sig_local.h">
<polygon fill="none" stroke="black" points="360.375,-59 360.375,-79 423.625,-79 423.625,-59 360.375,-59"/>
<text text-anchor="middle" x="392" y="-65" font-family="Helvetica,sans-Serif" font-size="10.00">sig_local.h</text>
</a>
</g>
</g>
<!-- Node1&#45;&gt;Node6 -->
<g id="edge5" class="edge"><title>Node1&#45;&gt;Node6</title>
<path fill="none" stroke="midnightblue" d="M246.267,-117.874C281.506,-106.298 324.629,-92.1317 354.787,-82.2244"/>
<polygon fill="midnightblue" stroke="midnightblue" points="356.08,-85.4839 364.488,-79.0377 353.895,-78.8335 356.08,-85.4839"/>
</g>
<!-- Node7 -->
<g id="node7" class="node"><title>Node7</title>
<polygon fill="none" stroke="#bfbfbf" points="329.879,-1 329.879,-21 378.121,-21 378.121,-1 329.879,-1"/>
<text text-anchor="middle" x="354" y="-7" font-family="Helvetica,sans-Serif" font-size="10.00">stdint.h</text>
</g>
<!-- Node6&#45;&gt;Node7 -->
<g id="edge6" class="edge"><title>Node6&#45;&gt;Node7</title>
<path fill="none" stroke="midnightblue" d="M385.725,-58.7527C380.358,-50.8427 372.482,-39.2372 365.921,-29.5683"/>
<polygon fill="midnightblue" stroke="midnightblue" points="368.669,-27.3847 360.158,-21.0752 362.877,-31.3152 368.669,-27.3847"/>
</g>
<!-- Node8 -->
<g id="node8" class="node"><title>Node8</title>
<polygon fill="none" stroke="#bfbfbf" points="396.544,-1 396.544,-21 461.456,-21 461.456,-1 396.544,-1"/>
<text text-anchor="middle" x="429" y="-7" font-family="Helvetica,sans-Serif" font-size="10.00">sys/reent.h</text>
</g>
<!-- Node6&#45;&gt;Node8 -->
<g id="edge7" class="edge"><title>Node6&#45;&gt;Node8</title>
<path fill="none" stroke="midnightblue" d="M398.11,-58.7527C403.336,-50.8427 411.004,-39.2372 417.392,-29.5683"/>
<polygon fill="midnightblue" stroke="midnightblue" points="420.411,-31.348 423.004,-21.0752 414.571,-27.4891 420.411,-31.348"/>
</g>
</g>
</svg>
