<?xml version="1.0" encoding="UTF-8" standalone="no"?>
<!DOCTYPE svg PUBLIC "-//W3C//DTD SVG 1.1//EN"
 "http://www.w3.org/Graphics/SVG/1.1/DTD/svg11.dtd">
<!-- Generated by graphviz version 2.34.0 (20130907.0228)
 -->
<!-- Title: /Users/tgil/git/CoActionOS/CoActionOS/src/sys/signal/signal_handler.c Pages: 1 -->
<svg width="469pt" height="170pt"
 viewBox="0.00 0.00 469.00 170.00" xmlns="http://www.w3.org/2000/svg" xmlns:xlink="http://www.w3.org/1999/xlink">
<g id="graph0" class="graph" transform="scale(1 1) rotate(0) translate(4 166)">
<title>/Users/tgil/git/CoActionOS/CoActionOS/src/sys/signal/signal_handler.c</title>
<!-- Node1 -->
<g id="node1" class="node"><title>Node1</title>
<polygon fill="#bfbfbf" stroke="black" points="122.931,-117 122.931,-161 245.069,-161 245.069,-117 122.931,-117"/>
<text text-anchor="start" x="130.931" y="-147" font-family="Helvetica,sans-Serif" font-size="10.00">/Users/tgil/git/CoAction</text>
<text text-anchor="start" x="130.931" y="-135" font-family="Helvetica,sans-Serif" font-size="10.00">OS/CoActionOS/src/sys</text>
<text text-anchor="middle" x="184" y="-123" font-family="Helvetica,sans-Serif" font-size="10.00">/signal/signal_handler.c</text>
</g>
<!-- Node2 -->
<g id="node2" class="node"><title>Node2</title>
<polygon fill="none" stroke="#bfbfbf" points="-0.746094,-59 -0.746094,-79 74.7461,-79 74.7461,-59 -0.746094,-59"/>
<text text-anchor="middle" x="37" y="-65" font-family="Helvetica,sans-Serif" font-size="10.00">hwpl/debug.h</text>
</g>
<!-- Node1&#45;&gt;Node2 -->
<g id="edge1" class="edge"><title>Node1&#45;&gt;Node2</title>
<path fill="none" stroke="midnightblue" d="M138.294,-116.857C114.575,-105.885 86.3265,-92.8177 65.6945,-83.2737"/>
<polygon fill="midnightblue" stroke="midnightblue" points="67.0588,-80.0485 56.5133,-79.0266 64.1199,-86.4016 67.0588,-80.0485"/>
</g>
<!-- Node3 -->
<g id="node3" class="node"><title>Node3</title>
<polygon fill="none" stroke="#bfbfbf" points="93.1577,-59 93.1577,-79 140.842,-79 140.842,-59 93.1577,-59"/>
<text text-anchor="middle" x="117" y="-65" font-family="Helvetica,sans-Serif" font-size="10.00">stdlib.h</text>
</g>
<!-- Node1&#45;&gt;Node3 -->
<g id="edge2" class="edge"><title>Node1&#45;&gt;Node3</title>
<path fill="none" stroke="midnightblue" d="M163.168,-116.857C153.542,-107.087 142.279,-95.6561 133.287,-86.5303"/>
<polygon fill="midnightblue" stroke="midnightblue" points="135.58,-83.8707 126.069,-79.2039 130.594,-88.7837 135.58,-83.8707"/>
</g>
<!-- Node4 -->
<g id="node4" class="node"><title>Node4</title>
<polygon fill="none" stroke="#bfbfbf" points="158.766,-59 158.766,-79 209.234,-79 209.234,-59 158.766,-59"/>
<text text-anchor="middle" x="184" y="-65" font-family="Helvetica,sans-Serif" font-size="10.00">signal.h</text>
</g>
<!-- Node1&#45;&gt;Node4 -->
<g id="edge3" class="edge"><title>Node1&#45;&gt;Node4</title>
<path fill="none" stroke="midnightblue" d="M184,-116.857C184,-108.074 184,-97.9484 184,-89.3622"/>
<polygon fill="midnightblue" stroke="midnightblue" points="187.5,-89.2039 184,-79.2039 180.5,-89.204 187.5,-89.2039"/>
</g>
<!-- Node5 -->
<g id="node5" class="node"><title>Node5</title>
<polygon fill="none" stroke="#bfbfbf" points="227.247,-59 227.247,-79 342.753,-79 342.753,-59 227.247,-59"/>
<text text-anchor="middle" x="285" y="-65" font-family="Helvetica,sans-Serif" font-size="10.00">../sched/sched_flags.h</text>
</g>
<!-- Node1&#45;&gt;Node5 -->
<g id="edge4" class="edge"><title>Node1&#45;&gt;Node5</title>
<path fill="none" stroke="midnightblue" d="M215.403,-116.857C230.889,-106.431 249.185,-94.1133 263.13,-84.7243"/>
<polygon fill="midnightblue" stroke="midnightblue" points="265.252,-87.5148 271.593,-79.0266 261.343,-81.7082 265.252,-87.5148"/>
</g>
<!-- Node6 -->
<g id="node6" class="node"><title>Node6</title>
<g id="a_node6"><a xlink:href="sig__local_8h_source.html" target="_top" xlink:title="sig_local.h">
<polygon fill="none" stroke="black" points="360.375,-59 360.375,-79 423.625,-79 423.625,-59 360.375,-59"/>
<text text-anchor="middle" x="392" y="-65" font-family="Helvetica,sans-Serif" font-size="10.00">sig_local.h</text>
</a>
</g>
</g>
<!-- Node1&#45;&gt;Node6 -->
<g id="edge5" class="edge"><title>Node1&#45;&gt;Node6</title>
<path fill="none" stroke="midnightblue" d="M245.282,-117.966C280.703,-106.386 324.126,-92.1896 354.506,-82.2576"/>
<polygon fill="midnightblue" stroke="midnightblue" points="355.861,-85.497 364.278,-79.0628 353.686,-78.8435 355.861,-85.497"/>
</g>
<!-- Node7 -->
<g id="node7" class="node"><title>Node7</title>
<polygon fill="none" stroke="#bfbfbf" points="329.879,-1 329.879,-21 378.121,-21 378.121,-1 329.879,-1"/>
<text text-anchor="middle" x="354" y="-7" font-family="Helvetica,sans-Serif" font-size="10.00">stdint.h</text>
</g>
<!-- Node6&#45;&gt;Node7 -->
<g id="edge6" class="edge"><title>Node6&#45;&gt;Node7</title>
<path fill="none" stroke="midnightblue" d="M385.725,-58.7527C380.358,-50.8427 372.482,-39.2372 365.921,-29.5683"/>
<polygon fill="midnightblue" stroke="midnightblue" points="368.669,-27.3847 360.158,-21.0752 362.877,-31.3152 368.669,-27.3847"/>
</g>
<!-- Node8 -->
<g id="node8" class="node"><title>Node8</title>
<polygon fill="none" stroke="#bfbfbf" points="396.544,-1 396.544,-21 461.456,-21 461.456,-1 396.544,-1"/>
<text text-anchor="middle" x="429" y="-7" font-family="Helvetica,sans-Serif" font-size="10.00">sys/reent.h</text>
</g>
<!-- Node6&#45;&gt;Node8 -->
<g id="edge7" class="edge"><title>Node6&#45;&gt;Node8</title>
<path fill="none" stroke="midnightblue" d="M398.11,-58.7527C403.336,-50.8427 411.004,-39.2372 417.392,-29.5683"/>
<polygon fill="midnightblue" stroke="midnightblue" points="420.411,-31.348 423.004,-21.0752 414.571,-27.4891 420.411,-31.348"/>
</g>
</g>
</svg>
