<?xml version="1.0" encoding="UTF-8" standalone="no"?>
<!DOCTYPE svg PUBLIC "-//W3C//DTD SVG 1.1//EN"
 "http://www.w3.org/Graphics/SVG/1.1/DTD/svg11.dtd">
<!-- Generated by graphviz version 2.36.0 (20140111.2315)
 -->
<!-- Title: hio_attr_t Pages: 1 -->
<svg width="101pt" height="186pt"
 viewBox="0.00 0.00 101.43 186.00" xmlns="http://www.w3.org/2000/svg" xmlns:xlink="http://www.w3.org/1999/xlink">
<g id="graph0" class="graph" transform="scale(1 1) rotate(0) translate(4 182)">
<title>hio_attr_t</title>
<!-- Node1 -->
<g id="node1" class="node"><title>Node1</title>
<polygon fill="#bfbfbf" stroke="black" points="3.15283,-1 3.15283,-55 60.8472,-55 60.8472,-1 3.15283,-1"/>
<text text-anchor="middle" x="32" y="-43" font-family="Helvetica,sans-Serif" font-size="10.00">hio_attr_t</text>
<polyline fill="none" stroke="black" points="3.15283,-37 60.8472,-37 "/>
<text text-anchor="start" x="11.1528" y="-25" font-family="Helvetica,sans-Serif" font-size="10.00">+ count</text>
<polyline fill="none" stroke="black" points="3.15283,-19 60.8472,-19 "/>
<text text-anchor="middle" x="32" y="-7" font-family="Helvetica,sans-Serif" font-size="10.00"> </text>
</g>
<!-- Node2 -->
<g id="node2" class="node"><title>Node2</title>
<g id="a_node2"><a xlink:href="structhio__desc__t.html" target="_top" xlink:title="Descriptor entry. ">
<polygon fill="none" stroke="black" points="-0.18457,-103 -0.18457,-177 64.1846,-177 64.1846,-103 -0.18457,-103"/>
<text text-anchor="middle" x="32" y="-165" font-family="Helvetica,sans-Serif" font-size="10.00">hio_desc_t</text>
<polyline fill="none" stroke="black" points="-0.18457,-159 64.1846,-159 "/>
<text text-anchor="start" x="7.81543" y="-147" font-family="Helvetica,sans-Serif" font-size="10.00">+ type</text>
<text text-anchor="start" x="7.81543" y="-137" font-family="Helvetica,sans-Serif" font-size="10.00">+ use</text>
<text text-anchor="start" x="7.81543" y="-127" font-family="Helvetica,sans-Serif" font-size="10.00">+ count</text>
<polyline fill="none" stroke="black" points="-0.18457,-121 64.1846,-121 "/>
<text text-anchor="middle" x="32" y="-109" font-family="Helvetica,sans-Serif" font-size="10.00"> </text>
</a>
</g>
</g>
<!-- Node2&#45;&gt;Node1 -->
<g id="edge1" class="edge"><title>Node2&#45;&gt;Node1</title>
<path fill="none" stroke="#404040" d="M32,-102.982C32,-91.5704 32,-78.9163 32,-67.3475"/>
<polygon fill="none" stroke="#404040" points="32.0001,-67.3303 28,-61.3303 32,-55.3303 36,-61.3302 32.0001,-67.3303"/>
<text text-anchor="middle" x="62.7129" y="-76" font-family="Helvetica,sans-Serif" font-size="10.00"> +report_desc</text>
</g>
</g>
</svg>
