<?xml version="1.0" encoding="UTF-8" standalone="no"?>
<!DOCTYPE svg PUBLIC "-//W3C//DTD SVG 1.1//EN"
 "http://www.w3.org/Graphics/SVG/1.1/DTD/svg11.dtd">
<!-- Generated by graphviz version 2.34.0 (20130907.0228)
 -->
<!-- Title: /Users/tgil/git/CoActionOS/CoActionOS/include/dev/usb.h Pages: 1 -->
<svg width="412pt" height="218pt"
 viewBox="0.00 0.00 412.00 218.00" xmlns="http://www.w3.org/2000/svg" xmlns:xlink="http://www.w3.org/1999/xlink">
<g id="graph0" class="graph" transform="scale(1 1) rotate(0) translate(4 214)">
<title>/Users/tgil/git/CoActionOS/CoActionOS/include/dev/usb.h</title>
<!-- Node1 -->
<g id="node1" class="node"><title>Node1</title>
<polygon fill="#bfbfbf" stroke="black" points="140.641,-165 140.641,-209 263.359,-209 263.359,-165 140.641,-165"/>
<text text-anchor="start" x="148.641" y="-195" font-family="Helvetica,sans-Serif" font-size="10.00">/Users/tgil/git/CoAction</text>
<text text-anchor="start" x="148.641" y="-183" font-family="Helvetica,sans-Serif" font-size="10.00">OS/CoActionOS/include</text>
<text text-anchor="middle" x="202" y="-171" font-family="Helvetica,sans-Serif" font-size="10.00">/dev/usb.h</text>
</g>
<!-- Node2 -->
<g id="node2" class="node"><title>Node2</title>
<g id="a_node2"><a xlink:href="link__protocol_8h.html" target="_top" xlink:title="USB Link Protocol Header File. ">
<polygon fill="none" stroke="black" points="-0.359375,-83 -0.359375,-127 122.359,-127 122.359,-83 -0.359375,-83"/>
<text text-anchor="start" x="7.64062" y="-113" font-family="Helvetica,sans-Serif" font-size="10.00">/Users/tgil/git/CoAction</text>
<text text-anchor="start" x="7.64062" y="-101" font-family="Helvetica,sans-Serif" font-size="10.00">OS/CoActionOS/include</text>
<text text-anchor="middle" x="61" y="-89" font-family="Helvetica,sans-Serif" font-size="10.00">/link_protocol.h</text>
</a>
</g>
</g>
<!-- Node1&#45;&gt;Node2 -->
<g id="edge1" class="edge"><title>Node1&#45;&gt;Node2</title>
<path fill="none" stroke="midnightblue" d="M156.014,-159.908C137.316,-149.3 115.991,-137.201 98.2882,-127.156"/>
<polygon fill="midnightblue" stroke="midnightblue" points="154.529,-163.09 164.954,-164.981 157.984,-157.002 154.529,-163.09"/>
</g>
<!-- Node4 -->
<g id="node4" class="node"><title>Node4</title>
<g id="a_node4"><a xlink:href="usb__dev_8h_source.html" target="_top" xlink:title="/Users/tgil/git/CoAction\lOS/CoActionOS/include\l/usb_dev.h">
<polygon fill="none" stroke="black" points="140.641,-83 140.641,-127 263.359,-127 263.359,-83 140.641,-83"/>
<text text-anchor="start" x="148.641" y="-113" font-family="Helvetica,sans-Serif" font-size="10.00">/Users/tgil/git/CoAction</text>
<text text-anchor="start" x="148.641" y="-101" font-family="Helvetica,sans-Serif" font-size="10.00">OS/CoActionOS/include</text>
<text text-anchor="middle" x="202" y="-89" font-family="Helvetica,sans-Serif" font-size="10.00">/usb_dev.h</text>
</a>
</g>
</g>
<!-- Node1&#45;&gt;Node4 -->
<g id="edge3" class="edge"><title>Node1&#45;&gt;Node4</title>
<path fill="none" stroke="midnightblue" d="M202,-154.896C202,-145.609 202,-135.649 202,-127.156"/>
<polygon fill="midnightblue" stroke="midnightblue" points="198.5,-154.981 202,-164.981 205.5,-154.981 198.5,-154.981"/>
</g>
<!-- Node5 -->
<g id="node5" class="node"><title>Node5</title>
<g id="a_node5"><a xlink:href="usbfifo_8h.html" target="_top" xlink:title="/Users/tgil/git/CoAction\lOS/CoActionOS/include\l/dev/usbfifo.h">
<polygon fill="none" stroke="black" points="281.641,-83 281.641,-127 404.359,-127 404.359,-83 281.641,-83"/>
<text text-anchor="start" x="289.641" y="-113" font-family="Helvetica,sans-Serif" font-size="10.00">/Users/tgil/git/CoAction</text>
<text text-anchor="start" x="289.641" y="-101" font-family="Helvetica,sans-Serif" font-size="10.00">OS/CoActionOS/include</text>
<text text-anchor="middle" x="343" y="-89" font-family="Helvetica,sans-Serif" font-size="10.00">/dev/usbfifo.h</text>
</a>
</g>
</g>
<!-- Node1&#45;&gt;Node5 -->
<g id="edge4" class="edge"><title>Node1&#45;&gt;Node5</title>
<path fill="none" stroke="midnightblue" d="M247.986,-159.908C266.684,-149.3 288.009,-137.201 305.712,-127.156"/>
<polygon fill="midnightblue" stroke="midnightblue" points="246.016,-157.002 239.046,-164.981 249.471,-163.09 246.016,-157.002"/>
</g>
<!-- Node3 -->
<g id="node3" class="node"><title>Node3</title>
<g id="a_node3"><a xlink:href="link_8h.html" target="_top" xlink:title="/Users/tgil/git/CoAction\lOS/CoActionOS/include\l/link.h">
<polygon fill="none" stroke="black" points="-0.359375,-1 -0.359375,-45 122.359,-45 122.359,-1 -0.359375,-1"/>
<text text-anchor="start" x="7.64062" y="-31" font-family="Helvetica,sans-Serif" font-size="10.00">/Users/tgil/git/CoAction</text>
<text text-anchor="start" x="7.64062" y="-19" font-family="Helvetica,sans-Serif" font-size="10.00">OS/CoActionOS/include</text>
<text text-anchor="middle" x="61" y="-7" font-family="Helvetica,sans-Serif" font-size="10.00">/link.h</text>
</a>
</g>
</g>
<!-- Node2&#45;&gt;Node3 -->
<g id="edge2" class="edge"><title>Node2&#45;&gt;Node3</title>
<path fill="none" stroke="midnightblue" d="M61,-72.8963C61,-63.6094 61,-53.6485 61,-45.1564"/>
<polygon fill="midnightblue" stroke="midnightblue" points="57.5001,-72.9809 61,-82.9809 64.5001,-72.981 57.5001,-72.9809"/>
</g>
</g>
</svg>
