<?xml version="1.0" encoding="UTF-8"?>
<svg xmlns="http://www.w3.org/2000/svg" xmlns:xlink="http://www.w3.org/1999/xlink" width="612pt" height="108pt" viewBox="0 0 612 108" version="1.1">
<g id="surface1">
<path style=" stroke:none;fill-rule:nonzero;fill:rgb(0%,49.01886%,73.33374%);fill-opacity:1;" d="M 250.707031 58.683594 L 261.746094 32.933594 L 272.875 58.683594 Z M 256.683594 19.410156 L 228.355469 84.253906 L 239.945312 84.253906 L 246.566406 68.710938 L 277.011719 68.710938 L 283.542969 84.253906 L 295.5 84.253906 L 267.171875 19.410156 Z M 256.683594 19.410156 "/>
<path style=" stroke:none;fill-rule:nonzero;fill:rgb(0%,49.01886%,73.33374%);fill-opacity:1;" d="M 318.585938 75.703125 C 310.027344 75.703125 304.050781 68.714844 304.050781 59.96875 C 304.050781 51.417969 309.933594 44.425781 318.035156 44.425781 C 323.640625 44.425781 327.222656 46.910156 330.632812 50.496094 L 337.535156 43.046875 C 333.023438 38.082031 327.324219 34.675781 318.121094 34.675781 C 303.585938 34.675781 292.917969 46.265625 292.917969 60.148438 C 292.917969 74.042969 303.585938 85.355469 318.035156 85.355469 C 327.503906 85.355469 333.117188 81.589844 337.898438 76.253906 L 331.179688 69.632812 C 327.691406 73.214844 323.824219 75.703125 318.585938 75.703125 "/>
<path style=" stroke:none;fill-rule:nonzero;fill:rgb(0%,49.01886%,73.33374%);fill-opacity:1;" d="M 354.171875 22.347656 L 343.046875 22.347656 L 343.046875 70.824219 C 343.046875 81.492188 348.839844 85.078125 357.027344 85.078125 C 361.164062 85.078125 364.285156 84.167969 367.046875 82.601562 L 367.046875 73.496094 C 364.839844 74.597656 362.636719 75.148438 360.15625 75.148438 C 356.375 75.148438 354.171875 73.394531 354.171875 69.078125 L 354.171875 45.257812 L 367.234375 45.257812 L 367.234375 35.691406 L 354.171875 35.691406 Z M 354.171875 22.347656 "/>
<path style=" stroke:none;fill-rule:nonzero;fill:rgb(0%,49.01886%,73.33374%);fill-opacity:1;" d="M 371.273438 30.289062 L 383.230469 30.289062 L 383.230469 19.714844 L 371.273438 19.714844 Z M 371.273438 30.289062 "/>
<path style=" stroke:none;fill-rule:nonzero;fill:rgb(0%,49.01886%,73.33374%);fill-opacity:1;" d="M 371.738281 84.253906 L 382.867188 84.253906 L 382.867188 35.6875 L 371.738281 35.6875 Z M 371.738281 84.253906 "/>
<path style=" stroke:none;fill-rule:nonzero;fill:rgb(0%,49.01886%,73.33374%);fill-opacity:1;" d="M 413.3125 75.703125 C 404.664062 75.703125 398.496094 68.617188 398.496094 59.96875 C 398.496094 51.417969 404.203125 44.425781 413.121094 44.425781 C 421.859375 44.425781 428.027344 51.511719 428.027344 60.148438 C 428.027344 68.714844 422.324219 75.703125 413.3125 75.703125 M 413.3125 34.675781 C 398.40625 34.675781 387.367188 46.175781 387.367188 60.148438 C 387.367188 74.042969 398.316406 85.355469 413.121094 85.355469 C 428.117188 85.355469 439.15625 73.863281 439.15625 59.96875 C 439.15625 45.992188 428.210938 34.675781 413.3125 34.675781 "/>
<path style=" stroke:none;fill-rule:nonzero;fill:rgb(0%,49.01886%,73.33374%);fill-opacity:1;" d="M 469.410156 34.675781 C 461.871094 34.675781 457.363281 38.632812 454.238281 43.234375 L 454.238281 35.691406 L 443.105469 35.691406 L 443.105469 84.253906 L 454.238281 84.253906 L 454.238281 56.84375 C 454.238281 49.304688 458.742188 44.796875 465.183594 44.796875 C 471.804688 44.796875 475.574219 49.117188 475.574219 56.660156 L 475.574219 84.253906 L 486.707031 84.253906 L 486.707031 53.347656 C 486.707031 42.035156 480.355469 34.675781 469.410156 34.675781 "/>
<path style=" stroke:none;fill-rule:nonzero;fill:rgb(57.255554%,56.471252%,58.039856%);fill-opacity:1;" d="M 150.46875 74.96875 C 138.148438 74.96875 129.226562 64.667969 129.226562 51.96875 C 129.226562 39.273438 138.148438 29.160156 150.46875 29.160156 C 157.835938 29.160156 163.351562 32.378906 168.5 37.160156 L 175.773438 28.789062 C 169.609375 22.902344 162.433594 18.765625 150.570312 18.765625 C 131.070312 18.765625 117.359375 33.757812 117.359375 52.152344 C 117.359375 70.734375 131.347656 85.355469 150.105469 85.355469 C 162.164062 85.355469 169.511719 80.941406 176.230469 73.949219 L 168.964844 66.589844 C 163.441406 71.742188 158.386719 74.96875 150.46875 74.96875 "/>
<path style=" stroke:none;fill-rule:nonzero;fill:rgb(57.255554%,56.471252%,58.039856%);fill-opacity:1;" d="M 203.078125 75.703125 C 194.433594 75.703125 188.273438 68.617188 188.273438 59.96875 C 188.273438 51.417969 193.96875 44.425781 202.894531 44.425781 C 211.632812 44.425781 217.792969 51.511719 217.792969 60.148438 C 217.792969 68.714844 212.09375 75.703125 203.078125 75.703125 M 203.078125 34.675781 C 188.179688 34.675781 177.140625 46.175781 177.140625 60.148438 C 177.140625 74.042969 188.09375 85.355469 202.894531 85.355469 C 217.886719 85.355469 228.917969 73.863281 228.917969 59.96875 C 228.917969 45.992188 217.980469 34.675781 203.078125 34.675781 "/>
<path style=" stroke:none;fill-rule:nonzero;fill:rgb(57.255554%,56.471252%,58.039856%);fill-opacity:1;" d="M 524.980469 74.96875 C 512.191406 74.96875 503.066406 64.570312 503.066406 51.96875 C 503.066406 39.371094 512.011719 29.160156 524.792969 29.160156 C 537.578125 29.160156 546.6875 39.554688 546.6875 52.152344 C 546.6875 64.753906 537.761719 74.96875 524.980469 74.96875 M 524.980469 18.765625 C 505.191406 18.765625 491.203125 33.9375 491.203125 52.152344 C 491.203125 70.367188 504.996094 85.355469 524.792969 85.355469 C 544.566406 85.355469 558.539062 70.179688 558.539062 51.96875 C 558.539062 33.757812 544.753906 18.765625 524.980469 18.765625 "/>
<path style=" stroke:none;fill-rule:nonzero;fill:rgb(57.255554%,56.471252%,58.039856%);fill-opacity:1;" d="M 588.824219 46.910156 C 576.503906 43.96875 573.5625 41.761719 573.5625 36.703125 C 573.5625 32.378906 577.417969 28.972656 584.042969 28.972656 C 589.929688 28.972656 595.726562 31.273438 601.515625 35.59375 L 607.582031 27.039062 C 601.058594 21.792969 593.605469 18.949219 584.226562 18.949219 C 571.445312 18.949219 562.238281 26.488281 562.238281 37.710938 C 562.238281 49.667969 569.972656 53.71875 583.667969 57.027344 C 595.628906 59.785156 598.207031 62.269531 598.207031 66.960938 C 598.207031 71.925781 593.785156 75.148438 586.800781 75.148438 C 578.800781 75.148438 572.640625 72.109375 566.476562 66.777344 L 559.660156 74.867188 C 567.394531 81.769531 576.683594 85.171875 586.53125 85.171875 C 600.050781 85.171875 609.515625 78 609.515625 65.859375 C 609.515625 55.097656 602.433594 50.222656 588.824219 46.910156 "/>
<path style=" stroke:none;fill-rule:nonzero;fill:rgb(0%,49.01886%,73.33374%);fill-opacity:1;" d="M 101.167969 46.554688 C 90.96875 46.554688 88.273438 37.46875 97.15625 32.332031 C 98.558594 31.527344 99.042969 29.722656 98.234375 28.320312 L 96.035156 24.507812 C 95.222656 23.109375 93.417969 22.625 92.019531 23.433594 C 83.460938 28.375 76.457031 21.75 81.4375 13.117188 C 82.246094 11.722656 81.765625 9.917969 80.363281 9.109375 L 76.550781 6.90625 C 75.152344 6.097656 73.347656 6.582031 72.539062 7.984375 C 67.699219 16.359375 58.21875 14.128906 58.21875 4.34375 C 58.21875 2.726562 56.898438 1.402344 55.28125 1.402344 L 50.878906 1.402344 C 49.261719 1.402344 47.945312 2.726562 47.945312 4.34375 C 47.945312 14.027344 38.609375 16.820312 33.71875 8.347656 C 32.914062 6.949219 31.105469 6.46875 29.714844 7.273438 L 25.894531 9.476562 C 24.492188 10.285156 24.007812 12.089844 24.820312 13.488281 C 29.753906 22.03125 23.175781 29.070312 14.507812 24.070312 C 13.105469 23.261719 11.304688 23.746094 10.496094 25.144531 L 8.292969 28.960938 C 7.492188 30.355469 7.96875 32.160156 9.367188 32.96875 C 18.167969 38.050781 16.0625 47.289062 5.730469 47.289062 C 4.109375 47.289062 2.789062 48.613281 2.789062 50.222656 L 2.789062 54.625 C 2.789062 56.246094 4.109375 57.566406 5.730469 57.566406 C 16.265625 57.566406 18.988281 66.449219 9.734375 71.789062 C 8.335938 72.597656 7.851562 74.398438 8.660156 75.800781 L 10.859375 79.617188 C 11.671875 81.015625 13.476562 81.496094 14.871094 80.691406 C 24.273438 75.265625 30.960938 81.46875 25.457031 91 C 24.648438 92.394531 25.132812 94.207031 26.53125 95.011719 L 30.34375 97.210938 C 31.742188 98.023438 33.550781 97.539062 34.355469 96.140625 C 39.859375 86.601562 48.675781 88.601562 48.675781 99.78125 C 48.675781 101.398438 50 102.714844 51.613281 102.714844 L 56.019531 102.714844 C 57.632812 102.714844 58.960938 101.398438 58.960938 99.78125 C 58.960938 88.375 67.792969 86.449219 73.171875 95.773438 C 73.980469 97.167969 75.785156 97.65625 77.1875 96.847656 L 81 94.644531 C 82.398438 93.835938 82.882812 92.027344 82.074219 90.632812 C 76.640625 81.222656 82.875 74.5625 92.386719 80.054688 C 93.789062 80.863281 95.589844 80.378906 96.398438 78.976562 L 98.601562 75.164062 C 99.414062 73.765625 98.921875 71.964844 97.527344 71.152344 C 88.398438 65.882812 90.511719 56.832031 101.167969 56.832031 C 102.78125 56.832031 104.101562 55.515625 104.101562 53.894531 L 104.101562 49.492188 C 104.101562 47.875 102.78125 46.554688 101.167969 46.554688 "/>
<path style=" stroke:none;fill-rule:nonzero;fill:rgb(64.31427%,63.922119%,65.882874%);fill-opacity:1;" d="M 53.382812 67.757812 C 44.746094 67.757812 37.71875 60.730469 37.71875 52.09375 C 37.71875 43.457031 44.746094 36.429688 53.382812 36.429688 C 62.019531 36.429688 69.046875 43.457031 69.046875 52.09375 C 69.046875 60.730469 62.019531 67.757812 53.382812 67.757812 M 53.382812 33.382812 C 43.066406 33.382812 34.671875 41.777344 34.671875 52.09375 C 34.671875 62.414062 43.066406 70.804688 53.382812 70.804688 C 63.699219 70.804688 72.09375 62.414062 72.09375 52.09375 C 72.09375 41.777344 63.699219 33.382812 53.382812 33.382812 "/>
<path style=" stroke:none;fill-rule:nonzero;fill:rgb(64.31427%,63.922119%,65.882874%);fill-opacity:1;" d="M 46.925781 29.527344 C 49.558594 29.527344 51.699219 27.386719 51.699219 24.753906 C 51.699219 22.121094 49.558594 19.980469 46.925781 19.980469 C 44.292969 19.980469 42.152344 22.121094 42.152344 24.753906 C 42.152344 27.386719 44.292969 29.527344 46.925781 29.527344 "/>
<path style=" stroke:none;fill-rule:nonzero;fill:rgb(64.31427%,63.922119%,65.882874%);fill-opacity:1;" d="M 26.21875 54.339844 C 23.585938 54.339844 21.441406 56.480469 21.441406 59.117188 C 21.441406 61.746094 23.585938 63.890625 26.21875 63.890625 C 28.847656 63.890625 30.992188 61.746094 30.992188 59.117188 C 30.992188 56.480469 28.847656 54.339844 26.21875 54.339844 "/>
<path style=" stroke:none;fill-rule:nonzero;fill:rgb(64.31427%,63.922119%,65.882874%);fill-opacity:1;" d="M 80.675781 40.535156 C 78.042969 40.535156 75.902344 42.679688 75.902344 45.308594 C 75.902344 47.941406 78.042969 50.085938 80.675781 50.085938 C 83.304688 50.085938 85.445312 47.941406 85.445312 45.308594 C 85.445312 42.679688 83.304688 40.535156 80.675781 40.535156 "/>
<path style=" stroke:none;fill-rule:nonzero;fill:rgb(64.31427%,63.922119%,65.882874%);fill-opacity:1;" d="M 60.425781 74.585938 C 57.792969 74.585938 55.652344 76.730469 55.652344 79.363281 C 55.652344 81.992188 57.792969 84.136719 60.425781 84.136719 C 63.058594 84.136719 65.199219 81.992188 65.199219 79.363281 C 65.199219 76.730469 63.058594 74.585938 60.425781 74.585938 "/>
</g>
</svg>
