<?xml version="1.0" encoding="UTF-8" standalone="no"?>
<!DOCTYPE svg PUBLIC "-//W3C//DTD SVG 1.1//EN"
 "http://www.w3.org/Graphics/SVG/1.1/DTD/svg11.dtd">
<!-- Generated by graphviz version 2.34.0 (20130907.0228)
 -->
<!-- Title: /Users/tgil/git/CoActionOS/CoActionOS/include/caos.h Pages: 1 -->
<svg width="699pt" height="228pt"
 viewBox="0.00 0.00 699.00 228.00" xmlns="http://www.w3.org/2000/svg" xmlns:xlink="http://www.w3.org/1999/xlink">
<g id="graph0" class="graph" transform="scale(1 1) rotate(0) translate(4 224)">
<title>/Users/tgil/git/CoActionOS/CoActionOS/include/caos.h</title>
<!-- Node1 -->
<g id="node1" class="node"><title>Node1</title>
<polygon fill="#bfbfbf" stroke="black" points="117.641,-175 117.641,-219 240.359,-219 240.359,-175 117.641,-175"/>
<text text-anchor="start" x="125.641" y="-205" font-family="Helvetica,sans-Serif" font-size="10.00">/Users/tgil/git/CoAction</text>
<text text-anchor="start" x="125.641" y="-193" font-family="Helvetica,sans-Serif" font-size="10.00">OS/CoActionOS/include</text>
<text text-anchor="middle" x="179" y="-181" font-family="Helvetica,sans-Serif" font-size="10.00">/caos.h</text>
</g>
<!-- Node2 -->
<g id="node2" class="node"><title>Node2</title>
<polygon fill="none" stroke="#bfbfbf" points="-0.731445,-59 -0.731445,-79 44.7314,-79 44.7314,-59 -0.731445,-59"/>
<text text-anchor="middle" x="22" y="-65" font-family="Helvetica,sans-Serif" font-size="10.00">stdio.h</text>
</g>
<!-- Node1&#45;&gt;Node2 -->
<g id="edge1" class="edge"><title>Node1&#45;&gt;Node2</title>
<path fill="none" stroke="midnightblue" d="M152.722,-174.91C121.236,-149.642 69.2378,-107.911 41.2534,-85.4518"/>
<polygon fill="midnightblue" stroke="midnightblue" points="43.3785,-82.6695 33.3888,-79.1401 38.9971,-88.1288 43.3785,-82.6695"/>
</g>
<!-- Node3 -->
<g id="node3" class="node"><title>Node3</title>
<polygon fill="none" stroke="#bfbfbf" points="62.6035,-59 62.6035,-79 111.396,-79 111.396,-59 62.6035,-59"/>
<text text-anchor="middle" x="87" y="-65" font-family="Helvetica,sans-Serif" font-size="10.00">string.h</text>
</g>
<!-- Node1&#45;&gt;Node3 -->
<g id="edge2" class="edge"><title>Node1&#45;&gt;Node3</title>
<path fill="none" stroke="midnightblue" d="M163.601,-174.91C145.628,-150.295 116.249,-110.058 99.5823,-87.2323"/>
<polygon fill="midnightblue" stroke="midnightblue" points="102.397,-85.1524 93.6737,-79.1401 96.744,-89.2803 102.397,-85.1524"/>
</g>
<!-- Node4 -->
<g id="node4" class="node"><title>Node4</title>
<polygon fill="none" stroke="#bfbfbf" points="129.158,-59 129.158,-79 176.842,-79 176.842,-59 129.158,-59"/>
<text text-anchor="middle" x="153" y="-65" font-family="Helvetica,sans-Serif" font-size="10.00">stdlib.h</text>
</g>
<!-- Node1&#45;&gt;Node4 -->
<g id="edge3" class="edge"><title>Node1&#45;&gt;Node4</title>
<path fill="none" stroke="midnightblue" d="M174.648,-174.91C169.704,-150.949 161.705,-112.184 156.938,-89.0865"/>
<polygon fill="midnightblue" stroke="midnightblue" points="160.335,-88.2264 154.886,-79.1401 153.479,-89.6411 160.335,-88.2264"/>
</g>
<!-- Node5 -->
<g id="node5" class="node"><title>Node5</title>
<polygon fill="none" stroke="#bfbfbf" points="499.384,-117 499.384,-137 542.616,-137 542.616,-117 499.384,-117"/>
<text text-anchor="middle" x="521" y="-123" font-family="Helvetica,sans-Serif" font-size="10.00">time.h</text>
</g>
<!-- Node1&#45;&gt;Node5 -->
<g id="edge4" class="edge"><title>Node1&#45;&gt;Node5</title>
<path fill="none" stroke="midnightblue" d="M240.579,-186.895C301.53,-177.348 397.574,-160.865 489.358,-137.913"/>
<polygon fill="midnightblue" stroke="midnightblue" points="490.249,-141.298 499.085,-135.452 488.532,-134.512 490.249,-141.298"/>
</g>
<!-- Node6 -->
<g id="node6" class="node"><title>Node6</title>
<g id="a_node6"><a xlink:href="hwpl_8h.html" target="_top" target="_top" xlink:title="HWPL Header file (includes all other header files) ">
<polygon fill="none" stroke="black" points="182.547,-117 182.547,-137 227.453,-137 227.453,-117 182.547,-117"/>
<text text-anchor="middle" x="205" y="-123" font-family="Helvetica,sans-Serif" font-size="10.00">hwpl.h</text>
</a>
</g>
</g>
<!-- Node1&#45;&gt;Node6 -->
<g id="edge5" class="edge"><title>Node1&#45;&gt;Node6</title>
<path fill="none" stroke="midnightblue" d="M187.084,-174.857C190.518,-165.877 194.488,-155.493 197.817,-146.786"/>
<polygon fill="midnightblue" stroke="midnightblue" points="201.179,-147.794 201.481,-137.204 194.64,-145.294 201.179,-147.794"/>
</g>
<!-- Node12 -->
<g id="node12" class="node"><title>Node12</title>
<g id="a_node12"><a xlink:href="device_8h_source.html" target="_top" target="_top" xlink:title="device.h">
<polygon fill="none" stroke="black" points="428.377,-117 428.377,-137 481.623,-137 481.623,-117 428.377,-117"/>
<text text-anchor="middle" x="455" y="-123" font-family="Helvetica,sans-Serif" font-size="10.00">device.h</text>
</a>
</g>
</g>
<!-- Node1&#45;&gt;Node12 -->
<g id="edge16" class="edge"><title>Node1&#45;&gt;Node12</title>
<path fill="none" stroke="midnightblue" d="M240.596,-180.824C295.132,-167.388 372.913,-148.224 418.257,-137.053"/>
<polygon fill="midnightblue" stroke="midnightblue" points="419.365,-140.384 428.237,-134.594 417.69,-133.588 419.365,-140.384"/>
</g>
<!-- Node6&#45;&gt;Node2 -->
<g id="edge9" class="edge"><title>Node6&#45;&gt;Node2</title>
<path fill="none" stroke="midnightblue" d="M182.472,-119.192C154.678,-110.781 105.738,-95.9328 54.6296,-80.1803"/>
<polygon fill="midnightblue" stroke="midnightblue" points="55.6533,-76.8334 45.0659,-77.2298 53.5897,-83.5223 55.6533,-76.8334"/>
</g>
<!-- Node6&#45;&gt;Node3 -->
<g id="edge8" class="edge"><title>Node6&#45;&gt;Node3</title>
<path fill="none" stroke="midnightblue" d="M185.779,-116.878C166.664,-107.807 137.124,-93.7876 115.324,-83.4418"/>
<polygon fill="midnightblue" stroke="midnightblue" points="116.748,-80.2436 106.213,-79.1181 113.747,-86.5676 116.748,-80.2436"/>
</g>
<!-- Node6&#45;&gt;Node4 -->
<g id="edge7" class="edge"><title>Node6&#45;&gt;Node4</title>
<path fill="none" stroke="midnightblue" d="M196.413,-116.753C188.841,-108.598 177.622,-96.5158 168.486,-86.6769"/>
<polygon fill="midnightblue" stroke="midnightblue" points="170.796,-84.0216 161.427,-79.0752 165.667,-88.7847 170.796,-84.0216"/>
</g>
<!-- Node7 -->
<g id="node7" class="node"><title>Node7</title>
<polygon fill="none" stroke="#bfbfbf" points="349.879,-1 349.879,-21 398.121,-21 398.121,-1 349.879,-1"/>
<text text-anchor="middle" x="374" y="-7" font-family="Helvetica,sans-Serif" font-size="10.00">stdint.h</text>
</g>
<!-- Node6&#45;&gt;Node7 -->
<g id="edge6" class="edge"><title>Node6&#45;&gt;Node7</title>
<path fill="none" stroke="midnightblue" d="M204.927,-116.721C205.327,-102.212 208.253,-74.1471 224,-58 254.459,-26.7663 305.521,-16.6092 339.481,-13.3816"/>
<polygon fill="midnightblue" stroke="midnightblue" points="340.167,-16.8383 349.859,-12.5592 339.614,-9.86018 340.167,-16.8383"/>
</g>
<!-- Node8 -->
<g id="node8" class="node"><title>Node8</title>
<polygon fill="none" stroke="#bfbfbf" points="415.707,-1 415.707,-21 472.293,-21 472.293,-1 415.707,-1"/>
<text text-anchor="middle" x="444" y="-7" font-family="Helvetica,sans-Serif" font-size="10.00">stdbool.h</text>
</g>
<!-- Node6&#45;&gt;Node8 -->
<g id="edge10" class="edge"><title>Node6&#45;&gt;Node8</title>
<path fill="none" stroke="midnightblue" d="M227.014,-116.96C248.084,-108.122 280.62,-93.991 308,-80 325.378,-71.12 328.707,-67.0433 346,-58 368.512,-46.2278 394.571,-34.0634 414.156,-25.2026"/>
<polygon fill="midnightblue" stroke="midnightblue" points="415.794,-28.3039 423.48,-21.0122 412.924,-21.9191 415.794,-28.3039"/>
</g>
<!-- Node9 -->
<g id="node9" class="node"><title>Node9</title>
<polygon fill="none" stroke="#bfbfbf" points="232.707,-59 232.707,-79 299.293,-79 299.293,-59 232.707,-59"/>
<text text-anchor="middle" x="266" y="-65" font-family="Helvetica,sans-Serif" font-size="10.00">hwpl/fault.h</text>
</g>
<!-- Node6&#45;&gt;Node9 -->
<g id="edge11" class="edge"><title>Node6&#45;&gt;Node9</title>
<path fill="none" stroke="midnightblue" d="M215.073,-116.753C224.133,-108.435 237.645,-96.031 248.474,-86.0893"/>
<polygon fill="midnightblue" stroke="midnightblue" points="251.115,-88.4162 256.115,-79.0752 246.381,-83.2596 251.115,-88.4162"/>
</g>
<!-- Node10 -->
<g id="node10" class="node"><title>Node10</title>
<polygon fill="none" stroke="#bfbfbf" points="550.431,-1 550.431,-21 617.569,-21 617.569,-1 550.431,-1"/>
<text text-anchor="middle" x="584" y="-7" font-family="Helvetica,sans-Serif" font-size="10.00">hwpl/arch.h</text>
</g>
<!-- Node6&#45;&gt;Node10 -->
<g id="edge12" class="edge"><title>Node6&#45;&gt;Node10</title>
<path fill="none" stroke="midnightblue" d="M227.764,-125.606C295.759,-124.026 495.872,-116.325 548,-80 564.562,-68.4585 574.116,-46.8462 579.164,-31.0754"/>
<polygon fill="midnightblue" stroke="midnightblue" points="582.579,-31.8633 581.969,-21.286 575.85,-29.9347 582.579,-31.8633"/>
</g>
<!-- Node11 -->
<g id="node11" class="node"><title>Node11</title>
<g id="a_node11"><a xlink:href="types_8h_source.html" target="_top" target="_top" xlink:title="hwpl/types.h">
<polygon fill="none" stroke="black" points="355.207,-59 355.207,-79 426.793,-79 426.793,-59 355.207,-59"/>
<text text-anchor="middle" x="391" y="-65" font-family="Helvetica,sans-Serif" font-size="10.00">hwpl/types.h</text>
</a>
</g>
</g>
<!-- Node6&#45;&gt;Node11 -->
<g id="edge13" class="edge"><title>Node6&#45;&gt;Node11</title>
<path fill="none" stroke="midnightblue" d="M227.807,-119.133C258.529,-109.884 313.684,-93.278 351.291,-81.9555"/>
<polygon fill="midnightblue" stroke="midnightblue" points="352.356,-85.2901 360.922,-79.0557 350.338,-78.5873 352.356,-85.2901"/>
</g>
<!-- Node11&#45;&gt;Node7 -->
<g id="edge14" class="edge"><title>Node11&#45;&gt;Node7</title>
<path fill="none" stroke="midnightblue" d="M388.193,-58.7527C385.891,-51.1689 382.557,-40.1881 379.699,-30.7739"/>
<polygon fill="midnightblue" stroke="midnightblue" points="383.009,-29.6273 376.755,-21.0752 376.311,-31.6607 383.009,-29.6273"/>
</g>
<!-- Node11&#45;&gt;Node8 -->
<g id="edge15" class="edge"><title>Node11&#45;&gt;Node8</title>
<path fill="none" stroke="midnightblue" d="M399.752,-58.7527C407.547,-50.5165 419.134,-38.2738 428.495,-28.3824"/>
<polygon fill="midnightblue" stroke="midnightblue" points="431.079,-30.744 435.411,-21.0752 425.995,-25.9323 431.079,-30.744"/>
</g>
<!-- Node12&#45;&gt;Node8 -->
<g id="edge18" class="edge"><title>Node12&#45;&gt;Node8</title>
<path fill="none" stroke="midnightblue" d="M454.1,-116.671C452.302,-98.0407 448.236,-55.8976 445.847,-31.1428"/>
<polygon fill="midnightblue" stroke="midnightblue" points="449.326,-30.757 444.882,-21.1394 442.359,-31.4294 449.326,-30.757"/>
</g>
<!-- Node12&#45;&gt;Node10 -->
<g id="edge20" class="edge"><title>Node12&#45;&gt;Node10</title>
<path fill="none" stroke="midnightblue" d="M481.851,-117.936C517.007,-107.12 574.909,-88.3117 581,-80 591.13,-66.1762 590.745,-46.1906 588.508,-31.4618"/>
<polygon fill="midnightblue" stroke="midnightblue" points="591.902,-30.5735 586.58,-21.4123 585.027,-31.8927 591.902,-30.5735"/>
</g>
<!-- Node12&#45;&gt;Node11 -->
<g id="edge19" class="edge"><title>Node12&#45;&gt;Node11</title>
<path fill="none" stroke="midnightblue" d="M444.432,-116.753C434.832,-108.353 420.471,-95.7874 409.054,-85.7976"/>
<polygon fill="midnightblue" stroke="midnightblue" points="411.202,-83.0262 401.372,-79.0752 406.593,-88.2943 411.202,-83.0262"/>
</g>
<!-- Node13 -->
<g id="node13" class="node"><title>Node13</title>
<polygon fill="none" stroke="#bfbfbf" points="632.882,-59 632.882,-79 691.118,-79 691.118,-59 632.882,-59"/>
<text text-anchor="middle" x="662" y="-65" font-family="Helvetica,sans-Serif" font-size="10.00">sys/stat.h</text>
</g>
<!-- Node12&#45;&gt;Node13 -->
<g id="edge17" class="edge"><title>Node12&#45;&gt;Node13</title>
<path fill="none" stroke="midnightblue" d="M481.74,-118.31C484.527,-117.523 487.32,-116.741 490,-116 535.554,-103.402 588.052,-89.4423 622.947,-80.2423"/>
<polygon fill="midnightblue" stroke="midnightblue" points="623.964,-83.594 632.743,-77.6628 622.181,-76.8248 623.964,-83.594"/>
</g>
<!-- Node14 -->
<g id="node14" class="node"><title>Node14</title>
<g id="a_node14"><a xlink:href="pio_8h.html" target="_top" target="_top" xlink:title="General Purpose Input/Output Header File. ">
<polygon fill="none" stroke="black" points="482.707,-59 482.707,-79 539.293,-79 539.293,-59 482.707,-59"/>
<text text-anchor="middle" x="511" y="-65" font-family="Helvetica,sans-Serif" font-size="10.00">dev/pio.h</text>
</a>
</g>
</g>
<!-- Node12&#45;&gt;Node14 -->
<g id="edge21" class="edge"><title>Node12&#45;&gt;Node14</title>
<path fill="none" stroke="midnightblue" d="M464.247,-116.753C472.484,-108.516 484.726,-96.2738 494.618,-86.3824"/>
<polygon fill="midnightblue" stroke="midnightblue" points="497.329,-88.6212 501.925,-79.0752 492.379,-83.6714 497.329,-88.6212"/>
</g>
<!-- Node14&#45;&gt;Node7 -->
<g id="edge23" class="edge"><title>Node14&#45;&gt;Node7</title>
<path fill="none" stroke="midnightblue" d="M488.684,-58.878C466.193,-49.6848 431.27,-35.4095 405.868,-25.0263"/>
<polygon fill="midnightblue" stroke="midnightblue" points="406.888,-21.6621 396.307,-21.1181 404.239,-28.1416 406.888,-21.6621"/>
</g>
<!-- Node14&#45;&gt;Node8 -->
<g id="edge22" class="edge"><title>Node14&#45;&gt;Node8</title>
<path fill="none" stroke="midnightblue" d="M499.936,-58.7527C489.79,-50.2718 474.56,-37.543 462.553,-27.5073"/>
<polygon fill="midnightblue" stroke="midnightblue" points="464.775,-24.8028 454.858,-21.0752 460.286,-30.1738 464.775,-24.8028"/>
</g>
<!-- Node14&#45;&gt;Node10 -->
<g id="edge25" class="edge"><title>Node14&#45;&gt;Node10</title>
<path fill="none" stroke="midnightblue" d="M523.054,-58.7527C534.216,-50.1903 551.023,-37.2978 564.161,-27.2186"/>
<polygon fill="midnightblue" stroke="midnightblue" points="566.366,-29.9388 572.17,-21.0752 562.105,-24.3848 566.366,-29.9388"/>
</g>
<!-- Node15 -->
<g id="node15" class="node"><title>Node15</title>
<g id="a_node15"><a xlink:href="ioctl_8h_source.html" target="_top" target="_top" xlink:title="ioctl.h">
<polygon fill="none" stroke="black" points="489.938,-1 489.938,-21 532.062,-21 532.062,-1 489.938,-1"/>
<text text-anchor="middle" x="511" y="-7" font-family="Helvetica,sans-Serif" font-size="10.00">ioctl.h</text>
</a>
</g>
</g>
<!-- Node14&#45;&gt;Node15 -->
<g id="edge24" class="edge"><title>Node14&#45;&gt;Node15</title>
<path fill="none" stroke="midnightblue" d="M511,-58.7527C511,-51.2504 511,-40.4238 511,-31.0781"/>
<polygon fill="midnightblue" stroke="midnightblue" points="514.5,-31.0752 511,-21.0752 507.5,-31.0752 514.5,-31.0752"/>
</g>
</g>
</svg>
