<?xml version="1.0" encoding="UTF-8" standalone="no"?>
<!DOCTYPE svg PUBLIC "-//W3C//DTD SVG 1.1//EN"
 "http://www.w3.org/Graphics/SVG/1.1/DTD/svg11.dtd">
<!-- Generated by graphviz version 2.34.0 (20130907.0228)
 -->
<!-- Title: /Users/tgil/git/CoActionOS/CoActionOS/include/dev/disk.h Pages: 1 -->
<svg width="136pt" height="112pt"
 viewBox="0.00 0.00 136.00 112.00" xmlns="http://www.w3.org/2000/svg" xmlns:xlink="http://www.w3.org/1999/xlink">
<g id="graph0" class="graph" transform="scale(1 1) rotate(0) translate(4 108)">
<title>/Users/tgil/git/CoActionOS/CoActionOS/include/dev/disk.h</title>
<!-- Node1 -->
<g id="node1" class="node"><title>Node1</title>
<polygon fill="#bfbfbf" stroke="black" points="-0.359375,-59 -0.359375,-103 122.359,-103 122.359,-59 -0.359375,-59"/>
<text text-anchor="start" x="7.64062" y="-89" font-family="Helvetica,sans-Serif" font-size="10.00">/Users/tgil/git/CoAction</text>
<text text-anchor="start" x="7.64062" y="-77" font-family="Helvetica,sans-Serif" font-size="10.00">OS/CoActionOS/include</text>
<text text-anchor="middle" x="61" y="-65" font-family="Helvetica,sans-Serif" font-size="10.00">/dev/disk.h</text>
</g>
<!-- Node2 -->
<g id="node2" class="node"><title>Node2</title>
<polygon fill="none" stroke="#bfbfbf" points="0.879395,-1 0.879395,-21 49.1206,-21 49.1206,-1 0.879395,-1"/>
<text text-anchor="middle" x="25" y="-7" font-family="Helvetica,sans-Serif" font-size="10.00">stdint.h</text>
</g>
<!-- Node1&#45;&gt;Node2 -->
<g id="edge1" class="edge"><title>Node1&#45;&gt;Node2</title>
<path fill="none" stroke="midnightblue" d="M49.8067,-58.8571C44.9478,-49.6792 39.3129,-39.0355 34.6428,-30.2141"/>
<polygon fill="midnightblue" stroke="midnightblue" points="37.6449,-28.4042 29.8727,-21.2039 31.4583,-31.6794 37.6449,-28.4042"/>
</g>
<!-- Node3 -->
<g id="node3" class="node"><title>Node3</title>
<g id="a_node3"><a xlink:href="ioctl_8h_source.html" target="_top" xlink:title="dev/ioctl.h">
<polygon fill="none" stroke="black" points="67.4878,-1 67.4878,-21 128.512,-21 128.512,-1 67.4878,-1"/>
<text text-anchor="middle" x="98" y="-7" font-family="Helvetica,sans-Serif" font-size="10.00">dev/ioctl.h</text>
</a>
</g>
</g>
<!-- Node1&#45;&gt;Node3 -->
<g id="edge2" class="edge"><title>Node1&#45;&gt;Node3</title>
<path fill="none" stroke="midnightblue" d="M72.5042,-58.8571C77.4981,-49.6792 83.2895,-39.0355 88.0894,-30.2141"/>
<polygon fill="midnightblue" stroke="midnightblue" points="91.2868,-31.6607 92.992,-21.2039 85.1381,-28.315 91.2868,-31.6607"/>
</g>
</g>
</svg>
