<?xml version="1.0" encoding="UTF-8" standalone="no"?>
<!DOCTYPE svg PUBLIC "-//W3C//DTD SVG 1.1//EN"
 "http://www.w3.org/Graphics/SVG/1.1/DTD/svg11.dtd">
<!-- Generated by graphviz version 2.34.0 (20130907.0228)
 -->
<!-- Title: /Users/tgil/git/CoActionOS/CoActionOS/include/hwpl.h Pages: 1 -->
<svg width="2439pt" height="218pt"
 viewBox="0.00 0.00 2439.00 218.00" xmlns="http://www.w3.org/2000/svg" xmlns:xlink="http://www.w3.org/1999/xlink">
<g id="graph0" class="graph" transform="scale(1 1) rotate(0) translate(4 214)">
<title>/Users/tgil/git/CoActionOS/CoActionOS/include/hwpl.h</title>
<!-- Node1 -->
<g id="node1" class="node"><title>Node1</title>
<polygon fill="#bfbfbf" stroke="black" points="1018.64,-165 1018.64,-209 1141.36,-209 1141.36,-165 1018.64,-165"/>
<text text-anchor="start" x="1026.64" y="-195" font-family="Helvetica,sans-Serif" font-size="10.00">/Users/tgil/git/CoAction</text>
<text text-anchor="start" x="1026.64" y="-183" font-family="Helvetica,sans-Serif" font-size="10.00">OS/CoActionOS/include</text>
<text text-anchor="middle" x="1080" y="-171" font-family="Helvetica,sans-Serif" font-size="10.00">/hwpl.h</text>
</g>
<!-- Node2 -->
<g id="node2" class="node"><title>Node2</title>
<g id="a_node2"><a xlink:href="caos_8h.html" target="_top" xlink:title="/Users/tgil/git/CoAction\lOS/CoActionOS/include\l/caos.h">
<polygon fill="none" stroke="black" points="-0.359375,-83 -0.359375,-127 122.359,-127 122.359,-83 -0.359375,-83"/>
<text text-anchor="start" x="7.64062" y="-113" font-family="Helvetica,sans-Serif" font-size="10.00">/Users/tgil/git/CoAction</text>
<text text-anchor="start" x="7.64062" y="-101" font-family="Helvetica,sans-Serif" font-size="10.00">OS/CoActionOS/include</text>
<text text-anchor="middle" x="61" y="-89" font-family="Helvetica,sans-Serif" font-size="10.00">/caos.h</text>
</a>
</g>
</g>
<!-- Node1&#45;&gt;Node2 -->
<g id="edge1" class="edge"><title>Node1&#45;&gt;Node2</title>
<path fill="none" stroke="midnightblue" d="M1008.4,-183.678C818.225,-177.179 303.55,-157.339 136,-128 131.589,-127.228 127.069,-126.289 122.542,-125.239"/>
<polygon fill="midnightblue" stroke="midnightblue" points="1008.45,-187.182 1018.57,-184.023 1008.69,-180.186 1008.45,-187.182"/>
</g>
<!-- Node3 -->
<g id="node3" class="node"><title>Node3</title>
<g id="a_node3"><a xlink:href="pthread__kill_8c.html" target="_top" xlink:title="/Users/tgil/git/CoAction\lOS/CoActionOS/src/sys\l/signal/pthread_kill.c">
<polygon fill="none" stroke="black" points="44.9312,-1 44.9312,-45 167.069,-45 167.069,-1 44.9312,-1"/>
<text text-anchor="start" x="52.9312" y="-31" font-family="Helvetica,sans-Serif" font-size="10.00">/Users/tgil/git/CoAction</text>
<text text-anchor="start" x="52.9312" y="-19" font-family="Helvetica,sans-Serif" font-size="10.00">OS/CoActionOS/src/sys</text>
<text text-anchor="middle" x="106" y="-7" font-family="Helvetica,sans-Serif" font-size="10.00">/signal/pthread_kill.c</text>
</a>
</g>
</g>
<!-- Node1&#45;&gt;Node3 -->
<g id="edge7" class="edge"><title>Node1&#45;&gt;Node3</title>
<path fill="none" stroke="midnightblue" d="M1008.08,-185.217C805.465,-182.484 240.021,-171.043 169,-128 153.113,-118.372 129.293,-72.826 115.957,-45.3003"/>
<polygon fill="midnightblue" stroke="midnightblue" points="1008.27,-188.719 1018.32,-185.351 1008.36,-181.72 1008.27,-188.719"/>
</g>
<!-- Node4 -->
<g id="node4" class="node"><title>Node4</title>
<g id="a_node4"><a xlink:href="usb__dev_8h_source.html" target="_top" xlink:title="/Users/tgil/git/CoAction\lOS/CoActionOS/include\l/usb_dev.h">
<polygon fill="none" stroke="black" points="177.641,-83 177.641,-127 300.359,-127 300.359,-83 177.641,-83"/>
<text text-anchor="start" x="185.641" y="-113" font-family="Helvetica,sans-Serif" font-size="10.00">/Users/tgil/git/CoAction</text>
<text text-anchor="start" x="185.641" y="-101" font-family="Helvetica,sans-Serif" font-size="10.00">OS/CoActionOS/include</text>
<text text-anchor="middle" x="239" y="-89" font-family="Helvetica,sans-Serif" font-size="10.00">/usb_dev.h</text>
</a>
</g>
</g>
<!-- Node1&#45;&gt;Node4 -->
<g id="edge3" class="edge"><title>Node1&#45;&gt;Node4</title>
<path fill="none" stroke="midnightblue" d="M1008.14,-185.959C871.109,-184.699 563.506,-176.184 310,-128 306.957,-127.422 303.861,-126.758 300.748,-126.031"/>
<polygon fill="midnightblue" stroke="midnightblue" points="1008.47,-189.462 1018.5,-186.043 1008.53,-182.462 1008.47,-189.462"/>
</g>
<!-- Node5 -->
<g id="node5" class="node"><title>Node5</title>
<g id="a_node5"><a xlink:href="usb__dev__std__inline_8h_source.html" target="_top" xlink:title="/Users/tgil/git/CoAction\lOS/CoActionOS/include\l/usb_dev_std_inline.h">
<polygon fill="none" stroke="black" points="318.641,-83 318.641,-127 441.359,-127 441.359,-83 318.641,-83"/>
<text text-anchor="start" x="326.641" y="-113" font-family="Helvetica,sans-Serif" font-size="10.00">/Users/tgil/git/CoAction</text>
<text text-anchor="start" x="326.641" y="-101" font-family="Helvetica,sans-Serif" font-size="10.00">OS/CoActionOS/include</text>
<text text-anchor="middle" x="380" y="-89" font-family="Helvetica,sans-Serif" font-size="10.00">/usb_dev_std_inline.h</text>
</a>
</g>
</g>
<!-- Node1&#45;&gt;Node5 -->
<g id="edge4" class="edge"><title>Node1&#45;&gt;Node5</title>
<path fill="none" stroke="midnightblue" d="M1008.25,-184.347C890.563,-180.533 649.658,-168.09 450,-128 447.252,-127.448 444.46,-126.829 441.651,-126.158"/>
<polygon fill="midnightblue" stroke="midnightblue" points="1008.46,-187.855 1018.56,-184.669 1008.67,-180.858 1008.46,-187.855"/>
</g>
<!-- Node6 -->
<g id="node6" class="node"><title>Node6</title>
<g id="a_node6"><a xlink:href="pthread__self_8c.html" target="_top" xlink:title="/Users/tgil/git/CoAction\lOS/CoActionOS/src/sys\l/pthread/pthread_self.c">
<polygon fill="none" stroke="black" points="458.931,-83 458.931,-127 581.069,-127 581.069,-83 458.931,-83"/>
<text text-anchor="start" x="466.931" y="-113" font-family="Helvetica,sans-Serif" font-size="10.00">/Users/tgil/git/CoAction</text>
<text text-anchor="start" x="466.931" y="-101" font-family="Helvetica,sans-Serif" font-size="10.00">OS/CoActionOS/src/sys</text>
<text text-anchor="middle" x="520" y="-89" font-family="Helvetica,sans-Serif" font-size="10.00">/pthread/pthread_self.c</text>
</a>
</g>
</g>
<!-- Node1&#45;&gt;Node6 -->
<g id="edge5" class="edge"><title>Node1&#45;&gt;Node6</title>
<path fill="none" stroke="midnightblue" d="M1008.1,-181.705C911.974,-175.008 736.681,-159.443 590,-128 587.135,-127.386 584.22,-126.705 581.287,-125.973"/>
<polygon fill="midnightblue" stroke="midnightblue" points="1008.07,-185.212 1018.28,-182.403 1008.55,-178.228 1008.07,-185.212"/>
</g>
<!-- Node7 -->
<g id="node7" class="node"><title>Node7</title>
<g id="a_node7"><a xlink:href="sched__posix_8c.html" target="_top" xlink:title="/Users/tgil/git/CoAction\lOS/CoActionOS/src/sys\l/sched/sched_posix.c">
<polygon fill="none" stroke="black" points="598.931,-83 598.931,-127 721.069,-127 721.069,-83 598.931,-83"/>
<text text-anchor="start" x="606.931" y="-113" font-family="Helvetica,sans-Serif" font-size="10.00">/Users/tgil/git/CoAction</text>
<text text-anchor="start" x="606.931" y="-101" font-family="Helvetica,sans-Serif" font-size="10.00">OS/CoActionOS/src/sys</text>
<text text-anchor="middle" x="660" y="-89" font-family="Helvetica,sans-Serif" font-size="10.00">/sched/sched_posix.c</text>
</a>
</g>
</g>
<!-- Node1&#45;&gt;Node7 -->
<g id="edge6" class="edge"><title>Node1&#45;&gt;Node7</title>
<path fill="none" stroke="midnightblue" d="M1008.27,-177.113C937.107,-167.594 825.215,-150.733 730,-128 727.15,-127.32 724.247,-126.584 721.324,-125.808"/>
<polygon fill="midnightblue" stroke="midnightblue" points="1008.09,-180.62 1018.47,-178.464 1009.01,-173.68 1008.09,-180.62"/>
</g>
<!-- Node8 -->
<g id="node8" class="node"><title>Node8</title>
<g id="a_node8"><a xlink:href="sig__realtime_8c.html" target="_top" xlink:title="/Users/tgil/git/CoAction\lOS/CoActionOS/src/sys\l/signal/sig_realtime.c">
<polygon fill="none" stroke="black" points="738.931,-83 738.931,-127 861.069,-127 861.069,-83 738.931,-83"/>
<text text-anchor="start" x="746.931" y="-113" font-family="Helvetica,sans-Serif" font-size="10.00">/Users/tgil/git/CoAction</text>
<text text-anchor="start" x="746.931" y="-101" font-family="Helvetica,sans-Serif" font-size="10.00">OS/CoActionOS/src/sys</text>
<text text-anchor="middle" x="800" y="-89" font-family="Helvetica,sans-Serif" font-size="10.00">/signal/sig_realtime.c</text>
</a>
</g>
</g>
<!-- Node1&#45;&gt;Node8 -->
<g id="edge8" class="edge"><title>Node1&#45;&gt;Node8</title>
<path fill="none" stroke="midnightblue" d="M1008.45,-166.904C967.757,-155.879 915.913,-141.551 870,-128 867.19,-127.171 864.32,-126.313 861.423,-125.438"/>
<polygon fill="midnightblue" stroke="midnightblue" points="1007.71,-170.33 1018.27,-169.562 1009.53,-163.573 1007.71,-170.33"/>
</g>
<!-- Node9 -->
<g id="node9" class="node"><title>Node9</title>
<g id="a_node9"><a xlink:href="__gettimeofday_8c.html" target="_top" xlink:title="/Users/tgil/git/CoAction\lOS/CoActionOS/src/sys\l/time/_gettimeofday.c">
<polygon fill="none" stroke="black" points="878.931,-83 878.931,-127 1001.07,-127 1001.07,-83 878.931,-83"/>
<text text-anchor="start" x="886.931" y="-113" font-family="Helvetica,sans-Serif" font-size="10.00">/Users/tgil/git/CoAction</text>
<text text-anchor="start" x="886.931" y="-101" font-family="Helvetica,sans-Serif" font-size="10.00">OS/CoActionOS/src/sys</text>
<text text-anchor="middle" x="940" y="-89" font-family="Helvetica,sans-Serif" font-size="10.00">/time/_gettimeofday.c</text>
</a>
</g>
</g>
<!-- Node1&#45;&gt;Node9 -->
<g id="edge9" class="edge"><title>Node1&#45;&gt;Node9</title>
<path fill="none" stroke="midnightblue" d="M1034.34,-159.908C1015.78,-149.3 994.601,-137.201 977.024,-127.156"/>
<polygon fill="midnightblue" stroke="midnightblue" points="1032.8,-163.058 1043.22,-164.981 1036.27,-156.981 1032.8,-163.058"/>
</g>
<!-- Node10 -->
<g id="node10" class="node"><title>Node10</title>
<g id="a_node10"><a xlink:href="__settimeofday_8c.html" target="_top" xlink:title="/Users/tgil/git/CoAction\lOS/CoActionOS/src/sys\l/time/_settimeofday.c">
<polygon fill="none" stroke="black" points="1018.93,-83 1018.93,-127 1141.07,-127 1141.07,-83 1018.93,-83"/>
<text text-anchor="start" x="1026.93" y="-113" font-family="Helvetica,sans-Serif" font-size="10.00">/Users/tgil/git/CoAction</text>
<text text-anchor="start" x="1026.93" y="-101" font-family="Helvetica,sans-Serif" font-size="10.00">OS/CoActionOS/src/sys</text>
<text text-anchor="middle" x="1080" y="-89" font-family="Helvetica,sans-Serif" font-size="10.00">/time/_settimeofday.c</text>
</a>
</g>
</g>
<!-- Node1&#45;&gt;Node10 -->
<g id="edge10" class="edge"><title>Node1&#45;&gt;Node10</title>
<path fill="none" stroke="midnightblue" d="M1080,-154.896C1080,-145.609 1080,-135.649 1080,-127.156"/>
<polygon fill="midnightblue" stroke="midnightblue" points="1076.5,-154.981 1080,-164.981 1083.5,-154.981 1076.5,-154.981"/>
</g>
<!-- Node11 -->
<g id="node11" class="node"><title>Node11</title>
<g id="a_node11"><a xlink:href="hibernate_8c.html" target="_top" xlink:title="/Users/tgil/git/CoAction\lOS/CoActionOS/src/sys\l/time/hibernate.c">
<polygon fill="none" stroke="black" points="1158.93,-83 1158.93,-127 1281.07,-127 1281.07,-83 1158.93,-83"/>
<text text-anchor="start" x="1166.93" y="-113" font-family="Helvetica,sans-Serif" font-size="10.00">/Users/tgil/git/CoAction</text>
<text text-anchor="start" x="1166.93" y="-101" font-family="Helvetica,sans-Serif" font-size="10.00">OS/CoActionOS/src/sys</text>
<text text-anchor="middle" x="1220" y="-89" font-family="Helvetica,sans-Serif" font-size="10.00">/time/hibernate.c</text>
</a>
</g>
</g>
<!-- Node1&#45;&gt;Node11 -->
<g id="edge11" class="edge"><title>Node1&#45;&gt;Node11</title>
<path fill="none" stroke="midnightblue" d="M1125.66,-159.908C1144.22,-149.3 1165.4,-137.201 1182.98,-127.156"/>
<polygon fill="midnightblue" stroke="midnightblue" points="1123.73,-156.981 1116.78,-164.981 1127.2,-163.058 1123.73,-156.981"/>
</g>
<!-- Node12 -->
<g id="node12" class="node"><title>Node12</title>
<g id="a_node12"><a xlink:href="__close_8c.html" target="_top" xlink:title="/Users/tgil/git/CoAction\lOS/CoActionOS/src/sys\l/unistd/_close.c">
<polygon fill="none" stroke="black" points="464.931,-1 464.931,-45 587.069,-45 587.069,-1 464.931,-1"/>
<text text-anchor="start" x="472.931" y="-31" font-family="Helvetica,sans-Serif" font-size="10.00">/Users/tgil/git/CoAction</text>
<text text-anchor="start" x="472.931" y="-19" font-family="Helvetica,sans-Serif" font-size="10.00">OS/CoActionOS/src/sys</text>
<text text-anchor="middle" x="526" y="-7" font-family="Helvetica,sans-Serif" font-size="10.00">/unistd/_close.c</text>
</a>
</g>
</g>
<!-- Node1&#45;&gt;Node12 -->
<g id="edge12" class="edge"><title>Node1&#45;&gt;Node12</title>
<path fill="none" stroke="midnightblue" d="M1151.5,-175.64C1205.47,-166.184 1273.04,-150.276 1290,-128 1302.38,-111.733 1304.08,-96.8261 1290,-82 1236.83,-26.0045 671.992,-59.6846 596,-46 593.116,-45.4807 590.186,-44.8772 587.24,-44.2087"/>
<polygon fill="midnightblue" stroke="midnightblue" points="1150.86,-172.197 1141.59,-177.33 1152.04,-179.098 1150.86,-172.197"/>
</g>
<!-- Node13 -->
<g id="node13" class="node"><title>Node13</title>
<g id="a_node13"><a xlink:href="unistd__flags_8h_source.html" target="_top" xlink:title="/Users/tgil/git/CoAction\lOS/CoActionOS/src/sys\l/unistd/unistd_flags.h">
<polygon fill="none" stroke="black" points="1374.93,-83 1374.93,-127 1497.07,-127 1497.07,-83 1374.93,-83"/>
<text text-anchor="start" x="1382.93" y="-113" font-family="Helvetica,sans-Serif" font-size="10.00">/Users/tgil/git/CoAction</text>
<text text-anchor="start" x="1382.93" y="-101" font-family="Helvetica,sans-Serif" font-size="10.00">OS/CoActionOS/src/sys</text>
<text text-anchor="middle" x="1436" y="-89" font-family="Helvetica,sans-Serif" font-size="10.00">/unistd/unistd_flags.h</text>
</a>
</g>
</g>
<!-- Node1&#45;&gt;Node13 -->
<g id="edge13" class="edge"><title>Node1&#45;&gt;Node13</title>
<path fill="none" stroke="midnightblue" d="M1151.44,-172.927C1208.45,-162.093 1290.21,-145.656 1361,-128 1365.48,-126.883 1370.09,-125.675 1374.72,-124.42"/>
<polygon fill="midnightblue" stroke="midnightblue" points="1150.62,-169.52 1141.45,-174.817 1151.92,-176.398 1150.62,-169.52"/>
</g>
<!-- Node19 -->
<g id="node19" class="node"><title>Node19</title>
<g id="a_node19"><a xlink:href="__open_8c.html" target="_top" xlink:title="/Users/tgil/git/CoAction\lOS/CoActionOS/src/sys\l/unistd/_open.c">
<polygon fill="none" stroke="black" points="604.931,-1 604.931,-45 727.069,-45 727.069,-1 604.931,-1"/>
<text text-anchor="start" x="612.931" y="-31" font-family="Helvetica,sans-Serif" font-size="10.00">/Users/tgil/git/CoAction</text>
<text text-anchor="start" x="612.931" y="-19" font-family="Helvetica,sans-Serif" font-size="10.00">OS/CoActionOS/src/sys</text>
<text text-anchor="middle" x="666" y="-7" font-family="Helvetica,sans-Serif" font-size="10.00">/unistd/_open.c</text>
</a>
</g>
</g>
<!-- Node1&#45;&gt;Node19 -->
<g id="edge30" class="edge"><title>Node1&#45;&gt;Node19</title>
<path fill="none" stroke="midnightblue" d="M1151.88,-179.2C1242.03,-168.064 1378.47,-140.981 1323,-82 1278.23,-34.4011 800.255,-57.8838 736,-46 733.119,-45.4672 730.191,-44.8525 727.247,-44.175"/>
<polygon fill="midnightblue" stroke="midnightblue" points="1151.19,-175.757 1141.68,-180.417 1152.02,-182.708 1151.19,-175.757"/>
</g>
<!-- Node23 -->
<g id="node23" class="node"><title>Node23</title>
<g id="a_node23"><a xlink:href="ioctl_8c.html" target="_top" xlink:title="/Users/tgil/git/CoAction\lOS/CoActionOS/src/sys\l/unistd/ioctl.c">
<polygon fill="none" stroke="black" points="2144.93,-1 2144.93,-45 2267.07,-45 2267.07,-1 2144.93,-1"/>
<text text-anchor="start" x="2152.93" y="-31" font-family="Helvetica,sans-Serif" font-size="10.00">/Users/tgil/git/CoAction</text>
<text text-anchor="start" x="2152.93" y="-19" font-family="Helvetica,sans-Serif" font-size="10.00">OS/CoActionOS/src/sys</text>
<text text-anchor="middle" x="2206" y="-7" font-family="Helvetica,sans-Serif" font-size="10.00">/unistd/ioctl.c</text>
</a>
</g>
</g>
<!-- Node1&#45;&gt;Node23 -->
<g id="edge31" class="edge"><title>Node1&#45;&gt;Node23</title>
<path fill="none" stroke="midnightblue" d="M1151.6,-182.05C1256.43,-175.297 1445.76,-159.145 1506,-128 1530.86,-115.146 1523.68,-93.9247 1549,-82 1667.23,-26.3138 2007.49,-69.7677 2136,-46 2138.88,-45.4672 2141.81,-44.8525 2144.75,-44.175"/>
<polygon fill="midnightblue" stroke="midnightblue" points="1151.18,-178.569 1141.42,-182.693 1151.62,-185.555 1151.18,-178.569"/>
</g>
<!-- Node26 -->
<g id="node26" class="node"><title>Node26</title>
<g id="a_node26"><a xlink:href="unistd__data__transfer_8c.html" target="_top" xlink:title="/Users/tgil/git/CoAction\lOS/CoActionOS/src/sys\l/unistd/unistd_data_transfer.c">
<polygon fill="none" stroke="black" points="2284.68,-1 2284.68,-45 2431.32,-45 2431.32,-1 2284.68,-1"/>
<text text-anchor="start" x="2292.68" y="-31" font-family="Helvetica,sans-Serif" font-size="10.00">/Users/tgil/git/CoAction</text>
<text text-anchor="start" x="2292.68" y="-19" font-family="Helvetica,sans-Serif" font-size="10.00">OS/CoActionOS/src/sys</text>
<text text-anchor="middle" x="2358" y="-7" font-family="Helvetica,sans-Serif" font-size="10.00">/unistd/unistd_data_transfer.c</text>
</a>
</g>
</g>
<!-- Node1&#45;&gt;Node26 -->
<g id="edge32" class="edge"><title>Node1&#45;&gt;Node26</title>
<path fill="none" stroke="midnightblue" d="M1151.72,-183.209C1264.19,-177.805 1476.03,-163.184 1542,-128 1565.91,-115.25 1557.64,-93.8683 1582,-82 1720.82,-14.3505 2123.47,-70.1419 2276,-46 2278.77,-45.5622 2281.57,-45.0682 2284.4,-44.5287"/>
<polygon fill="midnightblue" stroke="midnightblue" points="1151.31,-179.724 1141.48,-183.688 1151.64,-186.716 1151.31,-179.724"/>
</g>
<!-- Node27 -->
<g id="node27" class="node"><title>Node27</title>
<g id="a_node27"><a xlink:href="__getpid_8c.html" target="_top" xlink:title="/Users/tgil/git/CoAction\lOS/CoActionOS/src/sys\l/unistd/_getpid.c">
<polygon fill="none" stroke="black" points="1590.93,-83 1590.93,-127 1713.07,-127 1713.07,-83 1590.93,-83"/>
<text text-anchor="start" x="1598.93" y="-113" font-family="Helvetica,sans-Serif" font-size="10.00">/Users/tgil/git/CoAction</text>
<text text-anchor="start" x="1598.93" y="-101" font-family="Helvetica,sans-Serif" font-size="10.00">OS/CoActionOS/src/sys</text>
<text text-anchor="middle" x="1652" y="-89" font-family="Helvetica,sans-Serif" font-size="10.00">/unistd/_getpid.c</text>
</a>
</g>
</g>
<!-- Node1&#45;&gt;Node27 -->
<g id="edge28" class="edge"><title>Node1&#45;&gt;Node27</title>
<path fill="none" stroke="midnightblue" d="M1151.74,-181.453C1248.9,-174.429 1427.37,-158.449 1577,-128 1581.52,-127.08 1586.16,-126.016 1590.82,-124.863"/>
<polygon fill="midnightblue" stroke="midnightblue" points="1151.47,-177.964 1141.74,-182.166 1151.96,-184.947 1151.47,-177.964"/>
</g>
<!-- Node28 -->
<g id="node28" class="node"><title>Node28</title>
<g id="a_node28"><a xlink:href="__getppid_8c.html" target="_top" xlink:title="/Users/tgil/git/CoAction\lOS/CoActionOS/src/sys\l/unistd/_getppid.c">
<polygon fill="none" stroke="black" points="1730.93,-83 1730.93,-127 1853.07,-127 1853.07,-83 1730.93,-83"/>
<text text-anchor="start" x="1738.93" y="-113" font-family="Helvetica,sans-Serif" font-size="10.00">/Users/tgil/git/CoAction</text>
<text text-anchor="start" x="1738.93" y="-101" font-family="Helvetica,sans-Serif" font-size="10.00">OS/CoActionOS/src/sys</text>
<text text-anchor="middle" x="1792" y="-89" font-family="Helvetica,sans-Serif" font-size="10.00">/unistd/_getppid.c</text>
</a>
</g>
</g>
<!-- Node1&#45;&gt;Node28 -->
<g id="edge29" class="edge"><title>Node1&#45;&gt;Node28</title>
<path fill="none" stroke="midnightblue" d="M1151.82,-184.519C1271.26,-180.943 1517.8,-168.821 1722,-128 1724.87,-127.426 1727.79,-126.777 1730.73,-126.072"/>
<polygon fill="midnightblue" stroke="midnightblue" points="1151.6,-181.024 1141.7,-184.81 1151.8,-188.021 1151.6,-181.024"/>
</g>
<!-- Node2&#45;&gt;Node3 -->
<g id="edge2" class="edge"><title>Node2&#45;&gt;Node3</title>
<path fill="none" stroke="midnightblue" d="M77.824,-74.0907C83.2362,-64.4689 89.1172,-54.0138 94.0995,-45.1564"/>
<polygon fill="midnightblue" stroke="midnightblue" points="74.6754,-72.5492 72.8232,-82.9809 80.7764,-75.9811 74.6754,-72.5492"/>
</g>
<!-- Node13&#45;&gt;Node12 -->
<g id="edge14" class="edge"><title>Node13&#45;&gt;Node12</title>
<path fill="none" stroke="midnightblue" d="M1364.75,-88.5281C1350.96,-85.9866 1336.57,-83.6485 1323,-82 1001.85,-42.9892 914.453,-102.96 596,-46 593.116,-45.4841 590.185,-44.8834 587.239,-44.2171"/>
<polygon fill="midnightblue" stroke="midnightblue" points="1364.2,-91.9851 1374.67,-90.4077 1365.5,-85.1074 1364.2,-91.9851"/>
</g>
<!-- Node14 -->
<g id="node14" class="node"><title>Node14</title>
<g id="a_node14"><a xlink:href="__fcntl_8c.html" target="_top" xlink:title="/Users/tgil/git/CoAction\lOS/CoActionOS/src/sys\l/unistd/_fcntl.c">
<polygon fill="none" stroke="black" points="1444.93,-1 1444.93,-45 1567.07,-45 1567.07,-1 1444.93,-1"/>
<text text-anchor="start" x="1452.93" y="-31" font-family="Helvetica,sans-Serif" font-size="10.00">/Users/tgil/git/CoAction</text>
<text text-anchor="start" x="1452.93" y="-19" font-family="Helvetica,sans-Serif" font-size="10.00">OS/CoActionOS/src/sys</text>
<text text-anchor="middle" x="1506" y="-7" font-family="Helvetica,sans-Serif" font-size="10.00">/unistd/_fcntl.c</text>
</a>
</g>
</g>
<!-- Node13&#45;&gt;Node14 -->
<g id="edge15" class="edge"><title>Node13&#45;&gt;Node14</title>
<path fill="none" stroke="midnightblue" d="M1461.13,-75.2766C1469.83,-65.3339 1479.42,-54.379 1487.49,-45.1564"/>
<polygon fill="midnightblue" stroke="midnightblue" points="1458.34,-73.1504 1454.39,-82.9809 1463.61,-77.7599 1458.34,-73.1504"/>
</g>
<!-- Node15 -->
<g id="node15" class="node"><title>Node15</title>
<g id="a_node15"><a xlink:href="__fstat_8c.html" target="_top" xlink:title="/Users/tgil/git/CoAction\lOS/CoActionOS/src/sys\l/unistd/_fstat.c">
<polygon fill="none" stroke="black" points="1584.93,-1 1584.93,-45 1707.07,-45 1707.07,-1 1584.93,-1"/>
<text text-anchor="start" x="1592.93" y="-31" font-family="Helvetica,sans-Serif" font-size="10.00">/Users/tgil/git/CoAction</text>
<text text-anchor="start" x="1592.93" y="-19" font-family="Helvetica,sans-Serif" font-size="10.00">OS/CoActionOS/src/sys</text>
<text text-anchor="middle" x="1646" y="-7" font-family="Helvetica,sans-Serif" font-size="10.00">/unistd/_fstat.c</text>
</a>
</g>
</g>
<!-- Node13&#45;&gt;Node15 -->
<g id="edge16" class="edge"><title>Node13&#45;&gt;Node15</title>
<path fill="none" stroke="midnightblue" d="M1500.76,-79.3308C1529.6,-68.3445 1563.21,-55.5401 1590.83,-45.0174"/>
<polygon fill="midnightblue" stroke="midnightblue" points="1499.27,-76.1502 1491.18,-82.9809 1501.77,-82.6916 1499.27,-76.1502"/>
</g>
<!-- Node16 -->
<g id="node16" class="node"><title>Node16</title>
<g id="a_node16"><a xlink:href="__isatty_8c.html" target="_top" xlink:title="/Users/tgil/git/CoAction\lOS/CoActionOS/src/sys\l/unistd/_isatty.c">
<polygon fill="none" stroke="black" points="1724.93,-1 1724.93,-45 1847.07,-45 1847.07,-1 1724.93,-1"/>
<text text-anchor="start" x="1732.93" y="-31" font-family="Helvetica,sans-Serif" font-size="10.00">/Users/tgil/git/CoAction</text>
<text text-anchor="start" x="1732.93" y="-19" font-family="Helvetica,sans-Serif" font-size="10.00">OS/CoActionOS/src/sys</text>
<text text-anchor="middle" x="1786" y="-7" font-family="Helvetica,sans-Serif" font-size="10.00">/unistd/_isatty.c</text>
</a>
</g>
</g>
<!-- Node13&#45;&gt;Node16 -->
<g id="edge17" class="edge"><title>Node13&#45;&gt;Node16</title>
<path fill="none" stroke="midnightblue" d="M1507.18,-82.9107C1508.46,-82.5992 1509.74,-82.2953 1511,-82 1601.08,-60.9484 1626.13,-67.9145 1716,-46 1718.85,-45.3059 1721.75,-44.5589 1724.67,-43.7742"/>
<polygon fill="midnightblue" stroke="midnightblue" points="1506.08,-79.5791 1497.25,-85.4298 1507.8,-86.3643 1506.08,-79.5791"/>
</g>
<!-- Node17 -->
<g id="node17" class="node"><title>Node17</title>
<g id="a_node17"><a xlink:href="__link_8c.html" target="_top" xlink:title="/Users/tgil/git/CoAction\lOS/CoActionOS/src/sys\l/unistd/_link.c">
<polygon fill="none" stroke="black" points="1864.93,-1 1864.93,-45 1987.07,-45 1987.07,-1 1864.93,-1"/>
<text text-anchor="start" x="1872.93" y="-31" font-family="Helvetica,sans-Serif" font-size="10.00">/Users/tgil/git/CoAction</text>
<text text-anchor="start" x="1872.93" y="-19" font-family="Helvetica,sans-Serif" font-size="10.00">OS/CoActionOS/src/sys</text>
<text text-anchor="middle" x="1926" y="-7" font-family="Helvetica,sans-Serif" font-size="10.00">/unistd/_link.c</text>
</a>
</g>
</g>
<!-- Node13&#45;&gt;Node17 -->
<g id="edge18" class="edge"><title>Node13&#45;&gt;Node17</title>
<path fill="none" stroke="midnightblue" d="M1507.15,-82.7875C1508.44,-82.5139 1509.73,-82.251 1511,-82 1662.25,-52.1807 1705.04,-77.2686 1856,-46 1858.87,-45.4057 1861.79,-44.7407 1864.72,-44.0223"/>
<polygon fill="midnightblue" stroke="midnightblue" points="1506.14,-79.43 1497.17,-85.0744 1507.7,-86.2533 1506.14,-79.43"/>
</g>
<!-- Node18 -->
<g id="node18" class="node"><title>Node18</title>
<g id="a_node18"><a xlink:href="__lseek_8c.html" target="_top" xlink:title="/Users/tgil/git/CoAction\lOS/CoActionOS/src/sys\l/unistd/_lseek.c">
<polygon fill="none" stroke="black" points="2004.93,-1 2004.93,-45 2127.07,-45 2127.07,-1 2004.93,-1"/>
<text text-anchor="start" x="2012.93" y="-31" font-family="Helvetica,sans-Serif" font-size="10.00">/Users/tgil/git/CoAction</text>
<text text-anchor="start" x="2012.93" y="-19" font-family="Helvetica,sans-Serif" font-size="10.00">OS/CoActionOS/src/sys</text>
<text text-anchor="middle" x="2066" y="-7" font-family="Helvetica,sans-Serif" font-size="10.00">/unistd/_lseek.c</text>
</a>
</g>
</g>
<!-- Node13&#45;&gt;Node18 -->
<g id="edge19" class="edge"><title>Node13&#45;&gt;Node18</title>
<path fill="none" stroke="midnightblue" d="M1507.14,-82.7346C1508.44,-82.4772 1509.72,-82.2319 1511,-82 1723.67,-43.3647 1783.71,-86.6732 1996,-46 1998.88,-45.4487 2001.8,-44.8188 2004.74,-44.129"/>
<polygon fill="midnightblue" stroke="midnightblue" points="1506.16,-79.3664 1497.14,-84.9216 1507.66,-86.2048 1506.16,-79.3664"/>
</g>
<!-- Node13&#45;&gt;Node19 -->
<g id="edge20" class="edge"><title>Node13&#45;&gt;Node19</title>
<path fill="none" stroke="midnightblue" d="M1364.86,-82.7052C1363.57,-82.4569 1362.28,-82.2214 1361,-82 1086.84,-34.5341 1009.69,-96.0931 736,-46 733.118,-45.4725 730.189,-44.8622 727.244,-44.1883"/>
<polygon fill="midnightblue" stroke="midnightblue" points="1364.36,-86.1778 1374.87,-84.8367 1365.82,-79.3312 1364.36,-86.1778"/>
</g>
<!-- Node20 -->
<g id="node20" class="node"><title>Node20</title>
<g id="a_node20"><a xlink:href="__read_8c.html" target="_top" xlink:title="/Users/tgil/git/CoAction\lOS/CoActionOS/src/sys\l/unistd/_read.c">
<polygon fill="none" stroke="black" points="744.931,-1 744.931,-45 867.069,-45 867.069,-1 744.931,-1"/>
<text text-anchor="start" x="752.931" y="-31" font-family="Helvetica,sans-Serif" font-size="10.00">/Users/tgil/git/CoAction</text>
<text text-anchor="start" x="752.931" y="-19" font-family="Helvetica,sans-Serif" font-size="10.00">OS/CoActionOS/src/sys</text>
<text text-anchor="middle" x="806" y="-7" font-family="Helvetica,sans-Serif" font-size="10.00">/unistd/_read.c</text>
</a>
</g>
</g>
<!-- Node13&#45;&gt;Node20 -->
<g id="edge21" class="edge"><title>Node13&#45;&gt;Node20</title>
<path fill="none" stroke="midnightblue" d="M1364.86,-82.7346C1363.56,-82.4772 1362.28,-82.2319 1361,-82 1148.33,-43.3647 1088.29,-86.6732 876,-46 873.122,-45.4487 870.197,-44.8188 867.255,-44.129"/>
<polygon fill="midnightblue" stroke="midnightblue" points="1364.34,-86.2048 1374.86,-84.9216 1365.84,-79.3664 1364.34,-86.2048"/>
</g>
<!-- Node21 -->
<g id="node21" class="node"><title>Node21</title>
<g id="a_node21"><a xlink:href="__symlink_8c.html" target="_top" xlink:title="/Users/tgil/git/CoAction\lOS/CoActionOS/src/sys\l/unistd/_symlink.c">
<polygon fill="none" stroke="black" points="884.931,-1 884.931,-45 1007.07,-45 1007.07,-1 884.931,-1"/>
<text text-anchor="start" x="892.931" y="-31" font-family="Helvetica,sans-Serif" font-size="10.00">/Users/tgil/git/CoAction</text>
<text text-anchor="start" x="892.931" y="-19" font-family="Helvetica,sans-Serif" font-size="10.00">OS/CoActionOS/src/sys</text>
<text text-anchor="middle" x="946" y="-7" font-family="Helvetica,sans-Serif" font-size="10.00">/unistd/_symlink.c</text>
</a>
</g>
</g>
<!-- Node13&#45;&gt;Node21 -->
<g id="edge22" class="edge"><title>Node13&#45;&gt;Node21</title>
<path fill="none" stroke="midnightblue" d="M1364.85,-82.7875C1363.56,-82.5139 1362.27,-82.251 1361,-82 1209.75,-52.1807 1166.96,-77.2686 1016,-46 1013.13,-45.4057 1010.21,-44.7407 1007.28,-44.0223"/>
<polygon fill="midnightblue" stroke="midnightblue" points="1364.3,-86.2533 1374.83,-85.0744 1365.86,-79.43 1364.3,-86.2533"/>
</g>
<!-- Node22 -->
<g id="node22" class="node"><title>Node22</title>
<g id="a_node22"><a xlink:href="__write_8c.html" target="_top" xlink:title="/Users/tgil/git/CoAction\lOS/CoActionOS/src/sys\l/unistd/_write.c">
<polygon fill="none" stroke="black" points="1024.93,-1 1024.93,-45 1147.07,-45 1147.07,-1 1024.93,-1"/>
<text text-anchor="start" x="1032.93" y="-31" font-family="Helvetica,sans-Serif" font-size="10.00">/Users/tgil/git/CoAction</text>
<text text-anchor="start" x="1032.93" y="-19" font-family="Helvetica,sans-Serif" font-size="10.00">OS/CoActionOS/src/sys</text>
<text text-anchor="middle" x="1086" y="-7" font-family="Helvetica,sans-Serif" font-size="10.00">/unistd/_write.c</text>
</a>
</g>
</g>
<!-- Node13&#45;&gt;Node22 -->
<g id="edge23" class="edge"><title>Node13&#45;&gt;Node22</title>
<path fill="none" stroke="midnightblue" d="M1364.82,-82.9107C1363.54,-82.5992 1362.26,-82.2953 1361,-82 1270.92,-60.9484 1245.87,-67.9145 1156,-46 1153.15,-45.3059 1150.25,-44.5589 1147.33,-43.7742"/>
<polygon fill="midnightblue" stroke="midnightblue" points="1364.2,-86.3643 1374.75,-85.4298 1365.92,-79.5791 1364.2,-86.3643"/>
</g>
<!-- Node13&#45;&gt;Node23 -->
<g id="edge24" class="edge"><title>Node13&#45;&gt;Node23</title>
<path fill="none" stroke="midnightblue" d="M1507.14,-82.7052C1508.43,-82.4569 1509.72,-82.2214 1511,-82 1785.16,-34.5341 1862.31,-96.0931 2136,-46 2138.88,-45.4725 2141.81,-44.8622 2144.76,-44.1883"/>
<polygon fill="midnightblue" stroke="midnightblue" points="1506.18,-79.3312 1497.13,-84.8367 1507.64,-86.1778 1506.18,-79.3312"/>
</g>
<!-- Node24 -->
<g id="node24" class="node"><title>Node24</title>
<g id="a_node24"><a xlink:href="mkdir_8c.html" target="_top" xlink:title="/Users/tgil/git/CoAction\lOS/CoActionOS/src/sys\l/unistd/mkdir.c">
<polygon fill="none" stroke="black" points="1164.93,-1 1164.93,-45 1287.07,-45 1287.07,-1 1164.93,-1"/>
<text text-anchor="start" x="1172.93" y="-31" font-family="Helvetica,sans-Serif" font-size="10.00">/Users/tgil/git/CoAction</text>
<text text-anchor="start" x="1172.93" y="-19" font-family="Helvetica,sans-Serif" font-size="10.00">OS/CoActionOS/src/sys</text>
<text text-anchor="middle" x="1226" y="-7" font-family="Helvetica,sans-Serif" font-size="10.00">/unistd/mkdir.c</text>
</a>
</g>
</g>
<!-- Node13&#45;&gt;Node24 -->
<g id="edge25" class="edge"><title>Node13&#45;&gt;Node24</title>
<path fill="none" stroke="midnightblue" d="M1371.24,-79.3308C1342.4,-68.3445 1308.79,-55.5401 1281.17,-45.0174"/>
<polygon fill="midnightblue" stroke="midnightblue" points="1370.23,-82.6916 1380.82,-82.9809 1372.73,-76.1502 1370.23,-82.6916"/>
</g>
<!-- Node25 -->
<g id="node25" class="node"><title>Node25</title>
<g id="a_node25"><a xlink:href="rmdir_8c.html" target="_top" xlink:title="/Users/tgil/git/CoAction\lOS/CoActionOS/src/sys\l/unistd/rmdir.c">
<polygon fill="none" stroke="black" points="1304.93,-1 1304.93,-45 1427.07,-45 1427.07,-1 1304.93,-1"/>
<text text-anchor="start" x="1312.93" y="-31" font-family="Helvetica,sans-Serif" font-size="10.00">/Users/tgil/git/CoAction</text>
<text text-anchor="start" x="1312.93" y="-19" font-family="Helvetica,sans-Serif" font-size="10.00">OS/CoActionOS/src/sys</text>
<text text-anchor="middle" x="1366" y="-7" font-family="Helvetica,sans-Serif" font-size="10.00">/unistd/rmdir.c</text>
</a>
</g>
</g>
<!-- Node13&#45;&gt;Node25 -->
<g id="edge26" class="edge"><title>Node13&#45;&gt;Node25</title>
<path fill="none" stroke="midnightblue" d="M1410.87,-75.2766C1402.17,-65.3339 1392.58,-54.379 1384.51,-45.1564"/>
<polygon fill="midnightblue" stroke="midnightblue" points="1408.39,-77.7599 1417.61,-82.9809 1413.66,-73.1504 1408.39,-77.7599"/>
</g>
<!-- Node13&#45;&gt;Node26 -->
<g id="edge27" class="edge"><title>Node13&#45;&gt;Node26</title>
<path fill="none" stroke="midnightblue" d="M1507.25,-88.5281C1521.04,-85.9866 1535.43,-83.6485 1549,-82 1870.15,-42.9892 1956.41,-96.1984 2276,-46 2278.77,-45.5654 2281.57,-45.0742 2284.4,-44.5371"/>
<polygon fill="midnightblue" stroke="midnightblue" points="1506.5,-85.1074 1497.33,-90.4077 1507.8,-91.9851 1506.5,-85.1074"/>
</g>
</g>
</svg>
