<?xml version="1.0" encoding="UTF-8" standalone="no"?>
<!DOCTYPE svg PUBLIC "-//W3C//DTD SVG 1.1//EN"
 "http://www.w3.org/Graphics/SVG/1.1/DTD/svg11.dtd">
<!-- Generated by graphviz version 2.34.0 (20130907.0228)
 -->
<!-- Title: /Users/tgil/git/CoActionOS/CoActionOS/src/sys/mqueue/mqueue.c Pages: 1 -->
<svg width="1680pt" height="310pt"
 viewBox="0.00 0.00 1680.29 310.00" xmlns="http://www.w3.org/2000/svg" xmlns:xlink="http://www.w3.org/1999/xlink">
<g id="graph0" class="graph" transform="scale(1 1) rotate(0) translate(4 306)">
<title>/Users/tgil/git/CoActionOS/CoActionOS/src/sys/mqueue/mqueue.c</title>
<!-- Node1 -->
<g id="node1" class="node"><title>Node1</title>
<polygon fill="#bfbfbf" stroke="black" points="630.22,-257 630.22,-301 752.358,-301 752.358,-257 630.22,-257"/>
<text text-anchor="start" x="638.22" y="-287" font-family="Helvetica,sans-Serif" font-size="10.00">/Users/tgil/git/CoAction</text>
<text text-anchor="start" x="638.22" y="-275" font-family="Helvetica,sans-Serif" font-size="10.00">OS/CoActionOS/src/sys</text>
<text text-anchor="middle" x="691.289" y="-263" font-family="Helvetica,sans-Serif" font-size="10.00">/mqueue/mqueue.c</text>
</g>
<!-- Node2 -->
<g id="node2" class="node"><title>Node2</title>
<polygon fill="none" stroke="#bfbfbf" points="441.279,-117 441.279,-137 507.299,-137 507.299,-117 441.279,-117"/>
<text text-anchor="middle" x="474.289" y="-123" font-family="Helvetica,sans-Serif" font-size="10.00">sys/types.h</text>
</g>
<!-- Node1&#45;&gt;Node2 -->
<g id="edge1" class="edge"><title>Node1&#45;&gt;Node2</title>
<path fill="none" stroke="midnightblue" d="M667.348,-256.926C655.546,-246.21 641.304,-232.779 629.289,-220 611.125,-200.68 612.756,-189.569 591.289,-174 569.104,-157.91 540.535,-146.538 517.181,-139.126"/>
<polygon fill="midnightblue" stroke="midnightblue" points="518.112,-135.75 507.526,-136.189 516.075,-142.447 518.112,-135.75"/>
</g>
<!-- Node3 -->
<g id="node3" class="node"><title>Node3</title>
<polygon fill="none" stroke="#bfbfbf" points="23.0552,-117 23.0552,-137 73.523,-137 73.523,-117 23.0552,-117"/>
<text text-anchor="middle" x="48.2891" y="-123" font-family="Helvetica,sans-Serif" font-size="10.00">signal.h</text>
</g>
<!-- Node1&#45;&gt;Node3 -->
<g id="edge2" class="edge"><title>Node1&#45;&gt;Node3</title>
<path fill="none" stroke="midnightblue" d="M630.09,-277.419C470.292,-275.271 49.9274,-265.324 8.28909,-220 -5.54218,-204.944 1.12778,-193.149 8.28909,-174 12.5152,-162.7 20.9095,-152.342 28.9217,-144.328"/>
<polygon fill="midnightblue" stroke="midnightblue" points="31.7018,-146.522 36.638,-137.147 26.9331,-141.397 31.7018,-146.522"/>
</g>
<!-- Node4 -->
<g id="node4" class="node"><title>Node4</title>
<polygon fill="none" stroke="#bfbfbf" points="33.4468,-187 33.4468,-207 81.1314,-207 81.1314,-187 33.4468,-187"/>
<text text-anchor="middle" x="57.2891" y="-193" font-family="Helvetica,sans-Serif" font-size="10.00">errno.h</text>
</g>
<!-- Node1&#45;&gt;Node4 -->
<g id="edge3" class="edge"><title>Node1&#45;&gt;Node4</title>
<path fill="none" stroke="midnightblue" d="M629.785,-275.858C497.206,-270.629 188.546,-254.99 90.2891,-220 85.4363,-218.272 80.6016,-215.675 76.1888,-212.865"/>
<polygon fill="midnightblue" stroke="midnightblue" points="78.047,-209.893 67.8529,-207.006 74.022,-215.62 78.047,-209.893"/>
</g>
<!-- Node5 -->
<g id="node5" class="node"><title>Node5</title>
<polygon fill="none" stroke="#bfbfbf" points="98.9492,-187 98.9492,-207 141.629,-207 141.629,-187 98.9492,-187"/>
<text text-anchor="middle" x="120.289" y="-193" font-family="Helvetica,sans-Serif" font-size="10.00">fcntl.h</text>
</g>
<!-- Node1&#45;&gt;Node5 -->
<g id="edge4" class="edge"><title>Node1&#45;&gt;Node5</title>
<path fill="none" stroke="midnightblue" d="M629.821,-275.427C507.182,-269.64 236.494,-253.414 150.289,-220 146.089,-218.372 141.95,-215.998 138.151,-213.405"/>
<polygon fill="midnightblue" stroke="midnightblue" points="140.108,-210.495 130.036,-207.207 135.859,-216.058 140.108,-210.495"/>
</g>
<!-- Node6 -->
<g id="node6" class="node"><title>Node6</title>
<polygon fill="none" stroke="#bfbfbf" points="159.777,-187 159.777,-207 210.801,-207 210.801,-187 159.777,-187"/>
<text text-anchor="middle" x="185.289" y="-193" font-family="Helvetica,sans-Serif" font-size="10.00">unistd.h</text>
</g>
<!-- Node1&#45;&gt;Node6 -->
<g id="edge5" class="edge"><title>Node1&#45;&gt;Node6</title>
<path fill="none" stroke="midnightblue" d="M630.22,-273.917C520.258,-266.001 293.498,-246.944 219.289,-220 214.424,-218.233 209.544,-215.663 205.062,-212.898"/>
<polygon fill="midnightblue" stroke="midnightblue" points="206.794,-209.844 196.55,-207.142 202.873,-215.643 206.794,-209.844"/>
</g>
<!-- Node7 -->
<g id="node7" class="node"><title>Node7</title>
<polygon fill="none" stroke="#bfbfbf" points="228.343,-187 228.343,-207 308.235,-207 308.235,-187 228.343,-187"/>
<text text-anchor="middle" x="268.289" y="-193" font-family="Helvetica,sans-Serif" font-size="10.00">sys/syslimits.h</text>
</g>
<!-- Node1&#45;&gt;Node7 -->
<g id="edge6" class="edge"><title>Node1&#45;&gt;Node7</title>
<path fill="none" stroke="midnightblue" d="M629.947,-273.558C554.939,-266.977 424.707,-251.813 317.289,-220 309.79,-217.779 301.945,-214.652 294.785,-211.45"/>
<polygon fill="midnightblue" stroke="midnightblue" points="296.084,-208.194 285.544,-207.117 293.113,-214.532 296.084,-208.194"/>
</g>
<!-- Node8 -->
<g id="node8" class="node"><title>Node8</title>
<polygon fill="none" stroke="#bfbfbf" points="570.168,-1 570.168,-21 618.41,-21 618.41,-1 570.168,-1"/>
<text text-anchor="middle" x="594.289" y="-7" font-family="Helvetica,sans-Serif" font-size="10.00">stdint.h</text>
</g>
<!-- Node1&#45;&gt;Node8 -->
<g id="edge7" class="edge"><title>Node1&#45;&gt;Node8</title>
<path fill="none" stroke="midnightblue" d="M700.021,-256.939C707.832,-234.452 715.743,-198.724 699.289,-174 676.333,-139.504 643.939,-165.884 613.289,-138 585.084,-112.339 577.437,-95.8217 582.289,-58 583.457,-48.8928 585.877,-39.0138 588.239,-30.7538"/>
<polygon fill="midnightblue" stroke="midnightblue" points="591.635,-31.6149 591.201,-21.0289 584.939,-29.575 591.635,-31.6149"/>
</g>
<!-- Node9 -->
<g id="node9" class="node"><title>Node9</title>
<polygon fill="none" stroke="#bfbfbf" points="404.558,-187 404.558,-207 450.021,-207 450.021,-187 404.558,-187"/>
<text text-anchor="middle" x="427.289" y="-193" font-family="Helvetica,sans-Serif" font-size="10.00">stdio.h</text>
</g>
<!-- Node1&#45;&gt;Node9 -->
<g id="edge8" class="edge"><title>Node1&#45;&gt;Node9</title>
<path fill="none" stroke="midnightblue" d="M630.203,-268.879C582.235,-260.278 514.546,-244.917 459.289,-220 455.141,-218.129 450.955,-215.716 447.04,-213.175"/>
<polygon fill="midnightblue" stroke="midnightblue" points="448.739,-210.092 438.543,-207.214 444.719,-215.822 448.739,-210.092"/>
</g>
<!-- Node10 -->
<g id="node10" class="node"><title>Node10</title>
<polygon fill="none" stroke="#bfbfbf" points="468.447,-187 468.447,-207 516.131,-207 516.131,-187 468.447,-187"/>
<text text-anchor="middle" x="492.289" y="-193" font-family="Helvetica,sans-Serif" font-size="10.00">stdlib.h</text>
</g>
<!-- Node1&#45;&gt;Node10 -->
<g id="edge9" class="edge"><title>Node1&#45;&gt;Node10</title>
<path fill="none" stroke="midnightblue" d="M629.86,-260.61C597.891,-250.554 558.627,-236.603 525.289,-220 521.084,-217.906 516.777,-215.366 512.721,-212.766"/>
<polygon fill="midnightblue" stroke="midnightblue" points="514.624,-209.827 504.378,-207.129 510.705,-215.628 514.624,-209.827"/>
</g>
<!-- Node11 -->
<g id="node11" class="node"><title>Node11</title>
<polygon fill="none" stroke="#bfbfbf" points="533.893,-187 533.893,-207 582.686,-207 582.686,-187 533.893,-187"/>
<text text-anchor="middle" x="558.289" y="-193" font-family="Helvetica,sans-Serif" font-size="10.00">string.h</text>
</g>
<!-- Node1&#45;&gt;Node11 -->
<g id="edge10" class="edge"><title>Node1&#45;&gt;Node11</title>
<path fill="none" stroke="midnightblue" d="M656.345,-256.981C632.985,-242.93 602.862,-224.811 582.204,-212.385"/>
<polygon fill="midnightblue" stroke="midnightblue" points="583.81,-209.267 573.437,-207.111 580.202,-215.265 583.81,-209.267"/>
</g>
<!-- Node12 -->
<g id="node12" class="node"><title>Node12</title>
<polygon fill="none" stroke="#bfbfbf" points="252.732,-117 252.732,-137 299.846,-137 299.846,-117 252.732,-117"/>
<text text-anchor="middle" x="276.289" y="-123" font-family="Helvetica,sans-Serif" font-size="10.00">limits.h</text>
</g>
<!-- Node1&#45;&gt;Node12 -->
<g id="edge11" class="edge"><title>Node1&#45;&gt;Node12</title>
<path fill="none" stroke="midnightblue" d="M630.098,-277.285C472.977,-274.818 64.7916,-264.177 24.2891,-220 -40.2375,-149.619 160.203,-132.962 242.604,-129.119"/>
<polygon fill="midnightblue" stroke="midnightblue" points="242.886,-132.61 252.727,-128.684 242.586,-125.617 242.886,-132.61"/>
</g>
<!-- Node13 -->
<g id="node13" class="node"><title>Node13</title>
<polygon fill="none" stroke="#bfbfbf" points="638.223,-187 638.223,-207 690.355,-207 690.355,-187 638.223,-187"/>
<text text-anchor="middle" x="664.289" y="-193" font-family="Helvetica,sans-Serif" font-size="10.00">stdarg.h</text>
</g>
<!-- Node1&#45;&gt;Node13 -->
<g id="edge12" class="edge"><title>Node1&#45;&gt;Node13</title>
<path fill="none" stroke="midnightblue" d="M684.195,-256.981C679.99,-244.521 674.705,-228.861 670.637,-216.81"/>
<polygon fill="midnightblue" stroke="midnightblue" points="673.948,-215.675 667.434,-207.319 667.316,-217.913 673.948,-215.675"/>
</g>
<!-- Node14 -->
<g id="node14" class="node"><title>Node14</title>
<g id="a_node14"><a xlink:href="sysfs_8h_source.html" target="_top" xlink:title="sysfs.h">
<polygon fill="none" stroke="black" points="746.73,-187 746.73,-207 793.848,-207 793.848,-187 746.73,-187"/>
<text text-anchor="middle" x="770.289" y="-193" font-family="Helvetica,sans-Serif" font-size="10.00">sysfs.h</text>
</a>
</g>
</g>
<!-- Node1&#45;&gt;Node14 -->
<g id="edge13" class="edge"><title>Node1&#45;&gt;Node14</title>
<path fill="none" stroke="midnightblue" d="M712.045,-256.981C725.096,-243.765 741.7,-226.951 753.838,-214.66"/>
<polygon fill="midnightblue" stroke="midnightblue" points="756.551,-216.894 761.087,-207.319 751.57,-211.975 756.551,-216.894"/>
</g>
<!-- Node15 -->
<g id="node15" class="node"><title>Node15</title>
<polygon fill="none" stroke="#bfbfbf" points="803.996,-1 803.996,-21 860.582,-21 860.582,-1 803.996,-1"/>
<text text-anchor="middle" x="832.289" y="-7" font-family="Helvetica,sans-Serif" font-size="10.00">stdbool.h</text>
</g>
<!-- Node1&#45;&gt;Node15 -->
<g id="edge39" class="edge"><title>Node1&#45;&gt;Node15</title>
<path fill="none" stroke="midnightblue" d="M741.302,-256.963C761.328,-247.28 783.949,-234.666 802.289,-220 823.222,-203.26 819.087,-189.016 841.289,-174 883.2,-145.655 919.705,-179.046 949.289,-138 966.434,-114.213 934.156,-69.3853 923.289,-58 908.851,-42.8732 888.362,-31.9121 870.481,-24.4932"/>
<polygon fill="midnightblue" stroke="midnightblue" points="871.457,-21.117 860.869,-20.732 868.906,-27.6356 871.457,-21.117"/>
</g>
<!-- Node24 -->
<g id="node24" class="node"><title>Node24</title>
<g id="a_node24"><a xlink:href="mqueue_8h_source.html" target="_top" xlink:title="mqueue.h">
<polygon fill="none" stroke="black" points="326.05,-187 326.05,-207 386.528,-207 386.528,-187 326.05,-187"/>
<text text-anchor="middle" x="356.289" y="-193" font-family="Helvetica,sans-Serif" font-size="10.00">mqueue.h</text>
</a>
</g>
</g>
<!-- Node1&#45;&gt;Node24 -->
<g id="edge32" class="edge"><title>Node1&#45;&gt;Node24</title>
<path fill="none" stroke="midnightblue" d="M629.935,-271.781C568.967,-264.268 473.524,-248.873 395.289,-220 389.728,-217.948 384.02,-215.166 378.746,-212.272"/>
<polygon fill="midnightblue" stroke="midnightblue" points="380.246,-209.095 369.846,-207.074 376.716,-215.14 380.246,-209.095"/>
</g>
<!-- Node25 -->
<g id="node25" class="node"><title>Node25</title>
<polygon fill="none" stroke="#bfbfbf" points="850.536,-187 850.536,-207 966.043,-207 966.043,-187 850.536,-187"/>
<text text-anchor="middle" x="908.289" y="-193" font-family="Helvetica,sans-Serif" font-size="10.00">../sched/sched_flags.h</text>
</g>
<!-- Node1&#45;&gt;Node25 -->
<g id="edge36" class="edge"><title>Node1&#45;&gt;Node25</title>
<path fill="none" stroke="midnightblue" d="M748.303,-256.981C788.419,-242.192 840.76,-222.896 874.452,-210.475"/>
<polygon fill="midnightblue" stroke="midnightblue" points="875.682,-213.751 883.854,-207.008 873.261,-207.183 875.682,-213.751"/>
</g>
<!-- Node26 -->
<g id="node26" class="node"><title>Node26</title>
<polygon fill="none" stroke="#bfbfbf" points="984.161,-187 984.161,-207 1042.42,-207 1042.42,-187 984.161,-187"/>
<text text-anchor="middle" x="1013.29" y="-193" font-family="Helvetica,sans-Serif" font-size="10.00">pthread.h</text>
</g>
<!-- Node1&#45;&gt;Node26 -->
<g id="edge37" class="edge"><title>Node1&#45;&gt;Node26</title>
<path fill="none" stroke="midnightblue" d="M752.435,-271.061C810.807,-263.147 900.537,-247.582 974.289,-220 979.841,-217.924 985.546,-215.132 990.819,-212.236"/>
<polygon fill="midnightblue" stroke="midnightblue" points="992.848,-215.105 999.721,-207.042 989.32,-209.059 992.848,-215.105"/>
</g>
<!-- Node27 -->
<g id="node27" class="node"><title>Node27</title>
<polygon fill="none" stroke="#bfbfbf" points="1060.78,-187 1060.78,-207 1121.79,-207 1121.79,-187 1060.78,-187"/>
<text text-anchor="middle" x="1091.29" y="-193" font-family="Helvetica,sans-Serif" font-size="10.00">sys/time.h</text>
</g>
<!-- Node1&#45;&gt;Node27 -->
<g id="edge38" class="edge"><title>Node1&#45;&gt;Node27</title>
<path fill="none" stroke="midnightblue" d="M752.386,-274.539C825.267,-268.971 949.97,-254.851 1051.29,-220 1057.15,-217.985 1063.16,-215.15 1068.68,-212.183"/>
<polygon fill="midnightblue" stroke="midnightblue" points="1070.46,-215.195 1077.4,-207.188 1066.98,-209.121 1070.46,-215.195"/>
</g>
<!-- Node28 -->
<g id="node28" class="node"><title>Node28</title>
<polygon fill="none" stroke="#bfbfbf" points="1140,-187 1140,-207 1206.58,-207 1206.58,-187 1140,-187"/>
<text text-anchor="middle" x="1173.29" y="-193" font-family="Helvetica,sans-Serif" font-size="10.00">hwpl/fault.h</text>
</g>
<!-- Node1&#45;&gt;Node28 -->
<g id="edge40" class="edge"><title>Node1&#45;&gt;Node28</title>
<path fill="none" stroke="midnightblue" d="M752.696,-276.453C838.892,-272.819 999.829,-260.661 1130.29,-220 1136.8,-217.97 1143.52,-215.007 1149.66,-211.91"/>
<polygon fill="midnightblue" stroke="midnightblue" points="1151.55,-214.866 1158.7,-207.048 1148.23,-208.7 1151.55,-214.866"/>
</g>
<!-- Node29 -->
<g id="node29" class="node"><title>Node29</title>
<polygon fill="none" stroke="#bfbfbf" points="1224.28,-187 1224.28,-207 1290.3,-207 1290.3,-187 1224.28,-187"/>
<text text-anchor="middle" x="1257.29" y="-193" font-family="Helvetica,sans-Serif" font-size="10.00">hwpl/task.h</text>
</g>
<!-- Node1&#45;&gt;Node29 -->
<g id="edge41" class="edge"><title>Node1&#45;&gt;Node29</title>
<path fill="none" stroke="midnightblue" d="M752.48,-278.502C851.811,-277.72 1053.35,-269.453 1215.29,-220 1221.7,-218.044 1228.27,-215.108 1234.26,-212.014"/>
<polygon fill="midnightblue" stroke="midnightblue" points="1236.03,-215.037 1243.09,-207.138 1232.65,-208.91 1236.03,-215.037"/>
</g>
<!-- Node30 -->
<g id="node30" class="node"><title>Node30</title>
<polygon fill="none" stroke="#bfbfbf" points="1308.54,-187 1308.54,-207 1384.04,-207 1384.04,-187 1308.54,-187"/>
<text text-anchor="middle" x="1346.29" y="-193" font-family="Helvetica,sans-Serif" font-size="10.00">hwpl/debug.h</text>
</g>
<!-- Node1&#45;&gt;Node30 -->
<g id="edge42" class="edge"><title>Node1&#45;&gt;Node30</title>
<path fill="none" stroke="midnightblue" d="M752.403,-274.827C885.4,-267.492 1197.32,-247.832 1299.29,-220 1306.53,-218.024 1314.04,-215.004 1320.87,-211.829"/>
<polygon fill="midnightblue" stroke="midnightblue" points="1322.87,-214.741 1330.28,-207.169 1319.77,-208.467 1322.87,-214.741"/>
</g>
<!-- Node31 -->
<g id="node31" class="node"><title>Node31</title>
<polygon fill="none" stroke="#bfbfbf" points="1401.72,-187 1401.72,-207 1468.86,-207 1468.86,-187 1401.72,-187"/>
<text text-anchor="middle" x="1435.29" y="-193" font-family="Helvetica,sans-Serif" font-size="10.00">hwpl/core.h</text>
</g>
<!-- Node1&#45;&gt;Node31 -->
<g id="edge43" class="edge"><title>Node1&#45;&gt;Node31</title>
<path fill="none" stroke="midnightblue" d="M752.566,-275.981C900.316,-270.623 1272.8,-254.067 1392.29,-220 1398.96,-218.099 1405.8,-215.131 1412.02,-211.983"/>
<polygon fill="midnightblue" stroke="midnightblue" points="1414.03,-214.87 1421.15,-207.017 1410.69,-208.722 1414.03,-214.87"/>
</g>
<!-- Node32 -->
<g id="node32" class="node"><title>Node32</title>
<polygon fill="none" stroke="#bfbfbf" points="1487.22,-175 1487.22,-219 1609.36,-219 1609.36,-175 1487.22,-175"/>
<text text-anchor="start" x="1495.22" y="-205" font-family="Helvetica,sans-Serif" font-size="10.00">/Users/tgil/git/CoAction</text>
<text text-anchor="start" x="1495.22" y="-193" font-family="Helvetica,sans-Serif" font-size="10.00">OS/CoActionOS/src/sys</text>
<text text-anchor="middle" x="1548.29" y="-181" font-family="Helvetica,sans-Serif" font-size="10.00">/sched/sched.h</text>
</g>
<!-- Node1&#45;&gt;Node32 -->
<g id="edge44" class="edge"><title>Node1&#45;&gt;Node32</title>
<path fill="none" stroke="midnightblue" d="M752.548,-278.179C884.035,-277.553 1202.85,-270.622 1476.8,-219.848"/>
<polygon fill="midnightblue" stroke="midnightblue" points="1477.75,-223.231 1486.93,-217.946 1476.46,-216.351 1477.75,-223.231"/>
</g>
<!-- Node33 -->
<g id="node33" class="node"><title>Node33</title>
<polygon fill="none" stroke="#bfbfbf" points="1627.84,-187 1627.84,-207 1672.74,-207 1672.74,-187 1627.84,-187"/>
<text text-anchor="middle" x="1650.29" y="-193" font-family="Helvetica,sans-Serif" font-size="10.00">hwpl.h</text>
</g>
<!-- Node1&#45;&gt;Node33 -->
<g id="edge45" class="edge"><title>Node1&#45;&gt;Node33</title>
<path fill="none" stroke="midnightblue" d="M752.563,-278.4C932.632,-278.913 1457.57,-275.478 1618.29,-220 1622.93,-218.398 1627.52,-215.926 1631.72,-213.209"/>
<polygon fill="midnightblue" stroke="midnightblue" points="1634.08,-215.816 1640.13,-207.113 1629.98,-210.148 1634.08,-215.816"/>
</g>
<!-- Node14&#45;&gt;Node2 -->
<g id="edge15" class="edge"><title>Node14&#45;&gt;Node2</title>
<path fill="none" stroke="midnightblue" d="M746.466,-187.973C732.762,-183.518 715.164,-178.072 699.289,-174 636.587,-157.918 562.92,-143.733 517.415,-135.507"/>
<polygon fill="midnightblue" stroke="midnightblue" points="517.773,-132.015 507.312,-133.695 516.537,-138.906 517.773,-132.015"/>
</g>
<!-- Node14&#45;&gt;Node8 -->
<g id="edge16" class="edge"><title>Node14&#45;&gt;Node8</title>
<path fill="none" stroke="midnightblue" d="M754.822,-186.897C747.95,-182.891 739.745,-178.16 732.289,-174 666.841,-137.483 624.868,-147.495 592.289,-80 584.997,-64.893 586.412,-45.6177 589.117,-31.4494"/>
<polygon fill="midnightblue" stroke="midnightblue" points="592.607,-31.8872 591.421,-21.3589 585.783,-30.3287 592.607,-31.8872"/>
</g>
<!-- Node14&#45;&gt;Node15 -->
<g id="edge14" class="edge"><title>Node14&#45;&gt;Node15</title>
<path fill="none" stroke="midnightblue" d="M783.86,-186.846C815.961,-164.865 894.876,-108.797 908.289,-80 912.418,-71.1365 913.09,-66.5179 908.289,-58 899.965,-43.2311 884.777,-32.6642 870.155,-25.4138"/>
<polygon fill="midnightblue" stroke="midnightblue" points="871.257,-22.0702 860.705,-21.1172 868.36,-28.4425 871.257,-22.0702"/>
</g>
<!-- Node16 -->
<g id="node16" class="node"><title>Node16</title>
<polygon fill="none" stroke="#bfbfbf" points="889.499,-117 889.499,-137 941.08,-137 941.08,-117 889.499,-117"/>
<text text-anchor="middle" x="915.289" y="-123" font-family="Helvetica,sans-Serif" font-size="10.00">stddef.h</text>
</g>
<!-- Node14&#45;&gt;Node16 -->
<g id="edge17" class="edge"><title>Node14&#45;&gt;Node16</title>
<path fill="none" stroke="midnightblue" d="M785.226,-186.802C792.138,-182.689 800.523,-177.9 808.289,-174 832.734,-161.724 861.223,-149.577 882.656,-140.85"/>
<polygon fill="midnightblue" stroke="midnightblue" points="884.004,-144.081 891.968,-137.093 881.384,-137.589 884.004,-144.081"/>
</g>
<!-- Node17 -->
<g id="node17" class="node"><title>Node17</title>
<polygon fill="none" stroke="#bfbfbf" points="841.171,-59 841.171,-79 899.407,-79 899.407,-59 841.171,-59"/>
<text text-anchor="middle" x="870.289" y="-65" font-family="Helvetica,sans-Serif" font-size="10.00">sys/stat.h</text>
</g>
<!-- Node14&#45;&gt;Node17 -->
<g id="edge18" class="edge"><title>Node14&#45;&gt;Node17</title>
<path fill="none" stroke="midnightblue" d="M777.481,-186.938C794.049,-166.063 835.131,-114.3 856.649,-87.186"/>
<polygon fill="midnightblue" stroke="midnightblue" points="859.418,-89.3282 862.893,-79.3195 853.935,-84.9765 859.418,-89.3282"/>
</g>
<!-- Node18 -->
<g id="node18" class="node"><title>Node18</title>
<polygon fill="none" stroke="#bfbfbf" points="745.612,-117 745.612,-137 794.966,-137 794.966,-117 745.612,-117"/>
<text text-anchor="middle" x="770.289" y="-123" font-family="Helvetica,sans-Serif" font-size="10.00">dirent.h</text>
</g>
<!-- Node14&#45;&gt;Node18 -->
<g id="edge19" class="edge"><title>Node14&#45;&gt;Node18</title>
<path fill="none" stroke="midnightblue" d="M770.289,-186.829C770.289,-176.735 770.289,-160.222 770.289,-147.256"/>
<polygon fill="midnightblue" stroke="midnightblue" points="773.789,-147.025 770.289,-137.025 766.789,-147.026 773.789,-147.025"/>
</g>
<!-- Node19 -->
<g id="node19" class="node"><title>Node19</title>
<g id="a_node19"><a xlink:href="device_8h_source.html" target="_top" xlink:title="device.h">
<polygon fill="none" stroke="black" points="674.666,-117 674.666,-137 727.912,-137 727.912,-117 674.666,-117"/>
<text text-anchor="middle" x="701.289" y="-123" font-family="Helvetica,sans-Serif" font-size="10.00">device.h</text>
</a>
</g>
</g>
<!-- Node14&#45;&gt;Node19 -->
<g id="edge20" class="edge"><title>Node14&#45;&gt;Node19</title>
<path fill="none" stroke="midnightblue" d="M760.983,-186.829C749.913,-175.92 731.234,-157.511 717.714,-144.187"/>
<polygon fill="midnightblue" stroke="midnightblue" points="720.027,-141.552 710.447,-137.025 715.113,-146.538 720.027,-141.552"/>
</g>
<!-- Node19&#45;&gt;Node15 -->
<g id="edge22" class="edge"><title>Node19&#45;&gt;Node15</title>
<path fill="none" stroke="midnightblue" d="M728.322,-117.554C748.416,-110.195 775.493,-97.8748 794.289,-80 808.799,-66.2013 819.236,-45.6173 825.458,-30.7127"/>
<polygon fill="midnightblue" stroke="midnightblue" points="828.858,-31.6297 829.241,-21.0418 822.339,-29.0794 828.858,-31.6297"/>
</g>
<!-- Node19&#45;&gt;Node17 -->
<g id="edge21" class="edge"><title>Node19&#45;&gt;Node17</title>
<path fill="none" stroke="midnightblue" d="M728.068,-117.127C756.454,-107.72 801.488,-92.7979 833.263,-82.2689"/>
<polygon fill="midnightblue" stroke="midnightblue" points="834.685,-85.4851 843.076,-79.0173 832.483,-78.8404 834.685,-85.4851"/>
</g>
<!-- Node20 -->
<g id="node20" class="node"><title>Node20</title>
<g id="a_node20"><a xlink:href="types_8h_source.html" target="_top" xlink:title="hwpl/types.h">
<polygon fill="none" stroke="black" points="601.496,-59 601.496,-79 673.082,-79 673.082,-59 601.496,-59"/>
<text text-anchor="middle" x="637.289" y="-65" font-family="Helvetica,sans-Serif" font-size="10.00">hwpl/types.h</text>
</a>
</g>
</g>
<!-- Node19&#45;&gt;Node20 -->
<g id="edge23" class="edge"><title>Node19&#45;&gt;Node20</title>
<path fill="none" stroke="midnightblue" d="M690.721,-116.753C681.122,-108.353 666.76,-95.7874 655.343,-85.7976"/>
<polygon fill="midnightblue" stroke="midnightblue" points="657.491,-83.0262 647.661,-79.0752 652.882,-88.2943 657.491,-83.0262"/>
</g>
<!-- Node21 -->
<g id="node21" class="node"><title>Node21</title>
<polygon fill="none" stroke="#bfbfbf" points="658.72,-1 658.72,-21 725.858,-21 725.858,-1 658.72,-1"/>
<text text-anchor="middle" x="692.289" y="-7" font-family="Helvetica,sans-Serif" font-size="10.00">hwpl/arch.h</text>
</g>
<!-- Node19&#45;&gt;Node21 -->
<g id="edge26" class="edge"><title>Node19&#45;&gt;Node21</title>
<path fill="none" stroke="midnightblue" d="M700.553,-116.671C699.082,-98.0407 695.755,-55.8976 693.8,-31.1428"/>
<polygon fill="midnightblue" stroke="midnightblue" points="697.287,-30.8329 693.011,-21.1394 690.309,-31.3839 697.287,-30.8329"/>
</g>
<!-- Node22 -->
<g id="node22" class="node"><title>Node22</title>
<g id="a_node22"><a xlink:href="pio_8h.html" target="_top" xlink:title="General Purpose Input/Output Header File. ">
<polygon fill="none" stroke="black" points="728.996,-59 728.996,-79 785.582,-79 785.582,-59 728.996,-59"/>
<text text-anchor="middle" x="757.289" y="-65" font-family="Helvetica,sans-Serif" font-size="10.00">dev/pio.h</text>
</a>
</g>
</g>
<!-- Node19&#45;&gt;Node22 -->
<g id="edge27" class="edge"><title>Node19&#45;&gt;Node22</title>
<path fill="none" stroke="midnightblue" d="M710.536,-116.753C718.773,-108.516 731.015,-96.2738 740.907,-86.3824"/>
<polygon fill="midnightblue" stroke="midnightblue" points="743.618,-88.6212 748.214,-79.0752 738.668,-83.6714 743.618,-88.6212"/>
</g>
<!-- Node20&#45;&gt;Node8 -->
<g id="edge24" class="edge"><title>Node20&#45;&gt;Node8</title>
<path fill="none" stroke="midnightblue" d="M630.189,-58.7527C624.052,-50.7611 615.019,-38.9975 607.55,-29.2698"/>
<polygon fill="midnightblue" stroke="midnightblue" points="610.124,-26.8751 601.258,-21.0752 604.572,-31.1383 610.124,-26.8751"/>
</g>
<!-- Node20&#45;&gt;Node15 -->
<g id="edge25" class="edge"><title>Node20&#45;&gt;Node15</title>
<path fill="none" stroke="midnightblue" d="M669.053,-58.878C703.185,-49.0761 757.434,-33.4967 793.924,-23.0175"/>
<polygon fill="midnightblue" stroke="midnightblue" points="795.069,-26.3305 803.714,-20.2061 793.137,-19.6024 795.069,-26.3305"/>
</g>
<!-- Node22&#45;&gt;Node8 -->
<g id="edge29" class="edge"><title>Node22&#45;&gt;Node8</title>
<path fill="none" stroke="midnightblue" d="M730.738,-58.878C702.776,-49.2715 658.661,-34.1156 628.2,-23.6502"/>
<polygon fill="midnightblue" stroke="midnightblue" points="629.03,-20.2349 618.436,-20.2957 626.756,-26.8551 629.03,-20.2349"/>
</g>
<!-- Node22&#45;&gt;Node15 -->
<g id="edge28" class="edge"><title>Node22&#45;&gt;Node15</title>
<path fill="none" stroke="midnightblue" d="M769.674,-58.7527C781.141,-50.1903 798.408,-37.2978 811.907,-27.2186"/>
<polygon fill="midnightblue" stroke="midnightblue" points="814.216,-29.8626 820.135,-21.0752 810.028,-24.2536 814.216,-29.8626"/>
</g>
<!-- Node22&#45;&gt;Node21 -->
<g id="edge31" class="edge"><title>Node22&#45;&gt;Node21</title>
<path fill="none" stroke="midnightblue" d="M746.556,-58.7527C736.806,-50.3534 722.221,-37.7874 710.626,-27.7976"/>
<polygon fill="midnightblue" stroke="midnightblue" points="712.683,-24.9507 702.823,-21.0752 708.114,-30.254 712.683,-24.9507"/>
</g>
<!-- Node23 -->
<g id="node23" class="node"><title>Node23</title>
<g id="a_node23"><a xlink:href="ioctl_8h_source.html" target="_top" xlink:title="ioctl.h">
<polygon fill="none" stroke="black" points="744.228,-1 744.228,-21 786.351,-21 786.351,-1 744.228,-1"/>
<text text-anchor="middle" x="765.289" y="-7" font-family="Helvetica,sans-Serif" font-size="10.00">ioctl.h</text>
</a>
</g>
</g>
<!-- Node22&#45;&gt;Node23 -->
<g id="edge30" class="edge"><title>Node22&#45;&gt;Node23</title>
<path fill="none" stroke="midnightblue" d="M758.61,-58.7527C759.682,-51.2504 761.229,-40.4238 762.564,-31.0781"/>
<polygon fill="midnightblue" stroke="midnightblue" points="766.043,-31.4697 763.993,-21.0752 759.114,-30.4797 766.043,-31.4697"/>
</g>
<!-- Node24&#45;&gt;Node2 -->
<g id="edge33" class="edge"><title>Node24&#45;&gt;Node2</title>
<path fill="none" stroke="midnightblue" d="M372.203,-186.829C392.108,-175.359 426.398,-155.598 449.692,-142.175"/>
<polygon fill="midnightblue" stroke="midnightblue" points="451.71,-145.051 458.627,-137.025 448.215,-138.986 451.71,-145.051"/>
</g>
<!-- Node24&#45;&gt;Node3 -->
<g id="edge34" class="edge"><title>Node24&#45;&gt;Node3</title>
<path fill="none" stroke="midnightblue" d="M342.386,-186.851C334.928,-182.338 325.416,-177.192 316.289,-174 236.036,-145.935 136.065,-134.592 83.836,-130.332"/>
<polygon fill="midnightblue" stroke="midnightblue" points="83.9837,-126.833 73.743,-129.55 83.4425,-133.812 83.9837,-126.833"/>
</g>
<!-- Node24&#45;&gt;Node12 -->
<g id="edge35" class="edge"><title>Node24&#45;&gt;Node12</title>
<path fill="none" stroke="midnightblue" d="M345.5,-186.829C332.545,-175.818 310.602,-157.166 294.895,-143.815"/>
<polygon fill="midnightblue" stroke="midnightblue" points="296.794,-140.835 286.907,-137.025 292.26,-146.169 296.794,-140.835"/>
</g>
</g>
</svg>
