<?xml version="1.0" encoding="UTF-8" standalone="no"?>
<!DOCTYPE svg PUBLIC "-//W3C//DTD SVG 1.1//EN"
 "http://www.w3.org/Graphics/SVG/1.1/DTD/svg11.dtd">
<!-- Generated by graphviz version 2.34.0 (20130907.0228)
 -->
<!-- Title: /Users/tgil/git/CoActionOS/CoActionOS/include/dev/rtc.h Pages: 1 -->
<svg width="550pt" height="218pt"
 viewBox="0.00 0.00 550.00 218.00" xmlns="http://www.w3.org/2000/svg" xmlns:xlink="http://www.w3.org/1999/xlink">
<g id="graph0" class="graph" transform="scale(1 1) rotate(0) translate(4 214)">
<title>/Users/tgil/git/CoActionOS/CoActionOS/include/dev/rtc.h</title>
<!-- Node1 -->
<g id="node1" class="node"><title>Node1</title>
<polygon fill="#bfbfbf" stroke="black" points="209.641,-165 209.641,-209 332.359,-209 332.359,-165 209.641,-165"/>
<text text-anchor="start" x="217.641" y="-195" font-family="Helvetica,sans-Serif" font-size="10.00">/Users/tgil/git/CoAction</text>
<text text-anchor="start" x="217.641" y="-183" font-family="Helvetica,sans-Serif" font-size="10.00">OS/CoActionOS/include</text>
<text text-anchor="middle" x="271" y="-171" font-family="Helvetica,sans-Serif" font-size="10.00">/dev/rtc.h</text>
</g>
<!-- Node2 -->
<g id="node2" class="node"><title>Node2</title>
<g id="a_node2"><a xlink:href="link__protocol_8h.html" target="_top" xlink:title="USB Link Protocol Header File. ">
<polygon fill="none" stroke="black" points="-0.359375,-83 -0.359375,-127 122.359,-127 122.359,-83 -0.359375,-83"/>
<text text-anchor="start" x="7.64062" y="-113" font-family="Helvetica,sans-Serif" font-size="10.00">/Users/tgil/git/CoAction</text>
<text text-anchor="start" x="7.64062" y="-101" font-family="Helvetica,sans-Serif" font-size="10.00">OS/CoActionOS/include</text>
<text text-anchor="middle" x="61" y="-89" font-family="Helvetica,sans-Serif" font-size="10.00">/link_protocol.h</text>
</a>
</g>
</g>
<!-- Node1&#45;&gt;Node2 -->
<g id="edge1" class="edge"><title>Node1&#45;&gt;Node2</title>
<path fill="none" stroke="midnightblue" d="M206.243,-161.331C177.404,-150.344 143.793,-137.54 116.171,-127.017"/>
<polygon fill="midnightblue" stroke="midnightblue" points="205.234,-164.692 215.825,-164.981 207.726,-158.15 205.234,-164.692"/>
</g>
<!-- Node4 -->
<g id="node4" class="node"><title>Node4</title>
<g id="a_node4"><a xlink:href="__gettimeofday_8c.html" target="_top" xlink:title="/Users/tgil/git/CoAction\lOS/CoActionOS/src/sys\l/time/_gettimeofday.c">
<polygon fill="none" stroke="black" points="139.931,-83 139.931,-127 262.069,-127 262.069,-83 139.931,-83"/>
<text text-anchor="start" x="147.931" y="-113" font-family="Helvetica,sans-Serif" font-size="10.00">/Users/tgil/git/CoAction</text>
<text text-anchor="start" x="147.931" y="-101" font-family="Helvetica,sans-Serif" font-size="10.00">OS/CoActionOS/src/sys</text>
<text text-anchor="middle" x="201" y="-89" font-family="Helvetica,sans-Serif" font-size="10.00">/time/_gettimeofday.c</text>
</a>
</g>
</g>
<!-- Node1&#45;&gt;Node4 -->
<g id="edge3" class="edge"><title>Node1&#45;&gt;Node4</title>
<path fill="none" stroke="midnightblue" d="M245.867,-157.277C237.167,-147.334 227.582,-136.379 219.512,-127.156"/>
<polygon fill="midnightblue" stroke="midnightblue" points="243.389,-159.76 252.608,-164.981 248.657,-155.15 243.389,-159.76"/>
</g>
<!-- Node5 -->
<g id="node5" class="node"><title>Node5</title>
<g id="a_node5"><a xlink:href="__settimeofday_8c.html" target="_top" xlink:title="/Users/tgil/git/CoAction\lOS/CoActionOS/src/sys\l/time/_settimeofday.c">
<polygon fill="none" stroke="black" points="279.931,-83 279.931,-127 402.069,-127 402.069,-83 279.931,-83"/>
<text text-anchor="start" x="287.931" y="-113" font-family="Helvetica,sans-Serif" font-size="10.00">/Users/tgil/git/CoAction</text>
<text text-anchor="start" x="287.931" y="-101" font-family="Helvetica,sans-Serif" font-size="10.00">OS/CoActionOS/src/sys</text>
<text text-anchor="middle" x="341" y="-89" font-family="Helvetica,sans-Serif" font-size="10.00">/time/_settimeofday.c</text>
</a>
</g>
</g>
<!-- Node1&#45;&gt;Node5 -->
<g id="edge4" class="edge"><title>Node1&#45;&gt;Node5</title>
<path fill="none" stroke="midnightblue" d="M296.133,-157.277C304.833,-147.334 314.418,-136.379 322.488,-127.156"/>
<polygon fill="midnightblue" stroke="midnightblue" points="293.343,-155.15 289.392,-164.981 298.611,-159.76 293.343,-155.15"/>
</g>
<!-- Node6 -->
<g id="node6" class="node"><title>Node6</title>
<g id="a_node6"><a xlink:href="hibernate_8c.html" target="_top" xlink:title="/Users/tgil/git/CoAction\lOS/CoActionOS/src/sys\l/time/hibernate.c">
<polygon fill="none" stroke="black" points="419.931,-83 419.931,-127 542.069,-127 542.069,-83 419.931,-83"/>
<text text-anchor="start" x="427.931" y="-113" font-family="Helvetica,sans-Serif" font-size="10.00">/Users/tgil/git/CoAction</text>
<text text-anchor="start" x="427.931" y="-101" font-family="Helvetica,sans-Serif" font-size="10.00">OS/CoActionOS/src/sys</text>
<text text-anchor="middle" x="481" y="-89" font-family="Helvetica,sans-Serif" font-size="10.00">/time/hibernate.c</text>
</a>
</g>
</g>
<!-- Node1&#45;&gt;Node6 -->
<g id="edge5" class="edge"><title>Node1&#45;&gt;Node6</title>
<path fill="none" stroke="midnightblue" d="M335.757,-161.331C364.596,-150.344 398.207,-137.54 425.829,-127.017"/>
<polygon fill="midnightblue" stroke="midnightblue" points="334.274,-158.15 326.175,-164.981 336.766,-164.692 334.274,-158.15"/>
</g>
<!-- Node3 -->
<g id="node3" class="node"><title>Node3</title>
<g id="a_node3"><a xlink:href="link_8h.html" target="_top" xlink:title="/Users/tgil/git/CoAction\lOS/CoActionOS/include\l/link.h">
<polygon fill="none" stroke="black" points="-0.359375,-1 -0.359375,-45 122.359,-45 122.359,-1 -0.359375,-1"/>
<text text-anchor="start" x="7.64062" y="-31" font-family="Helvetica,sans-Serif" font-size="10.00">/Users/tgil/git/CoAction</text>
<text text-anchor="start" x="7.64062" y="-19" font-family="Helvetica,sans-Serif" font-size="10.00">OS/CoActionOS/include</text>
<text text-anchor="middle" x="61" y="-7" font-family="Helvetica,sans-Serif" font-size="10.00">/link.h</text>
</a>
</g>
</g>
<!-- Node2&#45;&gt;Node3 -->
<g id="edge2" class="edge"><title>Node2&#45;&gt;Node3</title>
<path fill="none" stroke="midnightblue" d="M61,-72.8963C61,-63.6094 61,-53.6485 61,-45.1564"/>
<polygon fill="midnightblue" stroke="midnightblue" points="57.5001,-72.9809 61,-82.9809 64.5001,-72.981 57.5001,-72.9809"/>
</g>
</g>
</svg>
