<?xml version="1.0" encoding="UTF-8" standalone="no"?>
<!DOCTYPE svg PUBLIC "-//W3C//DTD SVG 1.1//EN"
 "http://www.w3.org/Graphics/SVG/1.1/DTD/svg11.dtd">
<!-- Generated by graphviz version 2.34.0 (20130907.0228)
 -->
<!-- Title: /Users/tgil/git/CoActionOS/CoActionOS/src/sys/signal/sig_realtime.c Pages: 1 -->
<svg width="640pt" height="228pt"
 viewBox="0.00 0.00 640.00 228.00" xmlns="http://www.w3.org/2000/svg" xmlns:xlink="http://www.w3.org/1999/xlink">
<g id="graph0" class="graph" transform="scale(1 1) rotate(0) translate(4 224)">
<title>/Users/tgil/git/CoActionOS/CoActionOS/src/sys/signal/sig_realtime.c</title>
<!-- Node1 -->
<g id="node1" class="node"><title>Node1</title>
<polygon fill="#bfbfbf" stroke="black" points="174.931,-175 174.931,-219 297.069,-219 297.069,-175 174.931,-175"/>
<text text-anchor="start" x="182.931" y="-205" font-family="Helvetica,sans-Serif" font-size="10.00">/Users/tgil/git/CoAction</text>
<text text-anchor="start" x="182.931" y="-193" font-family="Helvetica,sans-Serif" font-size="10.00">OS/CoActionOS/src/sys</text>
<text text-anchor="middle" x="236" y="-181" font-family="Helvetica,sans-Serif" font-size="10.00">/signal/sig_realtime.c</text>
</g>
<!-- Node2 -->
<g id="node2" class="node"><title>Node2</title>
<polygon fill="none" stroke="#bfbfbf" points="42.1577,-117 42.1577,-137 89.8423,-137 89.8423,-117 42.1577,-117"/>
<text text-anchor="middle" x="66" y="-123" font-family="Helvetica,sans-Serif" font-size="10.00">errno.h</text>
</g>
<!-- Node1&#45;&gt;Node2 -->
<g id="edge1" class="edge"><title>Node1&#45;&gt;Node2</title>
<path fill="none" stroke="midnightblue" d="M183.143,-174.857C155.216,-163.686 121.86,-150.344 97.8973,-140.759"/>
<polygon fill="midnightblue" stroke="midnightblue" points="99.1511,-137.491 88.5665,-137.027 96.5513,-143.99 99.1511,-137.491"/>
</g>
<!-- Node3 -->
<g id="node3" class="node"><title>Node3</title>
<polygon fill="none" stroke="#bfbfbf" points="107.766,-117 107.766,-137 158.234,-137 158.234,-117 107.766,-117"/>
<text text-anchor="middle" x="133" y="-123" font-family="Helvetica,sans-Serif" font-size="10.00">signal.h</text>
</g>
<!-- Node1&#45;&gt;Node3 -->
<g id="edge2" class="edge"><title>Node1&#45;&gt;Node3</title>
<path fill="none" stroke="midnightblue" d="M203.975,-174.857C188.182,-164.431 169.525,-152.113 155.303,-142.724"/>
<polygon fill="midnightblue" stroke="midnightblue" points="156.946,-139.615 146.673,-137.027 153.09,-145.457 156.946,-139.615"/>
</g>
<!-- Node4 -->
<g id="node4" class="node"><title>Node4</title>
<polygon fill="none" stroke="#bfbfbf" points="-0.842285,-59 -0.842285,-79 46.8423,-79 46.8423,-59 -0.842285,-59"/>
<text text-anchor="middle" x="23" y="-65" font-family="Helvetica,sans-Serif" font-size="10.00">stdlib.h</text>
</g>
<!-- Node1&#45;&gt;Node4 -->
<g id="edge3" class="edge"><title>Node1&#45;&gt;Node4</title>
<path fill="none" stroke="midnightblue" d="M222.604,-174.73C210.221,-156.695 190.256,-131.375 167,-116 133.218,-93.6664 87.8428,-81.5437 57.1239,-75.4367"/>
<polygon fill="midnightblue" stroke="midnightblue" points="57.3865,-71.925 46.9126,-73.5206 56.0955,-78.8049 57.3865,-71.925"/>
</g>
<!-- Node5 -->
<g id="node5" class="node"><title>Node5</title>
<g id="a_node5"><a xlink:href="hwpl_8h.html" target="_top" xlink:title="HWPL Header file (includes all other header files) ">
<polygon fill="none" stroke="black" points="213.547,-117 213.547,-137 258.453,-137 258.453,-117 213.547,-117"/>
<text text-anchor="middle" x="236" y="-123" font-family="Helvetica,sans-Serif" font-size="10.00">hwpl.h</text>
</a>
</g>
</g>
<!-- Node1&#45;&gt;Node5 -->
<g id="edge4" class="edge"><title>Node1&#45;&gt;Node5</title>
<path fill="none" stroke="midnightblue" d="M236,-174.857C236,-166.074 236,-155.948 236,-147.362"/>
<polygon fill="midnightblue" stroke="midnightblue" points="239.5,-147.204 236,-137.204 232.5,-147.204 239.5,-147.204"/>
</g>
<!-- Node13 -->
<g id="node13" class="node"><title>Node13</title>
<polygon fill="none" stroke="#bfbfbf" points="275.988,-117 275.988,-137 342.012,-137 342.012,-117 275.988,-117"/>
<text text-anchor="middle" x="309" y="-123" font-family="Helvetica,sans-Serif" font-size="10.00">hwpl/task.h</text>
</g>
<!-- Node1&#45;&gt;Node13 -->
<g id="edge15" class="edge"><title>Node1&#45;&gt;Node13</title>
<path fill="none" stroke="midnightblue" d="M258.697,-174.857C269.292,-164.988 281.706,-153.425 291.55,-144.255"/>
<polygon fill="midnightblue" stroke="midnightblue" points="294.188,-146.581 299.119,-137.204 289.416,-141.459 294.188,-146.581"/>
</g>
<!-- Node14 -->
<g id="node14" class="node"><title>Node14</title>
<polygon fill="none" stroke="#bfbfbf" points="360.247,-117 360.247,-137 475.753,-137 475.753,-117 360.247,-117"/>
<text text-anchor="middle" x="418" y="-123" font-family="Helvetica,sans-Serif" font-size="10.00">../sched/sched_flags.h</text>
</g>
<!-- Node1&#45;&gt;Node14 -->
<g id="edge16" class="edge"><title>Node1&#45;&gt;Node14</title>
<path fill="none" stroke="midnightblue" d="M292.588,-174.857C322.62,-163.637 358.515,-150.225 384.193,-140.631"/>
<polygon fill="midnightblue" stroke="midnightblue" points="385.698,-143.805 393.841,-137.027 383.248,-137.248 385.698,-143.805"/>
</g>
<!-- Node15 -->
<g id="node15" class="node"><title>Node15</title>
<g id="a_node15"><a xlink:href="sig__local_8h_source.html" target="_top" xlink:title="sig_local.h">
<polygon fill="none" stroke="black" points="508.375,-117 508.375,-137 571.625,-137 571.625,-117 508.375,-117"/>
<text text-anchor="middle" x="540" y="-123" font-family="Helvetica,sans-Serif" font-size="10.00">sig_local.h</text>
</a>
</g>
</g>
<!-- Node1&#45;&gt;Node15 -->
<g id="edge17" class="edge"><title>Node1&#45;&gt;Node15</title>
<path fill="none" stroke="midnightblue" d="M297.153,-182.321C356.971,-168.941 446.438,-148.928 498.438,-137.297"/>
<polygon fill="midnightblue" stroke="midnightblue" points="499.323,-140.685 508.318,-135.087 497.795,-133.854 499.323,-140.685"/>
</g>
<!-- Node5&#45;&gt;Node4 -->
<g id="edge6" class="edge"><title>Node5&#45;&gt;Node4</title>
<path fill="none" stroke="midnightblue" d="M213.163,-119.592C208.797,-118.385 204.26,-117.143 200,-116 138.365,-99.4594 122.746,-96.1204 61,-80 59.7376,-79.6704 58.4518,-79.3343 57.1531,-78.9944"/>
<polygon fill="midnightblue" stroke="midnightblue" points="57.6799,-75.5142 47.119,-76.3622 55.9037,-82.2852 57.6799,-75.5142"/>
</g>
<!-- Node6 -->
<g id="node6" class="node"><title>Node6</title>
<polygon fill="none" stroke="#bfbfbf" points="347.879,-1 347.879,-21 396.121,-21 396.121,-1 347.879,-1"/>
<text text-anchor="middle" x="372" y="-7" font-family="Helvetica,sans-Serif" font-size="10.00">stdint.h</text>
</g>
<!-- Node5&#45;&gt;Node6 -->
<g id="edge5" class="edge"><title>Node5&#45;&gt;Node6</title>
<path fill="none" stroke="midnightblue" d="M258.598,-118.241C290.446,-107.128 345.411,-87.2216 352,-80 364.162,-66.6716 368.953,-46.3038 370.827,-31.3326"/>
<polygon fill="midnightblue" stroke="midnightblue" points="374.334,-31.4208 371.765,-21.142 367.363,-30.7789 374.334,-31.4208"/>
</g>
<!-- Node7 -->
<g id="node7" class="node"><title>Node7</title>
<polygon fill="none" stroke="#bfbfbf" points="399.604,-59 399.604,-79 448.396,-79 448.396,-59 399.604,-59"/>
<text text-anchor="middle" x="424" y="-65" font-family="Helvetica,sans-Serif" font-size="10.00">string.h</text>
</g>
<!-- Node5&#45;&gt;Node7 -->
<g id="edge7" class="edge"><title>Node5&#45;&gt;Node7</title>
<path fill="none" stroke="midnightblue" d="M258.665,-118.611C261.468,-117.72 264.298,-116.832 267,-116 309.132,-103.035 357.884,-88.8828 389.743,-79.7483"/>
<polygon fill="midnightblue" stroke="midnightblue" points="390.812,-83.0829 399.464,-76.9668 388.887,-76.353 390.812,-83.0829"/>
</g>
<!-- Node8 -->
<g id="node8" class="node"><title>Node8</title>
<polygon fill="none" stroke="#bfbfbf" points="466.269,-59 466.269,-79 511.731,-79 511.731,-59 466.269,-59"/>
<text text-anchor="middle" x="489" y="-65" font-family="Helvetica,sans-Serif" font-size="10.00">stdio.h</text>
</g>
<!-- Node5&#45;&gt;Node8 -->
<g id="edge8" class="edge"><title>Node5&#45;&gt;Node8</title>
<path fill="none" stroke="midnightblue" d="M258.592,-118.352C261.408,-117.506 264.26,-116.699 267,-116 347.273,-95.533 371.856,-100.449 456.267,-79.9464"/>
<polygon fill="midnightblue" stroke="midnightblue" points="457.153,-83.3328 466.018,-77.5309 455.47,-76.5381 457.153,-83.3328"/>
</g>
<!-- Node9 -->
<g id="node9" class="node"><title>Node9</title>
<polygon fill="none" stroke="#bfbfbf" points="160.707,-1 160.707,-21 217.293,-21 217.293,-1 160.707,-1"/>
<text text-anchor="middle" x="189" y="-7" font-family="Helvetica,sans-Serif" font-size="10.00">stdbool.h</text>
</g>
<!-- Node5&#45;&gt;Node9 -->
<g id="edge9" class="edge"><title>Node5&#45;&gt;Node9</title>
<path fill="none" stroke="midnightblue" d="M213.273,-119.397C174.086,-107.905 97.6198,-84.9776 94,-80 74.9452,-53.7977 116.654,-33.8198 150.718,-22.4998"/>
<polygon fill="midnightblue" stroke="midnightblue" points="152.036,-25.754 160.516,-19.403 149.926,-19.0795 152.036,-25.754"/>
</g>
<!-- Node10 -->
<g id="node10" class="node"><title>Node10</title>
<polygon fill="none" stroke="#bfbfbf" points="102.707,-59 102.707,-79 169.293,-79 169.293,-59 102.707,-59"/>
<text text-anchor="middle" x="136" y="-65" font-family="Helvetica,sans-Serif" font-size="10.00">hwpl/fault.h</text>
</g>
<!-- Node5&#45;&gt;Node10 -->
<g id="edge10" class="edge"><title>Node5&#45;&gt;Node10</title>
<path fill="none" stroke="midnightblue" d="M219.487,-116.753C203.614,-107.864 179.409,-94.3092 161.142,-84.0793"/>
<polygon fill="midnightblue" stroke="midnightblue" points="162.641,-80.9075 152.206,-79.0752 159.221,-87.015 162.641,-80.9075"/>
</g>
<!-- Node11 -->
<g id="node11" class="node"><title>Node11</title>
<polygon fill="none" stroke="#bfbfbf" points="187.431,-59 187.431,-79 254.569,-79 254.569,-59 187.431,-59"/>
<text text-anchor="middle" x="221" y="-65" font-family="Helvetica,sans-Serif" font-size="10.00">hwpl/arch.h</text>
</g>
<!-- Node5&#45;&gt;Node11 -->
<g id="edge11" class="edge"><title>Node5&#45;&gt;Node11</title>
<path fill="none" stroke="midnightblue" d="M233.523,-116.753C231.492,-109.169 228.55,-98.1881 226.029,-88.7739"/>
<polygon fill="midnightblue" stroke="midnightblue" points="229.399,-87.8291 223.431,-79.0752 222.637,-89.6403 229.399,-87.8291"/>
</g>
<!-- Node12 -->
<g id="node12" class="node"><title>Node12</title>
<g id="a_node12"><a xlink:href="types_8h_source.html" target="_top" xlink:title="hwpl/types.h">
<polygon fill="none" stroke="black" points="272.207,-59 272.207,-79 343.793,-79 343.793,-59 272.207,-59"/>
<text text-anchor="middle" x="308" y="-65" font-family="Helvetica,sans-Serif" font-size="10.00">hwpl/types.h</text>
</a>
</g>
</g>
<!-- Node5&#45;&gt;Node12 -->
<g id="edge12" class="edge"><title>Node5&#45;&gt;Node12</title>
<path fill="none" stroke="midnightblue" d="M247.889,-116.753C258.898,-108.19 275.474,-95.2978 288.433,-85.2186"/>
<polygon fill="midnightblue" stroke="midnightblue" points="290.587,-87.9774 296.332,-79.0752 286.29,-82.4519 290.587,-87.9774"/>
</g>
<!-- Node12&#45;&gt;Node6 -->
<g id="edge13" class="edge"><title>Node12&#45;&gt;Node6</title>
<path fill="none" stroke="midnightblue" d="M318.568,-58.7527C328.168,-50.3534 342.529,-37.7874 353.946,-27.7976"/>
<polygon fill="midnightblue" stroke="midnightblue" points="356.407,-30.2943 361.628,-21.0752 351.798,-25.0262 356.407,-30.2943"/>
</g>
<!-- Node12&#45;&gt;Node9 -->
<g id="edge14" class="edge"><title>Node12&#45;&gt;Node9</title>
<path fill="none" stroke="midnightblue" d="M288.616,-58.878C269.339,-49.8068 239.549,-35.7876 217.564,-25.4418"/>
<polygon fill="midnightblue" stroke="midnightblue" points="218.914,-22.2093 208.376,-21.1181 215.934,-28.543 218.914,-22.2093"/>
</g>
<!-- Node15&#45;&gt;Node6 -->
<g id="edge18" class="edge"><title>Node15&#45;&gt;Node6</title>
<path fill="none" stroke="midnightblue" d="M539.914,-116.717C539.269,-102.203 535.888,-74.1325 520,-58 489.931,-27.4676 439.994,-17.1213 406.547,-13.6618"/>
<polygon fill="midnightblue" stroke="midnightblue" points="406.581,-10.1514 396.313,-12.7637 405.969,-17.1246 406.581,-10.1514"/>
</g>
<!-- Node16 -->
<g id="node16" class="node"><title>Node16</title>
<polygon fill="none" stroke="#bfbfbf" points="567.544,-59 567.544,-79 632.456,-79 632.456,-59 567.544,-59"/>
<text text-anchor="middle" x="600" y="-65" font-family="Helvetica,sans-Serif" font-size="10.00">sys/reent.h</text>
</g>
<!-- Node15&#45;&gt;Node16 -->
<g id="edge19" class="edge"><title>Node15&#45;&gt;Node16</title>
<path fill="none" stroke="midnightblue" d="M549.908,-116.753C558.82,-108.435 572.11,-96.031 582.762,-86.0893"/>
<polygon fill="midnightblue" stroke="midnightblue" points="585.354,-88.4571 590.277,-79.0752 580.578,-83.3397 585.354,-88.4571"/>
</g>
</g>
</svg>
