<?xml version="1.0" encoding="UTF-8" standalone="no"?>
<!DOCTYPE svg PUBLIC "-//W3C//DTD SVG 1.1//EN"
 "http://www.w3.org/Graphics/SVG/1.1/DTD/svg11.dtd">
<!-- Generated by graphviz version 2.34.0 (20130907.0228)
 -->
<!-- Title: /Users/tgil/git/CoActionOS/CoActionOS/include/dev/sys.h Pages: 1 -->
<svg width="179pt" height="170pt"
 viewBox="0.00 0.00 179.00 170.00" xmlns="http://www.w3.org/2000/svg" xmlns:xlink="http://www.w3.org/1999/xlink">
<g id="graph0" class="graph" transform="scale(1 1) rotate(0) translate(4 166)">
<title>/Users/tgil/git/CoActionOS/CoActionOS/include/dev/sys.h</title>
<!-- Node1 -->
<g id="node1" class="node"><title>Node1</title>
<polygon fill="#bfbfbf" stroke="black" points="-0.359375,-117 -0.359375,-161 122.359,-161 122.359,-117 -0.359375,-117"/>
<text text-anchor="start" x="7.64062" y="-147" font-family="Helvetica,sans-Serif" font-size="10.00">/Users/tgil/git/CoAction</text>
<text text-anchor="start" x="7.64062" y="-135" font-family="Helvetica,sans-Serif" font-size="10.00">OS/CoActionOS/include</text>
<text text-anchor="middle" x="61" y="-123" font-family="Helvetica,sans-Serif" font-size="10.00">/dev/sys.h</text>
</g>
<!-- Node2 -->
<g id="node2" class="node"><title>Node2</title>
<polygon fill="none" stroke="#bfbfbf" points="14.8794,-1 14.8794,-21 63.1206,-21 63.1206,-1 14.8794,-1"/>
<text text-anchor="middle" x="39" y="-7" font-family="Helvetica,sans-Serif" font-size="10.00">stdint.h</text>
</g>
<!-- Node1&#45;&gt;Node2 -->
<g id="edge1" class="edge"><title>Node1&#45;&gt;Node2</title>
<path fill="none" stroke="midnightblue" d="M47.0028,-116.94C40.7835,-106.336 34.1626,-92.9981 31,-80 27.0529,-63.7777 29.845,-44.8872 33.1696,-31.1393"/>
<polygon fill="midnightblue" stroke="midnightblue" points="36.5806,-31.934 35.8314,-21.3656 29.8266,-30.0945 36.5806,-31.934"/>
</g>
<!-- Node3 -->
<g id="node3" class="node"><title>Node3</title>
<g id="a_node3"><a xlink:href="ioctl_8h_source.html" target="_top" xlink:title="ioctl.h">
<polygon fill="none" stroke="black" points="39.9385,-59 39.9385,-79 82.0615,-79 82.0615,-59 39.9385,-59"/>
<text text-anchor="middle" x="61" y="-65" font-family="Helvetica,sans-Serif" font-size="10.00">ioctl.h</text>
</a>
</g>
</g>
<!-- Node1&#45;&gt;Node3 -->
<g id="edge2" class="edge"><title>Node1&#45;&gt;Node3</title>
<path fill="none" stroke="midnightblue" d="M61,-116.857C61,-108.074 61,-97.9484 61,-89.3622"/>
<polygon fill="midnightblue" stroke="midnightblue" points="64.5001,-89.2039 61,-79.2039 57.5001,-89.204 64.5001,-89.2039"/>
</g>
<!-- Node4 -->
<g id="node4" class="node"><title>Node4</title>
<g id="a_node4"><a xlink:href="types_8h_source.html" target="_top" xlink:title="hwpl/types.h">
<polygon fill="none" stroke="black" points="100.207,-59 100.207,-79 171.793,-79 171.793,-59 100.207,-59"/>
<text text-anchor="middle" x="136" y="-65" font-family="Helvetica,sans-Serif" font-size="10.00">hwpl/types.h</text>
</a>
</g>
</g>
<!-- Node1&#45;&gt;Node4 -->
<g id="edge3" class="edge"><title>Node1&#45;&gt;Node4</title>
<path fill="none" stroke="midnightblue" d="M84.3193,-116.857C95.3128,-106.89 108.213,-95.1935 118.375,-85.9801"/>
<polygon fill="midnightblue" stroke="midnightblue" points="120.791,-88.5138 125.849,-79.2039 116.089,-83.3279 120.791,-88.5138"/>
</g>
<!-- Node4&#45;&gt;Node2 -->
<g id="edge4" class="edge"><title>Node4&#45;&gt;Node2</title>
<path fill="none" stroke="midnightblue" d="M119.982,-58.7527C104.586,-49.8641 81.107,-36.3092 63.3874,-26.0793"/>
<polygon fill="midnightblue" stroke="midnightblue" points="65.1299,-23.0439 54.7195,-21.0752 61.63,-29.1062 65.1299,-23.0439"/>
</g>
<!-- Node5 -->
<g id="node5" class="node"><title>Node5</title>
<polygon fill="none" stroke="#bfbfbf" points="107.707,-1 107.707,-21 164.293,-21 164.293,-1 107.707,-1"/>
<text text-anchor="middle" x="136" y="-7" font-family="Helvetica,sans-Serif" font-size="10.00">stdbool.h</text>
</g>
<!-- Node4&#45;&gt;Node5 -->
<g id="edge5" class="edge"><title>Node4&#45;&gt;Node5</title>
<path fill="none" stroke="midnightblue" d="M136,-58.7527C136,-51.2504 136,-40.4238 136,-31.0781"/>
<polygon fill="midnightblue" stroke="midnightblue" points="139.5,-31.0752 136,-21.0752 132.5,-31.0752 139.5,-31.0752"/>
</g>
</g>
</svg>
