<?xml version="1.0" encoding="UTF-8" standalone="no"?>
<!DOCTYPE svg PUBLIC "-//W3C//DTD SVG 1.1//EN"
 "http://www.w3.org/Graphics/SVG/1.1/DTD/svg11.dtd">
<!-- Generated by graphviz version 2.34.0 (20130907.0228)
 -->
<!-- Title: /Users/tgil/git/CoActionOS/CoActionOS/include/dev/tmr.h Pages: 1 -->
<svg width="130pt" height="218pt"
 viewBox="0.00 0.00 130.00 218.00" xmlns="http://www.w3.org/2000/svg" xmlns:xlink="http://www.w3.org/1999/xlink">
<g id="graph0" class="graph" transform="scale(1 1) rotate(0) translate(4 214)">
<title>/Users/tgil/git/CoActionOS/CoActionOS/include/dev/tmr.h</title>
<!-- Node1 -->
<g id="node1" class="node"><title>Node1</title>
<polygon fill="#bfbfbf" stroke="black" points="-0.359375,-165 -0.359375,-209 122.359,-209 122.359,-165 -0.359375,-165"/>
<text text-anchor="start" x="7.64062" y="-195" font-family="Helvetica,sans-Serif" font-size="10.00">/Users/tgil/git/CoAction</text>
<text text-anchor="start" x="7.64062" y="-183" font-family="Helvetica,sans-Serif" font-size="10.00">OS/CoActionOS/include</text>
<text text-anchor="middle" x="61" y="-171" font-family="Helvetica,sans-Serif" font-size="10.00">/dev/tmr.h</text>
</g>
<!-- Node2 -->
<g id="node2" class="node"><title>Node2</title>
<g id="a_node2"><a xlink:href="link__protocol_8h.html" target="_top" xlink:title="USB Link Protocol Header File. ">
<polygon fill="none" stroke="black" points="-0.359375,-83 -0.359375,-127 122.359,-127 122.359,-83 -0.359375,-83"/>
<text text-anchor="start" x="7.64062" y="-113" font-family="Helvetica,sans-Serif" font-size="10.00">/Users/tgil/git/CoAction</text>
<text text-anchor="start" x="7.64062" y="-101" font-family="Helvetica,sans-Serif" font-size="10.00">OS/CoActionOS/include</text>
<text text-anchor="middle" x="61" y="-89" font-family="Helvetica,sans-Serif" font-size="10.00">/link_protocol.h</text>
</a>
</g>
</g>
<!-- Node1&#45;&gt;Node2 -->
<g id="edge1" class="edge"><title>Node1&#45;&gt;Node2</title>
<path fill="none" stroke="midnightblue" d="M61,-154.896C61,-145.609 61,-135.649 61,-127.156"/>
<polygon fill="midnightblue" stroke="midnightblue" points="57.5001,-154.981 61,-164.981 64.5001,-154.981 57.5001,-154.981"/>
</g>
<!-- Node3 -->
<g id="node3" class="node"><title>Node3</title>
<g id="a_node3"><a xlink:href="link_8h.html" target="_top" xlink:title="/Users/tgil/git/CoAction\lOS/CoActionOS/include\l/link.h">
<polygon fill="none" stroke="black" points="-0.359375,-1 -0.359375,-45 122.359,-45 122.359,-1 -0.359375,-1"/>
<text text-anchor="start" x="7.64062" y="-31" font-family="Helvetica,sans-Serif" font-size="10.00">/Users/tgil/git/CoAction</text>
<text text-anchor="start" x="7.64062" y="-19" font-family="Helvetica,sans-Serif" font-size="10.00">OS/CoActionOS/include</text>
<text text-anchor="middle" x="61" y="-7" font-family="Helvetica,sans-Serif" font-size="10.00">/link.h</text>
</a>
</g>
</g>
<!-- Node2&#45;&gt;Node3 -->
<g id="edge2" class="edge"><title>Node2&#45;&gt;Node3</title>
<path fill="none" stroke="midnightblue" d="M61,-72.8963C61,-63.6094 61,-53.6485 61,-45.1564"/>
<polygon fill="midnightblue" stroke="midnightblue" points="57.5001,-72.9809 61,-82.9809 64.5001,-72.981 57.5001,-72.9809"/>
</g>
</g>
</svg>
